G04 #@! TF.FileFunction,Legend,Top*
%FSLAX46Y46*%
G04 Gerber Fmt 4.6, Leading zero omitted, Abs format (unit mm)*
G04 Created by KiCad (PCBNEW 4.0.5+dfsg1-4) date Sun Jul  1 21:39:04 2018*
%MOMM*%
%LPD*%
G01*
G04 APERTURE LIST*
%ADD10C,0.100000*%
%ADD11C,0.300000*%
%ADD12C,0.250000*%
%ADD13C,0.150000*%
G04 APERTURE END LIST*
D10*
D11*
X88177143Y-138778571D02*
X88177143Y-137278571D01*
X88534286Y-137278571D01*
X88748571Y-137350000D01*
X88891429Y-137492857D01*
X88962857Y-137635714D01*
X89034286Y-137921429D01*
X89034286Y-138135714D01*
X88962857Y-138421429D01*
X88891429Y-138564286D01*
X88748571Y-138707143D01*
X88534286Y-138778571D01*
X88177143Y-138778571D01*
X87998572Y-142858571D02*
X89141429Y-143287143D01*
X87998572Y-143715714D01*
X89141429Y-140318571D02*
X87998572Y-140747143D01*
X89141429Y-141175714D01*
D12*
X88189048Y-145791429D02*
X88950953Y-145791429D01*
X111049048Y-150871429D02*
X111810953Y-150871429D01*
X111049048Y-153411429D02*
X111810953Y-153411429D01*
X111430001Y-153792381D02*
X111430001Y-153030476D01*
D13*
X89840000Y-139370000D02*
X89840000Y-146990000D01*
X92380000Y-139370000D02*
X92380000Y-146990000D01*
X92660000Y-136550000D02*
X92660000Y-138100000D01*
X89840000Y-146990000D02*
X92380000Y-146990000D01*
X92380000Y-139370000D02*
X89840000Y-139370000D01*
X89560000Y-138100000D02*
X89560000Y-136550000D01*
X89560000Y-136550000D02*
X92660000Y-136550000D01*
X116000000Y-101000000D02*
X117000000Y-101000000D01*
X117000000Y-101000000D02*
X117000000Y-99000000D01*
X117000000Y-99000000D02*
X116000000Y-99000000D01*
X84000000Y-116000000D02*
X116000000Y-116000000D01*
X116000000Y-116000000D02*
X116000000Y-84000000D01*
X116000000Y-84000000D02*
X84000000Y-84000000D01*
X84000000Y-84000000D02*
X84000000Y-116000000D01*
X96325000Y-118025000D02*
X96325000Y-119295000D01*
X103675000Y-118025000D02*
X103675000Y-119295000D01*
X103675000Y-155635000D02*
X103675000Y-154365000D01*
X96325000Y-155635000D02*
X96325000Y-154365000D01*
X96325000Y-118025000D02*
X103675000Y-118025000D01*
X96325000Y-155635000D02*
X103675000Y-155635000D01*
X96325000Y-119295000D02*
X95040000Y-119295000D01*
X123320000Y-98000000D02*
X123320000Y-102000000D01*
X117320000Y-98000000D02*
X117320000Y-102000000D01*
X121320000Y-103000000D02*
X119320000Y-103000000D01*
X121320000Y-97000000D02*
X119320000Y-97000000D01*
X76680000Y-102000000D02*
X76680000Y-98000000D01*
X82680000Y-102000000D02*
X82680000Y-98000000D01*
X78680000Y-97000000D02*
X80680000Y-97000000D01*
X78680000Y-103000000D02*
X80680000Y-103000000D01*
X92380000Y-120320000D02*
X92380000Y-125400000D01*
X92380000Y-125400000D02*
X89840000Y-125400000D01*
X89840000Y-125400000D02*
X89840000Y-120320000D01*
X89840000Y-120320000D02*
X92380000Y-120320000D01*
X101270000Y-157730000D02*
X96190000Y-157730000D01*
X104090000Y-157450000D02*
X104090000Y-159000000D01*
X103810000Y-160270000D02*
X101270000Y-160270000D01*
X101270000Y-160270000D02*
X101270000Y-157730000D01*
X96190000Y-157730000D02*
X96190000Y-162810000D01*
X96190000Y-162810000D02*
X101270000Y-162810000D01*
X104090000Y-157450000D02*
X102540000Y-157450000D01*
X103810000Y-162810000D02*
X103810000Y-160270000D01*
X101270000Y-162810000D02*
X103810000Y-162810000D01*
X107620000Y-152070000D02*
X107620000Y-149530000D01*
X107340000Y-154890000D02*
X107340000Y-153340000D01*
X107620000Y-152070000D02*
X110160000Y-152070000D01*
X110440000Y-153340000D02*
X110440000Y-154890000D01*
X110440000Y-154890000D02*
X107340000Y-154890000D01*
X110160000Y-152070000D02*
X110160000Y-149530000D01*
X110160000Y-149530000D02*
X107620000Y-149530000D01*
X106391000Y-143125000D02*
X111389000Y-143125000D01*
X106399000Y-142985000D02*
X111381000Y-142985000D01*
X106415000Y-142845000D02*
X108795000Y-142845000D01*
X108985000Y-142845000D02*
X111365000Y-142845000D01*
X106439000Y-142705000D02*
X108400000Y-142705000D01*
X109380000Y-142705000D02*
X111341000Y-142705000D01*
X106472000Y-142565000D02*
X108233000Y-142565000D01*
X109547000Y-142565000D02*
X111308000Y-142565000D01*
X106513000Y-142425000D02*
X108126000Y-142425000D01*
X109654000Y-142425000D02*
X111267000Y-142425000D01*
X106563000Y-142285000D02*
X108055000Y-142285000D01*
X109725000Y-142285000D02*
X111217000Y-142285000D01*
X106624000Y-142145000D02*
X108011000Y-142145000D01*
X109769000Y-142145000D02*
X111156000Y-142145000D01*
X106694000Y-142005000D02*
X107992000Y-142005000D01*
X109788000Y-142005000D02*
X111086000Y-142005000D01*
X106776000Y-141865000D02*
X107994000Y-141865000D01*
X109786000Y-141865000D02*
X111004000Y-141865000D01*
X106871000Y-141725000D02*
X108019000Y-141725000D01*
X109761000Y-141725000D02*
X110909000Y-141725000D01*
X106982000Y-141585000D02*
X108067000Y-141585000D01*
X109713000Y-141585000D02*
X110798000Y-141585000D01*
X107110000Y-141445000D02*
X108145000Y-141445000D01*
X109635000Y-141445000D02*
X110670000Y-141445000D01*
X107259000Y-141305000D02*
X108262000Y-141305000D01*
X109518000Y-141305000D02*
X110521000Y-141305000D01*
X107438000Y-141165000D02*
X108450000Y-141165000D01*
X109330000Y-141165000D02*
X110342000Y-141165000D01*
X107657000Y-141025000D02*
X110123000Y-141025000D01*
X107946000Y-140885000D02*
X109834000Y-140885000D01*
X108418000Y-140745000D02*
X109362000Y-140745000D01*
X109790000Y-141950000D02*
G75*
G03X109790000Y-141950000I-900000J0D01*
G01*
X111427500Y-143200000D02*
G75*
G03X111427500Y-143200000I-2537500J0D01*
G01*
X89860000Y-131960000D02*
X89860000Y-128960000D01*
X92360000Y-128960000D02*
X92360000Y-131960000D01*
X107640000Y-138350000D02*
X107640000Y-135350000D01*
X110140000Y-135350000D02*
X110140000Y-138350000D01*
X89108618Y-148044013D02*
X89108618Y-148853537D01*
X89156237Y-148948775D01*
X89203856Y-148996394D01*
X89299094Y-149044013D01*
X89489571Y-149044013D01*
X89584809Y-148996394D01*
X89632428Y-148948775D01*
X89680047Y-148853537D01*
X89680047Y-148044013D01*
X90108618Y-148758299D02*
X90584809Y-148758299D01*
X90013380Y-149044013D02*
X90346713Y-148044013D01*
X90680047Y-149044013D01*
X91584809Y-149044013D02*
X91251475Y-148567822D01*
X91013380Y-149044013D02*
X91013380Y-148044013D01*
X91394333Y-148044013D01*
X91489571Y-148091632D01*
X91537190Y-148139251D01*
X91584809Y-148234489D01*
X91584809Y-148377346D01*
X91537190Y-148472584D01*
X91489571Y-148520203D01*
X91394333Y-148567822D01*
X91013380Y-148567822D01*
X91870523Y-148044013D02*
X92441952Y-148044013D01*
X92156237Y-149044013D02*
X92156237Y-148044013D01*
X84021905Y-117470381D02*
X84021905Y-116470381D01*
X84260000Y-116470381D01*
X84402858Y-116518000D01*
X84498096Y-116613238D01*
X84545715Y-116708476D01*
X84593334Y-116898952D01*
X84593334Y-117041810D01*
X84545715Y-117232286D01*
X84498096Y-117327524D01*
X84402858Y-117422762D01*
X84260000Y-117470381D01*
X84021905Y-117470381D01*
X85545715Y-117470381D02*
X84974286Y-117470381D01*
X85260000Y-117470381D02*
X85260000Y-116470381D01*
X85164762Y-116613238D01*
X85069524Y-116708476D01*
X84974286Y-116756095D01*
X99023810Y-117279881D02*
X99023810Y-116279881D01*
X100071429Y-117184643D02*
X100023810Y-117232262D01*
X99880953Y-117279881D01*
X99785715Y-117279881D01*
X99642857Y-117232262D01*
X99547619Y-117137024D01*
X99500000Y-117041786D01*
X99452381Y-116851310D01*
X99452381Y-116708452D01*
X99500000Y-116517976D01*
X99547619Y-116422738D01*
X99642857Y-116327500D01*
X99785715Y-116279881D01*
X99880953Y-116279881D01*
X100023810Y-116327500D01*
X100071429Y-116375119D01*
X101023810Y-117279881D02*
X100452381Y-117279881D01*
X100738095Y-117279881D02*
X100738095Y-116279881D01*
X100642857Y-116422738D01*
X100547619Y-116517976D01*
X100452381Y-116565595D01*
X118986667Y-105484762D02*
X119129524Y-105532381D01*
X119367620Y-105532381D01*
X119462858Y-105484762D01*
X119510477Y-105437143D01*
X119558096Y-105341905D01*
X119558096Y-105246667D01*
X119510477Y-105151429D01*
X119462858Y-105103810D01*
X119367620Y-105056190D01*
X119177143Y-105008571D01*
X119081905Y-104960952D01*
X119034286Y-104913333D01*
X118986667Y-104818095D01*
X118986667Y-104722857D01*
X119034286Y-104627619D01*
X119081905Y-104580000D01*
X119177143Y-104532381D01*
X119415239Y-104532381D01*
X119558096Y-104580000D01*
X119891429Y-104532381D02*
X120129524Y-105532381D01*
X120320001Y-104818095D01*
X120510477Y-105532381D01*
X120748572Y-104532381D01*
X121081905Y-104627619D02*
X121129524Y-104580000D01*
X121224762Y-104532381D01*
X121462858Y-104532381D01*
X121558096Y-104580000D01*
X121605715Y-104627619D01*
X121653334Y-104722857D01*
X121653334Y-104818095D01*
X121605715Y-104960952D01*
X121034286Y-105532381D01*
X121653334Y-105532381D01*
X78346667Y-105484762D02*
X78489524Y-105532381D01*
X78727620Y-105532381D01*
X78822858Y-105484762D01*
X78870477Y-105437143D01*
X78918096Y-105341905D01*
X78918096Y-105246667D01*
X78870477Y-105151429D01*
X78822858Y-105103810D01*
X78727620Y-105056190D01*
X78537143Y-105008571D01*
X78441905Y-104960952D01*
X78394286Y-104913333D01*
X78346667Y-104818095D01*
X78346667Y-104722857D01*
X78394286Y-104627619D01*
X78441905Y-104580000D01*
X78537143Y-104532381D01*
X78775239Y-104532381D01*
X78918096Y-104580000D01*
X79251429Y-104532381D02*
X79489524Y-105532381D01*
X79680001Y-104818095D01*
X79870477Y-105532381D01*
X80108572Y-104532381D01*
X81013334Y-105532381D02*
X80441905Y-105532381D01*
X80727619Y-105532381D02*
X80727619Y-104532381D01*
X80632381Y-104675238D01*
X80537143Y-104770476D01*
X80441905Y-104818095D01*
X93992381Y-123626666D02*
X93516190Y-123960000D01*
X93992381Y-124198095D02*
X92992381Y-124198095D01*
X92992381Y-123817142D01*
X93040000Y-123721904D01*
X93087619Y-123674285D01*
X93182857Y-123626666D01*
X93325714Y-123626666D01*
X93420952Y-123674285D01*
X93468571Y-123721904D01*
X93516190Y-123817142D01*
X93516190Y-124198095D01*
X93992381Y-122674285D02*
X93992381Y-123245714D01*
X93992381Y-122960000D02*
X92992381Y-122960000D01*
X93135238Y-123055238D01*
X93230476Y-123150476D01*
X93278095Y-123245714D01*
X93308810Y-160777381D02*
X93308810Y-159777381D01*
X93737381Y-160729762D02*
X93880238Y-160777381D01*
X94118334Y-160777381D01*
X94213572Y-160729762D01*
X94261191Y-160682143D01*
X94308810Y-160586905D01*
X94308810Y-160491667D01*
X94261191Y-160396429D01*
X94213572Y-160348810D01*
X94118334Y-160301190D01*
X93927857Y-160253571D01*
X93832619Y-160205952D01*
X93785000Y-160158333D01*
X93737381Y-160063095D01*
X93737381Y-159967857D01*
X93785000Y-159872619D01*
X93832619Y-159825000D01*
X93927857Y-159777381D01*
X94165953Y-159777381D01*
X94308810Y-159825000D01*
X94737381Y-160777381D02*
X94737381Y-159777381D01*
X95118334Y-159777381D01*
X95213572Y-159825000D01*
X95261191Y-159872619D01*
X95308810Y-159967857D01*
X95308810Y-160110714D01*
X95261191Y-160205952D01*
X95213572Y-160253571D01*
X95118334Y-160301190D01*
X94737381Y-160301190D01*
X111469643Y-146585166D02*
X111517262Y-146632785D01*
X111564881Y-146775642D01*
X111564881Y-146870880D01*
X111517262Y-147013738D01*
X111422024Y-147108976D01*
X111326786Y-147156595D01*
X111136310Y-147204214D01*
X110993452Y-147204214D01*
X110802976Y-147156595D01*
X110707738Y-147108976D01*
X110612500Y-147013738D01*
X110564881Y-146870880D01*
X110564881Y-146775642D01*
X110612500Y-146632785D01*
X110660119Y-146585166D01*
X111564881Y-145632785D02*
X111564881Y-146204214D01*
X111564881Y-145918500D02*
X110564881Y-145918500D01*
X110707738Y-146013738D01*
X110802976Y-146108976D01*
X110850595Y-146204214D01*
X89244643Y-130646666D02*
X89292262Y-130694285D01*
X89339881Y-130837142D01*
X89339881Y-130932380D01*
X89292262Y-131075238D01*
X89197024Y-131170476D01*
X89101786Y-131218095D01*
X88911310Y-131265714D01*
X88768452Y-131265714D01*
X88577976Y-131218095D01*
X88482738Y-131170476D01*
X88387500Y-131075238D01*
X88339881Y-130932380D01*
X88339881Y-130837142D01*
X88387500Y-130694285D01*
X88435119Y-130646666D01*
X88339881Y-130313333D02*
X88339881Y-129694285D01*
X88720833Y-130027619D01*
X88720833Y-129884761D01*
X88768452Y-129789523D01*
X88816071Y-129741904D01*
X88911310Y-129694285D01*
X89149405Y-129694285D01*
X89244643Y-129741904D01*
X89292262Y-129789523D01*
X89339881Y-129884761D01*
X89339881Y-130170476D01*
X89292262Y-130265714D01*
X89244643Y-130313333D01*
X107088143Y-136933166D02*
X107135762Y-136980785D01*
X107183381Y-137123642D01*
X107183381Y-137218880D01*
X107135762Y-137361738D01*
X107040524Y-137456976D01*
X106945286Y-137504595D01*
X106754810Y-137552214D01*
X106611952Y-137552214D01*
X106421476Y-137504595D01*
X106326238Y-137456976D01*
X106231000Y-137361738D01*
X106183381Y-137218880D01*
X106183381Y-137123642D01*
X106231000Y-136980785D01*
X106278619Y-136933166D01*
X106278619Y-136552214D02*
X106231000Y-136504595D01*
X106183381Y-136409357D01*
X106183381Y-136171261D01*
X106231000Y-136076023D01*
X106278619Y-136028404D01*
X106373857Y-135980785D01*
X106469095Y-135980785D01*
X106611952Y-136028404D01*
X107183381Y-136599833D01*
X107183381Y-135980785D01*
M02*
