M48
;DRILL file {KiCad 4.0.5+dfsg1-4} date Sun Jul  1 21:39:20 2018
;FORMAT={3:3/ absolute / metric / suppress leading zeros}
FMAT,2
METRIC,TZ
T1C0.400
T2C0.800
T3C0.800
T4C1.000
T5C1.001
T6C1.016
T7C1.850
T8C5.300
%
G90
G05
M71
T1
X92380Y-91110
X92380Y-92380
X92380Y-105080
X94920Y-111430
X97460Y-94920
X97460Y-108128
X100000Y-100000
X100000Y-103810
X102540Y-102540
X102540Y-106858
X103810Y-101270
X103810Y-109398
X106350Y-96190
X106350Y-105080
X108890Y-93650
X108890Y-98730
T2
X91110Y-131710
X96190Y-120320
X96190Y-122860
X96190Y-125400
X96190Y-127940
X96190Y-130480
X96190Y-133020
X96190Y-135560
X96190Y-138100
X96190Y-140640
X96190Y-143180
X96190Y-145720
X96190Y-148260
X96190Y-150800
X96190Y-153340
X103810Y-120320
X103810Y-122860
X103810Y-125400
X103810Y-127940
X103810Y-130480
X103810Y-133020
X103810Y-135560
X103810Y-138100
X103810Y-140640
X103810Y-143180
X103810Y-145720
X103810Y-148260
X103810Y-150800
X103810Y-153340
X108890Y-138100
X108890Y-141950
X108890Y-144450
T3
X91110Y-129210
X108890Y-135600
T4
X77430Y-96750
X77430Y-103250
X81930Y-96750
X81930Y-103250
X88000Y-91110
X88000Y-93650
X88000Y-96190
X88000Y-98730
X88000Y-101270
X88000Y-103810
X88000Y-106350
X88000Y-108890
X112000Y-91110
X112000Y-93650
X112000Y-96190
X112000Y-98730
X112000Y-101270
X112000Y-103810
X112000Y-106350
X112000Y-108890
X118070Y-96750
X118070Y-103250
X122570Y-96750
X122570Y-103250
T5
X91110Y-119050
X91110Y-126670
T6
X91110Y-138100
X91110Y-140640
X91110Y-143180
X91110Y-145720
X97460Y-159000
X97460Y-161540
X100000Y-159000
X100000Y-161540
X102540Y-159000
X102540Y-161540
X108890Y-150800
X108890Y-153340
T7
X89575Y-87300
X110425Y-87300
T8
X100000Y-72500
T0
M30
