G04 #@! TF.FileFunction,Copper,L1,Top,Signal*
%FSLAX46Y46*%
G04 Gerber Fmt 4.6, Leading zero omitted, Abs format (unit mm)*
G04 Created by KiCad (PCBNEW 4.0.5+dfsg1-4) date Sun Jul  1 21:39:04 2018*
%MOMM*%
%LPD*%
G01*
G04 APERTURE LIST*
%ADD10C,0.100000*%
%ADD11R,2.032000X1.727200*%
%ADD12O,2.032000X1.727200*%
%ADD13C,1.500000*%
%ADD14O,2.300000X1.600000*%
%ADD15C,1.998980*%
%ADD16R,1.727200X1.727200*%
%ADD17O,1.727200X1.727200*%
%ADD18R,2.032000X2.032000*%
%ADD19O,2.032000X2.032000*%
%ADD20R,1.300000X1.300000*%
%ADD21C,1.300000*%
%ADD22C,2.800000*%
%ADD23C,9.200000*%
%ADD24C,0.600000*%
%ADD25C,0.910000*%
%ADD26C,0.304800*%
%ADD27C,0.350000*%
%ADD28C,0.254000*%
G04 APERTURE END LIST*
D10*
D11*
X91110000Y-138100000D03*
D12*
X91110000Y-140640000D03*
X91110000Y-143180000D03*
X91110000Y-145720000D03*
D13*
X112000000Y-108890000D03*
X112000000Y-106350000D03*
X112000000Y-103810000D03*
X112000000Y-101270000D03*
X112000000Y-98730000D03*
X112000000Y-96190000D03*
X112000000Y-93650000D03*
X112000000Y-91110000D03*
X88000000Y-91110000D03*
X88000000Y-93650000D03*
X88000000Y-96190000D03*
X88000000Y-98730000D03*
X88000000Y-101270000D03*
X88000000Y-103810000D03*
X88000000Y-106350000D03*
X88000000Y-108890000D03*
D14*
X96190000Y-120320000D03*
X96190000Y-122860000D03*
X96190000Y-125400000D03*
X96190000Y-127940000D03*
X96190000Y-130480000D03*
X96190000Y-133020000D03*
X96190000Y-135560000D03*
X96190000Y-138100000D03*
X96190000Y-140640000D03*
X96190000Y-143180000D03*
X96190000Y-145720000D03*
X96190000Y-148260000D03*
X96190000Y-150800000D03*
X96190000Y-153340000D03*
X103810000Y-153340000D03*
X103810000Y-150800000D03*
X103810000Y-148260000D03*
X103810000Y-145720000D03*
X103810000Y-143180000D03*
X103810000Y-140640000D03*
X103810000Y-138100000D03*
X103810000Y-135560000D03*
X103810000Y-133020000D03*
X103810000Y-130480000D03*
X103810000Y-127940000D03*
X103810000Y-125400000D03*
X103810000Y-122860000D03*
X103810000Y-120320000D03*
D13*
X118070000Y-96750000D03*
X122570000Y-96750000D03*
X118070000Y-103250000D03*
X122570000Y-103250000D03*
X81930000Y-103250000D03*
X77430000Y-103250000D03*
X81930000Y-96750000D03*
X77430000Y-96750000D03*
D15*
X91110000Y-119050000D03*
X91110000Y-126670000D03*
D16*
X102540000Y-159000000D03*
D17*
X102540000Y-161540000D03*
X100000000Y-159000000D03*
X100000000Y-161540000D03*
X97460000Y-159000000D03*
X97460000Y-161540000D03*
D18*
X108890000Y-153340000D03*
D19*
X108890000Y-150800000D03*
D20*
X108890000Y-144450000D03*
D21*
X108890000Y-141950000D03*
D20*
X91110000Y-131710000D03*
D21*
X91110000Y-129210000D03*
D20*
X108890000Y-138100000D03*
D21*
X108890000Y-135600000D03*
D22*
X110425000Y-87300000D03*
X89575000Y-87300000D03*
D23*
X100000000Y-72500000D03*
D24*
X94920000Y-111430000D03*
X97460000Y-108128000D03*
X106350000Y-105080000D03*
X100000000Y-100000000D03*
X108890000Y-98730000D03*
X97460000Y-94920000D03*
X92380000Y-92380000D03*
X92380000Y-91110000D03*
X108890000Y-93650000D03*
X106350000Y-96190000D03*
X103810000Y-101270000D03*
X92380000Y-105080000D03*
X102540000Y-106858000D03*
X103810000Y-109398000D03*
X100000000Y-103810000D03*
X102540000Y-102540000D03*
D25*
X91110000Y-119050000D02*
X88062000Y-119050000D01*
X88062000Y-119050000D02*
X84760000Y-115748000D01*
X89575000Y-87300000D02*
X110425000Y-87300000D01*
X84760000Y-89840000D02*
X87300000Y-87300000D01*
X84760000Y-115748000D02*
X84760000Y-89840000D01*
X87300000Y-87300000D02*
X89575000Y-87300000D01*
D26*
X91110000Y-129210000D02*
X91110000Y-126670000D01*
X92634000Y-153594000D02*
X92634000Y-130734000D01*
X92634000Y-130734000D02*
X91110000Y-129210000D01*
X100000000Y-159000000D02*
X100000000Y-157150000D01*
X94920000Y-155880000D02*
X92634000Y-153594000D01*
X100000000Y-157150000D02*
X98730000Y-155880000D01*
X98730000Y-155880000D02*
X94920000Y-155880000D01*
X96190000Y-148260000D02*
X96540000Y-148260000D01*
X96540000Y-148260000D02*
X97714000Y-147086000D01*
X94920000Y-112700000D02*
X94920000Y-111430000D01*
X97714000Y-147086000D02*
X97714000Y-115494000D01*
X97714000Y-115494000D02*
X94920000Y-112700000D01*
X97460000Y-108128000D02*
X97460000Y-112700000D01*
X97460000Y-112700000D02*
X98730000Y-113970000D01*
X98730000Y-113970000D02*
X98730000Y-152254800D01*
X98730000Y-152254800D02*
X97644800Y-153340000D01*
X97644800Y-153340000D02*
X96190000Y-153340000D01*
D27*
X96190000Y-153340000D02*
X96540000Y-153340000D01*
D26*
X103810000Y-130480000D02*
X103460000Y-130480000D01*
X103460000Y-130480000D02*
X102286000Y-129306000D01*
X106350000Y-105080000D02*
X106350000Y-112700000D01*
X106350000Y-112700000D02*
X102286000Y-116764000D01*
X102286000Y-116764000D02*
X102286000Y-129306000D01*
X103810000Y-127940000D02*
X105264800Y-127940000D01*
X105264800Y-127940000D02*
X106350000Y-126854800D01*
X106350000Y-126854800D02*
X106350000Y-117272000D01*
X106350000Y-117272000D02*
X113462000Y-110160000D01*
X113462000Y-110160000D02*
X113462000Y-102732000D01*
X113462000Y-102732000D02*
X112000000Y-101270000D01*
X103810000Y-153340000D02*
X102286000Y-153340000D01*
X102286000Y-153340000D02*
X99238000Y-150292000D01*
X99238000Y-150292000D02*
X99238000Y-113208000D01*
X99238000Y-113208000D02*
X98730000Y-112700000D01*
X98730000Y-112700000D02*
X98730000Y-101270000D01*
X98730000Y-101270000D02*
X100000000Y-100000000D01*
X103810000Y-153340000D02*
X103460000Y-153340000D01*
X108890000Y-98730000D02*
X108890000Y-112700000D01*
X108890000Y-112700000D02*
X105334000Y-116256000D01*
X105334000Y-116256000D02*
X105334000Y-121686000D01*
X105334000Y-121686000D02*
X104160000Y-122860000D01*
X104160000Y-122860000D02*
X103810000Y-122860000D01*
X96190000Y-150800000D02*
X97644800Y-150800000D01*
X97644800Y-150800000D02*
X98222000Y-150222800D01*
X98222000Y-150222800D02*
X98222000Y-114732000D01*
X96190000Y-112700000D02*
X96190000Y-96190000D01*
X98222000Y-114732000D02*
X96190000Y-112700000D01*
X96190000Y-96190000D02*
X97460000Y-94920000D01*
X92380000Y-92380000D02*
X91110000Y-93650000D01*
X91110000Y-93650000D02*
X91110000Y-112700000D01*
X93650000Y-131934800D02*
X94735200Y-133020000D01*
X91110000Y-112700000D02*
X93650000Y-115240000D01*
X93650000Y-115240000D02*
X93650000Y-131934800D01*
X94735200Y-133020000D02*
X96190000Y-133020000D01*
X96190000Y-133020000D02*
X96190000Y-132417327D01*
X96190000Y-133020000D02*
X95840000Y-133020000D01*
D27*
X96190000Y-133020000D02*
X96190000Y-132449288D01*
D26*
X96190000Y-127940000D02*
X95840000Y-127940000D01*
X95840000Y-127940000D02*
X94666000Y-126766000D01*
X94666000Y-126766000D02*
X94666000Y-113716000D01*
X94666000Y-113716000D02*
X93650000Y-112700000D01*
X93650000Y-92380000D02*
X92380000Y-91110000D01*
X93650000Y-112700000D02*
X93650000Y-92380000D01*
X108890000Y-93650000D02*
X110160000Y-94920000D01*
X110160000Y-94920000D02*
X110160000Y-112700000D01*
X110160000Y-112700000D02*
X105842000Y-117018000D01*
X105842000Y-117018000D02*
X105842000Y-124892000D01*
X105842000Y-124892000D02*
X105334000Y-125400000D01*
X105334000Y-125400000D02*
X103810000Y-125400000D01*
X107620000Y-97460000D02*
X106350000Y-96190000D01*
X103810000Y-120320000D02*
X103810000Y-116510000D01*
X103810000Y-116510000D02*
X107620000Y-112700000D01*
X107620000Y-112700000D02*
X107620000Y-97460000D01*
X96190000Y-145720000D02*
X94735200Y-145720000D01*
X94735200Y-145720000D02*
X93142000Y-144126800D01*
X93142000Y-144126800D02*
X93142000Y-116002000D01*
X89840000Y-112700000D02*
X89840000Y-100570000D01*
X93142000Y-116002000D02*
X89840000Y-112700000D01*
X89840000Y-100570000D02*
X88000000Y-98730000D01*
X96190000Y-145720000D02*
X95840000Y-145720000D01*
X103810000Y-101270000D02*
X105080000Y-102540000D01*
X105080000Y-102540000D02*
X105080000Y-112700000D01*
X105080000Y-112700000D02*
X101778000Y-116002000D01*
X101778000Y-116002000D02*
X101778000Y-132512000D01*
X101778000Y-132512000D02*
X102286000Y-133020000D01*
X102286000Y-133020000D02*
X103810000Y-133020000D01*
X103810000Y-133020000D02*
X103810000Y-132417327D01*
X92380000Y-105080000D02*
X92380000Y-112700000D01*
X94735200Y-130480000D02*
X96190000Y-130480000D01*
X92380000Y-112700000D02*
X94158000Y-114478000D01*
X94158000Y-114478000D02*
X94158000Y-129902800D01*
X94158000Y-129902800D02*
X94735200Y-130480000D01*
X103810000Y-145720000D02*
X102286000Y-145720000D01*
X102286000Y-145720000D02*
X100762000Y-144196000D01*
X100762000Y-144196000D02*
X100762000Y-114478000D01*
X100762000Y-114478000D02*
X102540000Y-112700000D01*
X102540000Y-112700000D02*
X102540000Y-106858000D01*
X104160000Y-145720000D02*
X103810000Y-145720000D01*
X103460000Y-145720000D02*
X103810000Y-145720000D01*
X103810000Y-109398000D02*
X103810000Y-112700000D01*
X103810000Y-112700000D02*
X101270000Y-115240000D01*
X101270000Y-115240000D02*
X101270000Y-142164000D01*
X101270000Y-142164000D02*
X102286000Y-143180000D01*
X102286000Y-143180000D02*
X103810000Y-143180000D01*
D27*
X103460000Y-143180000D02*
X103810000Y-143180000D01*
D26*
X100000000Y-105080000D02*
X100000000Y-103810000D01*
X100000000Y-112700000D02*
X100000000Y-105080000D01*
X103810000Y-150800000D02*
X102355200Y-150800000D01*
X99746000Y-112954000D02*
X99779191Y-112920809D01*
X102355200Y-150800000D02*
X99746000Y-148190800D01*
X99746000Y-148190800D02*
X99746000Y-112954000D01*
X99779191Y-112920809D02*
X100000000Y-112700000D01*
X106604000Y-160960000D02*
X106604000Y-150704000D01*
X106604000Y-150704000D02*
X104160000Y-148260000D01*
X104160000Y-148260000D02*
X103810000Y-148260000D01*
X104318000Y-163246000D02*
X106604000Y-160960000D01*
X100484686Y-163246000D02*
X104318000Y-163246000D01*
X100000000Y-161540000D02*
X100000000Y-162761314D01*
X100000000Y-162761314D02*
X100484686Y-163246000D01*
X101270000Y-103810000D02*
X102540000Y-102540000D01*
X101270000Y-105080000D02*
X101270000Y-103810000D01*
X101270000Y-112700000D02*
X101270000Y-105080000D01*
X103810000Y-148260000D02*
X102355200Y-148260000D01*
X102355200Y-148260000D02*
X100254000Y-146158800D01*
X100254000Y-146158800D02*
X100254000Y-113716000D01*
X100254000Y-113716000D02*
X101270000Y-112700000D01*
D28*
G36*
X98374469Y-77502871D02*
X99377156Y-77723326D01*
X100403567Y-77744827D01*
X101414607Y-77566553D01*
X102371765Y-77195296D01*
X102479382Y-77127000D01*
X108961548Y-77127000D01*
X109935642Y-77776396D01*
X109944341Y-77786065D01*
X109978466Y-77827906D01*
X109992226Y-77839290D01*
X110004169Y-77852564D01*
X110047380Y-77884917D01*
X110088993Y-77919343D01*
X110104706Y-77927839D01*
X110118997Y-77938539D01*
X110127809Y-77943797D01*
X110622473Y-78234283D01*
X114919086Y-81098692D01*
X119284891Y-85464497D01*
X120055397Y-86480454D01*
X123873000Y-96024460D01*
X123873000Y-96280514D01*
X123826277Y-96151168D01*
X123765860Y-96038137D01*
X123526993Y-95972612D01*
X122749605Y-96750000D01*
X123526993Y-97527388D01*
X123765860Y-97461863D01*
X123873000Y-97233551D01*
X123873000Y-102780514D01*
X123826277Y-102651168D01*
X123765860Y-102538137D01*
X123526993Y-102472612D01*
X122749605Y-103250000D01*
X123526993Y-104027388D01*
X123765860Y-103961863D01*
X123873000Y-103733551D01*
X123873000Y-103961978D01*
X123871607Y-103976183D01*
X119888334Y-112938547D01*
X115894330Y-118929553D01*
X115878616Y-118962651D01*
X111878616Y-131962651D01*
X111873000Y-132000000D01*
X111873000Y-137112585D01*
X111768508Y-138178277D01*
X111768508Y-138209106D01*
X111765072Y-138239738D01*
X111765000Y-138250000D01*
X111765000Y-152464054D01*
X111537480Y-154784481D01*
X111500714Y-154906256D01*
X110052137Y-158527697D01*
X109800524Y-159000914D01*
X107386672Y-161012457D01*
X107391323Y-160970994D01*
X107391380Y-160962900D01*
X107391395Y-160962749D01*
X107391382Y-160962609D01*
X107391400Y-160960000D01*
X107391400Y-154771730D01*
X107395900Y-154778559D01*
X107532550Y-154895025D01*
X107696237Y-154968810D01*
X107874000Y-154994072D01*
X109906000Y-154994072D01*
X110007121Y-154986008D01*
X110178634Y-154932894D01*
X110328559Y-154834100D01*
X110445025Y-154697450D01*
X110518810Y-154533763D01*
X110544072Y-154356000D01*
X110544072Y-152324000D01*
X110536008Y-152222879D01*
X110482894Y-152051366D01*
X110384100Y-151901441D01*
X110247450Y-151784975D01*
X110215924Y-151770764D01*
X110296382Y-151664815D01*
X110438076Y-151373826D01*
X110495975Y-151182944D01*
X110376836Y-150927000D01*
X109017000Y-150927000D01*
X109017000Y-150947000D01*
X108763000Y-150947000D01*
X108763000Y-150927000D01*
X108743000Y-150927000D01*
X108743000Y-150673000D01*
X108763000Y-150673000D01*
X108763000Y-149312638D01*
X109017000Y-149312638D01*
X109017000Y-150673000D01*
X110376836Y-150673000D01*
X110495975Y-150417056D01*
X110438076Y-150226174D01*
X110296382Y-149935185D01*
X110100642Y-149677431D01*
X109858377Y-149462816D01*
X109578898Y-149299589D01*
X109272945Y-149194022D01*
X109017000Y-149312638D01*
X108763000Y-149312638D01*
X108507055Y-149194022D01*
X108201102Y-149299589D01*
X107921623Y-149462816D01*
X107679358Y-149677431D01*
X107483618Y-149935185D01*
X107341924Y-150226174D01*
X107303980Y-150351269D01*
X107297820Y-150339685D01*
X107264369Y-150275152D01*
X107261788Y-150271919D01*
X107259842Y-150268259D01*
X107213822Y-150211833D01*
X107168495Y-150155053D01*
X107162813Y-150149290D01*
X107162716Y-150149171D01*
X107162606Y-150149080D01*
X107160776Y-150147224D01*
X105571437Y-148557885D01*
X105574327Y-148548547D01*
X105603602Y-148270018D01*
X105578219Y-147991108D01*
X105499146Y-147722440D01*
X105369394Y-147474247D01*
X105193905Y-147255983D01*
X104979365Y-147075962D01*
X104822585Y-146989772D01*
X104962754Y-146915242D01*
X105179787Y-146738234D01*
X105358306Y-146522442D01*
X105491511Y-146276085D01*
X105574327Y-146008547D01*
X105603602Y-145730018D01*
X105578219Y-145451108D01*
X105499146Y-145182440D01*
X105369394Y-144934247D01*
X105193905Y-144715983D01*
X104979365Y-144535962D01*
X104822585Y-144449772D01*
X104962754Y-144375242D01*
X105179787Y-144198234D01*
X105358306Y-143982442D01*
X105456952Y-143800000D01*
X107601928Y-143800000D01*
X107601928Y-145100000D01*
X107609992Y-145201121D01*
X107663106Y-145372634D01*
X107761900Y-145522559D01*
X107898550Y-145639025D01*
X108062237Y-145712810D01*
X108240000Y-145738072D01*
X109540000Y-145738072D01*
X109641121Y-145730008D01*
X109812634Y-145676894D01*
X109962559Y-145578100D01*
X110079025Y-145441450D01*
X110152810Y-145277763D01*
X110178072Y-145100000D01*
X110178072Y-143800000D01*
X110170008Y-143698879D01*
X110116894Y-143527366D01*
X110018100Y-143377441D01*
X109881450Y-143260975D01*
X109717763Y-143187190D01*
X109540000Y-143161928D01*
X109317561Y-143161928D01*
X109453896Y-143111578D01*
X109542534Y-143064201D01*
X109595922Y-142835527D01*
X108890000Y-142129605D01*
X108184078Y-142835527D01*
X108237466Y-143064201D01*
X108449643Y-143161928D01*
X108240000Y-143161928D01*
X108138879Y-143169992D01*
X107967366Y-143223106D01*
X107817441Y-143321900D01*
X107700975Y-143458550D01*
X107627190Y-143622237D01*
X107601928Y-143800000D01*
X105456952Y-143800000D01*
X105491511Y-143736085D01*
X105574327Y-143468547D01*
X105603602Y-143190018D01*
X105578219Y-142911108D01*
X105499146Y-142642440D01*
X105369394Y-142394247D01*
X105193905Y-142175983D01*
X105015706Y-142026455D01*
X107601048Y-142026455D01*
X107640730Y-142276449D01*
X107728422Y-142513896D01*
X107775799Y-142602534D01*
X108004473Y-142655922D01*
X108710395Y-141950000D01*
X109069605Y-141950000D01*
X109775527Y-142655922D01*
X110004201Y-142602534D01*
X110110095Y-142372626D01*
X110169102Y-142126476D01*
X110178952Y-141873545D01*
X110139270Y-141623551D01*
X110051578Y-141386104D01*
X110004201Y-141297466D01*
X109775527Y-141244078D01*
X109069605Y-141950000D01*
X108710395Y-141950000D01*
X108004473Y-141244078D01*
X107775799Y-141297466D01*
X107669905Y-141527374D01*
X107610898Y-141773524D01*
X107601048Y-142026455D01*
X105015706Y-142026455D01*
X104979365Y-141995962D01*
X104822585Y-141909772D01*
X104962754Y-141835242D01*
X105179787Y-141658234D01*
X105358306Y-141442442D01*
X105491511Y-141196085D01*
X105532251Y-141064473D01*
X108184078Y-141064473D01*
X108890000Y-141770395D01*
X109595922Y-141064473D01*
X109542534Y-140835799D01*
X109312626Y-140729905D01*
X109066476Y-140670898D01*
X108813545Y-140661048D01*
X108563551Y-140700730D01*
X108326104Y-140788422D01*
X108237466Y-140835799D01*
X108184078Y-141064473D01*
X105532251Y-141064473D01*
X105574327Y-140928547D01*
X105603602Y-140650018D01*
X105578219Y-140371108D01*
X105499146Y-140102440D01*
X105369394Y-139854247D01*
X105193905Y-139635983D01*
X104979365Y-139455962D01*
X104822585Y-139369772D01*
X104962754Y-139295242D01*
X105179787Y-139118234D01*
X105358306Y-138902442D01*
X105491511Y-138656085D01*
X105574327Y-138388547D01*
X105603602Y-138110018D01*
X105578219Y-137831108D01*
X105499146Y-137562440D01*
X105440364Y-137450000D01*
X107601928Y-137450000D01*
X107601928Y-138750000D01*
X107609992Y-138851121D01*
X107663106Y-139022634D01*
X107761900Y-139172559D01*
X107898550Y-139289025D01*
X108062237Y-139362810D01*
X108240000Y-139388072D01*
X109540000Y-139388072D01*
X109641121Y-139380008D01*
X109812634Y-139326894D01*
X109962559Y-139228100D01*
X110079025Y-139091450D01*
X110152810Y-138927763D01*
X110178072Y-138750000D01*
X110178072Y-137450000D01*
X110170008Y-137348879D01*
X110116894Y-137177366D01*
X110018100Y-137027441D01*
X109881450Y-136910975D01*
X109717763Y-136837190D01*
X109540000Y-136811928D01*
X109317561Y-136811928D01*
X109453896Y-136761578D01*
X109542534Y-136714201D01*
X109595922Y-136485527D01*
X108890000Y-135779605D01*
X108184078Y-136485527D01*
X108237466Y-136714201D01*
X108449643Y-136811928D01*
X108240000Y-136811928D01*
X108138879Y-136819992D01*
X107967366Y-136873106D01*
X107817441Y-136971900D01*
X107700975Y-137108550D01*
X107627190Y-137272237D01*
X107601928Y-137450000D01*
X105440364Y-137450000D01*
X105369394Y-137314247D01*
X105193905Y-137095983D01*
X104979365Y-136915962D01*
X104830846Y-136834313D01*
X105062839Y-136682601D01*
X105264500Y-136484895D01*
X105423715Y-136251646D01*
X105534367Y-135991818D01*
X105551904Y-135909039D01*
X105429915Y-135687000D01*
X103937000Y-135687000D01*
X103937000Y-135707000D01*
X103683000Y-135707000D01*
X103683000Y-135687000D01*
X103663000Y-135687000D01*
X103663000Y-135676455D01*
X107601048Y-135676455D01*
X107640730Y-135926449D01*
X107728422Y-136163896D01*
X107775799Y-136252534D01*
X108004473Y-136305922D01*
X108710395Y-135600000D01*
X109069605Y-135600000D01*
X109775527Y-136305922D01*
X110004201Y-136252534D01*
X110110095Y-136022626D01*
X110169102Y-135776476D01*
X110178952Y-135523545D01*
X110139270Y-135273551D01*
X110051578Y-135036104D01*
X110004201Y-134947466D01*
X109775527Y-134894078D01*
X109069605Y-135600000D01*
X108710395Y-135600000D01*
X108004473Y-134894078D01*
X107775799Y-134947466D01*
X107669905Y-135177374D01*
X107610898Y-135423524D01*
X107601048Y-135676455D01*
X103663000Y-135676455D01*
X103663000Y-135433000D01*
X103683000Y-135433000D01*
X103683000Y-135413000D01*
X103937000Y-135413000D01*
X103937000Y-135433000D01*
X105429915Y-135433000D01*
X105551904Y-135210961D01*
X105534367Y-135128182D01*
X105423715Y-134868354D01*
X105318677Y-134714473D01*
X108184078Y-134714473D01*
X108890000Y-135420395D01*
X109595922Y-134714473D01*
X109542534Y-134485799D01*
X109312626Y-134379905D01*
X109066476Y-134320898D01*
X108813545Y-134311048D01*
X108563551Y-134350730D01*
X108326104Y-134438422D01*
X108237466Y-134485799D01*
X108184078Y-134714473D01*
X105318677Y-134714473D01*
X105264500Y-134635105D01*
X105062839Y-134437399D01*
X104830586Y-134285517D01*
X104962754Y-134215242D01*
X105179787Y-134038234D01*
X105358306Y-133822442D01*
X105491511Y-133576085D01*
X105574327Y-133308547D01*
X105603602Y-133030018D01*
X105578219Y-132751108D01*
X105499146Y-132482440D01*
X105369394Y-132234247D01*
X105193905Y-132015983D01*
X104979365Y-131835962D01*
X104822585Y-131749772D01*
X104962754Y-131675242D01*
X105179787Y-131498234D01*
X105358306Y-131282442D01*
X105491511Y-131036085D01*
X105574327Y-130768547D01*
X105603602Y-130490018D01*
X105578219Y-130211108D01*
X105499146Y-129942440D01*
X105369394Y-129694247D01*
X105193905Y-129475983D01*
X104979365Y-129295962D01*
X104822585Y-129209772D01*
X104962754Y-129135242D01*
X105179787Y-128958234D01*
X105358306Y-128742442D01*
X105371920Y-128717263D01*
X105409643Y-128713963D01*
X105413618Y-128712808D01*
X105417740Y-128712404D01*
X105487389Y-128691376D01*
X105557215Y-128671090D01*
X105560890Y-128669185D01*
X105564855Y-128667988D01*
X105629115Y-128633820D01*
X105693648Y-128600369D01*
X105696881Y-128597788D01*
X105700541Y-128595842D01*
X105756943Y-128549842D01*
X105813748Y-128504495D01*
X105819511Y-128498812D01*
X105819629Y-128498716D01*
X105819719Y-128498607D01*
X105821576Y-128496776D01*
X106906776Y-127411576D01*
X106952944Y-127355370D01*
X106999694Y-127299655D01*
X107001689Y-127296027D01*
X107004317Y-127292827D01*
X107038695Y-127228713D01*
X107073727Y-127164990D01*
X107074979Y-127161045D01*
X107076936Y-127157394D01*
X107098215Y-127087794D01*
X107120193Y-127018510D01*
X107120654Y-127014399D01*
X107121866Y-127010435D01*
X107129225Y-126937991D01*
X107137323Y-126865794D01*
X107137380Y-126857709D01*
X107137396Y-126857548D01*
X107137382Y-126857398D01*
X107137400Y-126854800D01*
X107137400Y-117598152D01*
X114018776Y-110716776D01*
X114064944Y-110660570D01*
X114111694Y-110604855D01*
X114113689Y-110601227D01*
X114116317Y-110598027D01*
X114150695Y-110533913D01*
X114185727Y-110470190D01*
X114186979Y-110466245D01*
X114188936Y-110462594D01*
X114210215Y-110392994D01*
X114232193Y-110323710D01*
X114232654Y-110319599D01*
X114233866Y-110315635D01*
X114241220Y-110243235D01*
X114249323Y-110170994D01*
X114249380Y-110162899D01*
X114249395Y-110162748D01*
X114249382Y-110162608D01*
X114249400Y-110160000D01*
X114249400Y-103366455D01*
X116683180Y-103366455D01*
X116732211Y-103633605D01*
X116832198Y-103886144D01*
X116979333Y-104114452D01*
X117168011Y-104309834D01*
X117391045Y-104464847D01*
X117639941Y-104573586D01*
X117905217Y-104631911D01*
X118176770Y-104637599D01*
X118444256Y-104590434D01*
X118697487Y-104492213D01*
X118926817Y-104346675D01*
X119073497Y-104206993D01*
X121792612Y-104206993D01*
X121858137Y-104445860D01*
X122105116Y-104561760D01*
X122369960Y-104627250D01*
X122642492Y-104639812D01*
X122912238Y-104598965D01*
X123168832Y-104506277D01*
X123281863Y-104445860D01*
X123347388Y-104206993D01*
X122570000Y-103429605D01*
X121792612Y-104206993D01*
X119073497Y-104206993D01*
X119123511Y-104159366D01*
X119280077Y-103937419D01*
X119390552Y-103689289D01*
X119450727Y-103424426D01*
X119452150Y-103322492D01*
X121180188Y-103322492D01*
X121221035Y-103592238D01*
X121313723Y-103848832D01*
X121374140Y-103961863D01*
X121613007Y-104027388D01*
X122390395Y-103250000D01*
X121613007Y-102472612D01*
X121374140Y-102538137D01*
X121258240Y-102785116D01*
X121192750Y-103049960D01*
X121180188Y-103322492D01*
X119452150Y-103322492D01*
X119455059Y-103114194D01*
X119402303Y-102847754D01*
X119298799Y-102596636D01*
X119148491Y-102370404D01*
X119071633Y-102293007D01*
X121792612Y-102293007D01*
X122570000Y-103070395D01*
X123347388Y-102293007D01*
X123281863Y-102054140D01*
X123034884Y-101938240D01*
X122770040Y-101872750D01*
X122497508Y-101860188D01*
X122227762Y-101901035D01*
X121971168Y-101993723D01*
X121858137Y-102054140D01*
X121792612Y-102293007D01*
X119071633Y-102293007D01*
X118957104Y-102177676D01*
X118731927Y-102025792D01*
X118481537Y-101920538D01*
X118215472Y-101865923D01*
X117943867Y-101864027D01*
X117677065Y-101914922D01*
X117425230Y-102016670D01*
X117197955Y-102165395D01*
X117003895Y-102355432D01*
X116850443Y-102579543D01*
X116743444Y-102829192D01*
X116686972Y-103094869D01*
X116683180Y-103366455D01*
X114249400Y-103366455D01*
X114249400Y-102732000D01*
X114242302Y-102659612D01*
X114235963Y-102587157D01*
X114234808Y-102583182D01*
X114234404Y-102579060D01*
X114213376Y-102509411D01*
X114193090Y-102439585D01*
X114191185Y-102435910D01*
X114189988Y-102431945D01*
X114155820Y-102367685D01*
X114122369Y-102303152D01*
X114119788Y-102299919D01*
X114117842Y-102296259D01*
X114071842Y-102239857D01*
X114026495Y-102183052D01*
X114020812Y-102177289D01*
X114020716Y-102177171D01*
X114020607Y-102177081D01*
X114018776Y-102175224D01*
X113363556Y-101520004D01*
X113380727Y-101444426D01*
X113385059Y-101134194D01*
X113332303Y-100867754D01*
X113228799Y-100616636D01*
X113078491Y-100390404D01*
X112887104Y-100197676D01*
X112661927Y-100045792D01*
X112554362Y-100000576D01*
X112627487Y-99972213D01*
X112856817Y-99826675D01*
X113053511Y-99639366D01*
X113210077Y-99417419D01*
X113320552Y-99169289D01*
X113380727Y-98904426D01*
X113385059Y-98594194D01*
X113332303Y-98327754D01*
X113228799Y-98076636D01*
X113078491Y-97850404D01*
X112887104Y-97657676D01*
X112661927Y-97505792D01*
X112554362Y-97460576D01*
X112627487Y-97432213D01*
X112856817Y-97286675D01*
X113053511Y-97099366D01*
X113210077Y-96877419D01*
X113214958Y-96866455D01*
X116683180Y-96866455D01*
X116732211Y-97133605D01*
X116832198Y-97386144D01*
X116979333Y-97614452D01*
X117168011Y-97809834D01*
X117391045Y-97964847D01*
X117639941Y-98073586D01*
X117905217Y-98131911D01*
X118176770Y-98137599D01*
X118444256Y-98090434D01*
X118697487Y-97992213D01*
X118926817Y-97846675D01*
X119073497Y-97706993D01*
X121792612Y-97706993D01*
X121858137Y-97945860D01*
X122105116Y-98061760D01*
X122369960Y-98127250D01*
X122642492Y-98139812D01*
X122912238Y-98098965D01*
X123168832Y-98006277D01*
X123281863Y-97945860D01*
X123347388Y-97706993D01*
X122570000Y-96929605D01*
X121792612Y-97706993D01*
X119073497Y-97706993D01*
X119123511Y-97659366D01*
X119280077Y-97437419D01*
X119390552Y-97189289D01*
X119450727Y-96924426D01*
X119452150Y-96822492D01*
X121180188Y-96822492D01*
X121221035Y-97092238D01*
X121313723Y-97348832D01*
X121374140Y-97461863D01*
X121613007Y-97527388D01*
X122390395Y-96750000D01*
X121613007Y-95972612D01*
X121374140Y-96038137D01*
X121258240Y-96285116D01*
X121192750Y-96549960D01*
X121180188Y-96822492D01*
X119452150Y-96822492D01*
X119455059Y-96614194D01*
X119402303Y-96347754D01*
X119298799Y-96096636D01*
X119148491Y-95870404D01*
X119071633Y-95793007D01*
X121792612Y-95793007D01*
X122570000Y-96570395D01*
X123347388Y-95793007D01*
X123281863Y-95554140D01*
X123034884Y-95438240D01*
X122770040Y-95372750D01*
X122497508Y-95360188D01*
X122227762Y-95401035D01*
X121971168Y-95493723D01*
X121858137Y-95554140D01*
X121792612Y-95793007D01*
X119071633Y-95793007D01*
X118957104Y-95677676D01*
X118731927Y-95525792D01*
X118481537Y-95420538D01*
X118215472Y-95365923D01*
X117943867Y-95364027D01*
X117677065Y-95414922D01*
X117425230Y-95516670D01*
X117197955Y-95665395D01*
X117003895Y-95855432D01*
X116850443Y-96079543D01*
X116743444Y-96329192D01*
X116686972Y-96594869D01*
X116683180Y-96866455D01*
X113214958Y-96866455D01*
X113320552Y-96629289D01*
X113380727Y-96364426D01*
X113385059Y-96054194D01*
X113332303Y-95787754D01*
X113228799Y-95536636D01*
X113078491Y-95310404D01*
X112887104Y-95117676D01*
X112661927Y-94965792D01*
X112554362Y-94920576D01*
X112627487Y-94892213D01*
X112856817Y-94746675D01*
X113053511Y-94559366D01*
X113210077Y-94337419D01*
X113320552Y-94089289D01*
X113380727Y-93824426D01*
X113385059Y-93514194D01*
X113332303Y-93247754D01*
X113228799Y-92996636D01*
X113078491Y-92770404D01*
X112887104Y-92577676D01*
X112661927Y-92425792D01*
X112554362Y-92380576D01*
X112627487Y-92352213D01*
X112856817Y-92206675D01*
X113053511Y-92019366D01*
X113210077Y-91797419D01*
X113320552Y-91549289D01*
X113380727Y-91284426D01*
X113385059Y-90974194D01*
X113332303Y-90707754D01*
X113228799Y-90456636D01*
X113078491Y-90230404D01*
X112887104Y-90037676D01*
X112661927Y-89885792D01*
X112411537Y-89780538D01*
X112145472Y-89725923D01*
X111873867Y-89724027D01*
X111607065Y-89774922D01*
X111355230Y-89876670D01*
X111127955Y-90025395D01*
X110933895Y-90215432D01*
X110780443Y-90439543D01*
X110673444Y-90689192D01*
X110616972Y-90954869D01*
X110613180Y-91226455D01*
X110662211Y-91493605D01*
X110762198Y-91746144D01*
X110909333Y-91974452D01*
X111098011Y-92169834D01*
X111321045Y-92324847D01*
X111446664Y-92379728D01*
X111355230Y-92416670D01*
X111127955Y-92565395D01*
X110933895Y-92755432D01*
X110780443Y-92979543D01*
X110673444Y-93229192D01*
X110616972Y-93494869D01*
X110613180Y-93766455D01*
X110662211Y-94033605D01*
X110762198Y-94286144D01*
X110909333Y-94514452D01*
X111098011Y-94709834D01*
X111321045Y-94864847D01*
X111446664Y-94919728D01*
X111355230Y-94956670D01*
X111127955Y-95105395D01*
X110947400Y-95282207D01*
X110947400Y-94920000D01*
X110940302Y-94847612D01*
X110933963Y-94775157D01*
X110932808Y-94771182D01*
X110932404Y-94767060D01*
X110911376Y-94697411D01*
X110891090Y-94627585D01*
X110889185Y-94623910D01*
X110887988Y-94619945D01*
X110853820Y-94555685D01*
X110820369Y-94491152D01*
X110817788Y-94487919D01*
X110815842Y-94484259D01*
X110769842Y-94427857D01*
X110724495Y-94371052D01*
X110718812Y-94365289D01*
X110718716Y-94365171D01*
X110718607Y-94365081D01*
X110716776Y-94363224D01*
X109803603Y-93450051D01*
X109789425Y-93378448D01*
X109719550Y-93208920D01*
X109618079Y-93056193D01*
X109488875Y-92926084D01*
X109336860Y-92823549D01*
X109167825Y-92752493D01*
X108988207Y-92715623D01*
X108804849Y-92714343D01*
X108624733Y-92748701D01*
X108454722Y-92817390D01*
X108301291Y-92917793D01*
X108170283Y-93046086D01*
X108066689Y-93197381D01*
X107994454Y-93365916D01*
X107956331Y-93545272D01*
X107953771Y-93728617D01*
X107986872Y-93908968D01*
X108054372Y-94079454D01*
X108153701Y-94233583D01*
X108281076Y-94365484D01*
X108431644Y-94470131D01*
X108599671Y-94543540D01*
X108689806Y-94563358D01*
X109372600Y-95246152D01*
X109372600Y-97927656D01*
X109336860Y-97903549D01*
X109167825Y-97832493D01*
X108988207Y-97795623D01*
X108804849Y-97794343D01*
X108624733Y-97828701D01*
X108454722Y-97897390D01*
X108407400Y-97928357D01*
X108407400Y-97460000D01*
X108400302Y-97387612D01*
X108393963Y-97315157D01*
X108392808Y-97311182D01*
X108392404Y-97307060D01*
X108371376Y-97237411D01*
X108351090Y-97167585D01*
X108349185Y-97163910D01*
X108347988Y-97159945D01*
X108313820Y-97095685D01*
X108280369Y-97031152D01*
X108277788Y-97027919D01*
X108275842Y-97024259D01*
X108229842Y-96967857D01*
X108184495Y-96911052D01*
X108178812Y-96905289D01*
X108178716Y-96905171D01*
X108178607Y-96905081D01*
X108176776Y-96903224D01*
X107263603Y-95990051D01*
X107249425Y-95918448D01*
X107179550Y-95748920D01*
X107078079Y-95596193D01*
X106948875Y-95466084D01*
X106796860Y-95363549D01*
X106627825Y-95292493D01*
X106448207Y-95255623D01*
X106264849Y-95254343D01*
X106084733Y-95288701D01*
X105914722Y-95357390D01*
X105761291Y-95457793D01*
X105630283Y-95586086D01*
X105526689Y-95737381D01*
X105454454Y-95905916D01*
X105416331Y-96085272D01*
X105413771Y-96268617D01*
X105446872Y-96448968D01*
X105514372Y-96619454D01*
X105613701Y-96773583D01*
X105741076Y-96905484D01*
X105891644Y-97010131D01*
X106059671Y-97083540D01*
X106149806Y-97103358D01*
X106832600Y-97786152D01*
X106832600Y-104277656D01*
X106796860Y-104253549D01*
X106627825Y-104182493D01*
X106448207Y-104145623D01*
X106264849Y-104144343D01*
X106084733Y-104178701D01*
X105914722Y-104247390D01*
X105867400Y-104278357D01*
X105867400Y-102540000D01*
X105860302Y-102467612D01*
X105853963Y-102395157D01*
X105852808Y-102391182D01*
X105852404Y-102387060D01*
X105831376Y-102317411D01*
X105811090Y-102247585D01*
X105809185Y-102243910D01*
X105807988Y-102239945D01*
X105773820Y-102175685D01*
X105740369Y-102111152D01*
X105737788Y-102107919D01*
X105735842Y-102104259D01*
X105689842Y-102047857D01*
X105644495Y-101991052D01*
X105638812Y-101985289D01*
X105638716Y-101985171D01*
X105638607Y-101985081D01*
X105636776Y-101983224D01*
X104723603Y-101070051D01*
X104709425Y-100998448D01*
X104639550Y-100828920D01*
X104538079Y-100676193D01*
X104408875Y-100546084D01*
X104256860Y-100443549D01*
X104087825Y-100372493D01*
X103908207Y-100335623D01*
X103724849Y-100334343D01*
X103544733Y-100368701D01*
X103374722Y-100437390D01*
X103221291Y-100537793D01*
X103090283Y-100666086D01*
X102986689Y-100817381D01*
X102914454Y-100985916D01*
X102876331Y-101165272D01*
X102873771Y-101348617D01*
X102906872Y-101528968D01*
X102974372Y-101699454D01*
X102982191Y-101711586D01*
X102817825Y-101642493D01*
X102638207Y-101605623D01*
X102454849Y-101604343D01*
X102274733Y-101638701D01*
X102104722Y-101707390D01*
X101951291Y-101807793D01*
X101820283Y-101936086D01*
X101716689Y-102087381D01*
X101644454Y-102255916D01*
X101626618Y-102339830D01*
X100736931Y-103229517D01*
X100728079Y-103216193D01*
X100598875Y-103086084D01*
X100446860Y-102983549D01*
X100277825Y-102912493D01*
X100098207Y-102875623D01*
X99914849Y-102874343D01*
X99734733Y-102908701D01*
X99564722Y-102977390D01*
X99517400Y-103008357D01*
X99517400Y-101596152D01*
X100199215Y-100914337D01*
X100252657Y-100904914D01*
X100423610Y-100838606D01*
X100578429Y-100740355D01*
X100711215Y-100613904D01*
X100816911Y-100464070D01*
X100891492Y-100296560D01*
X100932116Y-100117754D01*
X100935040Y-99908319D01*
X100899425Y-99728448D01*
X100829550Y-99558920D01*
X100728079Y-99406193D01*
X100598875Y-99276084D01*
X100446860Y-99173549D01*
X100277825Y-99102493D01*
X100098207Y-99065623D01*
X99914849Y-99064343D01*
X99734733Y-99098701D01*
X99564722Y-99167390D01*
X99411291Y-99267793D01*
X99280283Y-99396086D01*
X99176689Y-99547381D01*
X99104454Y-99715916D01*
X99086618Y-99799830D01*
X98173224Y-100713224D01*
X98127056Y-100769430D01*
X98080306Y-100825145D01*
X98078311Y-100828773D01*
X98075683Y-100831973D01*
X98041305Y-100896087D01*
X98006273Y-100959810D01*
X98005021Y-100963755D01*
X98003064Y-100967406D01*
X97981785Y-101037006D01*
X97959807Y-101106290D01*
X97959346Y-101110401D01*
X97958134Y-101114365D01*
X97950780Y-101186769D01*
X97942677Y-101259006D01*
X97942620Y-101267100D01*
X97942605Y-101267251D01*
X97942618Y-101267391D01*
X97942600Y-101270000D01*
X97942600Y-107325656D01*
X97906860Y-107301549D01*
X97737825Y-107230493D01*
X97558207Y-107193623D01*
X97374849Y-107192343D01*
X97194733Y-107226701D01*
X97024722Y-107295390D01*
X96977400Y-107326357D01*
X96977400Y-96516152D01*
X97659215Y-95834337D01*
X97712657Y-95824914D01*
X97883610Y-95758606D01*
X98038429Y-95660355D01*
X98171215Y-95533904D01*
X98276911Y-95384070D01*
X98351492Y-95216560D01*
X98392116Y-95037754D01*
X98395040Y-94828319D01*
X98359425Y-94648448D01*
X98289550Y-94478920D01*
X98188079Y-94326193D01*
X98058875Y-94196084D01*
X97906860Y-94093549D01*
X97737825Y-94022493D01*
X97558207Y-93985623D01*
X97374849Y-93984343D01*
X97194733Y-94018701D01*
X97024722Y-94087390D01*
X96871291Y-94187793D01*
X96740283Y-94316086D01*
X96636689Y-94467381D01*
X96564454Y-94635916D01*
X96546618Y-94719830D01*
X95633224Y-95633224D01*
X95587056Y-95689430D01*
X95540306Y-95745145D01*
X95538311Y-95748773D01*
X95535683Y-95751973D01*
X95501305Y-95816087D01*
X95466273Y-95879810D01*
X95465021Y-95883755D01*
X95463064Y-95887406D01*
X95441785Y-95957006D01*
X95419807Y-96026290D01*
X95419346Y-96030401D01*
X95418134Y-96034365D01*
X95410780Y-96106769D01*
X95402677Y-96179006D01*
X95402620Y-96187100D01*
X95402605Y-96187251D01*
X95402618Y-96187391D01*
X95402600Y-96190000D01*
X95402600Y-110627656D01*
X95366860Y-110603549D01*
X95197825Y-110532493D01*
X95018207Y-110495623D01*
X94834849Y-110494343D01*
X94654733Y-110528701D01*
X94484722Y-110597390D01*
X94437400Y-110628357D01*
X94437400Y-92380000D01*
X94430302Y-92307612D01*
X94423963Y-92235157D01*
X94422808Y-92231182D01*
X94422404Y-92227060D01*
X94401376Y-92157411D01*
X94381090Y-92087585D01*
X94379185Y-92083910D01*
X94377988Y-92079945D01*
X94343820Y-92015685D01*
X94310369Y-91951152D01*
X94307788Y-91947919D01*
X94305842Y-91944259D01*
X94259842Y-91887857D01*
X94214495Y-91831052D01*
X94208812Y-91825289D01*
X94208716Y-91825171D01*
X94208607Y-91825081D01*
X94206776Y-91823224D01*
X93293603Y-90910051D01*
X93279425Y-90838448D01*
X93209550Y-90668920D01*
X93108079Y-90516193D01*
X92978875Y-90386084D01*
X92826860Y-90283549D01*
X92657825Y-90212493D01*
X92478207Y-90175623D01*
X92294849Y-90174343D01*
X92114733Y-90208701D01*
X91944722Y-90277390D01*
X91791291Y-90377793D01*
X91660283Y-90506086D01*
X91556689Y-90657381D01*
X91484454Y-90825916D01*
X91446331Y-91005272D01*
X91443771Y-91188617D01*
X91476872Y-91368968D01*
X91544372Y-91539454D01*
X91643701Y-91693583D01*
X91692709Y-91744332D01*
X91660283Y-91776086D01*
X91556689Y-91927381D01*
X91484454Y-92095916D01*
X91466618Y-92179830D01*
X90553224Y-93093224D01*
X90507056Y-93149430D01*
X90460306Y-93205145D01*
X90458311Y-93208773D01*
X90455683Y-93211973D01*
X90421305Y-93276087D01*
X90386273Y-93339810D01*
X90385021Y-93343755D01*
X90383064Y-93347406D01*
X90361785Y-93417006D01*
X90339807Y-93486290D01*
X90339346Y-93490401D01*
X90338134Y-93494365D01*
X90330780Y-93566769D01*
X90322677Y-93639006D01*
X90322620Y-93647100D01*
X90322605Y-93647251D01*
X90322618Y-93647391D01*
X90322600Y-93650000D01*
X90322600Y-99939048D01*
X89363556Y-98980004D01*
X89380727Y-98904426D01*
X89385059Y-98594194D01*
X89332303Y-98327754D01*
X89228799Y-98076636D01*
X89078491Y-97850404D01*
X88887104Y-97657676D01*
X88661927Y-97505792D01*
X88554362Y-97460576D01*
X88627487Y-97432213D01*
X88856817Y-97286675D01*
X89053511Y-97099366D01*
X89210077Y-96877419D01*
X89320552Y-96629289D01*
X89380727Y-96364426D01*
X89385059Y-96054194D01*
X89332303Y-95787754D01*
X89228799Y-95536636D01*
X89078491Y-95310404D01*
X88887104Y-95117676D01*
X88661927Y-94965792D01*
X88554362Y-94920576D01*
X88627487Y-94892213D01*
X88856817Y-94746675D01*
X89053511Y-94559366D01*
X89210077Y-94337419D01*
X89320552Y-94089289D01*
X89380727Y-93824426D01*
X89385059Y-93514194D01*
X89332303Y-93247754D01*
X89228799Y-92996636D01*
X89078491Y-92770404D01*
X88887104Y-92577676D01*
X88661927Y-92425792D01*
X88554362Y-92380576D01*
X88627487Y-92352213D01*
X88856817Y-92206675D01*
X89053511Y-92019366D01*
X89210077Y-91797419D01*
X89320552Y-91549289D01*
X89380727Y-91284426D01*
X89385059Y-90974194D01*
X89332303Y-90707754D01*
X89228799Y-90456636D01*
X89078491Y-90230404D01*
X88887104Y-90037676D01*
X88661927Y-89885792D01*
X88411537Y-89780538D01*
X88145472Y-89725923D01*
X87873867Y-89724027D01*
X87607065Y-89774922D01*
X87355230Y-89876670D01*
X87127955Y-90025395D01*
X86933895Y-90215432D01*
X86780443Y-90439543D01*
X86673444Y-90689192D01*
X86616972Y-90954869D01*
X86613180Y-91226455D01*
X86662211Y-91493605D01*
X86762198Y-91746144D01*
X86909333Y-91974452D01*
X87098011Y-92169834D01*
X87321045Y-92324847D01*
X87446664Y-92379728D01*
X87355230Y-92416670D01*
X87127955Y-92565395D01*
X86933895Y-92755432D01*
X86780443Y-92979543D01*
X86673444Y-93229192D01*
X86616972Y-93494869D01*
X86613180Y-93766455D01*
X86662211Y-94033605D01*
X86762198Y-94286144D01*
X86909333Y-94514452D01*
X87098011Y-94709834D01*
X87321045Y-94864847D01*
X87446664Y-94919728D01*
X87355230Y-94956670D01*
X87127955Y-95105395D01*
X86933895Y-95295432D01*
X86780443Y-95519543D01*
X86673444Y-95769192D01*
X86616972Y-96034869D01*
X86613180Y-96306455D01*
X86662211Y-96573605D01*
X86762198Y-96826144D01*
X86909333Y-97054452D01*
X87098011Y-97249834D01*
X87321045Y-97404847D01*
X87446664Y-97459728D01*
X87355230Y-97496670D01*
X87127955Y-97645395D01*
X86933895Y-97835432D01*
X86780443Y-98059543D01*
X86673444Y-98309192D01*
X86616972Y-98574869D01*
X86613180Y-98846455D01*
X86662211Y-99113605D01*
X86762198Y-99366144D01*
X86909333Y-99594452D01*
X87098011Y-99789834D01*
X87321045Y-99944847D01*
X87446664Y-99999728D01*
X87355230Y-100036670D01*
X87127955Y-100185395D01*
X86933895Y-100375432D01*
X86780443Y-100599543D01*
X86673444Y-100849192D01*
X86616972Y-101114869D01*
X86613180Y-101386455D01*
X86662211Y-101653605D01*
X86762198Y-101906144D01*
X86909333Y-102134452D01*
X87098011Y-102329834D01*
X87321045Y-102484847D01*
X87446664Y-102539728D01*
X87355230Y-102576670D01*
X87127955Y-102725395D01*
X86933895Y-102915432D01*
X86780443Y-103139543D01*
X86673444Y-103389192D01*
X86616972Y-103654869D01*
X86613180Y-103926455D01*
X86662211Y-104193605D01*
X86762198Y-104446144D01*
X86909333Y-104674452D01*
X87098011Y-104869834D01*
X87321045Y-105024847D01*
X87446664Y-105079728D01*
X87355230Y-105116670D01*
X87127955Y-105265395D01*
X86933895Y-105455432D01*
X86780443Y-105679543D01*
X86673444Y-105929192D01*
X86616972Y-106194869D01*
X86613180Y-106466455D01*
X86662211Y-106733605D01*
X86762198Y-106986144D01*
X86909333Y-107214452D01*
X87098011Y-107409834D01*
X87321045Y-107564847D01*
X87446664Y-107619728D01*
X87355230Y-107656670D01*
X87127955Y-107805395D01*
X86933895Y-107995432D01*
X86780443Y-108219543D01*
X86673444Y-108469192D01*
X86616972Y-108734869D01*
X86613180Y-109006455D01*
X86662211Y-109273605D01*
X86762198Y-109526144D01*
X86909333Y-109754452D01*
X87098011Y-109949834D01*
X87321045Y-110104847D01*
X87569941Y-110213586D01*
X87835217Y-110271911D01*
X88106770Y-110277599D01*
X88374256Y-110230434D01*
X88627487Y-110132213D01*
X88856817Y-109986675D01*
X89052600Y-109800234D01*
X89052600Y-112700000D01*
X89059698Y-112772392D01*
X89066037Y-112844843D01*
X89067192Y-112848818D01*
X89067596Y-112852940D01*
X89088624Y-112922589D01*
X89108910Y-112992415D01*
X89110815Y-112996090D01*
X89112012Y-113000055D01*
X89146180Y-113064315D01*
X89179631Y-113128848D01*
X89182212Y-113132081D01*
X89184158Y-113135741D01*
X89230158Y-113192143D01*
X89275505Y-113248948D01*
X89281188Y-113254711D01*
X89281284Y-113254829D01*
X89281393Y-113254919D01*
X89283224Y-113256776D01*
X92354600Y-116328152D01*
X92354600Y-117983591D01*
X92156905Y-117784510D01*
X91891165Y-117605266D01*
X91595671Y-117481052D01*
X91281677Y-117416598D01*
X90961145Y-117414360D01*
X90646283Y-117474424D01*
X90349083Y-117594500D01*
X90080867Y-117770016D01*
X89886861Y-117960000D01*
X88513493Y-117960000D01*
X85850000Y-115296508D01*
X85850000Y-90291492D01*
X87751493Y-88390000D01*
X87856368Y-88390000D01*
X87972468Y-88570152D01*
X88249695Y-88857229D01*
X88577402Y-89084991D01*
X88943108Y-89244764D01*
X89332882Y-89330462D01*
X89731879Y-89338819D01*
X90124900Y-89269519D01*
X90496975Y-89125201D01*
X90833933Y-88911361D01*
X91122938Y-88636145D01*
X91296574Y-88390000D01*
X108706368Y-88390000D01*
X108822468Y-88570152D01*
X109099695Y-88857229D01*
X109427402Y-89084991D01*
X109793108Y-89244764D01*
X110182882Y-89330462D01*
X110581879Y-89338819D01*
X110974900Y-89269519D01*
X111346975Y-89125201D01*
X111683933Y-88911361D01*
X111972938Y-88636145D01*
X112202983Y-88310035D01*
X112365305Y-87945454D01*
X112453722Y-87556287D01*
X112460087Y-87100458D01*
X112382571Y-86708974D01*
X112230492Y-86340003D01*
X112009642Y-86007597D01*
X111728434Y-85724419D01*
X111397578Y-85501254D01*
X111029677Y-85346603D01*
X110638745Y-85266356D01*
X110239670Y-85263570D01*
X109847655Y-85338351D01*
X109477631Y-85487850D01*
X109143692Y-85706374D01*
X108858557Y-85985598D01*
X108704906Y-86210000D01*
X91294118Y-86210000D01*
X91159642Y-86007597D01*
X90878434Y-85724419D01*
X90547578Y-85501254D01*
X90179677Y-85346603D01*
X89788745Y-85266356D01*
X89389670Y-85263570D01*
X88997655Y-85338351D01*
X88627631Y-85487850D01*
X88293692Y-85706374D01*
X88008557Y-85985598D01*
X87854906Y-86210000D01*
X87300000Y-86210000D01*
X87199771Y-86219828D01*
X87099492Y-86228601D01*
X87093989Y-86230200D01*
X87088285Y-86230759D01*
X86991924Y-86259852D01*
X86895209Y-86287950D01*
X86890118Y-86290589D01*
X86884633Y-86292245D01*
X86795765Y-86339497D01*
X86706343Y-86385849D01*
X86701862Y-86389426D01*
X86696803Y-86392116D01*
X86618813Y-86455724D01*
X86540090Y-86518567D01*
X86532109Y-86526437D01*
X86531949Y-86526568D01*
X86531826Y-86526716D01*
X86529253Y-86529254D01*
X83989254Y-89069254D01*
X83925370Y-89147027D01*
X83860626Y-89224186D01*
X83857864Y-89229211D01*
X83854227Y-89233638D01*
X83806672Y-89322327D01*
X83758142Y-89410603D01*
X83756408Y-89416070D01*
X83753701Y-89421118D01*
X83724271Y-89517377D01*
X83693819Y-89613376D01*
X83693180Y-89619072D01*
X83691504Y-89624554D01*
X83681331Y-89724706D01*
X83670106Y-89824781D01*
X83670028Y-89835989D01*
X83670007Y-89836195D01*
X83670025Y-89836387D01*
X83670000Y-89840000D01*
X83670000Y-115748000D01*
X83679823Y-115848184D01*
X83688600Y-115948507D01*
X83690200Y-115954014D01*
X83690759Y-115959715D01*
X83719843Y-116056047D01*
X83747950Y-116152791D01*
X83750589Y-116157882D01*
X83752245Y-116163367D01*
X83799508Y-116252255D01*
X83845849Y-116341656D01*
X83849424Y-116346135D01*
X83852116Y-116351197D01*
X83915741Y-116429209D01*
X83978567Y-116507910D01*
X83986434Y-116515887D01*
X83986568Y-116516051D01*
X83986720Y-116516177D01*
X83989254Y-116518746D01*
X87291253Y-119820746D01*
X87369073Y-119884669D01*
X87446186Y-119949374D01*
X87451208Y-119952135D01*
X87455637Y-119955773D01*
X87544348Y-120003339D01*
X87632603Y-120051858D01*
X87638070Y-120053592D01*
X87643118Y-120056299D01*
X87739336Y-120085715D01*
X87835376Y-120116181D01*
X87841077Y-120116820D01*
X87846554Y-120118495D01*
X87946657Y-120128663D01*
X88046781Y-120139894D01*
X88057989Y-120139972D01*
X88058195Y-120139993D01*
X88058387Y-120139975D01*
X88062000Y-120140000D01*
X89890295Y-120140000D01*
X90045529Y-120300750D01*
X90308740Y-120483686D01*
X90602471Y-120612014D01*
X90915533Y-120680846D01*
X91236003Y-120687558D01*
X91551674Y-120631897D01*
X91850521Y-120515982D01*
X92121162Y-120344228D01*
X92353288Y-120123177D01*
X92354600Y-120121317D01*
X92354600Y-125603591D01*
X92156905Y-125404510D01*
X91891165Y-125225266D01*
X91595671Y-125101052D01*
X91281677Y-125036598D01*
X90961145Y-125034360D01*
X90646283Y-125094424D01*
X90349083Y-125214500D01*
X90080867Y-125390016D01*
X89851849Y-125614286D01*
X89670755Y-125878768D01*
X89544481Y-126173388D01*
X89477837Y-126486924D01*
X89473361Y-126807432D01*
X89531225Y-127122707D01*
X89649223Y-127420737D01*
X89822863Y-127690172D01*
X90045529Y-127920750D01*
X90308740Y-128103686D01*
X90322600Y-128109741D01*
X90322600Y-128189517D01*
X90300918Y-128203705D01*
X90120870Y-128380021D01*
X89978497Y-128587951D01*
X89879223Y-128819575D01*
X89826829Y-129066069D01*
X89823310Y-129318046D01*
X89868802Y-129565908D01*
X89961570Y-129800213D01*
X90098081Y-130012037D01*
X90273136Y-130193312D01*
X90480067Y-130337133D01*
X90674156Y-130421928D01*
X90460000Y-130421928D01*
X90358879Y-130429992D01*
X90187366Y-130483106D01*
X90037441Y-130581900D01*
X89920975Y-130718550D01*
X89847190Y-130882237D01*
X89821928Y-131060000D01*
X89821928Y-132360000D01*
X89829992Y-132461121D01*
X89883106Y-132632634D01*
X89981900Y-132782559D01*
X90118550Y-132899025D01*
X90282237Y-132972810D01*
X90460000Y-132998072D01*
X91760000Y-132998072D01*
X91846600Y-132991166D01*
X91846600Y-136598328D01*
X90094000Y-136598328D01*
X89992879Y-136606392D01*
X89821366Y-136659506D01*
X89671441Y-136758300D01*
X89554975Y-136894950D01*
X89481190Y-137058637D01*
X89455928Y-137236400D01*
X89455928Y-138963600D01*
X89463992Y-139064721D01*
X89517106Y-139236234D01*
X89615900Y-139386159D01*
X89752550Y-139502625D01*
X89901867Y-139569933D01*
X89893647Y-139576637D01*
X89707216Y-139801994D01*
X89568108Y-140059269D01*
X89481621Y-140338665D01*
X89451049Y-140629538D01*
X89477556Y-140920810D01*
X89560134Y-141201385D01*
X89695637Y-141460578D01*
X89878903Y-141688515D01*
X90102952Y-141876515D01*
X90162587Y-141909299D01*
X90120299Y-141931784D01*
X89893647Y-142116637D01*
X89707216Y-142341994D01*
X89568108Y-142599269D01*
X89481621Y-142878665D01*
X89451049Y-143169538D01*
X89477556Y-143460810D01*
X89560134Y-143741385D01*
X89695637Y-144000578D01*
X89878903Y-144228515D01*
X90102952Y-144416515D01*
X90164872Y-144450556D01*
X89958271Y-144601514D01*
X89759267Y-144817965D01*
X89606314Y-145069081D01*
X89505291Y-145345211D01*
X89502642Y-145360974D01*
X89623783Y-145593000D01*
X90983000Y-145593000D01*
X90983000Y-145573000D01*
X91237000Y-145573000D01*
X91237000Y-145593000D01*
X91257000Y-145593000D01*
X91257000Y-145847000D01*
X91237000Y-145847000D01*
X91237000Y-147060925D01*
X91471914Y-147205185D01*
X91757633Y-147135773D01*
X91846600Y-147094467D01*
X91846600Y-153594000D01*
X91853698Y-153666392D01*
X91860037Y-153738843D01*
X91861192Y-153742818D01*
X91861596Y-153746940D01*
X91882624Y-153816589D01*
X91902910Y-153886415D01*
X91904815Y-153890090D01*
X91906012Y-153894055D01*
X91940180Y-153958315D01*
X91973631Y-154022848D01*
X91976212Y-154026081D01*
X91978158Y-154029741D01*
X92024158Y-154086143D01*
X92069505Y-154142948D01*
X92075188Y-154148711D01*
X92075284Y-154148829D01*
X92075393Y-154148919D01*
X92077224Y-154150776D01*
X94363224Y-156436776D01*
X94419430Y-156482944D01*
X94475145Y-156529694D01*
X94478773Y-156531689D01*
X94481973Y-156534317D01*
X94546087Y-156568695D01*
X94609810Y-156603727D01*
X94613755Y-156604979D01*
X94617406Y-156606936D01*
X94687006Y-156628215D01*
X94756290Y-156650193D01*
X94760401Y-156650654D01*
X94764365Y-156651866D01*
X94836769Y-156659220D01*
X94909006Y-156667323D01*
X94917100Y-156667380D01*
X94917251Y-156667395D01*
X94917391Y-156667382D01*
X94920000Y-156667400D01*
X98403848Y-156667400D01*
X99212600Y-157476152D01*
X99212600Y-157721429D01*
X99179422Y-157738774D01*
X98951485Y-157922040D01*
X98763485Y-158146089D01*
X98730701Y-158205724D01*
X98708216Y-158163436D01*
X98523363Y-157936784D01*
X98298006Y-157750353D01*
X98040731Y-157611245D01*
X97761335Y-157524758D01*
X97470462Y-157494186D01*
X97179190Y-157520693D01*
X96898615Y-157603271D01*
X96639422Y-157738774D01*
X96411485Y-157922040D01*
X96223485Y-158146089D01*
X96082584Y-158402388D01*
X95994148Y-158681173D01*
X95961546Y-158971825D01*
X95961400Y-158992749D01*
X95961400Y-159007251D01*
X95989941Y-159298331D01*
X96074475Y-159578323D01*
X96211784Y-159836564D01*
X96396637Y-160063216D01*
X96621994Y-160249647D01*
X96664534Y-160272648D01*
X96449707Y-160433146D01*
X96253183Y-160651512D01*
X96103036Y-160904022D01*
X96005037Y-161180973D01*
X96125536Y-161413000D01*
X97333000Y-161413000D01*
X97333000Y-161393000D01*
X97587000Y-161393000D01*
X97587000Y-161413000D01*
X97607000Y-161413000D01*
X97607000Y-161667000D01*
X97587000Y-161667000D01*
X97587000Y-162873817D01*
X97819026Y-162994958D01*
X97969814Y-162949222D01*
X98234944Y-162822684D01*
X98470293Y-162646854D01*
X98666817Y-162428488D01*
X98726249Y-162328539D01*
X98751784Y-162376564D01*
X98936637Y-162603216D01*
X99161994Y-162789647D01*
X99218367Y-162820128D01*
X99219698Y-162833706D01*
X99226037Y-162906157D01*
X99227192Y-162910132D01*
X99227596Y-162914254D01*
X99248624Y-162983903D01*
X99268910Y-163053729D01*
X99270815Y-163057404D01*
X99272012Y-163061369D01*
X99306180Y-163125629D01*
X99339631Y-163190162D01*
X99342212Y-163193395D01*
X99344158Y-163197055D01*
X99390158Y-163253457D01*
X99435505Y-163310262D01*
X99441188Y-163316025D01*
X99441284Y-163316143D01*
X99441393Y-163316233D01*
X99443224Y-163318090D01*
X99927910Y-163802776D01*
X99984116Y-163848944D01*
X100012785Y-163873000D01*
X97170735Y-163873000D01*
X95518050Y-163374025D01*
X95322332Y-163269960D01*
X93677213Y-161899027D01*
X96005037Y-161899027D01*
X96103036Y-162175978D01*
X96253183Y-162428488D01*
X96449707Y-162646854D01*
X96685056Y-162822684D01*
X96950186Y-162949222D01*
X97100974Y-162994958D01*
X97333000Y-162873817D01*
X97333000Y-161667000D01*
X96125536Y-161667000D01*
X96005037Y-161899027D01*
X93677213Y-161899027D01*
X90215337Y-159014131D01*
X89935180Y-158495991D01*
X88477316Y-154851332D01*
X88235171Y-152547467D01*
X88235000Y-152498575D01*
X88235000Y-146079026D01*
X89502642Y-146079026D01*
X89505291Y-146094789D01*
X89606314Y-146370919D01*
X89759267Y-146622035D01*
X89958271Y-146838486D01*
X90195679Y-147011954D01*
X90462367Y-147135773D01*
X90748086Y-147205185D01*
X90983000Y-147060925D01*
X90983000Y-145847000D01*
X89623783Y-145847000D01*
X89502642Y-146079026D01*
X88235000Y-146079026D01*
X88235000Y-138250000D01*
X88234982Y-138249816D01*
X88234982Y-138244886D01*
X88231110Y-137688394D01*
X88227621Y-137655195D01*
X88227623Y-137621821D01*
X88226551Y-137611615D01*
X88127000Y-136723697D01*
X88127000Y-132000000D01*
X88121384Y-131962651D01*
X84121384Y-118962651D01*
X84105670Y-118929553D01*
X80111666Y-112938547D01*
X76230975Y-104206993D01*
X76652612Y-104206993D01*
X76718137Y-104445860D01*
X76965116Y-104561760D01*
X77229960Y-104627250D01*
X77502492Y-104639812D01*
X77772238Y-104598965D01*
X78028832Y-104506277D01*
X78141863Y-104445860D01*
X78207388Y-104206993D01*
X77430000Y-103429605D01*
X76652612Y-104206993D01*
X76230975Y-104206993D01*
X76214674Y-104170316D01*
X76131159Y-103730998D01*
X76173723Y-103848832D01*
X76234140Y-103961863D01*
X76473007Y-104027388D01*
X77250395Y-103250000D01*
X77609605Y-103250000D01*
X78386993Y-104027388D01*
X78625860Y-103961863D01*
X78741760Y-103714884D01*
X78807250Y-103450040D01*
X78811102Y-103366455D01*
X80543180Y-103366455D01*
X80592211Y-103633605D01*
X80692198Y-103886144D01*
X80839333Y-104114452D01*
X81028011Y-104309834D01*
X81251045Y-104464847D01*
X81499941Y-104573586D01*
X81765217Y-104631911D01*
X82036770Y-104637599D01*
X82304256Y-104590434D01*
X82557487Y-104492213D01*
X82786817Y-104346675D01*
X82983511Y-104159366D01*
X83140077Y-103937419D01*
X83250552Y-103689289D01*
X83310727Y-103424426D01*
X83315059Y-103114194D01*
X83262303Y-102847754D01*
X83158799Y-102596636D01*
X83008491Y-102370404D01*
X82817104Y-102177676D01*
X82591927Y-102025792D01*
X82341537Y-101920538D01*
X82075472Y-101865923D01*
X81803867Y-101864027D01*
X81537065Y-101914922D01*
X81285230Y-102016670D01*
X81057955Y-102165395D01*
X80863895Y-102355432D01*
X80710443Y-102579543D01*
X80603444Y-102829192D01*
X80546972Y-103094869D01*
X80543180Y-103366455D01*
X78811102Y-103366455D01*
X78819812Y-103177508D01*
X78778965Y-102907762D01*
X78686277Y-102651168D01*
X78625860Y-102538137D01*
X78386993Y-102472612D01*
X77609605Y-103250000D01*
X77250395Y-103250000D01*
X76473007Y-102472612D01*
X76234140Y-102538137D01*
X76127000Y-102766449D01*
X76127000Y-102293007D01*
X76652612Y-102293007D01*
X77430000Y-103070395D01*
X78207388Y-102293007D01*
X78141863Y-102054140D01*
X77894884Y-101938240D01*
X77630040Y-101872750D01*
X77357508Y-101860188D01*
X77087762Y-101901035D01*
X76831168Y-101993723D01*
X76718137Y-102054140D01*
X76652612Y-102293007D01*
X76127000Y-102293007D01*
X76127000Y-97706993D01*
X76652612Y-97706993D01*
X76718137Y-97945860D01*
X76965116Y-98061760D01*
X77229960Y-98127250D01*
X77502492Y-98139812D01*
X77772238Y-98098965D01*
X78028832Y-98006277D01*
X78141863Y-97945860D01*
X78207388Y-97706993D01*
X77430000Y-96929605D01*
X76652612Y-97706993D01*
X76127000Y-97706993D01*
X76127000Y-97219486D01*
X76173723Y-97348832D01*
X76234140Y-97461863D01*
X76473007Y-97527388D01*
X77250395Y-96750000D01*
X77609605Y-96750000D01*
X78386993Y-97527388D01*
X78625860Y-97461863D01*
X78741760Y-97214884D01*
X78807250Y-96950040D01*
X78811102Y-96866455D01*
X80543180Y-96866455D01*
X80592211Y-97133605D01*
X80692198Y-97386144D01*
X80839333Y-97614452D01*
X81028011Y-97809834D01*
X81251045Y-97964847D01*
X81499941Y-98073586D01*
X81765217Y-98131911D01*
X82036770Y-98137599D01*
X82304256Y-98090434D01*
X82557487Y-97992213D01*
X82786817Y-97846675D01*
X82983511Y-97659366D01*
X83140077Y-97437419D01*
X83250552Y-97189289D01*
X83310727Y-96924426D01*
X83315059Y-96614194D01*
X83262303Y-96347754D01*
X83158799Y-96096636D01*
X83008491Y-95870404D01*
X82817104Y-95677676D01*
X82591927Y-95525792D01*
X82341537Y-95420538D01*
X82075472Y-95365923D01*
X81803867Y-95364027D01*
X81537065Y-95414922D01*
X81285230Y-95516670D01*
X81057955Y-95665395D01*
X80863895Y-95855432D01*
X80710443Y-96079543D01*
X80603444Y-96329192D01*
X80546972Y-96594869D01*
X80543180Y-96866455D01*
X78811102Y-96866455D01*
X78819812Y-96677508D01*
X78778965Y-96407762D01*
X78686277Y-96151168D01*
X78625860Y-96038137D01*
X78386993Y-95972612D01*
X77609605Y-96750000D01*
X77250395Y-96750000D01*
X76473007Y-95972612D01*
X76234140Y-96038137D01*
X76127000Y-96266449D01*
X76127000Y-96038021D01*
X76128761Y-96020056D01*
X76219580Y-95793007D01*
X76652612Y-95793007D01*
X77430000Y-96570395D01*
X78207388Y-95793007D01*
X78141863Y-95554140D01*
X77894884Y-95438240D01*
X77630040Y-95372750D01*
X77357508Y-95360188D01*
X77087762Y-95401035D01*
X76831168Y-95493723D01*
X76718137Y-95554140D01*
X76652612Y-95793007D01*
X76219580Y-95793007D01*
X80018027Y-86296893D01*
X80616439Y-85563167D01*
X85080914Y-81098692D01*
X89469636Y-78172877D01*
X89861721Y-77951801D01*
X89892544Y-77930205D01*
X89902459Y-77925022D01*
X89919514Y-77911309D01*
X89979202Y-77869490D01*
X90004984Y-77842589D01*
X90014253Y-77835137D01*
X90029206Y-77817317D01*
X90075623Y-77768886D01*
X91038452Y-77127000D01*
X97514134Y-77127000D01*
X98374469Y-77502871D01*
X98374469Y-77502871D01*
G37*
X98374469Y-77502871D02*
X99377156Y-77723326D01*
X100403567Y-77744827D01*
X101414607Y-77566553D01*
X102371765Y-77195296D01*
X102479382Y-77127000D01*
X108961548Y-77127000D01*
X109935642Y-77776396D01*
X109944341Y-77786065D01*
X109978466Y-77827906D01*
X109992226Y-77839290D01*
X110004169Y-77852564D01*
X110047380Y-77884917D01*
X110088993Y-77919343D01*
X110104706Y-77927839D01*
X110118997Y-77938539D01*
X110127809Y-77943797D01*
X110622473Y-78234283D01*
X114919086Y-81098692D01*
X119284891Y-85464497D01*
X120055397Y-86480454D01*
X123873000Y-96024460D01*
X123873000Y-96280514D01*
X123826277Y-96151168D01*
X123765860Y-96038137D01*
X123526993Y-95972612D01*
X122749605Y-96750000D01*
X123526993Y-97527388D01*
X123765860Y-97461863D01*
X123873000Y-97233551D01*
X123873000Y-102780514D01*
X123826277Y-102651168D01*
X123765860Y-102538137D01*
X123526993Y-102472612D01*
X122749605Y-103250000D01*
X123526993Y-104027388D01*
X123765860Y-103961863D01*
X123873000Y-103733551D01*
X123873000Y-103961978D01*
X123871607Y-103976183D01*
X119888334Y-112938547D01*
X115894330Y-118929553D01*
X115878616Y-118962651D01*
X111878616Y-131962651D01*
X111873000Y-132000000D01*
X111873000Y-137112585D01*
X111768508Y-138178277D01*
X111768508Y-138209106D01*
X111765072Y-138239738D01*
X111765000Y-138250000D01*
X111765000Y-152464054D01*
X111537480Y-154784481D01*
X111500714Y-154906256D01*
X110052137Y-158527697D01*
X109800524Y-159000914D01*
X107386672Y-161012457D01*
X107391323Y-160970994D01*
X107391380Y-160962900D01*
X107391395Y-160962749D01*
X107391382Y-160962609D01*
X107391400Y-160960000D01*
X107391400Y-154771730D01*
X107395900Y-154778559D01*
X107532550Y-154895025D01*
X107696237Y-154968810D01*
X107874000Y-154994072D01*
X109906000Y-154994072D01*
X110007121Y-154986008D01*
X110178634Y-154932894D01*
X110328559Y-154834100D01*
X110445025Y-154697450D01*
X110518810Y-154533763D01*
X110544072Y-154356000D01*
X110544072Y-152324000D01*
X110536008Y-152222879D01*
X110482894Y-152051366D01*
X110384100Y-151901441D01*
X110247450Y-151784975D01*
X110215924Y-151770764D01*
X110296382Y-151664815D01*
X110438076Y-151373826D01*
X110495975Y-151182944D01*
X110376836Y-150927000D01*
X109017000Y-150927000D01*
X109017000Y-150947000D01*
X108763000Y-150947000D01*
X108763000Y-150927000D01*
X108743000Y-150927000D01*
X108743000Y-150673000D01*
X108763000Y-150673000D01*
X108763000Y-149312638D01*
X109017000Y-149312638D01*
X109017000Y-150673000D01*
X110376836Y-150673000D01*
X110495975Y-150417056D01*
X110438076Y-150226174D01*
X110296382Y-149935185D01*
X110100642Y-149677431D01*
X109858377Y-149462816D01*
X109578898Y-149299589D01*
X109272945Y-149194022D01*
X109017000Y-149312638D01*
X108763000Y-149312638D01*
X108507055Y-149194022D01*
X108201102Y-149299589D01*
X107921623Y-149462816D01*
X107679358Y-149677431D01*
X107483618Y-149935185D01*
X107341924Y-150226174D01*
X107303980Y-150351269D01*
X107297820Y-150339685D01*
X107264369Y-150275152D01*
X107261788Y-150271919D01*
X107259842Y-150268259D01*
X107213822Y-150211833D01*
X107168495Y-150155053D01*
X107162813Y-150149290D01*
X107162716Y-150149171D01*
X107162606Y-150149080D01*
X107160776Y-150147224D01*
X105571437Y-148557885D01*
X105574327Y-148548547D01*
X105603602Y-148270018D01*
X105578219Y-147991108D01*
X105499146Y-147722440D01*
X105369394Y-147474247D01*
X105193905Y-147255983D01*
X104979365Y-147075962D01*
X104822585Y-146989772D01*
X104962754Y-146915242D01*
X105179787Y-146738234D01*
X105358306Y-146522442D01*
X105491511Y-146276085D01*
X105574327Y-146008547D01*
X105603602Y-145730018D01*
X105578219Y-145451108D01*
X105499146Y-145182440D01*
X105369394Y-144934247D01*
X105193905Y-144715983D01*
X104979365Y-144535962D01*
X104822585Y-144449772D01*
X104962754Y-144375242D01*
X105179787Y-144198234D01*
X105358306Y-143982442D01*
X105456952Y-143800000D01*
X107601928Y-143800000D01*
X107601928Y-145100000D01*
X107609992Y-145201121D01*
X107663106Y-145372634D01*
X107761900Y-145522559D01*
X107898550Y-145639025D01*
X108062237Y-145712810D01*
X108240000Y-145738072D01*
X109540000Y-145738072D01*
X109641121Y-145730008D01*
X109812634Y-145676894D01*
X109962559Y-145578100D01*
X110079025Y-145441450D01*
X110152810Y-145277763D01*
X110178072Y-145100000D01*
X110178072Y-143800000D01*
X110170008Y-143698879D01*
X110116894Y-143527366D01*
X110018100Y-143377441D01*
X109881450Y-143260975D01*
X109717763Y-143187190D01*
X109540000Y-143161928D01*
X109317561Y-143161928D01*
X109453896Y-143111578D01*
X109542534Y-143064201D01*
X109595922Y-142835527D01*
X108890000Y-142129605D01*
X108184078Y-142835527D01*
X108237466Y-143064201D01*
X108449643Y-143161928D01*
X108240000Y-143161928D01*
X108138879Y-143169992D01*
X107967366Y-143223106D01*
X107817441Y-143321900D01*
X107700975Y-143458550D01*
X107627190Y-143622237D01*
X107601928Y-143800000D01*
X105456952Y-143800000D01*
X105491511Y-143736085D01*
X105574327Y-143468547D01*
X105603602Y-143190018D01*
X105578219Y-142911108D01*
X105499146Y-142642440D01*
X105369394Y-142394247D01*
X105193905Y-142175983D01*
X105015706Y-142026455D01*
X107601048Y-142026455D01*
X107640730Y-142276449D01*
X107728422Y-142513896D01*
X107775799Y-142602534D01*
X108004473Y-142655922D01*
X108710395Y-141950000D01*
X109069605Y-141950000D01*
X109775527Y-142655922D01*
X110004201Y-142602534D01*
X110110095Y-142372626D01*
X110169102Y-142126476D01*
X110178952Y-141873545D01*
X110139270Y-141623551D01*
X110051578Y-141386104D01*
X110004201Y-141297466D01*
X109775527Y-141244078D01*
X109069605Y-141950000D01*
X108710395Y-141950000D01*
X108004473Y-141244078D01*
X107775799Y-141297466D01*
X107669905Y-141527374D01*
X107610898Y-141773524D01*
X107601048Y-142026455D01*
X105015706Y-142026455D01*
X104979365Y-141995962D01*
X104822585Y-141909772D01*
X104962754Y-141835242D01*
X105179787Y-141658234D01*
X105358306Y-141442442D01*
X105491511Y-141196085D01*
X105532251Y-141064473D01*
X108184078Y-141064473D01*
X108890000Y-141770395D01*
X109595922Y-141064473D01*
X109542534Y-140835799D01*
X109312626Y-140729905D01*
X109066476Y-140670898D01*
X108813545Y-140661048D01*
X108563551Y-140700730D01*
X108326104Y-140788422D01*
X108237466Y-140835799D01*
X108184078Y-141064473D01*
X105532251Y-141064473D01*
X105574327Y-140928547D01*
X105603602Y-140650018D01*
X105578219Y-140371108D01*
X105499146Y-140102440D01*
X105369394Y-139854247D01*
X105193905Y-139635983D01*
X104979365Y-139455962D01*
X104822585Y-139369772D01*
X104962754Y-139295242D01*
X105179787Y-139118234D01*
X105358306Y-138902442D01*
X105491511Y-138656085D01*
X105574327Y-138388547D01*
X105603602Y-138110018D01*
X105578219Y-137831108D01*
X105499146Y-137562440D01*
X105440364Y-137450000D01*
X107601928Y-137450000D01*
X107601928Y-138750000D01*
X107609992Y-138851121D01*
X107663106Y-139022634D01*
X107761900Y-139172559D01*
X107898550Y-139289025D01*
X108062237Y-139362810D01*
X108240000Y-139388072D01*
X109540000Y-139388072D01*
X109641121Y-139380008D01*
X109812634Y-139326894D01*
X109962559Y-139228100D01*
X110079025Y-139091450D01*
X110152810Y-138927763D01*
X110178072Y-138750000D01*
X110178072Y-137450000D01*
X110170008Y-137348879D01*
X110116894Y-137177366D01*
X110018100Y-137027441D01*
X109881450Y-136910975D01*
X109717763Y-136837190D01*
X109540000Y-136811928D01*
X109317561Y-136811928D01*
X109453896Y-136761578D01*
X109542534Y-136714201D01*
X109595922Y-136485527D01*
X108890000Y-135779605D01*
X108184078Y-136485527D01*
X108237466Y-136714201D01*
X108449643Y-136811928D01*
X108240000Y-136811928D01*
X108138879Y-136819992D01*
X107967366Y-136873106D01*
X107817441Y-136971900D01*
X107700975Y-137108550D01*
X107627190Y-137272237D01*
X107601928Y-137450000D01*
X105440364Y-137450000D01*
X105369394Y-137314247D01*
X105193905Y-137095983D01*
X104979365Y-136915962D01*
X104830846Y-136834313D01*
X105062839Y-136682601D01*
X105264500Y-136484895D01*
X105423715Y-136251646D01*
X105534367Y-135991818D01*
X105551904Y-135909039D01*
X105429915Y-135687000D01*
X103937000Y-135687000D01*
X103937000Y-135707000D01*
X103683000Y-135707000D01*
X103683000Y-135687000D01*
X103663000Y-135687000D01*
X103663000Y-135676455D01*
X107601048Y-135676455D01*
X107640730Y-135926449D01*
X107728422Y-136163896D01*
X107775799Y-136252534D01*
X108004473Y-136305922D01*
X108710395Y-135600000D01*
X109069605Y-135600000D01*
X109775527Y-136305922D01*
X110004201Y-136252534D01*
X110110095Y-136022626D01*
X110169102Y-135776476D01*
X110178952Y-135523545D01*
X110139270Y-135273551D01*
X110051578Y-135036104D01*
X110004201Y-134947466D01*
X109775527Y-134894078D01*
X109069605Y-135600000D01*
X108710395Y-135600000D01*
X108004473Y-134894078D01*
X107775799Y-134947466D01*
X107669905Y-135177374D01*
X107610898Y-135423524D01*
X107601048Y-135676455D01*
X103663000Y-135676455D01*
X103663000Y-135433000D01*
X103683000Y-135433000D01*
X103683000Y-135413000D01*
X103937000Y-135413000D01*
X103937000Y-135433000D01*
X105429915Y-135433000D01*
X105551904Y-135210961D01*
X105534367Y-135128182D01*
X105423715Y-134868354D01*
X105318677Y-134714473D01*
X108184078Y-134714473D01*
X108890000Y-135420395D01*
X109595922Y-134714473D01*
X109542534Y-134485799D01*
X109312626Y-134379905D01*
X109066476Y-134320898D01*
X108813545Y-134311048D01*
X108563551Y-134350730D01*
X108326104Y-134438422D01*
X108237466Y-134485799D01*
X108184078Y-134714473D01*
X105318677Y-134714473D01*
X105264500Y-134635105D01*
X105062839Y-134437399D01*
X104830586Y-134285517D01*
X104962754Y-134215242D01*
X105179787Y-134038234D01*
X105358306Y-133822442D01*
X105491511Y-133576085D01*
X105574327Y-133308547D01*
X105603602Y-133030018D01*
X105578219Y-132751108D01*
X105499146Y-132482440D01*
X105369394Y-132234247D01*
X105193905Y-132015983D01*
X104979365Y-131835962D01*
X104822585Y-131749772D01*
X104962754Y-131675242D01*
X105179787Y-131498234D01*
X105358306Y-131282442D01*
X105491511Y-131036085D01*
X105574327Y-130768547D01*
X105603602Y-130490018D01*
X105578219Y-130211108D01*
X105499146Y-129942440D01*
X105369394Y-129694247D01*
X105193905Y-129475983D01*
X104979365Y-129295962D01*
X104822585Y-129209772D01*
X104962754Y-129135242D01*
X105179787Y-128958234D01*
X105358306Y-128742442D01*
X105371920Y-128717263D01*
X105409643Y-128713963D01*
X105413618Y-128712808D01*
X105417740Y-128712404D01*
X105487389Y-128691376D01*
X105557215Y-128671090D01*
X105560890Y-128669185D01*
X105564855Y-128667988D01*
X105629115Y-128633820D01*
X105693648Y-128600369D01*
X105696881Y-128597788D01*
X105700541Y-128595842D01*
X105756943Y-128549842D01*
X105813748Y-128504495D01*
X105819511Y-128498812D01*
X105819629Y-128498716D01*
X105819719Y-128498607D01*
X105821576Y-128496776D01*
X106906776Y-127411576D01*
X106952944Y-127355370D01*
X106999694Y-127299655D01*
X107001689Y-127296027D01*
X107004317Y-127292827D01*
X107038695Y-127228713D01*
X107073727Y-127164990D01*
X107074979Y-127161045D01*
X107076936Y-127157394D01*
X107098215Y-127087794D01*
X107120193Y-127018510D01*
X107120654Y-127014399D01*
X107121866Y-127010435D01*
X107129225Y-126937991D01*
X107137323Y-126865794D01*
X107137380Y-126857709D01*
X107137396Y-126857548D01*
X107137382Y-126857398D01*
X107137400Y-126854800D01*
X107137400Y-117598152D01*
X114018776Y-110716776D01*
X114064944Y-110660570D01*
X114111694Y-110604855D01*
X114113689Y-110601227D01*
X114116317Y-110598027D01*
X114150695Y-110533913D01*
X114185727Y-110470190D01*
X114186979Y-110466245D01*
X114188936Y-110462594D01*
X114210215Y-110392994D01*
X114232193Y-110323710D01*
X114232654Y-110319599D01*
X114233866Y-110315635D01*
X114241220Y-110243235D01*
X114249323Y-110170994D01*
X114249380Y-110162899D01*
X114249395Y-110162748D01*
X114249382Y-110162608D01*
X114249400Y-110160000D01*
X114249400Y-103366455D01*
X116683180Y-103366455D01*
X116732211Y-103633605D01*
X116832198Y-103886144D01*
X116979333Y-104114452D01*
X117168011Y-104309834D01*
X117391045Y-104464847D01*
X117639941Y-104573586D01*
X117905217Y-104631911D01*
X118176770Y-104637599D01*
X118444256Y-104590434D01*
X118697487Y-104492213D01*
X118926817Y-104346675D01*
X119073497Y-104206993D01*
X121792612Y-104206993D01*
X121858137Y-104445860D01*
X122105116Y-104561760D01*
X122369960Y-104627250D01*
X122642492Y-104639812D01*
X122912238Y-104598965D01*
X123168832Y-104506277D01*
X123281863Y-104445860D01*
X123347388Y-104206993D01*
X122570000Y-103429605D01*
X121792612Y-104206993D01*
X119073497Y-104206993D01*
X119123511Y-104159366D01*
X119280077Y-103937419D01*
X119390552Y-103689289D01*
X119450727Y-103424426D01*
X119452150Y-103322492D01*
X121180188Y-103322492D01*
X121221035Y-103592238D01*
X121313723Y-103848832D01*
X121374140Y-103961863D01*
X121613007Y-104027388D01*
X122390395Y-103250000D01*
X121613007Y-102472612D01*
X121374140Y-102538137D01*
X121258240Y-102785116D01*
X121192750Y-103049960D01*
X121180188Y-103322492D01*
X119452150Y-103322492D01*
X119455059Y-103114194D01*
X119402303Y-102847754D01*
X119298799Y-102596636D01*
X119148491Y-102370404D01*
X119071633Y-102293007D01*
X121792612Y-102293007D01*
X122570000Y-103070395D01*
X123347388Y-102293007D01*
X123281863Y-102054140D01*
X123034884Y-101938240D01*
X122770040Y-101872750D01*
X122497508Y-101860188D01*
X122227762Y-101901035D01*
X121971168Y-101993723D01*
X121858137Y-102054140D01*
X121792612Y-102293007D01*
X119071633Y-102293007D01*
X118957104Y-102177676D01*
X118731927Y-102025792D01*
X118481537Y-101920538D01*
X118215472Y-101865923D01*
X117943867Y-101864027D01*
X117677065Y-101914922D01*
X117425230Y-102016670D01*
X117197955Y-102165395D01*
X117003895Y-102355432D01*
X116850443Y-102579543D01*
X116743444Y-102829192D01*
X116686972Y-103094869D01*
X116683180Y-103366455D01*
X114249400Y-103366455D01*
X114249400Y-102732000D01*
X114242302Y-102659612D01*
X114235963Y-102587157D01*
X114234808Y-102583182D01*
X114234404Y-102579060D01*
X114213376Y-102509411D01*
X114193090Y-102439585D01*
X114191185Y-102435910D01*
X114189988Y-102431945D01*
X114155820Y-102367685D01*
X114122369Y-102303152D01*
X114119788Y-102299919D01*
X114117842Y-102296259D01*
X114071842Y-102239857D01*
X114026495Y-102183052D01*
X114020812Y-102177289D01*
X114020716Y-102177171D01*
X114020607Y-102177081D01*
X114018776Y-102175224D01*
X113363556Y-101520004D01*
X113380727Y-101444426D01*
X113385059Y-101134194D01*
X113332303Y-100867754D01*
X113228799Y-100616636D01*
X113078491Y-100390404D01*
X112887104Y-100197676D01*
X112661927Y-100045792D01*
X112554362Y-100000576D01*
X112627487Y-99972213D01*
X112856817Y-99826675D01*
X113053511Y-99639366D01*
X113210077Y-99417419D01*
X113320552Y-99169289D01*
X113380727Y-98904426D01*
X113385059Y-98594194D01*
X113332303Y-98327754D01*
X113228799Y-98076636D01*
X113078491Y-97850404D01*
X112887104Y-97657676D01*
X112661927Y-97505792D01*
X112554362Y-97460576D01*
X112627487Y-97432213D01*
X112856817Y-97286675D01*
X113053511Y-97099366D01*
X113210077Y-96877419D01*
X113214958Y-96866455D01*
X116683180Y-96866455D01*
X116732211Y-97133605D01*
X116832198Y-97386144D01*
X116979333Y-97614452D01*
X117168011Y-97809834D01*
X117391045Y-97964847D01*
X117639941Y-98073586D01*
X117905217Y-98131911D01*
X118176770Y-98137599D01*
X118444256Y-98090434D01*
X118697487Y-97992213D01*
X118926817Y-97846675D01*
X119073497Y-97706993D01*
X121792612Y-97706993D01*
X121858137Y-97945860D01*
X122105116Y-98061760D01*
X122369960Y-98127250D01*
X122642492Y-98139812D01*
X122912238Y-98098965D01*
X123168832Y-98006277D01*
X123281863Y-97945860D01*
X123347388Y-97706993D01*
X122570000Y-96929605D01*
X121792612Y-97706993D01*
X119073497Y-97706993D01*
X119123511Y-97659366D01*
X119280077Y-97437419D01*
X119390552Y-97189289D01*
X119450727Y-96924426D01*
X119452150Y-96822492D01*
X121180188Y-96822492D01*
X121221035Y-97092238D01*
X121313723Y-97348832D01*
X121374140Y-97461863D01*
X121613007Y-97527388D01*
X122390395Y-96750000D01*
X121613007Y-95972612D01*
X121374140Y-96038137D01*
X121258240Y-96285116D01*
X121192750Y-96549960D01*
X121180188Y-96822492D01*
X119452150Y-96822492D01*
X119455059Y-96614194D01*
X119402303Y-96347754D01*
X119298799Y-96096636D01*
X119148491Y-95870404D01*
X119071633Y-95793007D01*
X121792612Y-95793007D01*
X122570000Y-96570395D01*
X123347388Y-95793007D01*
X123281863Y-95554140D01*
X123034884Y-95438240D01*
X122770040Y-95372750D01*
X122497508Y-95360188D01*
X122227762Y-95401035D01*
X121971168Y-95493723D01*
X121858137Y-95554140D01*
X121792612Y-95793007D01*
X119071633Y-95793007D01*
X118957104Y-95677676D01*
X118731927Y-95525792D01*
X118481537Y-95420538D01*
X118215472Y-95365923D01*
X117943867Y-95364027D01*
X117677065Y-95414922D01*
X117425230Y-95516670D01*
X117197955Y-95665395D01*
X117003895Y-95855432D01*
X116850443Y-96079543D01*
X116743444Y-96329192D01*
X116686972Y-96594869D01*
X116683180Y-96866455D01*
X113214958Y-96866455D01*
X113320552Y-96629289D01*
X113380727Y-96364426D01*
X113385059Y-96054194D01*
X113332303Y-95787754D01*
X113228799Y-95536636D01*
X113078491Y-95310404D01*
X112887104Y-95117676D01*
X112661927Y-94965792D01*
X112554362Y-94920576D01*
X112627487Y-94892213D01*
X112856817Y-94746675D01*
X113053511Y-94559366D01*
X113210077Y-94337419D01*
X113320552Y-94089289D01*
X113380727Y-93824426D01*
X113385059Y-93514194D01*
X113332303Y-93247754D01*
X113228799Y-92996636D01*
X113078491Y-92770404D01*
X112887104Y-92577676D01*
X112661927Y-92425792D01*
X112554362Y-92380576D01*
X112627487Y-92352213D01*
X112856817Y-92206675D01*
X113053511Y-92019366D01*
X113210077Y-91797419D01*
X113320552Y-91549289D01*
X113380727Y-91284426D01*
X113385059Y-90974194D01*
X113332303Y-90707754D01*
X113228799Y-90456636D01*
X113078491Y-90230404D01*
X112887104Y-90037676D01*
X112661927Y-89885792D01*
X112411537Y-89780538D01*
X112145472Y-89725923D01*
X111873867Y-89724027D01*
X111607065Y-89774922D01*
X111355230Y-89876670D01*
X111127955Y-90025395D01*
X110933895Y-90215432D01*
X110780443Y-90439543D01*
X110673444Y-90689192D01*
X110616972Y-90954869D01*
X110613180Y-91226455D01*
X110662211Y-91493605D01*
X110762198Y-91746144D01*
X110909333Y-91974452D01*
X111098011Y-92169834D01*
X111321045Y-92324847D01*
X111446664Y-92379728D01*
X111355230Y-92416670D01*
X111127955Y-92565395D01*
X110933895Y-92755432D01*
X110780443Y-92979543D01*
X110673444Y-93229192D01*
X110616972Y-93494869D01*
X110613180Y-93766455D01*
X110662211Y-94033605D01*
X110762198Y-94286144D01*
X110909333Y-94514452D01*
X111098011Y-94709834D01*
X111321045Y-94864847D01*
X111446664Y-94919728D01*
X111355230Y-94956670D01*
X111127955Y-95105395D01*
X110947400Y-95282207D01*
X110947400Y-94920000D01*
X110940302Y-94847612D01*
X110933963Y-94775157D01*
X110932808Y-94771182D01*
X110932404Y-94767060D01*
X110911376Y-94697411D01*
X110891090Y-94627585D01*
X110889185Y-94623910D01*
X110887988Y-94619945D01*
X110853820Y-94555685D01*
X110820369Y-94491152D01*
X110817788Y-94487919D01*
X110815842Y-94484259D01*
X110769842Y-94427857D01*
X110724495Y-94371052D01*
X110718812Y-94365289D01*
X110718716Y-94365171D01*
X110718607Y-94365081D01*
X110716776Y-94363224D01*
X109803603Y-93450051D01*
X109789425Y-93378448D01*
X109719550Y-93208920D01*
X109618079Y-93056193D01*
X109488875Y-92926084D01*
X109336860Y-92823549D01*
X109167825Y-92752493D01*
X108988207Y-92715623D01*
X108804849Y-92714343D01*
X108624733Y-92748701D01*
X108454722Y-92817390D01*
X108301291Y-92917793D01*
X108170283Y-93046086D01*
X108066689Y-93197381D01*
X107994454Y-93365916D01*
X107956331Y-93545272D01*
X107953771Y-93728617D01*
X107986872Y-93908968D01*
X108054372Y-94079454D01*
X108153701Y-94233583D01*
X108281076Y-94365484D01*
X108431644Y-94470131D01*
X108599671Y-94543540D01*
X108689806Y-94563358D01*
X109372600Y-95246152D01*
X109372600Y-97927656D01*
X109336860Y-97903549D01*
X109167825Y-97832493D01*
X108988207Y-97795623D01*
X108804849Y-97794343D01*
X108624733Y-97828701D01*
X108454722Y-97897390D01*
X108407400Y-97928357D01*
X108407400Y-97460000D01*
X108400302Y-97387612D01*
X108393963Y-97315157D01*
X108392808Y-97311182D01*
X108392404Y-97307060D01*
X108371376Y-97237411D01*
X108351090Y-97167585D01*
X108349185Y-97163910D01*
X108347988Y-97159945D01*
X108313820Y-97095685D01*
X108280369Y-97031152D01*
X108277788Y-97027919D01*
X108275842Y-97024259D01*
X108229842Y-96967857D01*
X108184495Y-96911052D01*
X108178812Y-96905289D01*
X108178716Y-96905171D01*
X108178607Y-96905081D01*
X108176776Y-96903224D01*
X107263603Y-95990051D01*
X107249425Y-95918448D01*
X107179550Y-95748920D01*
X107078079Y-95596193D01*
X106948875Y-95466084D01*
X106796860Y-95363549D01*
X106627825Y-95292493D01*
X106448207Y-95255623D01*
X106264849Y-95254343D01*
X106084733Y-95288701D01*
X105914722Y-95357390D01*
X105761291Y-95457793D01*
X105630283Y-95586086D01*
X105526689Y-95737381D01*
X105454454Y-95905916D01*
X105416331Y-96085272D01*
X105413771Y-96268617D01*
X105446872Y-96448968D01*
X105514372Y-96619454D01*
X105613701Y-96773583D01*
X105741076Y-96905484D01*
X105891644Y-97010131D01*
X106059671Y-97083540D01*
X106149806Y-97103358D01*
X106832600Y-97786152D01*
X106832600Y-104277656D01*
X106796860Y-104253549D01*
X106627825Y-104182493D01*
X106448207Y-104145623D01*
X106264849Y-104144343D01*
X106084733Y-104178701D01*
X105914722Y-104247390D01*
X105867400Y-104278357D01*
X105867400Y-102540000D01*
X105860302Y-102467612D01*
X105853963Y-102395157D01*
X105852808Y-102391182D01*
X105852404Y-102387060D01*
X105831376Y-102317411D01*
X105811090Y-102247585D01*
X105809185Y-102243910D01*
X105807988Y-102239945D01*
X105773820Y-102175685D01*
X105740369Y-102111152D01*
X105737788Y-102107919D01*
X105735842Y-102104259D01*
X105689842Y-102047857D01*
X105644495Y-101991052D01*
X105638812Y-101985289D01*
X105638716Y-101985171D01*
X105638607Y-101985081D01*
X105636776Y-101983224D01*
X104723603Y-101070051D01*
X104709425Y-100998448D01*
X104639550Y-100828920D01*
X104538079Y-100676193D01*
X104408875Y-100546084D01*
X104256860Y-100443549D01*
X104087825Y-100372493D01*
X103908207Y-100335623D01*
X103724849Y-100334343D01*
X103544733Y-100368701D01*
X103374722Y-100437390D01*
X103221291Y-100537793D01*
X103090283Y-100666086D01*
X102986689Y-100817381D01*
X102914454Y-100985916D01*
X102876331Y-101165272D01*
X102873771Y-101348617D01*
X102906872Y-101528968D01*
X102974372Y-101699454D01*
X102982191Y-101711586D01*
X102817825Y-101642493D01*
X102638207Y-101605623D01*
X102454849Y-101604343D01*
X102274733Y-101638701D01*
X102104722Y-101707390D01*
X101951291Y-101807793D01*
X101820283Y-101936086D01*
X101716689Y-102087381D01*
X101644454Y-102255916D01*
X101626618Y-102339830D01*
X100736931Y-103229517D01*
X100728079Y-103216193D01*
X100598875Y-103086084D01*
X100446860Y-102983549D01*
X100277825Y-102912493D01*
X100098207Y-102875623D01*
X99914849Y-102874343D01*
X99734733Y-102908701D01*
X99564722Y-102977390D01*
X99517400Y-103008357D01*
X99517400Y-101596152D01*
X100199215Y-100914337D01*
X100252657Y-100904914D01*
X100423610Y-100838606D01*
X100578429Y-100740355D01*
X100711215Y-100613904D01*
X100816911Y-100464070D01*
X100891492Y-100296560D01*
X100932116Y-100117754D01*
X100935040Y-99908319D01*
X100899425Y-99728448D01*
X100829550Y-99558920D01*
X100728079Y-99406193D01*
X100598875Y-99276084D01*
X100446860Y-99173549D01*
X100277825Y-99102493D01*
X100098207Y-99065623D01*
X99914849Y-99064343D01*
X99734733Y-99098701D01*
X99564722Y-99167390D01*
X99411291Y-99267793D01*
X99280283Y-99396086D01*
X99176689Y-99547381D01*
X99104454Y-99715916D01*
X99086618Y-99799830D01*
X98173224Y-100713224D01*
X98127056Y-100769430D01*
X98080306Y-100825145D01*
X98078311Y-100828773D01*
X98075683Y-100831973D01*
X98041305Y-100896087D01*
X98006273Y-100959810D01*
X98005021Y-100963755D01*
X98003064Y-100967406D01*
X97981785Y-101037006D01*
X97959807Y-101106290D01*
X97959346Y-101110401D01*
X97958134Y-101114365D01*
X97950780Y-101186769D01*
X97942677Y-101259006D01*
X97942620Y-101267100D01*
X97942605Y-101267251D01*
X97942618Y-101267391D01*
X97942600Y-101270000D01*
X97942600Y-107325656D01*
X97906860Y-107301549D01*
X97737825Y-107230493D01*
X97558207Y-107193623D01*
X97374849Y-107192343D01*
X97194733Y-107226701D01*
X97024722Y-107295390D01*
X96977400Y-107326357D01*
X96977400Y-96516152D01*
X97659215Y-95834337D01*
X97712657Y-95824914D01*
X97883610Y-95758606D01*
X98038429Y-95660355D01*
X98171215Y-95533904D01*
X98276911Y-95384070D01*
X98351492Y-95216560D01*
X98392116Y-95037754D01*
X98395040Y-94828319D01*
X98359425Y-94648448D01*
X98289550Y-94478920D01*
X98188079Y-94326193D01*
X98058875Y-94196084D01*
X97906860Y-94093549D01*
X97737825Y-94022493D01*
X97558207Y-93985623D01*
X97374849Y-93984343D01*
X97194733Y-94018701D01*
X97024722Y-94087390D01*
X96871291Y-94187793D01*
X96740283Y-94316086D01*
X96636689Y-94467381D01*
X96564454Y-94635916D01*
X96546618Y-94719830D01*
X95633224Y-95633224D01*
X95587056Y-95689430D01*
X95540306Y-95745145D01*
X95538311Y-95748773D01*
X95535683Y-95751973D01*
X95501305Y-95816087D01*
X95466273Y-95879810D01*
X95465021Y-95883755D01*
X95463064Y-95887406D01*
X95441785Y-95957006D01*
X95419807Y-96026290D01*
X95419346Y-96030401D01*
X95418134Y-96034365D01*
X95410780Y-96106769D01*
X95402677Y-96179006D01*
X95402620Y-96187100D01*
X95402605Y-96187251D01*
X95402618Y-96187391D01*
X95402600Y-96190000D01*
X95402600Y-110627656D01*
X95366860Y-110603549D01*
X95197825Y-110532493D01*
X95018207Y-110495623D01*
X94834849Y-110494343D01*
X94654733Y-110528701D01*
X94484722Y-110597390D01*
X94437400Y-110628357D01*
X94437400Y-92380000D01*
X94430302Y-92307612D01*
X94423963Y-92235157D01*
X94422808Y-92231182D01*
X94422404Y-92227060D01*
X94401376Y-92157411D01*
X94381090Y-92087585D01*
X94379185Y-92083910D01*
X94377988Y-92079945D01*
X94343820Y-92015685D01*
X94310369Y-91951152D01*
X94307788Y-91947919D01*
X94305842Y-91944259D01*
X94259842Y-91887857D01*
X94214495Y-91831052D01*
X94208812Y-91825289D01*
X94208716Y-91825171D01*
X94208607Y-91825081D01*
X94206776Y-91823224D01*
X93293603Y-90910051D01*
X93279425Y-90838448D01*
X93209550Y-90668920D01*
X93108079Y-90516193D01*
X92978875Y-90386084D01*
X92826860Y-90283549D01*
X92657825Y-90212493D01*
X92478207Y-90175623D01*
X92294849Y-90174343D01*
X92114733Y-90208701D01*
X91944722Y-90277390D01*
X91791291Y-90377793D01*
X91660283Y-90506086D01*
X91556689Y-90657381D01*
X91484454Y-90825916D01*
X91446331Y-91005272D01*
X91443771Y-91188617D01*
X91476872Y-91368968D01*
X91544372Y-91539454D01*
X91643701Y-91693583D01*
X91692709Y-91744332D01*
X91660283Y-91776086D01*
X91556689Y-91927381D01*
X91484454Y-92095916D01*
X91466618Y-92179830D01*
X90553224Y-93093224D01*
X90507056Y-93149430D01*
X90460306Y-93205145D01*
X90458311Y-93208773D01*
X90455683Y-93211973D01*
X90421305Y-93276087D01*
X90386273Y-93339810D01*
X90385021Y-93343755D01*
X90383064Y-93347406D01*
X90361785Y-93417006D01*
X90339807Y-93486290D01*
X90339346Y-93490401D01*
X90338134Y-93494365D01*
X90330780Y-93566769D01*
X90322677Y-93639006D01*
X90322620Y-93647100D01*
X90322605Y-93647251D01*
X90322618Y-93647391D01*
X90322600Y-93650000D01*
X90322600Y-99939048D01*
X89363556Y-98980004D01*
X89380727Y-98904426D01*
X89385059Y-98594194D01*
X89332303Y-98327754D01*
X89228799Y-98076636D01*
X89078491Y-97850404D01*
X88887104Y-97657676D01*
X88661927Y-97505792D01*
X88554362Y-97460576D01*
X88627487Y-97432213D01*
X88856817Y-97286675D01*
X89053511Y-97099366D01*
X89210077Y-96877419D01*
X89320552Y-96629289D01*
X89380727Y-96364426D01*
X89385059Y-96054194D01*
X89332303Y-95787754D01*
X89228799Y-95536636D01*
X89078491Y-95310404D01*
X88887104Y-95117676D01*
X88661927Y-94965792D01*
X88554362Y-94920576D01*
X88627487Y-94892213D01*
X88856817Y-94746675D01*
X89053511Y-94559366D01*
X89210077Y-94337419D01*
X89320552Y-94089289D01*
X89380727Y-93824426D01*
X89385059Y-93514194D01*
X89332303Y-93247754D01*
X89228799Y-92996636D01*
X89078491Y-92770404D01*
X88887104Y-92577676D01*
X88661927Y-92425792D01*
X88554362Y-92380576D01*
X88627487Y-92352213D01*
X88856817Y-92206675D01*
X89053511Y-92019366D01*
X89210077Y-91797419D01*
X89320552Y-91549289D01*
X89380727Y-91284426D01*
X89385059Y-90974194D01*
X89332303Y-90707754D01*
X89228799Y-90456636D01*
X89078491Y-90230404D01*
X88887104Y-90037676D01*
X88661927Y-89885792D01*
X88411537Y-89780538D01*
X88145472Y-89725923D01*
X87873867Y-89724027D01*
X87607065Y-89774922D01*
X87355230Y-89876670D01*
X87127955Y-90025395D01*
X86933895Y-90215432D01*
X86780443Y-90439543D01*
X86673444Y-90689192D01*
X86616972Y-90954869D01*
X86613180Y-91226455D01*
X86662211Y-91493605D01*
X86762198Y-91746144D01*
X86909333Y-91974452D01*
X87098011Y-92169834D01*
X87321045Y-92324847D01*
X87446664Y-92379728D01*
X87355230Y-92416670D01*
X87127955Y-92565395D01*
X86933895Y-92755432D01*
X86780443Y-92979543D01*
X86673444Y-93229192D01*
X86616972Y-93494869D01*
X86613180Y-93766455D01*
X86662211Y-94033605D01*
X86762198Y-94286144D01*
X86909333Y-94514452D01*
X87098011Y-94709834D01*
X87321045Y-94864847D01*
X87446664Y-94919728D01*
X87355230Y-94956670D01*
X87127955Y-95105395D01*
X86933895Y-95295432D01*
X86780443Y-95519543D01*
X86673444Y-95769192D01*
X86616972Y-96034869D01*
X86613180Y-96306455D01*
X86662211Y-96573605D01*
X86762198Y-96826144D01*
X86909333Y-97054452D01*
X87098011Y-97249834D01*
X87321045Y-97404847D01*
X87446664Y-97459728D01*
X87355230Y-97496670D01*
X87127955Y-97645395D01*
X86933895Y-97835432D01*
X86780443Y-98059543D01*
X86673444Y-98309192D01*
X86616972Y-98574869D01*
X86613180Y-98846455D01*
X86662211Y-99113605D01*
X86762198Y-99366144D01*
X86909333Y-99594452D01*
X87098011Y-99789834D01*
X87321045Y-99944847D01*
X87446664Y-99999728D01*
X87355230Y-100036670D01*
X87127955Y-100185395D01*
X86933895Y-100375432D01*
X86780443Y-100599543D01*
X86673444Y-100849192D01*
X86616972Y-101114869D01*
X86613180Y-101386455D01*
X86662211Y-101653605D01*
X86762198Y-101906144D01*
X86909333Y-102134452D01*
X87098011Y-102329834D01*
X87321045Y-102484847D01*
X87446664Y-102539728D01*
X87355230Y-102576670D01*
X87127955Y-102725395D01*
X86933895Y-102915432D01*
X86780443Y-103139543D01*
X86673444Y-103389192D01*
X86616972Y-103654869D01*
X86613180Y-103926455D01*
X86662211Y-104193605D01*
X86762198Y-104446144D01*
X86909333Y-104674452D01*
X87098011Y-104869834D01*
X87321045Y-105024847D01*
X87446664Y-105079728D01*
X87355230Y-105116670D01*
X87127955Y-105265395D01*
X86933895Y-105455432D01*
X86780443Y-105679543D01*
X86673444Y-105929192D01*
X86616972Y-106194869D01*
X86613180Y-106466455D01*
X86662211Y-106733605D01*
X86762198Y-106986144D01*
X86909333Y-107214452D01*
X87098011Y-107409834D01*
X87321045Y-107564847D01*
X87446664Y-107619728D01*
X87355230Y-107656670D01*
X87127955Y-107805395D01*
X86933895Y-107995432D01*
X86780443Y-108219543D01*
X86673444Y-108469192D01*
X86616972Y-108734869D01*
X86613180Y-109006455D01*
X86662211Y-109273605D01*
X86762198Y-109526144D01*
X86909333Y-109754452D01*
X87098011Y-109949834D01*
X87321045Y-110104847D01*
X87569941Y-110213586D01*
X87835217Y-110271911D01*
X88106770Y-110277599D01*
X88374256Y-110230434D01*
X88627487Y-110132213D01*
X88856817Y-109986675D01*
X89052600Y-109800234D01*
X89052600Y-112700000D01*
X89059698Y-112772392D01*
X89066037Y-112844843D01*
X89067192Y-112848818D01*
X89067596Y-112852940D01*
X89088624Y-112922589D01*
X89108910Y-112992415D01*
X89110815Y-112996090D01*
X89112012Y-113000055D01*
X89146180Y-113064315D01*
X89179631Y-113128848D01*
X89182212Y-113132081D01*
X89184158Y-113135741D01*
X89230158Y-113192143D01*
X89275505Y-113248948D01*
X89281188Y-113254711D01*
X89281284Y-113254829D01*
X89281393Y-113254919D01*
X89283224Y-113256776D01*
X92354600Y-116328152D01*
X92354600Y-117983591D01*
X92156905Y-117784510D01*
X91891165Y-117605266D01*
X91595671Y-117481052D01*
X91281677Y-117416598D01*
X90961145Y-117414360D01*
X90646283Y-117474424D01*
X90349083Y-117594500D01*
X90080867Y-117770016D01*
X89886861Y-117960000D01*
X88513493Y-117960000D01*
X85850000Y-115296508D01*
X85850000Y-90291492D01*
X87751493Y-88390000D01*
X87856368Y-88390000D01*
X87972468Y-88570152D01*
X88249695Y-88857229D01*
X88577402Y-89084991D01*
X88943108Y-89244764D01*
X89332882Y-89330462D01*
X89731879Y-89338819D01*
X90124900Y-89269519D01*
X90496975Y-89125201D01*
X90833933Y-88911361D01*
X91122938Y-88636145D01*
X91296574Y-88390000D01*
X108706368Y-88390000D01*
X108822468Y-88570152D01*
X109099695Y-88857229D01*
X109427402Y-89084991D01*
X109793108Y-89244764D01*
X110182882Y-89330462D01*
X110581879Y-89338819D01*
X110974900Y-89269519D01*
X111346975Y-89125201D01*
X111683933Y-88911361D01*
X111972938Y-88636145D01*
X112202983Y-88310035D01*
X112365305Y-87945454D01*
X112453722Y-87556287D01*
X112460087Y-87100458D01*
X112382571Y-86708974D01*
X112230492Y-86340003D01*
X112009642Y-86007597D01*
X111728434Y-85724419D01*
X111397578Y-85501254D01*
X111029677Y-85346603D01*
X110638745Y-85266356D01*
X110239670Y-85263570D01*
X109847655Y-85338351D01*
X109477631Y-85487850D01*
X109143692Y-85706374D01*
X108858557Y-85985598D01*
X108704906Y-86210000D01*
X91294118Y-86210000D01*
X91159642Y-86007597D01*
X90878434Y-85724419D01*
X90547578Y-85501254D01*
X90179677Y-85346603D01*
X89788745Y-85266356D01*
X89389670Y-85263570D01*
X88997655Y-85338351D01*
X88627631Y-85487850D01*
X88293692Y-85706374D01*
X88008557Y-85985598D01*
X87854906Y-86210000D01*
X87300000Y-86210000D01*
X87199771Y-86219828D01*
X87099492Y-86228601D01*
X87093989Y-86230200D01*
X87088285Y-86230759D01*
X86991924Y-86259852D01*
X86895209Y-86287950D01*
X86890118Y-86290589D01*
X86884633Y-86292245D01*
X86795765Y-86339497D01*
X86706343Y-86385849D01*
X86701862Y-86389426D01*
X86696803Y-86392116D01*
X86618813Y-86455724D01*
X86540090Y-86518567D01*
X86532109Y-86526437D01*
X86531949Y-86526568D01*
X86531826Y-86526716D01*
X86529253Y-86529254D01*
X83989254Y-89069254D01*
X83925370Y-89147027D01*
X83860626Y-89224186D01*
X83857864Y-89229211D01*
X83854227Y-89233638D01*
X83806672Y-89322327D01*
X83758142Y-89410603D01*
X83756408Y-89416070D01*
X83753701Y-89421118D01*
X83724271Y-89517377D01*
X83693819Y-89613376D01*
X83693180Y-89619072D01*
X83691504Y-89624554D01*
X83681331Y-89724706D01*
X83670106Y-89824781D01*
X83670028Y-89835989D01*
X83670007Y-89836195D01*
X83670025Y-89836387D01*
X83670000Y-89840000D01*
X83670000Y-115748000D01*
X83679823Y-115848184D01*
X83688600Y-115948507D01*
X83690200Y-115954014D01*
X83690759Y-115959715D01*
X83719843Y-116056047D01*
X83747950Y-116152791D01*
X83750589Y-116157882D01*
X83752245Y-116163367D01*
X83799508Y-116252255D01*
X83845849Y-116341656D01*
X83849424Y-116346135D01*
X83852116Y-116351197D01*
X83915741Y-116429209D01*
X83978567Y-116507910D01*
X83986434Y-116515887D01*
X83986568Y-116516051D01*
X83986720Y-116516177D01*
X83989254Y-116518746D01*
X87291253Y-119820746D01*
X87369073Y-119884669D01*
X87446186Y-119949374D01*
X87451208Y-119952135D01*
X87455637Y-119955773D01*
X87544348Y-120003339D01*
X87632603Y-120051858D01*
X87638070Y-120053592D01*
X87643118Y-120056299D01*
X87739336Y-120085715D01*
X87835376Y-120116181D01*
X87841077Y-120116820D01*
X87846554Y-120118495D01*
X87946657Y-120128663D01*
X88046781Y-120139894D01*
X88057989Y-120139972D01*
X88058195Y-120139993D01*
X88058387Y-120139975D01*
X88062000Y-120140000D01*
X89890295Y-120140000D01*
X90045529Y-120300750D01*
X90308740Y-120483686D01*
X90602471Y-120612014D01*
X90915533Y-120680846D01*
X91236003Y-120687558D01*
X91551674Y-120631897D01*
X91850521Y-120515982D01*
X92121162Y-120344228D01*
X92353288Y-120123177D01*
X92354600Y-120121317D01*
X92354600Y-125603591D01*
X92156905Y-125404510D01*
X91891165Y-125225266D01*
X91595671Y-125101052D01*
X91281677Y-125036598D01*
X90961145Y-125034360D01*
X90646283Y-125094424D01*
X90349083Y-125214500D01*
X90080867Y-125390016D01*
X89851849Y-125614286D01*
X89670755Y-125878768D01*
X89544481Y-126173388D01*
X89477837Y-126486924D01*
X89473361Y-126807432D01*
X89531225Y-127122707D01*
X89649223Y-127420737D01*
X89822863Y-127690172D01*
X90045529Y-127920750D01*
X90308740Y-128103686D01*
X90322600Y-128109741D01*
X90322600Y-128189517D01*
X90300918Y-128203705D01*
X90120870Y-128380021D01*
X89978497Y-128587951D01*
X89879223Y-128819575D01*
X89826829Y-129066069D01*
X89823310Y-129318046D01*
X89868802Y-129565908D01*
X89961570Y-129800213D01*
X90098081Y-130012037D01*
X90273136Y-130193312D01*
X90480067Y-130337133D01*
X90674156Y-130421928D01*
X90460000Y-130421928D01*
X90358879Y-130429992D01*
X90187366Y-130483106D01*
X90037441Y-130581900D01*
X89920975Y-130718550D01*
X89847190Y-130882237D01*
X89821928Y-131060000D01*
X89821928Y-132360000D01*
X89829992Y-132461121D01*
X89883106Y-132632634D01*
X89981900Y-132782559D01*
X90118550Y-132899025D01*
X90282237Y-132972810D01*
X90460000Y-132998072D01*
X91760000Y-132998072D01*
X91846600Y-132991166D01*
X91846600Y-136598328D01*
X90094000Y-136598328D01*
X89992879Y-136606392D01*
X89821366Y-136659506D01*
X89671441Y-136758300D01*
X89554975Y-136894950D01*
X89481190Y-137058637D01*
X89455928Y-137236400D01*
X89455928Y-138963600D01*
X89463992Y-139064721D01*
X89517106Y-139236234D01*
X89615900Y-139386159D01*
X89752550Y-139502625D01*
X89901867Y-139569933D01*
X89893647Y-139576637D01*
X89707216Y-139801994D01*
X89568108Y-140059269D01*
X89481621Y-140338665D01*
X89451049Y-140629538D01*
X89477556Y-140920810D01*
X89560134Y-141201385D01*
X89695637Y-141460578D01*
X89878903Y-141688515D01*
X90102952Y-141876515D01*
X90162587Y-141909299D01*
X90120299Y-141931784D01*
X89893647Y-142116637D01*
X89707216Y-142341994D01*
X89568108Y-142599269D01*
X89481621Y-142878665D01*
X89451049Y-143169538D01*
X89477556Y-143460810D01*
X89560134Y-143741385D01*
X89695637Y-144000578D01*
X89878903Y-144228515D01*
X90102952Y-144416515D01*
X90164872Y-144450556D01*
X89958271Y-144601514D01*
X89759267Y-144817965D01*
X89606314Y-145069081D01*
X89505291Y-145345211D01*
X89502642Y-145360974D01*
X89623783Y-145593000D01*
X90983000Y-145593000D01*
X90983000Y-145573000D01*
X91237000Y-145573000D01*
X91237000Y-145593000D01*
X91257000Y-145593000D01*
X91257000Y-145847000D01*
X91237000Y-145847000D01*
X91237000Y-147060925D01*
X91471914Y-147205185D01*
X91757633Y-147135773D01*
X91846600Y-147094467D01*
X91846600Y-153594000D01*
X91853698Y-153666392D01*
X91860037Y-153738843D01*
X91861192Y-153742818D01*
X91861596Y-153746940D01*
X91882624Y-153816589D01*
X91902910Y-153886415D01*
X91904815Y-153890090D01*
X91906012Y-153894055D01*
X91940180Y-153958315D01*
X91973631Y-154022848D01*
X91976212Y-154026081D01*
X91978158Y-154029741D01*
X92024158Y-154086143D01*
X92069505Y-154142948D01*
X92075188Y-154148711D01*
X92075284Y-154148829D01*
X92075393Y-154148919D01*
X92077224Y-154150776D01*
X94363224Y-156436776D01*
X94419430Y-156482944D01*
X94475145Y-156529694D01*
X94478773Y-156531689D01*
X94481973Y-156534317D01*
X94546087Y-156568695D01*
X94609810Y-156603727D01*
X94613755Y-156604979D01*
X94617406Y-156606936D01*
X94687006Y-156628215D01*
X94756290Y-156650193D01*
X94760401Y-156650654D01*
X94764365Y-156651866D01*
X94836769Y-156659220D01*
X94909006Y-156667323D01*
X94917100Y-156667380D01*
X94917251Y-156667395D01*
X94917391Y-156667382D01*
X94920000Y-156667400D01*
X98403848Y-156667400D01*
X99212600Y-157476152D01*
X99212600Y-157721429D01*
X99179422Y-157738774D01*
X98951485Y-157922040D01*
X98763485Y-158146089D01*
X98730701Y-158205724D01*
X98708216Y-158163436D01*
X98523363Y-157936784D01*
X98298006Y-157750353D01*
X98040731Y-157611245D01*
X97761335Y-157524758D01*
X97470462Y-157494186D01*
X97179190Y-157520693D01*
X96898615Y-157603271D01*
X96639422Y-157738774D01*
X96411485Y-157922040D01*
X96223485Y-158146089D01*
X96082584Y-158402388D01*
X95994148Y-158681173D01*
X95961546Y-158971825D01*
X95961400Y-158992749D01*
X95961400Y-159007251D01*
X95989941Y-159298331D01*
X96074475Y-159578323D01*
X96211784Y-159836564D01*
X96396637Y-160063216D01*
X96621994Y-160249647D01*
X96664534Y-160272648D01*
X96449707Y-160433146D01*
X96253183Y-160651512D01*
X96103036Y-160904022D01*
X96005037Y-161180973D01*
X96125536Y-161413000D01*
X97333000Y-161413000D01*
X97333000Y-161393000D01*
X97587000Y-161393000D01*
X97587000Y-161413000D01*
X97607000Y-161413000D01*
X97607000Y-161667000D01*
X97587000Y-161667000D01*
X97587000Y-162873817D01*
X97819026Y-162994958D01*
X97969814Y-162949222D01*
X98234944Y-162822684D01*
X98470293Y-162646854D01*
X98666817Y-162428488D01*
X98726249Y-162328539D01*
X98751784Y-162376564D01*
X98936637Y-162603216D01*
X99161994Y-162789647D01*
X99218367Y-162820128D01*
X99219698Y-162833706D01*
X99226037Y-162906157D01*
X99227192Y-162910132D01*
X99227596Y-162914254D01*
X99248624Y-162983903D01*
X99268910Y-163053729D01*
X99270815Y-163057404D01*
X99272012Y-163061369D01*
X99306180Y-163125629D01*
X99339631Y-163190162D01*
X99342212Y-163193395D01*
X99344158Y-163197055D01*
X99390158Y-163253457D01*
X99435505Y-163310262D01*
X99441188Y-163316025D01*
X99441284Y-163316143D01*
X99441393Y-163316233D01*
X99443224Y-163318090D01*
X99927910Y-163802776D01*
X99984116Y-163848944D01*
X100012785Y-163873000D01*
X97170735Y-163873000D01*
X95518050Y-163374025D01*
X95322332Y-163269960D01*
X93677213Y-161899027D01*
X96005037Y-161899027D01*
X96103036Y-162175978D01*
X96253183Y-162428488D01*
X96449707Y-162646854D01*
X96685056Y-162822684D01*
X96950186Y-162949222D01*
X97100974Y-162994958D01*
X97333000Y-162873817D01*
X97333000Y-161667000D01*
X96125536Y-161667000D01*
X96005037Y-161899027D01*
X93677213Y-161899027D01*
X90215337Y-159014131D01*
X89935180Y-158495991D01*
X88477316Y-154851332D01*
X88235171Y-152547467D01*
X88235000Y-152498575D01*
X88235000Y-146079026D01*
X89502642Y-146079026D01*
X89505291Y-146094789D01*
X89606314Y-146370919D01*
X89759267Y-146622035D01*
X89958271Y-146838486D01*
X90195679Y-147011954D01*
X90462367Y-147135773D01*
X90748086Y-147205185D01*
X90983000Y-147060925D01*
X90983000Y-145847000D01*
X89623783Y-145847000D01*
X89502642Y-146079026D01*
X88235000Y-146079026D01*
X88235000Y-138250000D01*
X88234982Y-138249816D01*
X88234982Y-138244886D01*
X88231110Y-137688394D01*
X88227621Y-137655195D01*
X88227623Y-137621821D01*
X88226551Y-137611615D01*
X88127000Y-136723697D01*
X88127000Y-132000000D01*
X88121384Y-131962651D01*
X84121384Y-118962651D01*
X84105670Y-118929553D01*
X80111666Y-112938547D01*
X76230975Y-104206993D01*
X76652612Y-104206993D01*
X76718137Y-104445860D01*
X76965116Y-104561760D01*
X77229960Y-104627250D01*
X77502492Y-104639812D01*
X77772238Y-104598965D01*
X78028832Y-104506277D01*
X78141863Y-104445860D01*
X78207388Y-104206993D01*
X77430000Y-103429605D01*
X76652612Y-104206993D01*
X76230975Y-104206993D01*
X76214674Y-104170316D01*
X76131159Y-103730998D01*
X76173723Y-103848832D01*
X76234140Y-103961863D01*
X76473007Y-104027388D01*
X77250395Y-103250000D01*
X77609605Y-103250000D01*
X78386993Y-104027388D01*
X78625860Y-103961863D01*
X78741760Y-103714884D01*
X78807250Y-103450040D01*
X78811102Y-103366455D01*
X80543180Y-103366455D01*
X80592211Y-103633605D01*
X80692198Y-103886144D01*
X80839333Y-104114452D01*
X81028011Y-104309834D01*
X81251045Y-104464847D01*
X81499941Y-104573586D01*
X81765217Y-104631911D01*
X82036770Y-104637599D01*
X82304256Y-104590434D01*
X82557487Y-104492213D01*
X82786817Y-104346675D01*
X82983511Y-104159366D01*
X83140077Y-103937419D01*
X83250552Y-103689289D01*
X83310727Y-103424426D01*
X83315059Y-103114194D01*
X83262303Y-102847754D01*
X83158799Y-102596636D01*
X83008491Y-102370404D01*
X82817104Y-102177676D01*
X82591927Y-102025792D01*
X82341537Y-101920538D01*
X82075472Y-101865923D01*
X81803867Y-101864027D01*
X81537065Y-101914922D01*
X81285230Y-102016670D01*
X81057955Y-102165395D01*
X80863895Y-102355432D01*
X80710443Y-102579543D01*
X80603444Y-102829192D01*
X80546972Y-103094869D01*
X80543180Y-103366455D01*
X78811102Y-103366455D01*
X78819812Y-103177508D01*
X78778965Y-102907762D01*
X78686277Y-102651168D01*
X78625860Y-102538137D01*
X78386993Y-102472612D01*
X77609605Y-103250000D01*
X77250395Y-103250000D01*
X76473007Y-102472612D01*
X76234140Y-102538137D01*
X76127000Y-102766449D01*
X76127000Y-102293007D01*
X76652612Y-102293007D01*
X77430000Y-103070395D01*
X78207388Y-102293007D01*
X78141863Y-102054140D01*
X77894884Y-101938240D01*
X77630040Y-101872750D01*
X77357508Y-101860188D01*
X77087762Y-101901035D01*
X76831168Y-101993723D01*
X76718137Y-102054140D01*
X76652612Y-102293007D01*
X76127000Y-102293007D01*
X76127000Y-97706993D01*
X76652612Y-97706993D01*
X76718137Y-97945860D01*
X76965116Y-98061760D01*
X77229960Y-98127250D01*
X77502492Y-98139812D01*
X77772238Y-98098965D01*
X78028832Y-98006277D01*
X78141863Y-97945860D01*
X78207388Y-97706993D01*
X77430000Y-96929605D01*
X76652612Y-97706993D01*
X76127000Y-97706993D01*
X76127000Y-97219486D01*
X76173723Y-97348832D01*
X76234140Y-97461863D01*
X76473007Y-97527388D01*
X77250395Y-96750000D01*
X77609605Y-96750000D01*
X78386993Y-97527388D01*
X78625860Y-97461863D01*
X78741760Y-97214884D01*
X78807250Y-96950040D01*
X78811102Y-96866455D01*
X80543180Y-96866455D01*
X80592211Y-97133605D01*
X80692198Y-97386144D01*
X80839333Y-97614452D01*
X81028011Y-97809834D01*
X81251045Y-97964847D01*
X81499941Y-98073586D01*
X81765217Y-98131911D01*
X82036770Y-98137599D01*
X82304256Y-98090434D01*
X82557487Y-97992213D01*
X82786817Y-97846675D01*
X82983511Y-97659366D01*
X83140077Y-97437419D01*
X83250552Y-97189289D01*
X83310727Y-96924426D01*
X83315059Y-96614194D01*
X83262303Y-96347754D01*
X83158799Y-96096636D01*
X83008491Y-95870404D01*
X82817104Y-95677676D01*
X82591927Y-95525792D01*
X82341537Y-95420538D01*
X82075472Y-95365923D01*
X81803867Y-95364027D01*
X81537065Y-95414922D01*
X81285230Y-95516670D01*
X81057955Y-95665395D01*
X80863895Y-95855432D01*
X80710443Y-96079543D01*
X80603444Y-96329192D01*
X80546972Y-96594869D01*
X80543180Y-96866455D01*
X78811102Y-96866455D01*
X78819812Y-96677508D01*
X78778965Y-96407762D01*
X78686277Y-96151168D01*
X78625860Y-96038137D01*
X78386993Y-95972612D01*
X77609605Y-96750000D01*
X77250395Y-96750000D01*
X76473007Y-95972612D01*
X76234140Y-96038137D01*
X76127000Y-96266449D01*
X76127000Y-96038021D01*
X76128761Y-96020056D01*
X76219580Y-95793007D01*
X76652612Y-95793007D01*
X77430000Y-96570395D01*
X78207388Y-95793007D01*
X78141863Y-95554140D01*
X77894884Y-95438240D01*
X77630040Y-95372750D01*
X77357508Y-95360188D01*
X77087762Y-95401035D01*
X76831168Y-95493723D01*
X76718137Y-95554140D01*
X76652612Y-95793007D01*
X76219580Y-95793007D01*
X80018027Y-86296893D01*
X80616439Y-85563167D01*
X85080914Y-81098692D01*
X89469636Y-78172877D01*
X89861721Y-77951801D01*
X89892544Y-77930205D01*
X89902459Y-77925022D01*
X89919514Y-77911309D01*
X89979202Y-77869490D01*
X90004984Y-77842589D01*
X90014253Y-77835137D01*
X90029206Y-77817317D01*
X90075623Y-77768886D01*
X91038452Y-77127000D01*
X97514134Y-77127000D01*
X98374469Y-77502871D01*
G36*
X94178424Y-133576776D02*
X94234630Y-133622944D01*
X94290345Y-133669694D01*
X94293973Y-133671689D01*
X94297173Y-133674317D01*
X94361287Y-133708695D01*
X94425010Y-133743727D01*
X94428955Y-133744979D01*
X94432606Y-133746936D01*
X94502206Y-133768215D01*
X94571490Y-133790193D01*
X94575601Y-133790654D01*
X94579565Y-133791866D01*
X94625801Y-133796563D01*
X94630606Y-133805753D01*
X94806095Y-134024017D01*
X95020635Y-134204038D01*
X95177415Y-134290228D01*
X95037246Y-134364758D01*
X94820213Y-134541766D01*
X94641694Y-134757558D01*
X94508489Y-135003915D01*
X94425673Y-135271453D01*
X94396398Y-135549982D01*
X94421781Y-135828892D01*
X94500854Y-136097560D01*
X94630606Y-136345753D01*
X94806095Y-136564017D01*
X95020635Y-136744038D01*
X95169154Y-136825687D01*
X94937161Y-136977399D01*
X94735500Y-137175105D01*
X94576285Y-137408354D01*
X94465633Y-137668182D01*
X94448096Y-137750961D01*
X94570085Y-137973000D01*
X96063000Y-137973000D01*
X96063000Y-137953000D01*
X96317000Y-137953000D01*
X96317000Y-137973000D01*
X96337000Y-137973000D01*
X96337000Y-138227000D01*
X96317000Y-138227000D01*
X96317000Y-138247000D01*
X96063000Y-138247000D01*
X96063000Y-138227000D01*
X94570085Y-138227000D01*
X94448096Y-138449039D01*
X94465633Y-138531818D01*
X94576285Y-138791646D01*
X94735500Y-139024895D01*
X94937161Y-139222601D01*
X95169414Y-139374483D01*
X95037246Y-139444758D01*
X94820213Y-139621766D01*
X94641694Y-139837558D01*
X94508489Y-140083915D01*
X94425673Y-140351453D01*
X94396398Y-140629982D01*
X94421781Y-140908892D01*
X94500854Y-141177560D01*
X94630606Y-141425753D01*
X94806095Y-141644017D01*
X95020635Y-141824038D01*
X95177415Y-141910228D01*
X95037246Y-141984758D01*
X94820213Y-142161766D01*
X94641694Y-142377558D01*
X94508489Y-142623915D01*
X94425673Y-142891453D01*
X94396398Y-143169982D01*
X94421781Y-143448892D01*
X94500854Y-143717560D01*
X94630606Y-143965753D01*
X94806095Y-144184017D01*
X95020635Y-144364038D01*
X95177415Y-144450228D01*
X95037246Y-144524758D01*
X94825889Y-144697137D01*
X93929400Y-143800648D01*
X93929400Y-133327752D01*
X94178424Y-133576776D01*
X94178424Y-133576776D01*
G37*
X94178424Y-133576776D02*
X94234630Y-133622944D01*
X94290345Y-133669694D01*
X94293973Y-133671689D01*
X94297173Y-133674317D01*
X94361287Y-133708695D01*
X94425010Y-133743727D01*
X94428955Y-133744979D01*
X94432606Y-133746936D01*
X94502206Y-133768215D01*
X94571490Y-133790193D01*
X94575601Y-133790654D01*
X94579565Y-133791866D01*
X94625801Y-133796563D01*
X94630606Y-133805753D01*
X94806095Y-134024017D01*
X95020635Y-134204038D01*
X95177415Y-134290228D01*
X95037246Y-134364758D01*
X94820213Y-134541766D01*
X94641694Y-134757558D01*
X94508489Y-135003915D01*
X94425673Y-135271453D01*
X94396398Y-135549982D01*
X94421781Y-135828892D01*
X94500854Y-136097560D01*
X94630606Y-136345753D01*
X94806095Y-136564017D01*
X95020635Y-136744038D01*
X95169154Y-136825687D01*
X94937161Y-136977399D01*
X94735500Y-137175105D01*
X94576285Y-137408354D01*
X94465633Y-137668182D01*
X94448096Y-137750961D01*
X94570085Y-137973000D01*
X96063000Y-137973000D01*
X96063000Y-137953000D01*
X96317000Y-137953000D01*
X96317000Y-137973000D01*
X96337000Y-137973000D01*
X96337000Y-138227000D01*
X96317000Y-138227000D01*
X96317000Y-138247000D01*
X96063000Y-138247000D01*
X96063000Y-138227000D01*
X94570085Y-138227000D01*
X94448096Y-138449039D01*
X94465633Y-138531818D01*
X94576285Y-138791646D01*
X94735500Y-139024895D01*
X94937161Y-139222601D01*
X95169414Y-139374483D01*
X95037246Y-139444758D01*
X94820213Y-139621766D01*
X94641694Y-139837558D01*
X94508489Y-140083915D01*
X94425673Y-140351453D01*
X94396398Y-140629982D01*
X94421781Y-140908892D01*
X94500854Y-141177560D01*
X94630606Y-141425753D01*
X94806095Y-141644017D01*
X95020635Y-141824038D01*
X95177415Y-141910228D01*
X95037246Y-141984758D01*
X94820213Y-142161766D01*
X94641694Y-142377558D01*
X94508489Y-142623915D01*
X94425673Y-142891453D01*
X94396398Y-143169982D01*
X94421781Y-143448892D01*
X94500854Y-143717560D01*
X94630606Y-143965753D01*
X94806095Y-144184017D01*
X95020635Y-144364038D01*
X95177415Y-144450228D01*
X95037246Y-144524758D01*
X94825889Y-144697137D01*
X93929400Y-143800648D01*
X93929400Y-133327752D01*
X94178424Y-133576776D01*
M02*
