G04 #@! TF.GenerationSoftware,KiCad,Pcbnew,5.1.9+dfsg1-1*
G04 #@! TF.CreationDate,2022-04-24T09:45:27+02:00*
G04 #@! TF.ProjectId,Macher_Daach_Badge,4d616368-6572-45f4-9461-6163685f4261,v1.0*
G04 #@! TF.SameCoordinates,Original*
G04 #@! TF.FileFunction,Soldermask,Bot*
G04 #@! TF.FilePolarity,Negative*
%FSLAX46Y46*%
G04 Gerber Fmt 4.6, Leading zero omitted, Abs format (unit mm)*
G04 Created by KiCad (PCBNEW 5.1.9+dfsg1-1) date 2022-04-24 09:45:27*
%MOMM*%
%LPD*%
G01*
G04 APERTURE LIST*
%ADD10C,2.400000*%
%ADD11O,2.432000X2.127200*%
%ADD12O,2.700000X2.000000*%
%ADD13C,2.398980*%
%ADD14O,2.127200X2.127200*%
%ADD15O,2.432000X2.432000*%
%ADD16C,1.700000*%
%ADD17C,3.200000*%
%ADD18C,8.400000*%
%ADD19C,9.600000*%
%ADD20O,2.000000X2.700000*%
%ADD21C,0.100000*%
G04 APERTURE END LIST*
D10*
X108890000Y-125400000D03*
X108890000Y-122860000D03*
X108890000Y-120320000D03*
G36*
G01*
X89894000Y-138963600D02*
X89894000Y-137236400D01*
G75*
G02*
X90094000Y-137036400I200000J0D01*
G01*
X92126000Y-137036400D01*
G75*
G02*
X92326000Y-137236400I0J-200000D01*
G01*
X92326000Y-138963600D01*
G75*
G02*
X92126000Y-139163600I-200000J0D01*
G01*
X90094000Y-139163600D01*
G75*
G02*
X89894000Y-138963600I0J200000D01*
G01*
G37*
D11*
X91110000Y-140640000D03*
X91110000Y-143180000D03*
X91110000Y-145720000D03*
D12*
X96190000Y-120320000D03*
X96190000Y-122860000D03*
X96190000Y-125400000D03*
X96190000Y-127940000D03*
X96190000Y-130480000D03*
X96190000Y-133020000D03*
X96190000Y-135560000D03*
X96190000Y-138100000D03*
X96190000Y-140640000D03*
X96190000Y-143180000D03*
X96190000Y-145720000D03*
X96190000Y-148260000D03*
X96190000Y-150800000D03*
X96190000Y-153340000D03*
X103810000Y-153340000D03*
X103810000Y-150800000D03*
X103810000Y-148260000D03*
X103810000Y-145720000D03*
X103810000Y-143180000D03*
X103810000Y-140640000D03*
X103810000Y-138100000D03*
X103810000Y-135560000D03*
X103810000Y-133020000D03*
X103810000Y-130480000D03*
X103810000Y-127940000D03*
X103810000Y-125400000D03*
X103810000Y-122860000D03*
X103810000Y-120320000D03*
D13*
X91110000Y-119050000D03*
X91110000Y-126670000D03*
G36*
G01*
X101676400Y-157936400D02*
X103403600Y-157936400D01*
G75*
G02*
X103603600Y-158136400I0J-200000D01*
G01*
X103603600Y-159863600D01*
G75*
G02*
X103403600Y-160063600I-200000J0D01*
G01*
X101676400Y-160063600D01*
G75*
G02*
X101476400Y-159863600I0J200000D01*
G01*
X101476400Y-158136400D01*
G75*
G02*
X101676400Y-157936400I200000J0D01*
G01*
G37*
D14*
X102540000Y-161540000D03*
X100000000Y-159000000D03*
X100000000Y-161540000D03*
X97460000Y-159000000D03*
X97460000Y-161540000D03*
G36*
G01*
X107674000Y-131496000D02*
X107674000Y-129464000D01*
G75*
G02*
X107874000Y-129264000I200000J0D01*
G01*
X109906000Y-129264000D01*
G75*
G02*
X110106000Y-129464000I0J-200000D01*
G01*
X110106000Y-131496000D01*
G75*
G02*
X109906000Y-131696000I-200000J0D01*
G01*
X107874000Y-131696000D01*
G75*
G02*
X107674000Y-131496000I0J200000D01*
G01*
G37*
D15*
X108890000Y-133020000D03*
G36*
G01*
X108240000Y-143640000D02*
X109540000Y-143640000D01*
G75*
G02*
X109740000Y-143840000I0J-200000D01*
G01*
X109740000Y-145140000D01*
G75*
G02*
X109540000Y-145340000I-200000J0D01*
G01*
X108240000Y-145340000D01*
G75*
G02*
X108040000Y-145140000I0J200000D01*
G01*
X108040000Y-143840000D01*
G75*
G02*
X108240000Y-143640000I200000J0D01*
G01*
G37*
D16*
X108890000Y-146990000D03*
G36*
G01*
X91760000Y-132560000D02*
X90460000Y-132560000D01*
G75*
G02*
X90260000Y-132360000I0J200000D01*
G01*
X90260000Y-131060000D01*
G75*
G02*
X90460000Y-130860000I200000J0D01*
G01*
X91760000Y-130860000D01*
G75*
G02*
X91960000Y-131060000I0J-200000D01*
G01*
X91960000Y-132360000D01*
G75*
G02*
X91760000Y-132560000I-200000J0D01*
G01*
G37*
X91110000Y-129210000D03*
G36*
G01*
X108240000Y-137290000D02*
X109540000Y-137290000D01*
G75*
G02*
X109740000Y-137490000I0J-200000D01*
G01*
X109740000Y-138790000D01*
G75*
G02*
X109540000Y-138990000I-200000J0D01*
G01*
X108240000Y-138990000D01*
G75*
G02*
X108040000Y-138790000I0J200000D01*
G01*
X108040000Y-137490000D01*
G75*
G02*
X108240000Y-137290000I200000J0D01*
G01*
G37*
X108890000Y-140640000D03*
D17*
X110425000Y-87300000D03*
X89575000Y-87300000D03*
D18*
X100000000Y-87300000D03*
D19*
X100000000Y-72500000D03*
D12*
X112000000Y-108890000D03*
X112000000Y-106350000D03*
X112000000Y-103810000D03*
X112000000Y-101270000D03*
X112000000Y-98730000D03*
X112000000Y-96190000D03*
X112000000Y-93650000D03*
X112000000Y-91110000D03*
X88000000Y-91110000D03*
X88000000Y-93650000D03*
X88000000Y-96190000D03*
X88000000Y-98730000D03*
X88000000Y-101270000D03*
X88000000Y-103810000D03*
X88000000Y-106350000D03*
X88000000Y-108890000D03*
D20*
X81930000Y-103250000D03*
X77430000Y-103250000D03*
X81930000Y-96750000D03*
X77430000Y-96750000D03*
X118070000Y-96750000D03*
X122570000Y-96750000D03*
X118070000Y-103250000D03*
X122570000Y-103250000D03*
D21*
G36*
X109484414Y-131695000D02*
G01*
X109484414Y-131697000D01*
X109482878Y-131697990D01*
X109458691Y-131700372D01*
X109435616Y-131707372D01*
X109414352Y-131718737D01*
X109395715Y-131734032D01*
X109380420Y-131752669D01*
X109369055Y-131773933D01*
X109362055Y-131797008D01*
X109359692Y-131820999D01*
X109362055Y-131844990D01*
X109369055Y-131868065D01*
X109380420Y-131889329D01*
X109395715Y-131907966D01*
X109414352Y-131923261D01*
X109430384Y-131931829D01*
X109431440Y-131933527D01*
X109430497Y-131935291D01*
X109428676Y-131935441D01*
X109242404Y-131858285D01*
X109008990Y-131811855D01*
X108771010Y-131811855D01*
X108537596Y-131858285D01*
X108351325Y-131935441D01*
X108349342Y-131935180D01*
X108348577Y-131933332D01*
X108349617Y-131931829D01*
X108365647Y-131923261D01*
X108384284Y-131907966D01*
X108399579Y-131889329D01*
X108410945Y-131868066D01*
X108417945Y-131844991D01*
X108420308Y-131820999D01*
X108417945Y-131797009D01*
X108410945Y-131773934D01*
X108399580Y-131752670D01*
X108384285Y-131734033D01*
X108365648Y-131718738D01*
X108344385Y-131707372D01*
X108321310Y-131700372D01*
X108297122Y-131697990D01*
X108295496Y-131696825D01*
X108295692Y-131694835D01*
X108297318Y-131694000D01*
X109482682Y-131694000D01*
X109484414Y-131695000D01*
G37*
G36*
X109235542Y-124007865D02*
G01*
X109235932Y-124009827D01*
X109234619Y-124011098D01*
X109217230Y-124016373D01*
X109195966Y-124027738D01*
X109177329Y-124043034D01*
X109162034Y-124061671D01*
X109150669Y-124082934D01*
X109143669Y-124106009D01*
X109141306Y-124130000D01*
X109143669Y-124153992D01*
X109150669Y-124177066D01*
X109162034Y-124198330D01*
X109177330Y-124216967D01*
X109195967Y-124232262D01*
X109217230Y-124243627D01*
X109234619Y-124248902D01*
X109235986Y-124250362D01*
X109235405Y-124252276D01*
X109233648Y-124252778D01*
X109007422Y-124207778D01*
X108772578Y-124207778D01*
X108546352Y-124252778D01*
X108544458Y-124252135D01*
X108544068Y-124250173D01*
X108545381Y-124248902D01*
X108562770Y-124243627D01*
X108584034Y-124232262D01*
X108602671Y-124216966D01*
X108617966Y-124198329D01*
X108629331Y-124177066D01*
X108636331Y-124153991D01*
X108638694Y-124130000D01*
X108636331Y-124106008D01*
X108629331Y-124082934D01*
X108617966Y-124061670D01*
X108602670Y-124043033D01*
X108584033Y-124027738D01*
X108562770Y-124016373D01*
X108545381Y-124011098D01*
X108544014Y-124009638D01*
X108544595Y-124007724D01*
X108546352Y-124007222D01*
X108772578Y-124052222D01*
X109007422Y-124052222D01*
X109233648Y-124007222D01*
X109235542Y-124007865D01*
G37*
G36*
X109235542Y-121467865D02*
G01*
X109235932Y-121469827D01*
X109234619Y-121471098D01*
X109217230Y-121476373D01*
X109195966Y-121487738D01*
X109177329Y-121503034D01*
X109162034Y-121521671D01*
X109150669Y-121542934D01*
X109143669Y-121566009D01*
X109141306Y-121590000D01*
X109143669Y-121613992D01*
X109150669Y-121637066D01*
X109162034Y-121658330D01*
X109177330Y-121676967D01*
X109195967Y-121692262D01*
X109217230Y-121703627D01*
X109234619Y-121708902D01*
X109235986Y-121710362D01*
X109235405Y-121712276D01*
X109233648Y-121712778D01*
X109007422Y-121667778D01*
X108772578Y-121667778D01*
X108546352Y-121712778D01*
X108544458Y-121712135D01*
X108544068Y-121710173D01*
X108545381Y-121708902D01*
X108562770Y-121703627D01*
X108584034Y-121692262D01*
X108602671Y-121676966D01*
X108617966Y-121658329D01*
X108629331Y-121637066D01*
X108636331Y-121613991D01*
X108638694Y-121590000D01*
X108636331Y-121566008D01*
X108629331Y-121542934D01*
X108617966Y-121521670D01*
X108602670Y-121503033D01*
X108584033Y-121487738D01*
X108562770Y-121476373D01*
X108545381Y-121471098D01*
X108544014Y-121469638D01*
X108544595Y-121467724D01*
X108546352Y-121467222D01*
X108772578Y-121512222D01*
X109007422Y-121512222D01*
X109233648Y-121467222D01*
X109235542Y-121467865D01*
G37*
M02*
