G04 #@! TF.GenerationSoftware,KiCad,Pcbnew,5.1.9+dfsg1-1*
G04 #@! TF.CreationDate,2022-04-24T09:45:27+02:00*
G04 #@! TF.ProjectId,Macher_Daach_Badge,4d616368-6572-45f4-9461-6163685f4261,v1.0*
G04 #@! TF.SameCoordinates,Original*
G04 #@! TF.FileFunction,Copper,L2,Bot*
G04 #@! TF.FilePolarity,Positive*
%FSLAX46Y46*%
G04 Gerber Fmt 4.6, Leading zero omitted, Abs format (unit mm)*
G04 Created by KiCad (PCBNEW 5.1.9+dfsg1-1) date 2022-04-24 09:45:27*
%MOMM*%
%LPD*%
G01*
G04 APERTURE LIST*
G04 #@! TA.AperFunction,ComponentPad*
%ADD10C,2.000000*%
G04 #@! TD*
G04 #@! TA.AperFunction,ComponentPad*
%ADD11R,2.032000X1.727200*%
G04 #@! TD*
G04 #@! TA.AperFunction,ComponentPad*
%ADD12O,2.032000X1.727200*%
G04 #@! TD*
G04 #@! TA.AperFunction,ComponentPad*
%ADD13O,2.300000X1.600000*%
G04 #@! TD*
G04 #@! TA.AperFunction,ComponentPad*
%ADD14C,1.998980*%
G04 #@! TD*
G04 #@! TA.AperFunction,ComponentPad*
%ADD15R,1.727200X1.727200*%
G04 #@! TD*
G04 #@! TA.AperFunction,ComponentPad*
%ADD16O,1.727200X1.727200*%
G04 #@! TD*
G04 #@! TA.AperFunction,ComponentPad*
%ADD17R,2.032000X2.032000*%
G04 #@! TD*
G04 #@! TA.AperFunction,ComponentPad*
%ADD18O,2.032000X2.032000*%
G04 #@! TD*
G04 #@! TA.AperFunction,ComponentPad*
%ADD19R,1.300000X1.300000*%
G04 #@! TD*
G04 #@! TA.AperFunction,ComponentPad*
%ADD20C,1.300000*%
G04 #@! TD*
G04 #@! TA.AperFunction,ComponentPad*
%ADD21C,2.800000*%
G04 #@! TD*
G04 #@! TA.AperFunction,SMDPad,CuDef*
%ADD22C,8.000000*%
G04 #@! TD*
G04 #@! TA.AperFunction,ComponentPad*
%ADD23C,9.200000*%
G04 #@! TD*
G04 #@! TA.AperFunction,ComponentPad*
%ADD24O,1.600000X2.300000*%
G04 #@! TD*
G04 #@! TA.AperFunction,ViaPad*
%ADD25C,0.600000*%
G04 #@! TD*
G04 #@! TA.AperFunction,Conductor*
%ADD26C,0.910000*%
G04 #@! TD*
G04 #@! TA.AperFunction,Conductor*
%ADD27C,0.304800*%
G04 #@! TD*
G04 #@! TA.AperFunction,Conductor*
%ADD28C,0.254000*%
G04 #@! TD*
G04 #@! TA.AperFunction,Conductor*
%ADD29C,0.100000*%
G04 #@! TD*
G04 APERTURE END LIST*
D10*
X108890000Y-125400000D03*
X108890000Y-122860000D03*
X108890000Y-120320000D03*
D11*
X91110000Y-138100000D03*
D12*
X91110000Y-140640000D03*
X91110000Y-143180000D03*
X91110000Y-145720000D03*
D13*
X96190000Y-120320000D03*
X96190000Y-122860000D03*
X96190000Y-125400000D03*
X96190000Y-127940000D03*
X96190000Y-130480000D03*
X96190000Y-133020000D03*
X96190000Y-135560000D03*
X96190000Y-138100000D03*
X96190000Y-140640000D03*
X96190000Y-143180000D03*
X96190000Y-145720000D03*
X96190000Y-148260000D03*
X96190000Y-150800000D03*
X96190000Y-153340000D03*
X103810000Y-153340000D03*
X103810000Y-150800000D03*
X103810000Y-148260000D03*
X103810000Y-145720000D03*
X103810000Y-143180000D03*
X103810000Y-140640000D03*
X103810000Y-138100000D03*
X103810000Y-135560000D03*
X103810000Y-133020000D03*
X103810000Y-130480000D03*
X103810000Y-127940000D03*
X103810000Y-125400000D03*
X103810000Y-122860000D03*
X103810000Y-120320000D03*
D14*
X91110000Y-119050000D03*
X91110000Y-126670000D03*
D15*
X102540000Y-159000000D03*
D16*
X102540000Y-161540000D03*
X100000000Y-159000000D03*
X100000000Y-161540000D03*
X97460000Y-159000000D03*
X97460000Y-161540000D03*
D17*
X108890000Y-130480000D03*
D18*
X108890000Y-133020000D03*
D19*
X108890000Y-144490000D03*
D20*
X108890000Y-146990000D03*
D19*
X91110000Y-131710000D03*
D20*
X91110000Y-129210000D03*
D19*
X108890000Y-138140000D03*
D20*
X108890000Y-140640000D03*
D21*
X110425000Y-87300000D03*
X89575000Y-87300000D03*
D22*
X100000000Y-87300000D03*
D23*
X100000000Y-72500000D03*
D13*
X112000000Y-108890000D03*
X112000000Y-106350000D03*
X112000000Y-103810000D03*
X112000000Y-101270000D03*
X112000000Y-98730000D03*
X112000000Y-96190000D03*
X112000000Y-93650000D03*
X112000000Y-91110000D03*
X88000000Y-91110000D03*
X88000000Y-93650000D03*
X88000000Y-96190000D03*
X88000000Y-98730000D03*
X88000000Y-101270000D03*
X88000000Y-103810000D03*
X88000000Y-106350000D03*
X88000000Y-108890000D03*
D24*
X81930000Y-103250000D03*
X77430000Y-103250000D03*
X81930000Y-96750000D03*
X77430000Y-96750000D03*
X118070000Y-96750000D03*
X122570000Y-96750000D03*
X118070000Y-103250000D03*
X122570000Y-103250000D03*
D25*
X94920000Y-111430000D03*
X97460000Y-108128000D03*
X106350000Y-105080000D03*
X100000000Y-100000000D03*
X108890000Y-98730000D03*
X97460000Y-94920000D03*
X92380000Y-92380000D03*
X92380000Y-91110000D03*
X108890000Y-93650000D03*
X106350000Y-96190000D03*
X103810000Y-101270000D03*
X92380000Y-105080000D03*
X102540000Y-106858000D03*
X103810000Y-109398000D03*
X100000000Y-103810000D03*
X102540000Y-102540000D03*
D26*
X106604000Y-138100000D02*
X106604000Y-124993600D01*
X106604000Y-124993600D02*
X108737600Y-122860000D01*
X108737600Y-122860000D02*
X108890000Y-122860000D01*
X103810000Y-140640000D02*
X103810000Y-138100000D01*
X91110000Y-119050000D02*
X92380000Y-117780000D01*
X92380000Y-117780000D02*
X97460000Y-117780000D01*
X97460000Y-117780000D02*
X98984000Y-119304000D01*
X98984000Y-119304000D02*
X98984000Y-135560000D01*
X102540000Y-161540000D02*
X104500000Y-161540000D01*
X104500000Y-161540000D02*
X106604000Y-159436000D01*
X108890000Y-144450000D02*
X106604000Y-144450000D01*
X106604000Y-138100000D02*
X108890000Y-138100000D01*
X106604000Y-138100000D02*
X106604000Y-143724000D01*
X103810000Y-138100000D02*
X106604000Y-138100000D01*
X101524000Y-138100000D02*
X98984000Y-135560000D01*
X98984000Y-135560000D02*
X96190000Y-135560000D01*
X103810000Y-138100000D02*
X101524000Y-138100000D01*
X95840000Y-135560000D02*
X96190000Y-135560000D01*
X106604000Y-144450000D02*
X106604000Y-143724000D01*
X106604000Y-153340000D02*
X106604000Y-159436000D01*
X106604000Y-144450000D02*
X106604000Y-153340000D01*
D27*
X91110000Y-126670000D02*
X92109489Y-125670511D01*
X92109489Y-125670511D02*
X92109489Y-124050511D01*
X92109489Y-124050511D02*
X95840000Y-120320000D01*
X95840000Y-120320000D02*
X96190000Y-120320000D01*
X91110000Y-138100000D02*
X91110000Y-136931600D01*
X91110000Y-136931600D02*
X91110000Y-131710000D01*
X94920000Y-111430000D02*
X96190000Y-110160000D01*
X96190000Y-110160000D02*
X110730000Y-110160000D01*
X110730000Y-110160000D02*
X112000000Y-108890000D01*
X98730000Y-107620000D02*
X97968000Y-107620000D01*
X97968000Y-107620000D02*
X97460000Y-108128000D01*
X110160000Y-107620000D02*
X98730000Y-107620000D01*
X110730000Y-107620000D02*
X110160000Y-107620000D01*
X112000000Y-106350000D02*
X110730000Y-107620000D01*
X107620000Y-103810000D02*
X106350000Y-105080000D01*
X112000000Y-103810000D02*
X107620000Y-103810000D01*
X110160000Y-100000000D02*
X100000000Y-100000000D01*
X110730000Y-100000000D02*
X110160000Y-100000000D01*
X112000000Y-98730000D02*
X110730000Y-100000000D01*
X108890000Y-98730000D02*
X110160000Y-97460000D01*
X110160000Y-97460000D02*
X110730000Y-97460000D01*
X110730000Y-97460000D02*
X112000000Y-96190000D01*
X110160000Y-94920000D02*
X97460000Y-94920000D01*
X110160000Y-94920000D02*
X110730000Y-94920000D01*
X110730000Y-94920000D02*
X112000000Y-93650000D01*
X96190000Y-92380000D02*
X92380000Y-92380000D01*
X96190000Y-92380000D02*
X110730000Y-92380000D01*
X110730000Y-92380000D02*
X112000000Y-91110000D01*
X89060660Y-91110000D02*
X92380000Y-91110000D01*
X88000000Y-91110000D02*
X89060660Y-91110000D01*
X105080000Y-93650000D02*
X108890000Y-93650000D01*
X88000000Y-93650000D02*
X105080000Y-93650000D01*
X88000000Y-96190000D02*
X106350000Y-96190000D01*
X101016000Y-101270000D02*
X103810000Y-101270000D01*
X89060660Y-101270000D02*
X101016000Y-101270000D01*
X88000000Y-101270000D02*
X89060660Y-101270000D01*
X91110000Y-103810000D02*
X92380000Y-105080000D01*
X88000000Y-103810000D02*
X91110000Y-103810000D01*
X102540000Y-159000000D02*
X102540000Y-158928000D01*
X102540000Y-158928000D02*
X101270000Y-157658000D01*
X101270000Y-157658000D02*
X101270000Y-146805200D01*
X101270000Y-146805200D02*
X102355200Y-145720000D01*
X102355200Y-145720000D02*
X103810000Y-145720000D01*
X104160000Y-145720000D02*
X103810000Y-145720000D01*
X102032000Y-106350000D02*
X102540000Y-106858000D01*
X101270000Y-106350000D02*
X102032000Y-106350000D01*
X97460000Y-106350000D02*
X101270000Y-106350000D01*
X89060660Y-106350000D02*
X97460000Y-106350000D01*
X88000000Y-106350000D02*
X89060660Y-106350000D01*
X103810000Y-143180000D02*
X102286000Y-143180000D01*
X100000000Y-146990000D02*
X100000000Y-159000000D01*
X100000000Y-145466000D02*
X100000000Y-146990000D01*
X102286000Y-143180000D02*
X100000000Y-145466000D01*
X103302000Y-108890000D02*
X103810000Y-109398000D01*
X102286000Y-108890000D02*
X102540000Y-108890000D01*
X88000000Y-108890000D02*
X102286000Y-108890000D01*
X102286000Y-108890000D02*
X103302000Y-108890000D01*
X91110000Y-143180000D02*
X91262400Y-143180000D01*
X93142000Y-128956000D02*
X95428000Y-126670000D01*
X91262400Y-143180000D02*
X93142000Y-141300400D01*
X95428000Y-126670000D02*
X97714000Y-126670000D01*
X98206590Y-126177410D02*
X98206590Y-123421790D01*
X93142000Y-141300400D02*
X93142000Y-128956000D01*
X97714000Y-126670000D02*
X98206590Y-126177410D01*
X98206590Y-123421790D02*
X97644800Y-122860000D01*
X97644800Y-122860000D02*
X96190000Y-122860000D01*
X92634000Y-139268400D02*
X92634000Y-128606000D01*
X92634000Y-128606000D02*
X95840000Y-125400000D01*
X95840000Y-125400000D02*
X96190000Y-125400000D01*
X91110000Y-140640000D02*
X91262400Y-140640000D01*
X91262400Y-140640000D02*
X92634000Y-139268400D01*
X81930000Y-96750000D02*
X81930000Y-97810660D01*
X81930000Y-97810660D02*
X81930000Y-103250000D01*
X100000000Y-103810000D02*
X98690001Y-102500001D01*
X82679999Y-102500001D02*
X81930000Y-103250000D01*
X98690001Y-102500001D02*
X82679999Y-102500001D01*
X118070000Y-96750000D02*
X118070000Y-103250000D01*
X102540000Y-102540000D02*
X117360000Y-102540000D01*
X117360000Y-102540000D02*
X118070000Y-103250000D01*
D26*
X108890000Y-130480000D02*
X111430000Y-127940000D01*
X111430000Y-127940000D02*
X111430000Y-122707600D01*
X111430000Y-122707600D02*
X109042400Y-120320000D01*
X109042400Y-120320000D02*
X108890000Y-120320000D01*
D28*
X108944958Y-77115940D02*
X109927456Y-77770938D01*
X109977763Y-77832238D01*
X110089681Y-77924087D01*
X110217368Y-77992337D01*
X110223878Y-77994312D01*
X110389494Y-78078964D01*
X114919086Y-81098692D01*
X119752489Y-85932095D01*
X119939032Y-86189539D01*
X123641046Y-95444574D01*
X123494895Y-95295500D01*
X123261646Y-95136285D01*
X123001818Y-95025633D01*
X122919039Y-95008096D01*
X122697000Y-95130085D01*
X122697000Y-96623000D01*
X122717000Y-96623000D01*
X122717000Y-96877000D01*
X122697000Y-96877000D01*
X122697000Y-98369915D01*
X122919039Y-98491904D01*
X123001818Y-98474367D01*
X123261646Y-98363715D01*
X123494895Y-98204500D01*
X123692601Y-98002839D01*
X123847166Y-97766483D01*
X123873000Y-97702324D01*
X123873000Y-102297676D01*
X123847166Y-102233517D01*
X123692601Y-101997161D01*
X123494895Y-101795500D01*
X123261646Y-101636285D01*
X123001818Y-101525633D01*
X122919039Y-101508096D01*
X122697000Y-101630085D01*
X122697000Y-103123000D01*
X122717000Y-103123000D01*
X122717000Y-103377000D01*
X122697000Y-103377000D01*
X122697000Y-104869915D01*
X122919039Y-104991904D01*
X123001818Y-104974367D01*
X123261646Y-104863715D01*
X123494895Y-104704500D01*
X123591875Y-104605580D01*
X119888334Y-112938547D01*
X115894330Y-118929553D01*
X115878616Y-118962651D01*
X114163491Y-124536808D01*
X113766198Y-125640330D01*
X113766191Y-125640348D01*
X113751923Y-125684262D01*
X113050861Y-128097338D01*
X113050858Y-128097346D01*
X113039375Y-128142069D01*
X113000057Y-128317968D01*
X111878616Y-131962651D01*
X111873662Y-131987050D01*
X111873000Y-132000000D01*
X111873000Y-135396200D01*
X111847193Y-135669209D01*
X111844293Y-135715292D01*
X111844293Y-135715324D01*
X111766133Y-138202397D01*
X111765001Y-138213895D01*
X111765000Y-152479469D01*
X111690539Y-153811306D01*
X111508733Y-154886209D01*
X109960948Y-158755671D01*
X109770012Y-159026340D01*
X104666082Y-163279615D01*
X103946208Y-163582223D01*
X102958230Y-163873000D01*
X97050179Y-163873000D01*
X96131263Y-163609505D01*
X95336882Y-163282085D01*
X93677213Y-161899027D01*
X96005037Y-161899027D01*
X96103036Y-162175978D01*
X96253183Y-162428488D01*
X96449707Y-162646854D01*
X96685056Y-162822684D01*
X96950186Y-162949222D01*
X97100974Y-162994958D01*
X97333000Y-162873817D01*
X97333000Y-161667000D01*
X96125536Y-161667000D01*
X96005037Y-161899027D01*
X93677213Y-161899027D01*
X90222752Y-159020310D01*
X90067454Y-158803392D01*
X90034694Y-158744774D01*
X88496246Y-154898655D01*
X88318901Y-153892886D01*
X88235225Y-152562887D01*
X88235000Y-152498575D01*
X88235000Y-146079026D01*
X89502642Y-146079026D01*
X89505291Y-146094789D01*
X89606314Y-146370919D01*
X89759267Y-146622035D01*
X89958271Y-146838486D01*
X90195679Y-147011954D01*
X90462367Y-147135773D01*
X90748086Y-147205185D01*
X90983000Y-147060925D01*
X90983000Y-145847000D01*
X91237000Y-145847000D01*
X91237000Y-147060925D01*
X91471914Y-147205185D01*
X91757633Y-147135773D01*
X92024321Y-147011954D01*
X92261729Y-146838486D01*
X92460733Y-146622035D01*
X92613686Y-146370919D01*
X92714709Y-146094789D01*
X92717358Y-146079026D01*
X92596217Y-145847000D01*
X91237000Y-145847000D01*
X90983000Y-145847000D01*
X89623783Y-145847000D01*
X89502642Y-146079026D01*
X88235000Y-146079026D01*
X88235000Y-140640000D01*
X89451749Y-140640000D01*
X89480684Y-140933777D01*
X89566375Y-141216264D01*
X89705531Y-141476606D01*
X89892803Y-141704797D01*
X90120994Y-141892069D01*
X90154540Y-141910000D01*
X90120994Y-141927931D01*
X89892803Y-142115203D01*
X89705531Y-142343394D01*
X89566375Y-142603736D01*
X89480684Y-142886223D01*
X89451749Y-143180000D01*
X89480684Y-143473777D01*
X89566375Y-143756264D01*
X89705531Y-144016606D01*
X89892803Y-144244797D01*
X90120994Y-144432069D01*
X90160947Y-144453424D01*
X89958271Y-144601514D01*
X89759267Y-144817965D01*
X89606314Y-145069081D01*
X89505291Y-145345211D01*
X89502642Y-145360974D01*
X89623783Y-145593000D01*
X90983000Y-145593000D01*
X90983000Y-145573000D01*
X91237000Y-145573000D01*
X91237000Y-145593000D01*
X92596217Y-145593000D01*
X92717358Y-145360974D01*
X92714709Y-145345211D01*
X92613686Y-145069081D01*
X92460733Y-144817965D01*
X92261729Y-144601514D01*
X92059053Y-144453424D01*
X92099006Y-144432069D01*
X92327197Y-144244797D01*
X92514469Y-144016606D01*
X92653625Y-143756264D01*
X92739316Y-143473777D01*
X92768251Y-143180000D01*
X92739316Y-142886223D01*
X92723120Y-142832831D01*
X93671429Y-141884522D01*
X93701469Y-141859869D01*
X93749835Y-141800935D01*
X93799866Y-141739973D01*
X93872982Y-141603183D01*
X93911378Y-141476606D01*
X93918006Y-141454757D01*
X93929400Y-141339073D01*
X93929400Y-141339063D01*
X93933208Y-141300400D01*
X93929400Y-141261737D01*
X93929400Y-140640000D01*
X94398057Y-140640000D01*
X94425764Y-140921309D01*
X94507818Y-141191808D01*
X94641068Y-141441101D01*
X94820392Y-141659608D01*
X95038899Y-141838932D01*
X95171858Y-141910000D01*
X95038899Y-141981068D01*
X94820392Y-142160392D01*
X94641068Y-142378899D01*
X94507818Y-142628192D01*
X94425764Y-142898691D01*
X94398057Y-143180000D01*
X94425764Y-143461309D01*
X94507818Y-143731808D01*
X94641068Y-143981101D01*
X94820392Y-144199608D01*
X95038899Y-144378932D01*
X95171858Y-144450000D01*
X95038899Y-144521068D01*
X94820392Y-144700392D01*
X94641068Y-144918899D01*
X94507818Y-145168192D01*
X94425764Y-145438691D01*
X94398057Y-145720000D01*
X94425764Y-146001309D01*
X94507818Y-146271808D01*
X94641068Y-146521101D01*
X94820392Y-146739608D01*
X95038899Y-146918932D01*
X95171858Y-146990000D01*
X95038899Y-147061068D01*
X94820392Y-147240392D01*
X94641068Y-147458899D01*
X94507818Y-147708192D01*
X94425764Y-147978691D01*
X94398057Y-148260000D01*
X94425764Y-148541309D01*
X94507818Y-148811808D01*
X94641068Y-149061101D01*
X94820392Y-149279608D01*
X95038899Y-149458932D01*
X95171858Y-149530000D01*
X95038899Y-149601068D01*
X94820392Y-149780392D01*
X94641068Y-149998899D01*
X94507818Y-150248192D01*
X94425764Y-150518691D01*
X94398057Y-150800000D01*
X94425764Y-151081309D01*
X94507818Y-151351808D01*
X94641068Y-151601101D01*
X94820392Y-151819608D01*
X95038899Y-151998932D01*
X95171858Y-152070000D01*
X95038899Y-152141068D01*
X94820392Y-152320392D01*
X94641068Y-152538899D01*
X94507818Y-152788192D01*
X94425764Y-153058691D01*
X94398057Y-153340000D01*
X94425764Y-153621309D01*
X94507818Y-153891808D01*
X94641068Y-154141101D01*
X94820392Y-154359608D01*
X95038899Y-154538932D01*
X95288192Y-154672182D01*
X95558691Y-154754236D01*
X95769508Y-154775000D01*
X96610492Y-154775000D01*
X96821309Y-154754236D01*
X97091808Y-154672182D01*
X97341101Y-154538932D01*
X97559608Y-154359608D01*
X97738932Y-154141101D01*
X97872182Y-153891808D01*
X97954236Y-153621309D01*
X97981943Y-153340000D01*
X97954236Y-153058691D01*
X97872182Y-152788192D01*
X97738932Y-152538899D01*
X97559608Y-152320392D01*
X97341101Y-152141068D01*
X97208142Y-152070000D01*
X97341101Y-151998932D01*
X97559608Y-151819608D01*
X97738932Y-151601101D01*
X97872182Y-151351808D01*
X97954236Y-151081309D01*
X97981943Y-150800000D01*
X97954236Y-150518691D01*
X97872182Y-150248192D01*
X97738932Y-149998899D01*
X97559608Y-149780392D01*
X97341101Y-149601068D01*
X97208142Y-149530000D01*
X97341101Y-149458932D01*
X97559608Y-149279608D01*
X97738932Y-149061101D01*
X97872182Y-148811808D01*
X97954236Y-148541309D01*
X97981943Y-148260000D01*
X97954236Y-147978691D01*
X97872182Y-147708192D01*
X97738932Y-147458899D01*
X97559608Y-147240392D01*
X97341101Y-147061068D01*
X97208142Y-146990000D01*
X97341101Y-146918932D01*
X97559608Y-146739608D01*
X97738932Y-146521101D01*
X97872182Y-146271808D01*
X97954236Y-146001309D01*
X97981943Y-145720000D01*
X97954236Y-145438691D01*
X97872182Y-145168192D01*
X97738932Y-144918899D01*
X97559608Y-144700392D01*
X97341101Y-144521068D01*
X97208142Y-144450000D01*
X97341101Y-144378932D01*
X97559608Y-144199608D01*
X97738932Y-143981101D01*
X97872182Y-143731808D01*
X97954236Y-143461309D01*
X97981943Y-143180000D01*
X97954236Y-142898691D01*
X97872182Y-142628192D01*
X97738932Y-142378899D01*
X97559608Y-142160392D01*
X97341101Y-141981068D01*
X97208142Y-141910000D01*
X97341101Y-141838932D01*
X97559608Y-141659608D01*
X97738932Y-141441101D01*
X97872182Y-141191808D01*
X97954236Y-140921309D01*
X97981943Y-140640000D01*
X97954236Y-140358691D01*
X97872182Y-140088192D01*
X97738932Y-139838899D01*
X97559608Y-139620392D01*
X97341101Y-139441068D01*
X97213259Y-139372735D01*
X97442839Y-139222601D01*
X97644500Y-139024895D01*
X97803715Y-138791646D01*
X97914367Y-138531818D01*
X97931904Y-138449039D01*
X97809915Y-138227000D01*
X96317000Y-138227000D01*
X96317000Y-138247000D01*
X96063000Y-138247000D01*
X96063000Y-138227000D01*
X94570085Y-138227000D01*
X94448096Y-138449039D01*
X94465633Y-138531818D01*
X94576285Y-138791646D01*
X94735500Y-139024895D01*
X94937161Y-139222601D01*
X95166741Y-139372735D01*
X95038899Y-139441068D01*
X94820392Y-139620392D01*
X94641068Y-139838899D01*
X94507818Y-140088192D01*
X94425764Y-140358691D01*
X94398057Y-140640000D01*
X93929400Y-140640000D01*
X93929400Y-129282150D01*
X94581637Y-128629914D01*
X94641068Y-128741101D01*
X94820392Y-128959608D01*
X95038899Y-129138932D01*
X95171858Y-129210000D01*
X95038899Y-129281068D01*
X94820392Y-129460392D01*
X94641068Y-129678899D01*
X94507818Y-129928192D01*
X94425764Y-130198691D01*
X94398057Y-130480000D01*
X94425764Y-130761309D01*
X94507818Y-131031808D01*
X94641068Y-131281101D01*
X94820392Y-131499608D01*
X95038899Y-131678932D01*
X95171858Y-131750000D01*
X95038899Y-131821068D01*
X94820392Y-132000392D01*
X94641068Y-132218899D01*
X94507818Y-132468192D01*
X94425764Y-132738691D01*
X94398057Y-133020000D01*
X94425764Y-133301309D01*
X94507818Y-133571808D01*
X94641068Y-133821101D01*
X94820392Y-134039608D01*
X95038899Y-134218932D01*
X95171858Y-134290000D01*
X95038899Y-134361068D01*
X94820392Y-134540392D01*
X94641068Y-134758899D01*
X94507818Y-135008192D01*
X94425764Y-135278691D01*
X94398057Y-135560000D01*
X94425764Y-135841309D01*
X94507818Y-136111808D01*
X94641068Y-136361101D01*
X94820392Y-136579608D01*
X95038899Y-136758932D01*
X95166741Y-136827265D01*
X94937161Y-136977399D01*
X94735500Y-137175105D01*
X94576285Y-137408354D01*
X94465633Y-137668182D01*
X94448096Y-137750961D01*
X94570085Y-137973000D01*
X96063000Y-137973000D01*
X96063000Y-137953000D01*
X96317000Y-137953000D01*
X96317000Y-137973000D01*
X97809915Y-137973000D01*
X97931904Y-137750961D01*
X97914367Y-137668182D01*
X97803715Y-137408354D01*
X97644500Y-137175105D01*
X97442839Y-136977399D01*
X97213259Y-136827265D01*
X97341101Y-136758932D01*
X97473835Y-136650000D01*
X98532508Y-136650000D01*
X100715383Y-138832875D01*
X100749524Y-138874476D01*
X100915498Y-139010687D01*
X101104857Y-139111901D01*
X101310323Y-139174229D01*
X101470451Y-139190000D01*
X101470453Y-139190000D01*
X101523999Y-139195274D01*
X101577545Y-139190000D01*
X102526165Y-139190000D01*
X102658899Y-139298932D01*
X102720001Y-139331591D01*
X102720000Y-139408409D01*
X102658899Y-139441068D01*
X102440392Y-139620392D01*
X102261068Y-139838899D01*
X102127818Y-140088192D01*
X102045764Y-140358691D01*
X102018057Y-140640000D01*
X102045764Y-140921309D01*
X102127818Y-141191808D01*
X102261068Y-141441101D01*
X102440392Y-141659608D01*
X102658899Y-141838932D01*
X102791858Y-141910000D01*
X102658899Y-141981068D01*
X102440392Y-142160392D01*
X102261068Y-142378899D01*
X102254101Y-142391934D01*
X102247336Y-142392600D01*
X102247327Y-142392600D01*
X102131643Y-142403994D01*
X101983217Y-142449018D01*
X101846428Y-142522134D01*
X101846426Y-142522135D01*
X101846427Y-142522135D01*
X101756569Y-142595879D01*
X101756567Y-142595881D01*
X101726531Y-142620531D01*
X101701881Y-142650567D01*
X99470577Y-144881872D01*
X99440531Y-144906531D01*
X99342134Y-145026429D01*
X99269018Y-145163218D01*
X99223994Y-145311644D01*
X99212600Y-145427328D01*
X99212600Y-145427337D01*
X99208792Y-145466000D01*
X99212600Y-145504663D01*
X99212601Y-146951318D01*
X99212600Y-146951328D01*
X99212601Y-157723772D01*
X99044698Y-157835961D01*
X98835961Y-158044698D01*
X98730000Y-158203281D01*
X98624039Y-158044698D01*
X98415302Y-157835961D01*
X98169853Y-157671958D01*
X97897125Y-157558990D01*
X97607599Y-157501400D01*
X97312401Y-157501400D01*
X97022875Y-157558990D01*
X96750147Y-157671958D01*
X96504698Y-157835961D01*
X96295961Y-158044698D01*
X96131958Y-158290147D01*
X96018990Y-158562875D01*
X95961400Y-158852401D01*
X95961400Y-159147599D01*
X96018990Y-159437125D01*
X96131958Y-159709853D01*
X96295961Y-159955302D01*
X96504698Y-160164039D01*
X96665813Y-160271692D01*
X96449707Y-160433146D01*
X96253183Y-160651512D01*
X96103036Y-160904022D01*
X96005037Y-161180973D01*
X96125536Y-161413000D01*
X97333000Y-161413000D01*
X97333000Y-161393000D01*
X97587000Y-161393000D01*
X97587000Y-161413000D01*
X97607000Y-161413000D01*
X97607000Y-161667000D01*
X97587000Y-161667000D01*
X97587000Y-162873817D01*
X97819026Y-162994958D01*
X97969814Y-162949222D01*
X98234944Y-162822684D01*
X98470293Y-162646854D01*
X98666817Y-162428488D01*
X98725441Y-162329897D01*
X98835961Y-162495302D01*
X99044698Y-162704039D01*
X99290147Y-162868042D01*
X99562875Y-162981010D01*
X99852401Y-163038600D01*
X100147599Y-163038600D01*
X100437125Y-162981010D01*
X100709853Y-162868042D01*
X100955302Y-162704039D01*
X101164039Y-162495302D01*
X101270000Y-162336719D01*
X101375961Y-162495302D01*
X101584698Y-162704039D01*
X101830147Y-162868042D01*
X102102875Y-162981010D01*
X102392401Y-163038600D01*
X102687599Y-163038600D01*
X102977125Y-162981010D01*
X103249853Y-162868042D01*
X103495302Y-162704039D01*
X103569341Y-162630000D01*
X104446454Y-162630000D01*
X104500000Y-162635274D01*
X104553546Y-162630000D01*
X104553549Y-162630000D01*
X104713677Y-162614229D01*
X104919143Y-162551901D01*
X105108502Y-162450687D01*
X105274476Y-162314476D01*
X105308617Y-162272875D01*
X107336881Y-160244612D01*
X107378476Y-160210476D01*
X107514687Y-160044502D01*
X107615901Y-159855143D01*
X107678229Y-159649677D01*
X107694000Y-159489549D01*
X107694000Y-159489547D01*
X107699274Y-159436001D01*
X107694000Y-159382455D01*
X107694000Y-147875527D01*
X108184078Y-147875527D01*
X108237466Y-148104201D01*
X108467374Y-148210095D01*
X108713524Y-148269102D01*
X108966455Y-148278952D01*
X109216449Y-148239270D01*
X109453896Y-148151578D01*
X109542534Y-148104201D01*
X109595922Y-147875527D01*
X108890000Y-147169605D01*
X108184078Y-147875527D01*
X107694000Y-147875527D01*
X107694000Y-147460690D01*
X107728422Y-147553896D01*
X107775799Y-147642534D01*
X108004473Y-147695922D01*
X108710395Y-146990000D01*
X109069605Y-146990000D01*
X109775527Y-147695922D01*
X110004201Y-147642534D01*
X110110095Y-147412626D01*
X110169102Y-147166476D01*
X110178952Y-146913545D01*
X110139270Y-146663551D01*
X110051578Y-146426104D01*
X110004201Y-146337466D01*
X109775527Y-146284078D01*
X109069605Y-146990000D01*
X108710395Y-146990000D01*
X108004473Y-146284078D01*
X107775799Y-146337466D01*
X107694000Y-146515061D01*
X107694000Y-145540000D01*
X107746809Y-145540000D01*
X107788815Y-145591185D01*
X107885506Y-145670537D01*
X107995820Y-145729502D01*
X108115518Y-145765812D01*
X108240000Y-145778072D01*
X108462439Y-145778072D01*
X108326104Y-145828422D01*
X108237466Y-145875799D01*
X108184078Y-146104473D01*
X108890000Y-146810395D01*
X109595922Y-146104473D01*
X109542534Y-145875799D01*
X109330357Y-145778072D01*
X109540000Y-145778072D01*
X109664482Y-145765812D01*
X109784180Y-145729502D01*
X109894494Y-145670537D01*
X109991185Y-145591185D01*
X110070537Y-145494494D01*
X110129502Y-145384180D01*
X110165812Y-145264482D01*
X110178072Y-145140000D01*
X110178072Y-143840000D01*
X110165812Y-143715518D01*
X110129502Y-143595820D01*
X110070537Y-143485506D01*
X109991185Y-143388815D01*
X109894494Y-143309463D01*
X109784180Y-143250498D01*
X109664482Y-143214188D01*
X109540000Y-143201928D01*
X108240000Y-143201928D01*
X108115518Y-143214188D01*
X107995820Y-143250498D01*
X107885506Y-143309463D01*
X107823926Y-143360000D01*
X107694000Y-143360000D01*
X107694000Y-141525527D01*
X108184078Y-141525527D01*
X108237466Y-141754201D01*
X108467374Y-141860095D01*
X108713524Y-141919102D01*
X108966455Y-141928952D01*
X109216449Y-141889270D01*
X109453896Y-141801578D01*
X109542534Y-141754201D01*
X109595922Y-141525527D01*
X108890000Y-140819605D01*
X108184078Y-141525527D01*
X107694000Y-141525527D01*
X107694000Y-141110690D01*
X107728422Y-141203896D01*
X107775799Y-141292534D01*
X108004473Y-141345922D01*
X108710395Y-140640000D01*
X109069605Y-140640000D01*
X109775527Y-141345922D01*
X110004201Y-141292534D01*
X110110095Y-141062626D01*
X110169102Y-140816476D01*
X110178952Y-140563545D01*
X110139270Y-140313551D01*
X110051578Y-140076104D01*
X110004201Y-139987466D01*
X109775527Y-139934078D01*
X109069605Y-140640000D01*
X108710395Y-140640000D01*
X108004473Y-139934078D01*
X107775799Y-139987466D01*
X107694000Y-140165061D01*
X107694000Y-139190000D01*
X107746809Y-139190000D01*
X107788815Y-139241185D01*
X107885506Y-139320537D01*
X107995820Y-139379502D01*
X108115518Y-139415812D01*
X108240000Y-139428072D01*
X108462439Y-139428072D01*
X108326104Y-139478422D01*
X108237466Y-139525799D01*
X108184078Y-139754473D01*
X108890000Y-140460395D01*
X109595922Y-139754473D01*
X109542534Y-139525799D01*
X109330357Y-139428072D01*
X109540000Y-139428072D01*
X109664482Y-139415812D01*
X109784180Y-139379502D01*
X109894494Y-139320537D01*
X109991185Y-139241185D01*
X110070537Y-139144494D01*
X110129502Y-139034180D01*
X110165812Y-138914482D01*
X110178072Y-138790000D01*
X110178072Y-137490000D01*
X110165812Y-137365518D01*
X110129502Y-137245820D01*
X110070537Y-137135506D01*
X109991185Y-137038815D01*
X109894494Y-136959463D01*
X109784180Y-136900498D01*
X109664482Y-136864188D01*
X109540000Y-136851928D01*
X108240000Y-136851928D01*
X108115518Y-136864188D01*
X107995820Y-136900498D01*
X107885506Y-136959463D01*
X107823926Y-137010000D01*
X107694000Y-137010000D01*
X107694000Y-134155540D01*
X107921623Y-134357184D01*
X108201102Y-134520411D01*
X108507055Y-134625978D01*
X108763000Y-134507362D01*
X108763000Y-133147000D01*
X109017000Y-133147000D01*
X109017000Y-134507362D01*
X109272945Y-134625978D01*
X109578898Y-134520411D01*
X109858377Y-134357184D01*
X110100642Y-134142569D01*
X110296382Y-133884815D01*
X110438076Y-133593826D01*
X110495975Y-133402944D01*
X110376836Y-133147000D01*
X109017000Y-133147000D01*
X108763000Y-133147000D01*
X108743000Y-133147000D01*
X108743000Y-132893000D01*
X108763000Y-132893000D01*
X108763000Y-132873000D01*
X109017000Y-132873000D01*
X109017000Y-132893000D01*
X110376836Y-132893000D01*
X110495975Y-132637056D01*
X110438076Y-132446174D01*
X110296382Y-132155185D01*
X110216531Y-132050036D01*
X110260494Y-132026537D01*
X110357185Y-131947185D01*
X110436537Y-131850494D01*
X110495502Y-131740180D01*
X110531812Y-131620482D01*
X110544072Y-131496000D01*
X110544072Y-130367420D01*
X112162875Y-128748617D01*
X112204476Y-128714476D01*
X112340687Y-128548502D01*
X112441901Y-128359143D01*
X112504229Y-128153677D01*
X112520000Y-127993549D01*
X112520000Y-127993547D01*
X112525274Y-127940001D01*
X112520000Y-127886455D01*
X112520000Y-122761145D01*
X112525274Y-122707599D01*
X112519186Y-122645784D01*
X112504229Y-122493923D01*
X112441901Y-122288457D01*
X112340687Y-122099098D01*
X112204476Y-121933124D01*
X112162881Y-121898988D01*
X110525000Y-120261108D01*
X110525000Y-120158967D01*
X110462168Y-119843088D01*
X110338918Y-119545537D01*
X110159987Y-119277748D01*
X109932252Y-119050013D01*
X109664463Y-118871082D01*
X109366912Y-118747832D01*
X109051033Y-118685000D01*
X108728967Y-118685000D01*
X108413088Y-118747832D01*
X108115537Y-118871082D01*
X107847748Y-119050013D01*
X107620013Y-119277748D01*
X107441082Y-119545537D01*
X107317832Y-119843088D01*
X107255000Y-120158967D01*
X107255000Y-120481033D01*
X107317832Y-120796912D01*
X107441082Y-121094463D01*
X107620013Y-121362252D01*
X107847748Y-121589987D01*
X107847767Y-121590000D01*
X107847748Y-121590013D01*
X107620013Y-121817748D01*
X107441082Y-122085537D01*
X107317832Y-122383088D01*
X107255000Y-122698967D01*
X107255000Y-122801107D01*
X105871120Y-124184988D01*
X105829525Y-124219124D01*
X105795389Y-124260719D01*
X105693313Y-124385098D01*
X105592100Y-124574457D01*
X105529772Y-124779923D01*
X105515482Y-124925004D01*
X105492182Y-124848192D01*
X105358932Y-124598899D01*
X105179608Y-124380392D01*
X104961101Y-124201068D01*
X104828142Y-124130000D01*
X104961101Y-124058932D01*
X105179608Y-123879608D01*
X105358932Y-123661101D01*
X105492182Y-123411808D01*
X105574236Y-123141309D01*
X105601943Y-122860000D01*
X105574236Y-122578691D01*
X105492182Y-122308192D01*
X105358932Y-122058899D01*
X105179608Y-121840392D01*
X104961101Y-121661068D01*
X104828142Y-121590000D01*
X104961101Y-121518932D01*
X105179608Y-121339608D01*
X105358932Y-121121101D01*
X105492182Y-120871808D01*
X105574236Y-120601309D01*
X105601943Y-120320000D01*
X105574236Y-120038691D01*
X105492182Y-119768192D01*
X105358932Y-119518899D01*
X105179608Y-119300392D01*
X104961101Y-119121068D01*
X104711808Y-118987818D01*
X104441309Y-118905764D01*
X104230492Y-118885000D01*
X103389508Y-118885000D01*
X103178691Y-118905764D01*
X102908192Y-118987818D01*
X102658899Y-119121068D01*
X102440392Y-119300392D01*
X102261068Y-119518899D01*
X102127818Y-119768192D01*
X102045764Y-120038691D01*
X102018057Y-120320000D01*
X102045764Y-120601309D01*
X102127818Y-120871808D01*
X102261068Y-121121101D01*
X102440392Y-121339608D01*
X102658899Y-121518932D01*
X102791858Y-121590000D01*
X102658899Y-121661068D01*
X102440392Y-121840392D01*
X102261068Y-122058899D01*
X102127818Y-122308192D01*
X102045764Y-122578691D01*
X102018057Y-122860000D01*
X102045764Y-123141309D01*
X102127818Y-123411808D01*
X102261068Y-123661101D01*
X102440392Y-123879608D01*
X102658899Y-124058932D01*
X102791858Y-124130000D01*
X102658899Y-124201068D01*
X102440392Y-124380392D01*
X102261068Y-124598899D01*
X102127818Y-124848192D01*
X102045764Y-125118691D01*
X102018057Y-125400000D01*
X102045764Y-125681309D01*
X102127818Y-125951808D01*
X102261068Y-126201101D01*
X102440392Y-126419608D01*
X102658899Y-126598932D01*
X102791858Y-126670000D01*
X102658899Y-126741068D01*
X102440392Y-126920392D01*
X102261068Y-127138899D01*
X102127818Y-127388192D01*
X102045764Y-127658691D01*
X102018057Y-127940000D01*
X102045764Y-128221309D01*
X102127818Y-128491808D01*
X102261068Y-128741101D01*
X102440392Y-128959608D01*
X102658899Y-129138932D01*
X102791858Y-129210000D01*
X102658899Y-129281068D01*
X102440392Y-129460392D01*
X102261068Y-129678899D01*
X102127818Y-129928192D01*
X102045764Y-130198691D01*
X102018057Y-130480000D01*
X102045764Y-130761309D01*
X102127818Y-131031808D01*
X102261068Y-131281101D01*
X102440392Y-131499608D01*
X102658899Y-131678932D01*
X102791858Y-131750000D01*
X102658899Y-131821068D01*
X102440392Y-132000392D01*
X102261068Y-132218899D01*
X102127818Y-132468192D01*
X102045764Y-132738691D01*
X102018057Y-133020000D01*
X102045764Y-133301309D01*
X102127818Y-133571808D01*
X102261068Y-133821101D01*
X102440392Y-134039608D01*
X102658899Y-134218932D01*
X102786741Y-134287265D01*
X102557161Y-134437399D01*
X102355500Y-134635105D01*
X102196285Y-134868354D01*
X102085633Y-135128182D01*
X102068096Y-135210961D01*
X102190085Y-135433000D01*
X103683000Y-135433000D01*
X103683000Y-135413000D01*
X103937000Y-135413000D01*
X103937000Y-135433000D01*
X103957000Y-135433000D01*
X103957000Y-135687000D01*
X103937000Y-135687000D01*
X103937000Y-135707000D01*
X103683000Y-135707000D01*
X103683000Y-135687000D01*
X102190085Y-135687000D01*
X102068096Y-135909039D01*
X102085633Y-135991818D01*
X102196285Y-136251646D01*
X102355500Y-136484895D01*
X102557161Y-136682601D01*
X102786741Y-136832735D01*
X102658899Y-136901068D01*
X102526165Y-137010000D01*
X101975492Y-137010000D01*
X100074000Y-135108508D01*
X100074000Y-119357545D01*
X100079274Y-119303999D01*
X100074000Y-119250451D01*
X100058229Y-119090323D01*
X99995901Y-118884857D01*
X99894687Y-118695498D01*
X99758476Y-118529524D01*
X99716875Y-118495383D01*
X98268617Y-117047125D01*
X98234476Y-117005524D01*
X98068502Y-116869313D01*
X97879143Y-116768099D01*
X97673677Y-116705771D01*
X97513549Y-116690000D01*
X97513546Y-116690000D01*
X97460000Y-116684726D01*
X97406454Y-116690000D01*
X92433545Y-116690000D01*
X92379999Y-116684726D01*
X92326453Y-116690000D01*
X92326451Y-116690000D01*
X92166323Y-116705771D01*
X91960857Y-116768099D01*
X91771498Y-116869313D01*
X91605524Y-117005524D01*
X91571387Y-117047120D01*
X91202997Y-117415510D01*
X90949017Y-117415510D01*
X90633237Y-117478322D01*
X90335778Y-117601533D01*
X90068073Y-117780408D01*
X89840408Y-118008073D01*
X89661533Y-118275778D01*
X89538322Y-118573237D01*
X89475510Y-118889017D01*
X89475510Y-119210983D01*
X89538322Y-119526763D01*
X89661533Y-119824222D01*
X89840408Y-120091927D01*
X90068073Y-120319592D01*
X90335778Y-120498467D01*
X90633237Y-120621678D01*
X90949017Y-120684490D01*
X91270983Y-120684490D01*
X91586763Y-120621678D01*
X91884222Y-120498467D01*
X92151927Y-120319592D01*
X92379592Y-120091927D01*
X92558467Y-119824222D01*
X92681678Y-119526763D01*
X92744490Y-119210983D01*
X92744490Y-118957003D01*
X92831493Y-118870000D01*
X97008508Y-118870000D01*
X97165962Y-119027454D01*
X97091808Y-118987818D01*
X96821309Y-118905764D01*
X96610492Y-118885000D01*
X95769508Y-118885000D01*
X95558691Y-118905764D01*
X95288192Y-118987818D01*
X95038899Y-119121068D01*
X94820392Y-119300392D01*
X94641068Y-119518899D01*
X94507818Y-119768192D01*
X94425764Y-120038691D01*
X94398057Y-120320000D01*
X94425764Y-120601309D01*
X94430273Y-120616175D01*
X91580062Y-123466388D01*
X91550021Y-123491042D01*
X91525368Y-123521082D01*
X91451624Y-123610939D01*
X91378507Y-123747729D01*
X91333484Y-123896154D01*
X91318281Y-124050511D01*
X91322090Y-124089184D01*
X91322089Y-125045676D01*
X91270983Y-125035510D01*
X90949017Y-125035510D01*
X90633237Y-125098322D01*
X90335778Y-125221533D01*
X90068073Y-125400408D01*
X89840408Y-125628073D01*
X89661533Y-125895778D01*
X89538322Y-126193237D01*
X89475510Y-126509017D01*
X89475510Y-126830983D01*
X89538322Y-127146763D01*
X89661533Y-127444222D01*
X89840408Y-127711927D01*
X90068073Y-127939592D01*
X90335778Y-128118467D01*
X90394347Y-128142727D01*
X90290860Y-128211875D01*
X90111875Y-128390860D01*
X89971247Y-128601324D01*
X89874381Y-128835179D01*
X89825000Y-129083439D01*
X89825000Y-129336561D01*
X89874381Y-129584821D01*
X89971247Y-129818676D01*
X90111875Y-130029140D01*
X90290860Y-130208125D01*
X90501324Y-130348753D01*
X90677984Y-130421928D01*
X90460000Y-130421928D01*
X90335518Y-130434188D01*
X90215820Y-130470498D01*
X90105506Y-130529463D01*
X90008815Y-130608815D01*
X89929463Y-130705506D01*
X89870498Y-130815820D01*
X89834188Y-130935518D01*
X89821928Y-131060000D01*
X89821928Y-132360000D01*
X89834188Y-132484482D01*
X89870498Y-132604180D01*
X89929463Y-132714494D01*
X90008815Y-132811185D01*
X90105506Y-132890537D01*
X90215820Y-132949502D01*
X90322601Y-132981894D01*
X90322600Y-136598328D01*
X90094000Y-136598328D01*
X89969518Y-136610588D01*
X89849820Y-136646898D01*
X89739506Y-136705863D01*
X89642815Y-136785215D01*
X89563463Y-136881906D01*
X89504498Y-136992220D01*
X89468188Y-137111918D01*
X89455928Y-137236400D01*
X89455928Y-138963600D01*
X89468188Y-139088082D01*
X89504498Y-139207780D01*
X89563463Y-139318094D01*
X89642815Y-139414785D01*
X89739506Y-139494137D01*
X89849820Y-139553102D01*
X89900865Y-139568586D01*
X89892803Y-139575203D01*
X89705531Y-139803394D01*
X89566375Y-140063736D01*
X89480684Y-140346223D01*
X89451749Y-140640000D01*
X88235000Y-140640000D01*
X88235000Y-138213895D01*
X88234371Y-138207504D01*
X88210590Y-136843205D01*
X88209714Y-136825279D01*
X88209088Y-136807340D01*
X88127000Y-135570505D01*
X88127000Y-132000000D01*
X88124560Y-131975224D01*
X88121384Y-131962651D01*
X86914018Y-128038710D01*
X86584405Y-126773051D01*
X86584398Y-126773021D01*
X86571363Y-126728726D01*
X85786628Y-124341539D01*
X85770838Y-124298149D01*
X85737177Y-124213978D01*
X84121384Y-118962651D01*
X84105670Y-118929553D01*
X80111666Y-112938547D01*
X76408125Y-104605580D01*
X76505105Y-104704500D01*
X76738354Y-104863715D01*
X76998182Y-104974367D01*
X77080961Y-104991904D01*
X77303000Y-104869915D01*
X77303000Y-103377000D01*
X77557000Y-103377000D01*
X77557000Y-104869915D01*
X77779039Y-104991904D01*
X77861818Y-104974367D01*
X78121646Y-104863715D01*
X78354895Y-104704500D01*
X78552601Y-104502839D01*
X78707166Y-104266483D01*
X78812650Y-104004514D01*
X78865000Y-103727000D01*
X78865000Y-103377000D01*
X77557000Y-103377000D01*
X77303000Y-103377000D01*
X77283000Y-103377000D01*
X77283000Y-103123000D01*
X77303000Y-103123000D01*
X77303000Y-101630085D01*
X77557000Y-101630085D01*
X77557000Y-103123000D01*
X78865000Y-103123000D01*
X78865000Y-102773000D01*
X78812650Y-102495486D01*
X78707166Y-102233517D01*
X78552601Y-101997161D01*
X78354895Y-101795500D01*
X78121646Y-101636285D01*
X77861818Y-101525633D01*
X77779039Y-101508096D01*
X77557000Y-101630085D01*
X77303000Y-101630085D01*
X77080961Y-101508096D01*
X76998182Y-101525633D01*
X76738354Y-101636285D01*
X76505105Y-101795500D01*
X76307399Y-101997161D01*
X76152834Y-102233517D01*
X76127000Y-102297676D01*
X76127000Y-97702324D01*
X76152834Y-97766483D01*
X76307399Y-98002839D01*
X76505105Y-98204500D01*
X76738354Y-98363715D01*
X76998182Y-98474367D01*
X77080961Y-98491904D01*
X77303000Y-98369915D01*
X77303000Y-96877000D01*
X77557000Y-96877000D01*
X77557000Y-98369915D01*
X77779039Y-98491904D01*
X77861818Y-98474367D01*
X78121646Y-98363715D01*
X78354895Y-98204500D01*
X78552601Y-98002839D01*
X78707166Y-97766483D01*
X78812650Y-97504514D01*
X78865000Y-97227000D01*
X78865000Y-96877000D01*
X77557000Y-96877000D01*
X77303000Y-96877000D01*
X77283000Y-96877000D01*
X77283000Y-96623000D01*
X77303000Y-96623000D01*
X77303000Y-95130085D01*
X77557000Y-95130085D01*
X77557000Y-96623000D01*
X78865000Y-96623000D01*
X78865000Y-96329509D01*
X80495000Y-96329509D01*
X80495000Y-97170492D01*
X80515764Y-97381309D01*
X80597818Y-97651808D01*
X80731068Y-97901101D01*
X80910393Y-98119608D01*
X81128900Y-98298932D01*
X81142600Y-98306255D01*
X81142601Y-101693744D01*
X81128899Y-101701068D01*
X80910392Y-101880393D01*
X80731068Y-102098900D01*
X80597818Y-102348193D01*
X80515764Y-102618692D01*
X80495000Y-102829509D01*
X80495000Y-103670492D01*
X80515764Y-103881309D01*
X80597818Y-104151808D01*
X80731068Y-104401101D01*
X80910393Y-104619608D01*
X81128900Y-104798932D01*
X81378193Y-104932182D01*
X81648692Y-105014236D01*
X81930000Y-105041943D01*
X82211309Y-105014236D01*
X82481808Y-104932182D01*
X82731101Y-104798932D01*
X82949608Y-104619608D01*
X83128932Y-104401101D01*
X83262182Y-104151808D01*
X83344236Y-103881308D01*
X83365000Y-103670491D01*
X83365000Y-103287401D01*
X86308958Y-103287401D01*
X86235764Y-103528691D01*
X86208057Y-103810000D01*
X86235764Y-104091309D01*
X86317818Y-104361808D01*
X86451068Y-104611101D01*
X86630392Y-104829608D01*
X86848899Y-105008932D01*
X86981858Y-105080000D01*
X86848899Y-105151068D01*
X86630392Y-105330392D01*
X86451068Y-105548899D01*
X86317818Y-105798192D01*
X86235764Y-106068691D01*
X86208057Y-106350000D01*
X86235764Y-106631309D01*
X86317818Y-106901808D01*
X86451068Y-107151101D01*
X86630392Y-107369608D01*
X86848899Y-107548932D01*
X86981858Y-107620000D01*
X86848899Y-107691068D01*
X86630392Y-107870392D01*
X86451068Y-108088899D01*
X86317818Y-108338192D01*
X86235764Y-108608691D01*
X86208057Y-108890000D01*
X86235764Y-109171309D01*
X86317818Y-109441808D01*
X86451068Y-109691101D01*
X86630392Y-109909608D01*
X86848899Y-110088932D01*
X87098192Y-110222182D01*
X87368691Y-110304236D01*
X87579508Y-110325000D01*
X88420492Y-110325000D01*
X88631309Y-110304236D01*
X88901808Y-110222182D01*
X89151101Y-110088932D01*
X89369608Y-109909608D01*
X89548932Y-109691101D01*
X89556255Y-109677400D01*
X95559048Y-109677400D01*
X94719980Y-110516469D01*
X94647271Y-110530932D01*
X94477111Y-110601414D01*
X94323972Y-110703738D01*
X94193738Y-110833972D01*
X94091414Y-110987111D01*
X94020932Y-111157271D01*
X93985000Y-111337911D01*
X93985000Y-111522089D01*
X94020932Y-111702729D01*
X94091414Y-111872889D01*
X94193738Y-112026028D01*
X94323972Y-112156262D01*
X94477111Y-112258586D01*
X94647271Y-112329068D01*
X94827911Y-112365000D01*
X95012089Y-112365000D01*
X95192729Y-112329068D01*
X95362889Y-112258586D01*
X95516028Y-112156262D01*
X95646262Y-112026028D01*
X95748586Y-111872889D01*
X95819068Y-111702729D01*
X95833531Y-111630020D01*
X96516152Y-110947400D01*
X110691337Y-110947400D01*
X110730000Y-110951208D01*
X110768663Y-110947400D01*
X110768673Y-110947400D01*
X110884357Y-110936006D01*
X111032783Y-110890982D01*
X111169572Y-110817866D01*
X111289469Y-110719469D01*
X111314127Y-110689423D01*
X111678551Y-110325000D01*
X112420492Y-110325000D01*
X112631309Y-110304236D01*
X112901808Y-110222182D01*
X113151101Y-110088932D01*
X113369608Y-109909608D01*
X113548932Y-109691101D01*
X113682182Y-109441808D01*
X113764236Y-109171309D01*
X113791943Y-108890000D01*
X113764236Y-108608691D01*
X113682182Y-108338192D01*
X113548932Y-108088899D01*
X113369608Y-107870392D01*
X113151101Y-107691068D01*
X113018142Y-107620000D01*
X113151101Y-107548932D01*
X113369608Y-107369608D01*
X113548932Y-107151101D01*
X113682182Y-106901808D01*
X113764236Y-106631309D01*
X113791943Y-106350000D01*
X113764236Y-106068691D01*
X113682182Y-105798192D01*
X113548932Y-105548899D01*
X113369608Y-105330392D01*
X113151101Y-105151068D01*
X113018142Y-105080000D01*
X113151101Y-105008932D01*
X113369608Y-104829608D01*
X113548932Y-104611101D01*
X113682182Y-104361808D01*
X113764236Y-104091309D01*
X113791943Y-103810000D01*
X113764236Y-103528691D01*
X113703176Y-103327400D01*
X116635000Y-103327400D01*
X116635000Y-103670491D01*
X116655764Y-103881308D01*
X116737818Y-104151807D01*
X116871068Y-104401100D01*
X117050392Y-104619607D01*
X117268899Y-104798932D01*
X117518192Y-104932182D01*
X117788691Y-105014236D01*
X118070000Y-105041943D01*
X118351308Y-105014236D01*
X118621807Y-104932182D01*
X118871100Y-104798932D01*
X119089607Y-104619608D01*
X119268932Y-104401101D01*
X119402182Y-104151808D01*
X119484236Y-103881309D01*
X119505000Y-103670492D01*
X119505000Y-103377000D01*
X121135000Y-103377000D01*
X121135000Y-103727000D01*
X121187350Y-104004514D01*
X121292834Y-104266483D01*
X121447399Y-104502839D01*
X121645105Y-104704500D01*
X121878354Y-104863715D01*
X122138182Y-104974367D01*
X122220961Y-104991904D01*
X122443000Y-104869915D01*
X122443000Y-103377000D01*
X121135000Y-103377000D01*
X119505000Y-103377000D01*
X119505000Y-102829509D01*
X119499435Y-102773000D01*
X121135000Y-102773000D01*
X121135000Y-103123000D01*
X122443000Y-103123000D01*
X122443000Y-101630085D01*
X122220961Y-101508096D01*
X122138182Y-101525633D01*
X121878354Y-101636285D01*
X121645105Y-101795500D01*
X121447399Y-101997161D01*
X121292834Y-102233517D01*
X121187350Y-102495486D01*
X121135000Y-102773000D01*
X119499435Y-102773000D01*
X119484236Y-102618692D01*
X119402182Y-102348192D01*
X119268932Y-102098899D01*
X119089608Y-101880392D01*
X118871101Y-101701068D01*
X118857400Y-101693745D01*
X118857400Y-98306255D01*
X118871100Y-98298932D01*
X119089607Y-98119608D01*
X119268932Y-97901101D01*
X119402182Y-97651808D01*
X119484236Y-97381309D01*
X119505000Y-97170492D01*
X119505000Y-96877000D01*
X121135000Y-96877000D01*
X121135000Y-97227000D01*
X121187350Y-97504514D01*
X121292834Y-97766483D01*
X121447399Y-98002839D01*
X121645105Y-98204500D01*
X121878354Y-98363715D01*
X122138182Y-98474367D01*
X122220961Y-98491904D01*
X122443000Y-98369915D01*
X122443000Y-96877000D01*
X121135000Y-96877000D01*
X119505000Y-96877000D01*
X119505000Y-96329509D01*
X119499435Y-96273000D01*
X121135000Y-96273000D01*
X121135000Y-96623000D01*
X122443000Y-96623000D01*
X122443000Y-95130085D01*
X122220961Y-95008096D01*
X122138182Y-95025633D01*
X121878354Y-95136285D01*
X121645105Y-95295500D01*
X121447399Y-95497161D01*
X121292834Y-95733517D01*
X121187350Y-95995486D01*
X121135000Y-96273000D01*
X119499435Y-96273000D01*
X119484236Y-96118692D01*
X119402182Y-95848192D01*
X119268932Y-95598899D01*
X119089608Y-95380392D01*
X118871101Y-95201068D01*
X118621808Y-95067818D01*
X118351309Y-94985764D01*
X118070000Y-94958057D01*
X117788692Y-94985764D01*
X117518193Y-95067818D01*
X117268900Y-95201068D01*
X117050393Y-95380392D01*
X116871068Y-95598899D01*
X116737818Y-95848192D01*
X116655764Y-96118691D01*
X116635000Y-96329508D01*
X116635000Y-97170491D01*
X116655764Y-97381308D01*
X116737818Y-97651807D01*
X116871068Y-97901100D01*
X117050392Y-98119607D01*
X117268899Y-98298932D01*
X117282600Y-98306255D01*
X117282601Y-101693745D01*
X117268900Y-101701068D01*
X117206108Y-101752600D01*
X113703176Y-101752600D01*
X113764236Y-101551309D01*
X113791943Y-101270000D01*
X113764236Y-100988691D01*
X113682182Y-100718192D01*
X113548932Y-100468899D01*
X113369608Y-100250392D01*
X113151101Y-100071068D01*
X113018142Y-100000000D01*
X113151101Y-99928932D01*
X113369608Y-99749608D01*
X113548932Y-99531101D01*
X113682182Y-99281808D01*
X113764236Y-99011309D01*
X113791943Y-98730000D01*
X113764236Y-98448691D01*
X113682182Y-98178192D01*
X113548932Y-97928899D01*
X113369608Y-97710392D01*
X113151101Y-97531068D01*
X113018142Y-97460000D01*
X113151101Y-97388932D01*
X113369608Y-97209608D01*
X113548932Y-96991101D01*
X113682182Y-96741808D01*
X113764236Y-96471309D01*
X113791943Y-96190000D01*
X113764236Y-95908691D01*
X113682182Y-95638192D01*
X113548932Y-95388899D01*
X113369608Y-95170392D01*
X113151101Y-94991068D01*
X113018142Y-94920000D01*
X113151101Y-94848932D01*
X113369608Y-94669608D01*
X113548932Y-94451101D01*
X113682182Y-94201808D01*
X113764236Y-93931309D01*
X113791943Y-93650000D01*
X113764236Y-93368691D01*
X113682182Y-93098192D01*
X113548932Y-92848899D01*
X113369608Y-92630392D01*
X113151101Y-92451068D01*
X113018142Y-92380000D01*
X113151101Y-92308932D01*
X113369608Y-92129608D01*
X113548932Y-91911101D01*
X113682182Y-91661808D01*
X113764236Y-91391309D01*
X113791943Y-91110000D01*
X113764236Y-90828691D01*
X113682182Y-90558192D01*
X113548932Y-90308899D01*
X113369608Y-90090392D01*
X113151101Y-89911068D01*
X112901808Y-89777818D01*
X112631309Y-89695764D01*
X112420492Y-89675000D01*
X111579508Y-89675000D01*
X111368691Y-89695764D01*
X111098192Y-89777818D01*
X110848899Y-89911068D01*
X110630392Y-90090392D01*
X110451068Y-90308899D01*
X110317818Y-90558192D01*
X110235764Y-90828691D01*
X110208057Y-91110000D01*
X110235764Y-91391309D01*
X110296824Y-91592600D01*
X101790998Y-91592600D01*
X102540879Y-91203275D01*
X102633803Y-91141185D01*
X103089975Y-90569580D01*
X100000000Y-87479605D01*
X96910025Y-90569580D01*
X97366197Y-91141185D01*
X98166183Y-91581207D01*
X98202180Y-91592600D01*
X93182052Y-91592600D01*
X93208586Y-91552889D01*
X93279068Y-91382729D01*
X93315000Y-91202089D01*
X93315000Y-91017911D01*
X93279068Y-90837271D01*
X93208586Y-90667111D01*
X93106262Y-90513972D01*
X92976028Y-90383738D01*
X92822889Y-90281414D01*
X92652729Y-90210932D01*
X92472089Y-90175000D01*
X92287911Y-90175000D01*
X92107271Y-90210932D01*
X91937111Y-90281414D01*
X91875472Y-90322600D01*
X89556255Y-90322600D01*
X89548932Y-90308899D01*
X89369608Y-90090392D01*
X89151101Y-89911068D01*
X88901808Y-89777818D01*
X88631309Y-89695764D01*
X88420492Y-89675000D01*
X87579508Y-89675000D01*
X87368691Y-89695764D01*
X87098192Y-89777818D01*
X86848899Y-89911068D01*
X86630392Y-90090392D01*
X86451068Y-90308899D01*
X86317818Y-90558192D01*
X86235764Y-90828691D01*
X86208057Y-91110000D01*
X86235764Y-91391309D01*
X86317818Y-91661808D01*
X86451068Y-91911101D01*
X86630392Y-92129608D01*
X86848899Y-92308932D01*
X86981858Y-92380000D01*
X86848899Y-92451068D01*
X86630392Y-92630392D01*
X86451068Y-92848899D01*
X86317818Y-93098192D01*
X86235764Y-93368691D01*
X86208057Y-93650000D01*
X86235764Y-93931309D01*
X86317818Y-94201808D01*
X86451068Y-94451101D01*
X86630392Y-94669608D01*
X86848899Y-94848932D01*
X86981858Y-94920000D01*
X86848899Y-94991068D01*
X86630392Y-95170392D01*
X86451068Y-95388899D01*
X86317818Y-95638192D01*
X86235764Y-95908691D01*
X86208057Y-96190000D01*
X86235764Y-96471309D01*
X86317818Y-96741808D01*
X86451068Y-96991101D01*
X86630392Y-97209608D01*
X86848899Y-97388932D01*
X86981858Y-97460000D01*
X86848899Y-97531068D01*
X86630392Y-97710392D01*
X86451068Y-97928899D01*
X86317818Y-98178192D01*
X86235764Y-98448691D01*
X86208057Y-98730000D01*
X86235764Y-99011309D01*
X86317818Y-99281808D01*
X86451068Y-99531101D01*
X86630392Y-99749608D01*
X86848899Y-99928932D01*
X86981858Y-100000000D01*
X86848899Y-100071068D01*
X86630392Y-100250392D01*
X86451068Y-100468899D01*
X86317818Y-100718192D01*
X86235764Y-100988691D01*
X86208057Y-101270000D01*
X86235764Y-101551309D01*
X86284691Y-101712601D01*
X82745153Y-101712601D01*
X82731100Y-101701068D01*
X82717400Y-101693745D01*
X82717400Y-98306255D01*
X82731101Y-98298932D01*
X82949608Y-98119608D01*
X83128932Y-97901101D01*
X83262182Y-97651808D01*
X83344236Y-97381308D01*
X83365000Y-97170491D01*
X83365000Y-96329508D01*
X83344236Y-96118691D01*
X83262182Y-95848192D01*
X83128932Y-95598899D01*
X82949607Y-95380392D01*
X82731100Y-95201068D01*
X82481807Y-95067818D01*
X82211308Y-94985764D01*
X81930000Y-94958057D01*
X81648691Y-94985764D01*
X81378192Y-95067818D01*
X81128899Y-95201068D01*
X80910392Y-95380393D01*
X80731068Y-95598900D01*
X80597818Y-95848193D01*
X80515764Y-96118692D01*
X80495000Y-96329509D01*
X78865000Y-96329509D01*
X78865000Y-96273000D01*
X78812650Y-95995486D01*
X78707166Y-95733517D01*
X78552601Y-95497161D01*
X78354895Y-95295500D01*
X78121646Y-95136285D01*
X77861818Y-95025633D01*
X77779039Y-95008096D01*
X77557000Y-95130085D01*
X77303000Y-95130085D01*
X77080961Y-95008096D01*
X76998182Y-95025633D01*
X76738354Y-95136285D01*
X76505105Y-95295500D01*
X76358954Y-95444574D01*
X79696956Y-87099570D01*
X87540000Y-87099570D01*
X87540000Y-87500430D01*
X87618204Y-87893587D01*
X87771607Y-88263934D01*
X87994313Y-88597237D01*
X88277763Y-88880687D01*
X88611066Y-89103393D01*
X88981413Y-89256796D01*
X89374570Y-89335000D01*
X89775430Y-89335000D01*
X90168587Y-89256796D01*
X90538934Y-89103393D01*
X90872237Y-88880687D01*
X91155687Y-88597237D01*
X91378393Y-88263934D01*
X91531796Y-87893587D01*
X91610000Y-87500430D01*
X91610000Y-87244121D01*
X95342909Y-87244121D01*
X95421492Y-88153748D01*
X95676025Y-89030566D01*
X96096725Y-89840879D01*
X96158815Y-89933803D01*
X96730420Y-90389975D01*
X99820395Y-87300000D01*
X100179605Y-87300000D01*
X103269580Y-90389975D01*
X103841185Y-89933803D01*
X104281207Y-89133817D01*
X104556704Y-88263359D01*
X104657091Y-87355879D01*
X104634949Y-87099570D01*
X108390000Y-87099570D01*
X108390000Y-87500430D01*
X108468204Y-87893587D01*
X108621607Y-88263934D01*
X108844313Y-88597237D01*
X109127763Y-88880687D01*
X109461066Y-89103393D01*
X109831413Y-89256796D01*
X110224570Y-89335000D01*
X110625430Y-89335000D01*
X111018587Y-89256796D01*
X111388934Y-89103393D01*
X111722237Y-88880687D01*
X112005687Y-88597237D01*
X112228393Y-88263934D01*
X112381796Y-87893587D01*
X112460000Y-87500430D01*
X112460000Y-87099570D01*
X112381796Y-86706413D01*
X112228393Y-86336066D01*
X112005687Y-86002763D01*
X111722237Y-85719313D01*
X111388934Y-85496607D01*
X111018587Y-85343204D01*
X110625430Y-85265000D01*
X110224570Y-85265000D01*
X109831413Y-85343204D01*
X109461066Y-85496607D01*
X109127763Y-85719313D01*
X108844313Y-86002763D01*
X108621607Y-86336066D01*
X108468204Y-86706413D01*
X108390000Y-87099570D01*
X104634949Y-87099570D01*
X104578508Y-86446252D01*
X104323975Y-85569434D01*
X103903275Y-84759121D01*
X103841185Y-84666197D01*
X103269580Y-84210025D01*
X100179605Y-87300000D01*
X99820395Y-87300000D01*
X96730420Y-84210025D01*
X96158815Y-84666197D01*
X95718793Y-85466183D01*
X95443296Y-86336641D01*
X95342909Y-87244121D01*
X91610000Y-87244121D01*
X91610000Y-87099570D01*
X91531796Y-86706413D01*
X91378393Y-86336066D01*
X91155687Y-86002763D01*
X90872237Y-85719313D01*
X90538934Y-85496607D01*
X90168587Y-85343204D01*
X89775430Y-85265000D01*
X89374570Y-85265000D01*
X88981413Y-85343204D01*
X88611066Y-85496607D01*
X88277763Y-85719313D01*
X87994313Y-86002763D01*
X87771607Y-86336066D01*
X87618204Y-86706413D01*
X87540000Y-87099570D01*
X79696956Y-87099570D01*
X80050826Y-86214896D01*
X80224234Y-85955372D01*
X82149186Y-84030420D01*
X96910025Y-84030420D01*
X100000000Y-87120395D01*
X103089975Y-84030420D01*
X102633803Y-83458815D01*
X101833817Y-83018793D01*
X100963359Y-82743296D01*
X100055879Y-82642909D01*
X99146252Y-82721492D01*
X98269434Y-82976025D01*
X97459121Y-83396725D01*
X97366197Y-83458815D01*
X96910025Y-84030420D01*
X82149186Y-84030420D01*
X85080914Y-81098692D01*
X89630238Y-78065809D01*
X89779454Y-77993301D01*
X89782633Y-77992337D01*
X89794581Y-77985951D01*
X89821963Y-77972645D01*
X89872840Y-77945403D01*
X89884866Y-77937692D01*
X89910320Y-77924087D01*
X89932947Y-77905517D01*
X89967414Y-77879388D01*
X89998559Y-77851671D01*
X90022238Y-77832238D01*
X90041546Y-77808711D01*
X90050495Y-77799390D01*
X90075337Y-77769077D01*
X91055042Y-77115940D01*
X95810501Y-75652722D01*
X95933710Y-75837118D01*
X96662882Y-76566290D01*
X97520298Y-77139197D01*
X98473007Y-77533822D01*
X99484397Y-77735000D01*
X100515603Y-77735000D01*
X101526993Y-77533822D01*
X102479702Y-77139197D01*
X103337118Y-76566290D01*
X104066290Y-75837118D01*
X104189499Y-75652722D01*
X108944958Y-77115940D01*
G04 #@! TA.AperFunction,Conductor*
D29*
G36*
X108944958Y-77115940D02*
G01*
X109927456Y-77770938D01*
X109977763Y-77832238D01*
X110089681Y-77924087D01*
X110217368Y-77992337D01*
X110223878Y-77994312D01*
X110389494Y-78078964D01*
X114919086Y-81098692D01*
X119752489Y-85932095D01*
X119939032Y-86189539D01*
X123641046Y-95444574D01*
X123494895Y-95295500D01*
X123261646Y-95136285D01*
X123001818Y-95025633D01*
X122919039Y-95008096D01*
X122697000Y-95130085D01*
X122697000Y-96623000D01*
X122717000Y-96623000D01*
X122717000Y-96877000D01*
X122697000Y-96877000D01*
X122697000Y-98369915D01*
X122919039Y-98491904D01*
X123001818Y-98474367D01*
X123261646Y-98363715D01*
X123494895Y-98204500D01*
X123692601Y-98002839D01*
X123847166Y-97766483D01*
X123873000Y-97702324D01*
X123873000Y-102297676D01*
X123847166Y-102233517D01*
X123692601Y-101997161D01*
X123494895Y-101795500D01*
X123261646Y-101636285D01*
X123001818Y-101525633D01*
X122919039Y-101508096D01*
X122697000Y-101630085D01*
X122697000Y-103123000D01*
X122717000Y-103123000D01*
X122717000Y-103377000D01*
X122697000Y-103377000D01*
X122697000Y-104869915D01*
X122919039Y-104991904D01*
X123001818Y-104974367D01*
X123261646Y-104863715D01*
X123494895Y-104704500D01*
X123591875Y-104605580D01*
X119888334Y-112938547D01*
X115894330Y-118929553D01*
X115878616Y-118962651D01*
X114163491Y-124536808D01*
X113766198Y-125640330D01*
X113766191Y-125640348D01*
X113751923Y-125684262D01*
X113050861Y-128097338D01*
X113050858Y-128097346D01*
X113039375Y-128142069D01*
X113000057Y-128317968D01*
X111878616Y-131962651D01*
X111873662Y-131987050D01*
X111873000Y-132000000D01*
X111873000Y-135396200D01*
X111847193Y-135669209D01*
X111844293Y-135715292D01*
X111844293Y-135715324D01*
X111766133Y-138202397D01*
X111765001Y-138213895D01*
X111765000Y-152479469D01*
X111690539Y-153811306D01*
X111508733Y-154886209D01*
X109960948Y-158755671D01*
X109770012Y-159026340D01*
X104666082Y-163279615D01*
X103946208Y-163582223D01*
X102958230Y-163873000D01*
X97050179Y-163873000D01*
X96131263Y-163609505D01*
X95336882Y-163282085D01*
X93677213Y-161899027D01*
X96005037Y-161899027D01*
X96103036Y-162175978D01*
X96253183Y-162428488D01*
X96449707Y-162646854D01*
X96685056Y-162822684D01*
X96950186Y-162949222D01*
X97100974Y-162994958D01*
X97333000Y-162873817D01*
X97333000Y-161667000D01*
X96125536Y-161667000D01*
X96005037Y-161899027D01*
X93677213Y-161899027D01*
X90222752Y-159020310D01*
X90067454Y-158803392D01*
X90034694Y-158744774D01*
X88496246Y-154898655D01*
X88318901Y-153892886D01*
X88235225Y-152562887D01*
X88235000Y-152498575D01*
X88235000Y-146079026D01*
X89502642Y-146079026D01*
X89505291Y-146094789D01*
X89606314Y-146370919D01*
X89759267Y-146622035D01*
X89958271Y-146838486D01*
X90195679Y-147011954D01*
X90462367Y-147135773D01*
X90748086Y-147205185D01*
X90983000Y-147060925D01*
X90983000Y-145847000D01*
X91237000Y-145847000D01*
X91237000Y-147060925D01*
X91471914Y-147205185D01*
X91757633Y-147135773D01*
X92024321Y-147011954D01*
X92261729Y-146838486D01*
X92460733Y-146622035D01*
X92613686Y-146370919D01*
X92714709Y-146094789D01*
X92717358Y-146079026D01*
X92596217Y-145847000D01*
X91237000Y-145847000D01*
X90983000Y-145847000D01*
X89623783Y-145847000D01*
X89502642Y-146079026D01*
X88235000Y-146079026D01*
X88235000Y-140640000D01*
X89451749Y-140640000D01*
X89480684Y-140933777D01*
X89566375Y-141216264D01*
X89705531Y-141476606D01*
X89892803Y-141704797D01*
X90120994Y-141892069D01*
X90154540Y-141910000D01*
X90120994Y-141927931D01*
X89892803Y-142115203D01*
X89705531Y-142343394D01*
X89566375Y-142603736D01*
X89480684Y-142886223D01*
X89451749Y-143180000D01*
X89480684Y-143473777D01*
X89566375Y-143756264D01*
X89705531Y-144016606D01*
X89892803Y-144244797D01*
X90120994Y-144432069D01*
X90160947Y-144453424D01*
X89958271Y-144601514D01*
X89759267Y-144817965D01*
X89606314Y-145069081D01*
X89505291Y-145345211D01*
X89502642Y-145360974D01*
X89623783Y-145593000D01*
X90983000Y-145593000D01*
X90983000Y-145573000D01*
X91237000Y-145573000D01*
X91237000Y-145593000D01*
X92596217Y-145593000D01*
X92717358Y-145360974D01*
X92714709Y-145345211D01*
X92613686Y-145069081D01*
X92460733Y-144817965D01*
X92261729Y-144601514D01*
X92059053Y-144453424D01*
X92099006Y-144432069D01*
X92327197Y-144244797D01*
X92514469Y-144016606D01*
X92653625Y-143756264D01*
X92739316Y-143473777D01*
X92768251Y-143180000D01*
X92739316Y-142886223D01*
X92723120Y-142832831D01*
X93671429Y-141884522D01*
X93701469Y-141859869D01*
X93749835Y-141800935D01*
X93799866Y-141739973D01*
X93872982Y-141603183D01*
X93911378Y-141476606D01*
X93918006Y-141454757D01*
X93929400Y-141339073D01*
X93929400Y-141339063D01*
X93933208Y-141300400D01*
X93929400Y-141261737D01*
X93929400Y-140640000D01*
X94398057Y-140640000D01*
X94425764Y-140921309D01*
X94507818Y-141191808D01*
X94641068Y-141441101D01*
X94820392Y-141659608D01*
X95038899Y-141838932D01*
X95171858Y-141910000D01*
X95038899Y-141981068D01*
X94820392Y-142160392D01*
X94641068Y-142378899D01*
X94507818Y-142628192D01*
X94425764Y-142898691D01*
X94398057Y-143180000D01*
X94425764Y-143461309D01*
X94507818Y-143731808D01*
X94641068Y-143981101D01*
X94820392Y-144199608D01*
X95038899Y-144378932D01*
X95171858Y-144450000D01*
X95038899Y-144521068D01*
X94820392Y-144700392D01*
X94641068Y-144918899D01*
X94507818Y-145168192D01*
X94425764Y-145438691D01*
X94398057Y-145720000D01*
X94425764Y-146001309D01*
X94507818Y-146271808D01*
X94641068Y-146521101D01*
X94820392Y-146739608D01*
X95038899Y-146918932D01*
X95171858Y-146990000D01*
X95038899Y-147061068D01*
X94820392Y-147240392D01*
X94641068Y-147458899D01*
X94507818Y-147708192D01*
X94425764Y-147978691D01*
X94398057Y-148260000D01*
X94425764Y-148541309D01*
X94507818Y-148811808D01*
X94641068Y-149061101D01*
X94820392Y-149279608D01*
X95038899Y-149458932D01*
X95171858Y-149530000D01*
X95038899Y-149601068D01*
X94820392Y-149780392D01*
X94641068Y-149998899D01*
X94507818Y-150248192D01*
X94425764Y-150518691D01*
X94398057Y-150800000D01*
X94425764Y-151081309D01*
X94507818Y-151351808D01*
X94641068Y-151601101D01*
X94820392Y-151819608D01*
X95038899Y-151998932D01*
X95171858Y-152070000D01*
X95038899Y-152141068D01*
X94820392Y-152320392D01*
X94641068Y-152538899D01*
X94507818Y-152788192D01*
X94425764Y-153058691D01*
X94398057Y-153340000D01*
X94425764Y-153621309D01*
X94507818Y-153891808D01*
X94641068Y-154141101D01*
X94820392Y-154359608D01*
X95038899Y-154538932D01*
X95288192Y-154672182D01*
X95558691Y-154754236D01*
X95769508Y-154775000D01*
X96610492Y-154775000D01*
X96821309Y-154754236D01*
X97091808Y-154672182D01*
X97341101Y-154538932D01*
X97559608Y-154359608D01*
X97738932Y-154141101D01*
X97872182Y-153891808D01*
X97954236Y-153621309D01*
X97981943Y-153340000D01*
X97954236Y-153058691D01*
X97872182Y-152788192D01*
X97738932Y-152538899D01*
X97559608Y-152320392D01*
X97341101Y-152141068D01*
X97208142Y-152070000D01*
X97341101Y-151998932D01*
X97559608Y-151819608D01*
X97738932Y-151601101D01*
X97872182Y-151351808D01*
X97954236Y-151081309D01*
X97981943Y-150800000D01*
X97954236Y-150518691D01*
X97872182Y-150248192D01*
X97738932Y-149998899D01*
X97559608Y-149780392D01*
X97341101Y-149601068D01*
X97208142Y-149530000D01*
X97341101Y-149458932D01*
X97559608Y-149279608D01*
X97738932Y-149061101D01*
X97872182Y-148811808D01*
X97954236Y-148541309D01*
X97981943Y-148260000D01*
X97954236Y-147978691D01*
X97872182Y-147708192D01*
X97738932Y-147458899D01*
X97559608Y-147240392D01*
X97341101Y-147061068D01*
X97208142Y-146990000D01*
X97341101Y-146918932D01*
X97559608Y-146739608D01*
X97738932Y-146521101D01*
X97872182Y-146271808D01*
X97954236Y-146001309D01*
X97981943Y-145720000D01*
X97954236Y-145438691D01*
X97872182Y-145168192D01*
X97738932Y-144918899D01*
X97559608Y-144700392D01*
X97341101Y-144521068D01*
X97208142Y-144450000D01*
X97341101Y-144378932D01*
X97559608Y-144199608D01*
X97738932Y-143981101D01*
X97872182Y-143731808D01*
X97954236Y-143461309D01*
X97981943Y-143180000D01*
X97954236Y-142898691D01*
X97872182Y-142628192D01*
X97738932Y-142378899D01*
X97559608Y-142160392D01*
X97341101Y-141981068D01*
X97208142Y-141910000D01*
X97341101Y-141838932D01*
X97559608Y-141659608D01*
X97738932Y-141441101D01*
X97872182Y-141191808D01*
X97954236Y-140921309D01*
X97981943Y-140640000D01*
X97954236Y-140358691D01*
X97872182Y-140088192D01*
X97738932Y-139838899D01*
X97559608Y-139620392D01*
X97341101Y-139441068D01*
X97213259Y-139372735D01*
X97442839Y-139222601D01*
X97644500Y-139024895D01*
X97803715Y-138791646D01*
X97914367Y-138531818D01*
X97931904Y-138449039D01*
X97809915Y-138227000D01*
X96317000Y-138227000D01*
X96317000Y-138247000D01*
X96063000Y-138247000D01*
X96063000Y-138227000D01*
X94570085Y-138227000D01*
X94448096Y-138449039D01*
X94465633Y-138531818D01*
X94576285Y-138791646D01*
X94735500Y-139024895D01*
X94937161Y-139222601D01*
X95166741Y-139372735D01*
X95038899Y-139441068D01*
X94820392Y-139620392D01*
X94641068Y-139838899D01*
X94507818Y-140088192D01*
X94425764Y-140358691D01*
X94398057Y-140640000D01*
X93929400Y-140640000D01*
X93929400Y-129282150D01*
X94581637Y-128629914D01*
X94641068Y-128741101D01*
X94820392Y-128959608D01*
X95038899Y-129138932D01*
X95171858Y-129210000D01*
X95038899Y-129281068D01*
X94820392Y-129460392D01*
X94641068Y-129678899D01*
X94507818Y-129928192D01*
X94425764Y-130198691D01*
X94398057Y-130480000D01*
X94425764Y-130761309D01*
X94507818Y-131031808D01*
X94641068Y-131281101D01*
X94820392Y-131499608D01*
X95038899Y-131678932D01*
X95171858Y-131750000D01*
X95038899Y-131821068D01*
X94820392Y-132000392D01*
X94641068Y-132218899D01*
X94507818Y-132468192D01*
X94425764Y-132738691D01*
X94398057Y-133020000D01*
X94425764Y-133301309D01*
X94507818Y-133571808D01*
X94641068Y-133821101D01*
X94820392Y-134039608D01*
X95038899Y-134218932D01*
X95171858Y-134290000D01*
X95038899Y-134361068D01*
X94820392Y-134540392D01*
X94641068Y-134758899D01*
X94507818Y-135008192D01*
X94425764Y-135278691D01*
X94398057Y-135560000D01*
X94425764Y-135841309D01*
X94507818Y-136111808D01*
X94641068Y-136361101D01*
X94820392Y-136579608D01*
X95038899Y-136758932D01*
X95166741Y-136827265D01*
X94937161Y-136977399D01*
X94735500Y-137175105D01*
X94576285Y-137408354D01*
X94465633Y-137668182D01*
X94448096Y-137750961D01*
X94570085Y-137973000D01*
X96063000Y-137973000D01*
X96063000Y-137953000D01*
X96317000Y-137953000D01*
X96317000Y-137973000D01*
X97809915Y-137973000D01*
X97931904Y-137750961D01*
X97914367Y-137668182D01*
X97803715Y-137408354D01*
X97644500Y-137175105D01*
X97442839Y-136977399D01*
X97213259Y-136827265D01*
X97341101Y-136758932D01*
X97473835Y-136650000D01*
X98532508Y-136650000D01*
X100715383Y-138832875D01*
X100749524Y-138874476D01*
X100915498Y-139010687D01*
X101104857Y-139111901D01*
X101310323Y-139174229D01*
X101470451Y-139190000D01*
X101470453Y-139190000D01*
X101523999Y-139195274D01*
X101577545Y-139190000D01*
X102526165Y-139190000D01*
X102658899Y-139298932D01*
X102720001Y-139331591D01*
X102720000Y-139408409D01*
X102658899Y-139441068D01*
X102440392Y-139620392D01*
X102261068Y-139838899D01*
X102127818Y-140088192D01*
X102045764Y-140358691D01*
X102018057Y-140640000D01*
X102045764Y-140921309D01*
X102127818Y-141191808D01*
X102261068Y-141441101D01*
X102440392Y-141659608D01*
X102658899Y-141838932D01*
X102791858Y-141910000D01*
X102658899Y-141981068D01*
X102440392Y-142160392D01*
X102261068Y-142378899D01*
X102254101Y-142391934D01*
X102247336Y-142392600D01*
X102247327Y-142392600D01*
X102131643Y-142403994D01*
X101983217Y-142449018D01*
X101846428Y-142522134D01*
X101846426Y-142522135D01*
X101846427Y-142522135D01*
X101756569Y-142595879D01*
X101756567Y-142595881D01*
X101726531Y-142620531D01*
X101701881Y-142650567D01*
X99470577Y-144881872D01*
X99440531Y-144906531D01*
X99342134Y-145026429D01*
X99269018Y-145163218D01*
X99223994Y-145311644D01*
X99212600Y-145427328D01*
X99212600Y-145427337D01*
X99208792Y-145466000D01*
X99212600Y-145504663D01*
X99212601Y-146951318D01*
X99212600Y-146951328D01*
X99212601Y-157723772D01*
X99044698Y-157835961D01*
X98835961Y-158044698D01*
X98730000Y-158203281D01*
X98624039Y-158044698D01*
X98415302Y-157835961D01*
X98169853Y-157671958D01*
X97897125Y-157558990D01*
X97607599Y-157501400D01*
X97312401Y-157501400D01*
X97022875Y-157558990D01*
X96750147Y-157671958D01*
X96504698Y-157835961D01*
X96295961Y-158044698D01*
X96131958Y-158290147D01*
X96018990Y-158562875D01*
X95961400Y-158852401D01*
X95961400Y-159147599D01*
X96018990Y-159437125D01*
X96131958Y-159709853D01*
X96295961Y-159955302D01*
X96504698Y-160164039D01*
X96665813Y-160271692D01*
X96449707Y-160433146D01*
X96253183Y-160651512D01*
X96103036Y-160904022D01*
X96005037Y-161180973D01*
X96125536Y-161413000D01*
X97333000Y-161413000D01*
X97333000Y-161393000D01*
X97587000Y-161393000D01*
X97587000Y-161413000D01*
X97607000Y-161413000D01*
X97607000Y-161667000D01*
X97587000Y-161667000D01*
X97587000Y-162873817D01*
X97819026Y-162994958D01*
X97969814Y-162949222D01*
X98234944Y-162822684D01*
X98470293Y-162646854D01*
X98666817Y-162428488D01*
X98725441Y-162329897D01*
X98835961Y-162495302D01*
X99044698Y-162704039D01*
X99290147Y-162868042D01*
X99562875Y-162981010D01*
X99852401Y-163038600D01*
X100147599Y-163038600D01*
X100437125Y-162981010D01*
X100709853Y-162868042D01*
X100955302Y-162704039D01*
X101164039Y-162495302D01*
X101270000Y-162336719D01*
X101375961Y-162495302D01*
X101584698Y-162704039D01*
X101830147Y-162868042D01*
X102102875Y-162981010D01*
X102392401Y-163038600D01*
X102687599Y-163038600D01*
X102977125Y-162981010D01*
X103249853Y-162868042D01*
X103495302Y-162704039D01*
X103569341Y-162630000D01*
X104446454Y-162630000D01*
X104500000Y-162635274D01*
X104553546Y-162630000D01*
X104553549Y-162630000D01*
X104713677Y-162614229D01*
X104919143Y-162551901D01*
X105108502Y-162450687D01*
X105274476Y-162314476D01*
X105308617Y-162272875D01*
X107336881Y-160244612D01*
X107378476Y-160210476D01*
X107514687Y-160044502D01*
X107615901Y-159855143D01*
X107678229Y-159649677D01*
X107694000Y-159489549D01*
X107694000Y-159489547D01*
X107699274Y-159436001D01*
X107694000Y-159382455D01*
X107694000Y-147875527D01*
X108184078Y-147875527D01*
X108237466Y-148104201D01*
X108467374Y-148210095D01*
X108713524Y-148269102D01*
X108966455Y-148278952D01*
X109216449Y-148239270D01*
X109453896Y-148151578D01*
X109542534Y-148104201D01*
X109595922Y-147875527D01*
X108890000Y-147169605D01*
X108184078Y-147875527D01*
X107694000Y-147875527D01*
X107694000Y-147460690D01*
X107728422Y-147553896D01*
X107775799Y-147642534D01*
X108004473Y-147695922D01*
X108710395Y-146990000D01*
X109069605Y-146990000D01*
X109775527Y-147695922D01*
X110004201Y-147642534D01*
X110110095Y-147412626D01*
X110169102Y-147166476D01*
X110178952Y-146913545D01*
X110139270Y-146663551D01*
X110051578Y-146426104D01*
X110004201Y-146337466D01*
X109775527Y-146284078D01*
X109069605Y-146990000D01*
X108710395Y-146990000D01*
X108004473Y-146284078D01*
X107775799Y-146337466D01*
X107694000Y-146515061D01*
X107694000Y-145540000D01*
X107746809Y-145540000D01*
X107788815Y-145591185D01*
X107885506Y-145670537D01*
X107995820Y-145729502D01*
X108115518Y-145765812D01*
X108240000Y-145778072D01*
X108462439Y-145778072D01*
X108326104Y-145828422D01*
X108237466Y-145875799D01*
X108184078Y-146104473D01*
X108890000Y-146810395D01*
X109595922Y-146104473D01*
X109542534Y-145875799D01*
X109330357Y-145778072D01*
X109540000Y-145778072D01*
X109664482Y-145765812D01*
X109784180Y-145729502D01*
X109894494Y-145670537D01*
X109991185Y-145591185D01*
X110070537Y-145494494D01*
X110129502Y-145384180D01*
X110165812Y-145264482D01*
X110178072Y-145140000D01*
X110178072Y-143840000D01*
X110165812Y-143715518D01*
X110129502Y-143595820D01*
X110070537Y-143485506D01*
X109991185Y-143388815D01*
X109894494Y-143309463D01*
X109784180Y-143250498D01*
X109664482Y-143214188D01*
X109540000Y-143201928D01*
X108240000Y-143201928D01*
X108115518Y-143214188D01*
X107995820Y-143250498D01*
X107885506Y-143309463D01*
X107823926Y-143360000D01*
X107694000Y-143360000D01*
X107694000Y-141525527D01*
X108184078Y-141525527D01*
X108237466Y-141754201D01*
X108467374Y-141860095D01*
X108713524Y-141919102D01*
X108966455Y-141928952D01*
X109216449Y-141889270D01*
X109453896Y-141801578D01*
X109542534Y-141754201D01*
X109595922Y-141525527D01*
X108890000Y-140819605D01*
X108184078Y-141525527D01*
X107694000Y-141525527D01*
X107694000Y-141110690D01*
X107728422Y-141203896D01*
X107775799Y-141292534D01*
X108004473Y-141345922D01*
X108710395Y-140640000D01*
X109069605Y-140640000D01*
X109775527Y-141345922D01*
X110004201Y-141292534D01*
X110110095Y-141062626D01*
X110169102Y-140816476D01*
X110178952Y-140563545D01*
X110139270Y-140313551D01*
X110051578Y-140076104D01*
X110004201Y-139987466D01*
X109775527Y-139934078D01*
X109069605Y-140640000D01*
X108710395Y-140640000D01*
X108004473Y-139934078D01*
X107775799Y-139987466D01*
X107694000Y-140165061D01*
X107694000Y-139190000D01*
X107746809Y-139190000D01*
X107788815Y-139241185D01*
X107885506Y-139320537D01*
X107995820Y-139379502D01*
X108115518Y-139415812D01*
X108240000Y-139428072D01*
X108462439Y-139428072D01*
X108326104Y-139478422D01*
X108237466Y-139525799D01*
X108184078Y-139754473D01*
X108890000Y-140460395D01*
X109595922Y-139754473D01*
X109542534Y-139525799D01*
X109330357Y-139428072D01*
X109540000Y-139428072D01*
X109664482Y-139415812D01*
X109784180Y-139379502D01*
X109894494Y-139320537D01*
X109991185Y-139241185D01*
X110070537Y-139144494D01*
X110129502Y-139034180D01*
X110165812Y-138914482D01*
X110178072Y-138790000D01*
X110178072Y-137490000D01*
X110165812Y-137365518D01*
X110129502Y-137245820D01*
X110070537Y-137135506D01*
X109991185Y-137038815D01*
X109894494Y-136959463D01*
X109784180Y-136900498D01*
X109664482Y-136864188D01*
X109540000Y-136851928D01*
X108240000Y-136851928D01*
X108115518Y-136864188D01*
X107995820Y-136900498D01*
X107885506Y-136959463D01*
X107823926Y-137010000D01*
X107694000Y-137010000D01*
X107694000Y-134155540D01*
X107921623Y-134357184D01*
X108201102Y-134520411D01*
X108507055Y-134625978D01*
X108763000Y-134507362D01*
X108763000Y-133147000D01*
X109017000Y-133147000D01*
X109017000Y-134507362D01*
X109272945Y-134625978D01*
X109578898Y-134520411D01*
X109858377Y-134357184D01*
X110100642Y-134142569D01*
X110296382Y-133884815D01*
X110438076Y-133593826D01*
X110495975Y-133402944D01*
X110376836Y-133147000D01*
X109017000Y-133147000D01*
X108763000Y-133147000D01*
X108743000Y-133147000D01*
X108743000Y-132893000D01*
X108763000Y-132893000D01*
X108763000Y-132873000D01*
X109017000Y-132873000D01*
X109017000Y-132893000D01*
X110376836Y-132893000D01*
X110495975Y-132637056D01*
X110438076Y-132446174D01*
X110296382Y-132155185D01*
X110216531Y-132050036D01*
X110260494Y-132026537D01*
X110357185Y-131947185D01*
X110436537Y-131850494D01*
X110495502Y-131740180D01*
X110531812Y-131620482D01*
X110544072Y-131496000D01*
X110544072Y-130367420D01*
X112162875Y-128748617D01*
X112204476Y-128714476D01*
X112340687Y-128548502D01*
X112441901Y-128359143D01*
X112504229Y-128153677D01*
X112520000Y-127993549D01*
X112520000Y-127993547D01*
X112525274Y-127940001D01*
X112520000Y-127886455D01*
X112520000Y-122761145D01*
X112525274Y-122707599D01*
X112519186Y-122645784D01*
X112504229Y-122493923D01*
X112441901Y-122288457D01*
X112340687Y-122099098D01*
X112204476Y-121933124D01*
X112162881Y-121898988D01*
X110525000Y-120261108D01*
X110525000Y-120158967D01*
X110462168Y-119843088D01*
X110338918Y-119545537D01*
X110159987Y-119277748D01*
X109932252Y-119050013D01*
X109664463Y-118871082D01*
X109366912Y-118747832D01*
X109051033Y-118685000D01*
X108728967Y-118685000D01*
X108413088Y-118747832D01*
X108115537Y-118871082D01*
X107847748Y-119050013D01*
X107620013Y-119277748D01*
X107441082Y-119545537D01*
X107317832Y-119843088D01*
X107255000Y-120158967D01*
X107255000Y-120481033D01*
X107317832Y-120796912D01*
X107441082Y-121094463D01*
X107620013Y-121362252D01*
X107847748Y-121589987D01*
X107847767Y-121590000D01*
X107847748Y-121590013D01*
X107620013Y-121817748D01*
X107441082Y-122085537D01*
X107317832Y-122383088D01*
X107255000Y-122698967D01*
X107255000Y-122801107D01*
X105871120Y-124184988D01*
X105829525Y-124219124D01*
X105795389Y-124260719D01*
X105693313Y-124385098D01*
X105592100Y-124574457D01*
X105529772Y-124779923D01*
X105515482Y-124925004D01*
X105492182Y-124848192D01*
X105358932Y-124598899D01*
X105179608Y-124380392D01*
X104961101Y-124201068D01*
X104828142Y-124130000D01*
X104961101Y-124058932D01*
X105179608Y-123879608D01*
X105358932Y-123661101D01*
X105492182Y-123411808D01*
X105574236Y-123141309D01*
X105601943Y-122860000D01*
X105574236Y-122578691D01*
X105492182Y-122308192D01*
X105358932Y-122058899D01*
X105179608Y-121840392D01*
X104961101Y-121661068D01*
X104828142Y-121590000D01*
X104961101Y-121518932D01*
X105179608Y-121339608D01*
X105358932Y-121121101D01*
X105492182Y-120871808D01*
X105574236Y-120601309D01*
X105601943Y-120320000D01*
X105574236Y-120038691D01*
X105492182Y-119768192D01*
X105358932Y-119518899D01*
X105179608Y-119300392D01*
X104961101Y-119121068D01*
X104711808Y-118987818D01*
X104441309Y-118905764D01*
X104230492Y-118885000D01*
X103389508Y-118885000D01*
X103178691Y-118905764D01*
X102908192Y-118987818D01*
X102658899Y-119121068D01*
X102440392Y-119300392D01*
X102261068Y-119518899D01*
X102127818Y-119768192D01*
X102045764Y-120038691D01*
X102018057Y-120320000D01*
X102045764Y-120601309D01*
X102127818Y-120871808D01*
X102261068Y-121121101D01*
X102440392Y-121339608D01*
X102658899Y-121518932D01*
X102791858Y-121590000D01*
X102658899Y-121661068D01*
X102440392Y-121840392D01*
X102261068Y-122058899D01*
X102127818Y-122308192D01*
X102045764Y-122578691D01*
X102018057Y-122860000D01*
X102045764Y-123141309D01*
X102127818Y-123411808D01*
X102261068Y-123661101D01*
X102440392Y-123879608D01*
X102658899Y-124058932D01*
X102791858Y-124130000D01*
X102658899Y-124201068D01*
X102440392Y-124380392D01*
X102261068Y-124598899D01*
X102127818Y-124848192D01*
X102045764Y-125118691D01*
X102018057Y-125400000D01*
X102045764Y-125681309D01*
X102127818Y-125951808D01*
X102261068Y-126201101D01*
X102440392Y-126419608D01*
X102658899Y-126598932D01*
X102791858Y-126670000D01*
X102658899Y-126741068D01*
X102440392Y-126920392D01*
X102261068Y-127138899D01*
X102127818Y-127388192D01*
X102045764Y-127658691D01*
X102018057Y-127940000D01*
X102045764Y-128221309D01*
X102127818Y-128491808D01*
X102261068Y-128741101D01*
X102440392Y-128959608D01*
X102658899Y-129138932D01*
X102791858Y-129210000D01*
X102658899Y-129281068D01*
X102440392Y-129460392D01*
X102261068Y-129678899D01*
X102127818Y-129928192D01*
X102045764Y-130198691D01*
X102018057Y-130480000D01*
X102045764Y-130761309D01*
X102127818Y-131031808D01*
X102261068Y-131281101D01*
X102440392Y-131499608D01*
X102658899Y-131678932D01*
X102791858Y-131750000D01*
X102658899Y-131821068D01*
X102440392Y-132000392D01*
X102261068Y-132218899D01*
X102127818Y-132468192D01*
X102045764Y-132738691D01*
X102018057Y-133020000D01*
X102045764Y-133301309D01*
X102127818Y-133571808D01*
X102261068Y-133821101D01*
X102440392Y-134039608D01*
X102658899Y-134218932D01*
X102786741Y-134287265D01*
X102557161Y-134437399D01*
X102355500Y-134635105D01*
X102196285Y-134868354D01*
X102085633Y-135128182D01*
X102068096Y-135210961D01*
X102190085Y-135433000D01*
X103683000Y-135433000D01*
X103683000Y-135413000D01*
X103937000Y-135413000D01*
X103937000Y-135433000D01*
X103957000Y-135433000D01*
X103957000Y-135687000D01*
X103937000Y-135687000D01*
X103937000Y-135707000D01*
X103683000Y-135707000D01*
X103683000Y-135687000D01*
X102190085Y-135687000D01*
X102068096Y-135909039D01*
X102085633Y-135991818D01*
X102196285Y-136251646D01*
X102355500Y-136484895D01*
X102557161Y-136682601D01*
X102786741Y-136832735D01*
X102658899Y-136901068D01*
X102526165Y-137010000D01*
X101975492Y-137010000D01*
X100074000Y-135108508D01*
X100074000Y-119357545D01*
X100079274Y-119303999D01*
X100074000Y-119250451D01*
X100058229Y-119090323D01*
X99995901Y-118884857D01*
X99894687Y-118695498D01*
X99758476Y-118529524D01*
X99716875Y-118495383D01*
X98268617Y-117047125D01*
X98234476Y-117005524D01*
X98068502Y-116869313D01*
X97879143Y-116768099D01*
X97673677Y-116705771D01*
X97513549Y-116690000D01*
X97513546Y-116690000D01*
X97460000Y-116684726D01*
X97406454Y-116690000D01*
X92433545Y-116690000D01*
X92379999Y-116684726D01*
X92326453Y-116690000D01*
X92326451Y-116690000D01*
X92166323Y-116705771D01*
X91960857Y-116768099D01*
X91771498Y-116869313D01*
X91605524Y-117005524D01*
X91571387Y-117047120D01*
X91202997Y-117415510D01*
X90949017Y-117415510D01*
X90633237Y-117478322D01*
X90335778Y-117601533D01*
X90068073Y-117780408D01*
X89840408Y-118008073D01*
X89661533Y-118275778D01*
X89538322Y-118573237D01*
X89475510Y-118889017D01*
X89475510Y-119210983D01*
X89538322Y-119526763D01*
X89661533Y-119824222D01*
X89840408Y-120091927D01*
X90068073Y-120319592D01*
X90335778Y-120498467D01*
X90633237Y-120621678D01*
X90949017Y-120684490D01*
X91270983Y-120684490D01*
X91586763Y-120621678D01*
X91884222Y-120498467D01*
X92151927Y-120319592D01*
X92379592Y-120091927D01*
X92558467Y-119824222D01*
X92681678Y-119526763D01*
X92744490Y-119210983D01*
X92744490Y-118957003D01*
X92831493Y-118870000D01*
X97008508Y-118870000D01*
X97165962Y-119027454D01*
X97091808Y-118987818D01*
X96821309Y-118905764D01*
X96610492Y-118885000D01*
X95769508Y-118885000D01*
X95558691Y-118905764D01*
X95288192Y-118987818D01*
X95038899Y-119121068D01*
X94820392Y-119300392D01*
X94641068Y-119518899D01*
X94507818Y-119768192D01*
X94425764Y-120038691D01*
X94398057Y-120320000D01*
X94425764Y-120601309D01*
X94430273Y-120616175D01*
X91580062Y-123466388D01*
X91550021Y-123491042D01*
X91525368Y-123521082D01*
X91451624Y-123610939D01*
X91378507Y-123747729D01*
X91333484Y-123896154D01*
X91318281Y-124050511D01*
X91322090Y-124089184D01*
X91322089Y-125045676D01*
X91270983Y-125035510D01*
X90949017Y-125035510D01*
X90633237Y-125098322D01*
X90335778Y-125221533D01*
X90068073Y-125400408D01*
X89840408Y-125628073D01*
X89661533Y-125895778D01*
X89538322Y-126193237D01*
X89475510Y-126509017D01*
X89475510Y-126830983D01*
X89538322Y-127146763D01*
X89661533Y-127444222D01*
X89840408Y-127711927D01*
X90068073Y-127939592D01*
X90335778Y-128118467D01*
X90394347Y-128142727D01*
X90290860Y-128211875D01*
X90111875Y-128390860D01*
X89971247Y-128601324D01*
X89874381Y-128835179D01*
X89825000Y-129083439D01*
X89825000Y-129336561D01*
X89874381Y-129584821D01*
X89971247Y-129818676D01*
X90111875Y-130029140D01*
X90290860Y-130208125D01*
X90501324Y-130348753D01*
X90677984Y-130421928D01*
X90460000Y-130421928D01*
X90335518Y-130434188D01*
X90215820Y-130470498D01*
X90105506Y-130529463D01*
X90008815Y-130608815D01*
X89929463Y-130705506D01*
X89870498Y-130815820D01*
X89834188Y-130935518D01*
X89821928Y-131060000D01*
X89821928Y-132360000D01*
X89834188Y-132484482D01*
X89870498Y-132604180D01*
X89929463Y-132714494D01*
X90008815Y-132811185D01*
X90105506Y-132890537D01*
X90215820Y-132949502D01*
X90322601Y-132981894D01*
X90322600Y-136598328D01*
X90094000Y-136598328D01*
X89969518Y-136610588D01*
X89849820Y-136646898D01*
X89739506Y-136705863D01*
X89642815Y-136785215D01*
X89563463Y-136881906D01*
X89504498Y-136992220D01*
X89468188Y-137111918D01*
X89455928Y-137236400D01*
X89455928Y-138963600D01*
X89468188Y-139088082D01*
X89504498Y-139207780D01*
X89563463Y-139318094D01*
X89642815Y-139414785D01*
X89739506Y-139494137D01*
X89849820Y-139553102D01*
X89900865Y-139568586D01*
X89892803Y-139575203D01*
X89705531Y-139803394D01*
X89566375Y-140063736D01*
X89480684Y-140346223D01*
X89451749Y-140640000D01*
X88235000Y-140640000D01*
X88235000Y-138213895D01*
X88234371Y-138207504D01*
X88210590Y-136843205D01*
X88209714Y-136825279D01*
X88209088Y-136807340D01*
X88127000Y-135570505D01*
X88127000Y-132000000D01*
X88124560Y-131975224D01*
X88121384Y-131962651D01*
X86914018Y-128038710D01*
X86584405Y-126773051D01*
X86584398Y-126773021D01*
X86571363Y-126728726D01*
X85786628Y-124341539D01*
X85770838Y-124298149D01*
X85737177Y-124213978D01*
X84121384Y-118962651D01*
X84105670Y-118929553D01*
X80111666Y-112938547D01*
X76408125Y-104605580D01*
X76505105Y-104704500D01*
X76738354Y-104863715D01*
X76998182Y-104974367D01*
X77080961Y-104991904D01*
X77303000Y-104869915D01*
X77303000Y-103377000D01*
X77557000Y-103377000D01*
X77557000Y-104869915D01*
X77779039Y-104991904D01*
X77861818Y-104974367D01*
X78121646Y-104863715D01*
X78354895Y-104704500D01*
X78552601Y-104502839D01*
X78707166Y-104266483D01*
X78812650Y-104004514D01*
X78865000Y-103727000D01*
X78865000Y-103377000D01*
X77557000Y-103377000D01*
X77303000Y-103377000D01*
X77283000Y-103377000D01*
X77283000Y-103123000D01*
X77303000Y-103123000D01*
X77303000Y-101630085D01*
X77557000Y-101630085D01*
X77557000Y-103123000D01*
X78865000Y-103123000D01*
X78865000Y-102773000D01*
X78812650Y-102495486D01*
X78707166Y-102233517D01*
X78552601Y-101997161D01*
X78354895Y-101795500D01*
X78121646Y-101636285D01*
X77861818Y-101525633D01*
X77779039Y-101508096D01*
X77557000Y-101630085D01*
X77303000Y-101630085D01*
X77080961Y-101508096D01*
X76998182Y-101525633D01*
X76738354Y-101636285D01*
X76505105Y-101795500D01*
X76307399Y-101997161D01*
X76152834Y-102233517D01*
X76127000Y-102297676D01*
X76127000Y-97702324D01*
X76152834Y-97766483D01*
X76307399Y-98002839D01*
X76505105Y-98204500D01*
X76738354Y-98363715D01*
X76998182Y-98474367D01*
X77080961Y-98491904D01*
X77303000Y-98369915D01*
X77303000Y-96877000D01*
X77557000Y-96877000D01*
X77557000Y-98369915D01*
X77779039Y-98491904D01*
X77861818Y-98474367D01*
X78121646Y-98363715D01*
X78354895Y-98204500D01*
X78552601Y-98002839D01*
X78707166Y-97766483D01*
X78812650Y-97504514D01*
X78865000Y-97227000D01*
X78865000Y-96877000D01*
X77557000Y-96877000D01*
X77303000Y-96877000D01*
X77283000Y-96877000D01*
X77283000Y-96623000D01*
X77303000Y-96623000D01*
X77303000Y-95130085D01*
X77557000Y-95130085D01*
X77557000Y-96623000D01*
X78865000Y-96623000D01*
X78865000Y-96329509D01*
X80495000Y-96329509D01*
X80495000Y-97170492D01*
X80515764Y-97381309D01*
X80597818Y-97651808D01*
X80731068Y-97901101D01*
X80910393Y-98119608D01*
X81128900Y-98298932D01*
X81142600Y-98306255D01*
X81142601Y-101693744D01*
X81128899Y-101701068D01*
X80910392Y-101880393D01*
X80731068Y-102098900D01*
X80597818Y-102348193D01*
X80515764Y-102618692D01*
X80495000Y-102829509D01*
X80495000Y-103670492D01*
X80515764Y-103881309D01*
X80597818Y-104151808D01*
X80731068Y-104401101D01*
X80910393Y-104619608D01*
X81128900Y-104798932D01*
X81378193Y-104932182D01*
X81648692Y-105014236D01*
X81930000Y-105041943D01*
X82211309Y-105014236D01*
X82481808Y-104932182D01*
X82731101Y-104798932D01*
X82949608Y-104619608D01*
X83128932Y-104401101D01*
X83262182Y-104151808D01*
X83344236Y-103881308D01*
X83365000Y-103670491D01*
X83365000Y-103287401D01*
X86308958Y-103287401D01*
X86235764Y-103528691D01*
X86208057Y-103810000D01*
X86235764Y-104091309D01*
X86317818Y-104361808D01*
X86451068Y-104611101D01*
X86630392Y-104829608D01*
X86848899Y-105008932D01*
X86981858Y-105080000D01*
X86848899Y-105151068D01*
X86630392Y-105330392D01*
X86451068Y-105548899D01*
X86317818Y-105798192D01*
X86235764Y-106068691D01*
X86208057Y-106350000D01*
X86235764Y-106631309D01*
X86317818Y-106901808D01*
X86451068Y-107151101D01*
X86630392Y-107369608D01*
X86848899Y-107548932D01*
X86981858Y-107620000D01*
X86848899Y-107691068D01*
X86630392Y-107870392D01*
X86451068Y-108088899D01*
X86317818Y-108338192D01*
X86235764Y-108608691D01*
X86208057Y-108890000D01*
X86235764Y-109171309D01*
X86317818Y-109441808D01*
X86451068Y-109691101D01*
X86630392Y-109909608D01*
X86848899Y-110088932D01*
X87098192Y-110222182D01*
X87368691Y-110304236D01*
X87579508Y-110325000D01*
X88420492Y-110325000D01*
X88631309Y-110304236D01*
X88901808Y-110222182D01*
X89151101Y-110088932D01*
X89369608Y-109909608D01*
X89548932Y-109691101D01*
X89556255Y-109677400D01*
X95559048Y-109677400D01*
X94719980Y-110516469D01*
X94647271Y-110530932D01*
X94477111Y-110601414D01*
X94323972Y-110703738D01*
X94193738Y-110833972D01*
X94091414Y-110987111D01*
X94020932Y-111157271D01*
X93985000Y-111337911D01*
X93985000Y-111522089D01*
X94020932Y-111702729D01*
X94091414Y-111872889D01*
X94193738Y-112026028D01*
X94323972Y-112156262D01*
X94477111Y-112258586D01*
X94647271Y-112329068D01*
X94827911Y-112365000D01*
X95012089Y-112365000D01*
X95192729Y-112329068D01*
X95362889Y-112258586D01*
X95516028Y-112156262D01*
X95646262Y-112026028D01*
X95748586Y-111872889D01*
X95819068Y-111702729D01*
X95833531Y-111630020D01*
X96516152Y-110947400D01*
X110691337Y-110947400D01*
X110730000Y-110951208D01*
X110768663Y-110947400D01*
X110768673Y-110947400D01*
X110884357Y-110936006D01*
X111032783Y-110890982D01*
X111169572Y-110817866D01*
X111289469Y-110719469D01*
X111314127Y-110689423D01*
X111678551Y-110325000D01*
X112420492Y-110325000D01*
X112631309Y-110304236D01*
X112901808Y-110222182D01*
X113151101Y-110088932D01*
X113369608Y-109909608D01*
X113548932Y-109691101D01*
X113682182Y-109441808D01*
X113764236Y-109171309D01*
X113791943Y-108890000D01*
X113764236Y-108608691D01*
X113682182Y-108338192D01*
X113548932Y-108088899D01*
X113369608Y-107870392D01*
X113151101Y-107691068D01*
X113018142Y-107620000D01*
X113151101Y-107548932D01*
X113369608Y-107369608D01*
X113548932Y-107151101D01*
X113682182Y-106901808D01*
X113764236Y-106631309D01*
X113791943Y-106350000D01*
X113764236Y-106068691D01*
X113682182Y-105798192D01*
X113548932Y-105548899D01*
X113369608Y-105330392D01*
X113151101Y-105151068D01*
X113018142Y-105080000D01*
X113151101Y-105008932D01*
X113369608Y-104829608D01*
X113548932Y-104611101D01*
X113682182Y-104361808D01*
X113764236Y-104091309D01*
X113791943Y-103810000D01*
X113764236Y-103528691D01*
X113703176Y-103327400D01*
X116635000Y-103327400D01*
X116635000Y-103670491D01*
X116655764Y-103881308D01*
X116737818Y-104151807D01*
X116871068Y-104401100D01*
X117050392Y-104619607D01*
X117268899Y-104798932D01*
X117518192Y-104932182D01*
X117788691Y-105014236D01*
X118070000Y-105041943D01*
X118351308Y-105014236D01*
X118621807Y-104932182D01*
X118871100Y-104798932D01*
X119089607Y-104619608D01*
X119268932Y-104401101D01*
X119402182Y-104151808D01*
X119484236Y-103881309D01*
X119505000Y-103670492D01*
X119505000Y-103377000D01*
X121135000Y-103377000D01*
X121135000Y-103727000D01*
X121187350Y-104004514D01*
X121292834Y-104266483D01*
X121447399Y-104502839D01*
X121645105Y-104704500D01*
X121878354Y-104863715D01*
X122138182Y-104974367D01*
X122220961Y-104991904D01*
X122443000Y-104869915D01*
X122443000Y-103377000D01*
X121135000Y-103377000D01*
X119505000Y-103377000D01*
X119505000Y-102829509D01*
X119499435Y-102773000D01*
X121135000Y-102773000D01*
X121135000Y-103123000D01*
X122443000Y-103123000D01*
X122443000Y-101630085D01*
X122220961Y-101508096D01*
X122138182Y-101525633D01*
X121878354Y-101636285D01*
X121645105Y-101795500D01*
X121447399Y-101997161D01*
X121292834Y-102233517D01*
X121187350Y-102495486D01*
X121135000Y-102773000D01*
X119499435Y-102773000D01*
X119484236Y-102618692D01*
X119402182Y-102348192D01*
X119268932Y-102098899D01*
X119089608Y-101880392D01*
X118871101Y-101701068D01*
X118857400Y-101693745D01*
X118857400Y-98306255D01*
X118871100Y-98298932D01*
X119089607Y-98119608D01*
X119268932Y-97901101D01*
X119402182Y-97651808D01*
X119484236Y-97381309D01*
X119505000Y-97170492D01*
X119505000Y-96877000D01*
X121135000Y-96877000D01*
X121135000Y-97227000D01*
X121187350Y-97504514D01*
X121292834Y-97766483D01*
X121447399Y-98002839D01*
X121645105Y-98204500D01*
X121878354Y-98363715D01*
X122138182Y-98474367D01*
X122220961Y-98491904D01*
X122443000Y-98369915D01*
X122443000Y-96877000D01*
X121135000Y-96877000D01*
X119505000Y-96877000D01*
X119505000Y-96329509D01*
X119499435Y-96273000D01*
X121135000Y-96273000D01*
X121135000Y-96623000D01*
X122443000Y-96623000D01*
X122443000Y-95130085D01*
X122220961Y-95008096D01*
X122138182Y-95025633D01*
X121878354Y-95136285D01*
X121645105Y-95295500D01*
X121447399Y-95497161D01*
X121292834Y-95733517D01*
X121187350Y-95995486D01*
X121135000Y-96273000D01*
X119499435Y-96273000D01*
X119484236Y-96118692D01*
X119402182Y-95848192D01*
X119268932Y-95598899D01*
X119089608Y-95380392D01*
X118871101Y-95201068D01*
X118621808Y-95067818D01*
X118351309Y-94985764D01*
X118070000Y-94958057D01*
X117788692Y-94985764D01*
X117518193Y-95067818D01*
X117268900Y-95201068D01*
X117050393Y-95380392D01*
X116871068Y-95598899D01*
X116737818Y-95848192D01*
X116655764Y-96118691D01*
X116635000Y-96329508D01*
X116635000Y-97170491D01*
X116655764Y-97381308D01*
X116737818Y-97651807D01*
X116871068Y-97901100D01*
X117050392Y-98119607D01*
X117268899Y-98298932D01*
X117282600Y-98306255D01*
X117282601Y-101693745D01*
X117268900Y-101701068D01*
X117206108Y-101752600D01*
X113703176Y-101752600D01*
X113764236Y-101551309D01*
X113791943Y-101270000D01*
X113764236Y-100988691D01*
X113682182Y-100718192D01*
X113548932Y-100468899D01*
X113369608Y-100250392D01*
X113151101Y-100071068D01*
X113018142Y-100000000D01*
X113151101Y-99928932D01*
X113369608Y-99749608D01*
X113548932Y-99531101D01*
X113682182Y-99281808D01*
X113764236Y-99011309D01*
X113791943Y-98730000D01*
X113764236Y-98448691D01*
X113682182Y-98178192D01*
X113548932Y-97928899D01*
X113369608Y-97710392D01*
X113151101Y-97531068D01*
X113018142Y-97460000D01*
X113151101Y-97388932D01*
X113369608Y-97209608D01*
X113548932Y-96991101D01*
X113682182Y-96741808D01*
X113764236Y-96471309D01*
X113791943Y-96190000D01*
X113764236Y-95908691D01*
X113682182Y-95638192D01*
X113548932Y-95388899D01*
X113369608Y-95170392D01*
X113151101Y-94991068D01*
X113018142Y-94920000D01*
X113151101Y-94848932D01*
X113369608Y-94669608D01*
X113548932Y-94451101D01*
X113682182Y-94201808D01*
X113764236Y-93931309D01*
X113791943Y-93650000D01*
X113764236Y-93368691D01*
X113682182Y-93098192D01*
X113548932Y-92848899D01*
X113369608Y-92630392D01*
X113151101Y-92451068D01*
X113018142Y-92380000D01*
X113151101Y-92308932D01*
X113369608Y-92129608D01*
X113548932Y-91911101D01*
X113682182Y-91661808D01*
X113764236Y-91391309D01*
X113791943Y-91110000D01*
X113764236Y-90828691D01*
X113682182Y-90558192D01*
X113548932Y-90308899D01*
X113369608Y-90090392D01*
X113151101Y-89911068D01*
X112901808Y-89777818D01*
X112631309Y-89695764D01*
X112420492Y-89675000D01*
X111579508Y-89675000D01*
X111368691Y-89695764D01*
X111098192Y-89777818D01*
X110848899Y-89911068D01*
X110630392Y-90090392D01*
X110451068Y-90308899D01*
X110317818Y-90558192D01*
X110235764Y-90828691D01*
X110208057Y-91110000D01*
X110235764Y-91391309D01*
X110296824Y-91592600D01*
X101790998Y-91592600D01*
X102540879Y-91203275D01*
X102633803Y-91141185D01*
X103089975Y-90569580D01*
X100000000Y-87479605D01*
X96910025Y-90569580D01*
X97366197Y-91141185D01*
X98166183Y-91581207D01*
X98202180Y-91592600D01*
X93182052Y-91592600D01*
X93208586Y-91552889D01*
X93279068Y-91382729D01*
X93315000Y-91202089D01*
X93315000Y-91017911D01*
X93279068Y-90837271D01*
X93208586Y-90667111D01*
X93106262Y-90513972D01*
X92976028Y-90383738D01*
X92822889Y-90281414D01*
X92652729Y-90210932D01*
X92472089Y-90175000D01*
X92287911Y-90175000D01*
X92107271Y-90210932D01*
X91937111Y-90281414D01*
X91875472Y-90322600D01*
X89556255Y-90322600D01*
X89548932Y-90308899D01*
X89369608Y-90090392D01*
X89151101Y-89911068D01*
X88901808Y-89777818D01*
X88631309Y-89695764D01*
X88420492Y-89675000D01*
X87579508Y-89675000D01*
X87368691Y-89695764D01*
X87098192Y-89777818D01*
X86848899Y-89911068D01*
X86630392Y-90090392D01*
X86451068Y-90308899D01*
X86317818Y-90558192D01*
X86235764Y-90828691D01*
X86208057Y-91110000D01*
X86235764Y-91391309D01*
X86317818Y-91661808D01*
X86451068Y-91911101D01*
X86630392Y-92129608D01*
X86848899Y-92308932D01*
X86981858Y-92380000D01*
X86848899Y-92451068D01*
X86630392Y-92630392D01*
X86451068Y-92848899D01*
X86317818Y-93098192D01*
X86235764Y-93368691D01*
X86208057Y-93650000D01*
X86235764Y-93931309D01*
X86317818Y-94201808D01*
X86451068Y-94451101D01*
X86630392Y-94669608D01*
X86848899Y-94848932D01*
X86981858Y-94920000D01*
X86848899Y-94991068D01*
X86630392Y-95170392D01*
X86451068Y-95388899D01*
X86317818Y-95638192D01*
X86235764Y-95908691D01*
X86208057Y-96190000D01*
X86235764Y-96471309D01*
X86317818Y-96741808D01*
X86451068Y-96991101D01*
X86630392Y-97209608D01*
X86848899Y-97388932D01*
X86981858Y-97460000D01*
X86848899Y-97531068D01*
X86630392Y-97710392D01*
X86451068Y-97928899D01*
X86317818Y-98178192D01*
X86235764Y-98448691D01*
X86208057Y-98730000D01*
X86235764Y-99011309D01*
X86317818Y-99281808D01*
X86451068Y-99531101D01*
X86630392Y-99749608D01*
X86848899Y-99928932D01*
X86981858Y-100000000D01*
X86848899Y-100071068D01*
X86630392Y-100250392D01*
X86451068Y-100468899D01*
X86317818Y-100718192D01*
X86235764Y-100988691D01*
X86208057Y-101270000D01*
X86235764Y-101551309D01*
X86284691Y-101712601D01*
X82745153Y-101712601D01*
X82731100Y-101701068D01*
X82717400Y-101693745D01*
X82717400Y-98306255D01*
X82731101Y-98298932D01*
X82949608Y-98119608D01*
X83128932Y-97901101D01*
X83262182Y-97651808D01*
X83344236Y-97381308D01*
X83365000Y-97170491D01*
X83365000Y-96329508D01*
X83344236Y-96118691D01*
X83262182Y-95848192D01*
X83128932Y-95598899D01*
X82949607Y-95380392D01*
X82731100Y-95201068D01*
X82481807Y-95067818D01*
X82211308Y-94985764D01*
X81930000Y-94958057D01*
X81648691Y-94985764D01*
X81378192Y-95067818D01*
X81128899Y-95201068D01*
X80910392Y-95380393D01*
X80731068Y-95598900D01*
X80597818Y-95848193D01*
X80515764Y-96118692D01*
X80495000Y-96329509D01*
X78865000Y-96329509D01*
X78865000Y-96273000D01*
X78812650Y-95995486D01*
X78707166Y-95733517D01*
X78552601Y-95497161D01*
X78354895Y-95295500D01*
X78121646Y-95136285D01*
X77861818Y-95025633D01*
X77779039Y-95008096D01*
X77557000Y-95130085D01*
X77303000Y-95130085D01*
X77080961Y-95008096D01*
X76998182Y-95025633D01*
X76738354Y-95136285D01*
X76505105Y-95295500D01*
X76358954Y-95444574D01*
X79696956Y-87099570D01*
X87540000Y-87099570D01*
X87540000Y-87500430D01*
X87618204Y-87893587D01*
X87771607Y-88263934D01*
X87994313Y-88597237D01*
X88277763Y-88880687D01*
X88611066Y-89103393D01*
X88981413Y-89256796D01*
X89374570Y-89335000D01*
X89775430Y-89335000D01*
X90168587Y-89256796D01*
X90538934Y-89103393D01*
X90872237Y-88880687D01*
X91155687Y-88597237D01*
X91378393Y-88263934D01*
X91531796Y-87893587D01*
X91610000Y-87500430D01*
X91610000Y-87244121D01*
X95342909Y-87244121D01*
X95421492Y-88153748D01*
X95676025Y-89030566D01*
X96096725Y-89840879D01*
X96158815Y-89933803D01*
X96730420Y-90389975D01*
X99820395Y-87300000D01*
X100179605Y-87300000D01*
X103269580Y-90389975D01*
X103841185Y-89933803D01*
X104281207Y-89133817D01*
X104556704Y-88263359D01*
X104657091Y-87355879D01*
X104634949Y-87099570D01*
X108390000Y-87099570D01*
X108390000Y-87500430D01*
X108468204Y-87893587D01*
X108621607Y-88263934D01*
X108844313Y-88597237D01*
X109127763Y-88880687D01*
X109461066Y-89103393D01*
X109831413Y-89256796D01*
X110224570Y-89335000D01*
X110625430Y-89335000D01*
X111018587Y-89256796D01*
X111388934Y-89103393D01*
X111722237Y-88880687D01*
X112005687Y-88597237D01*
X112228393Y-88263934D01*
X112381796Y-87893587D01*
X112460000Y-87500430D01*
X112460000Y-87099570D01*
X112381796Y-86706413D01*
X112228393Y-86336066D01*
X112005687Y-86002763D01*
X111722237Y-85719313D01*
X111388934Y-85496607D01*
X111018587Y-85343204D01*
X110625430Y-85265000D01*
X110224570Y-85265000D01*
X109831413Y-85343204D01*
X109461066Y-85496607D01*
X109127763Y-85719313D01*
X108844313Y-86002763D01*
X108621607Y-86336066D01*
X108468204Y-86706413D01*
X108390000Y-87099570D01*
X104634949Y-87099570D01*
X104578508Y-86446252D01*
X104323975Y-85569434D01*
X103903275Y-84759121D01*
X103841185Y-84666197D01*
X103269580Y-84210025D01*
X100179605Y-87300000D01*
X99820395Y-87300000D01*
X96730420Y-84210025D01*
X96158815Y-84666197D01*
X95718793Y-85466183D01*
X95443296Y-86336641D01*
X95342909Y-87244121D01*
X91610000Y-87244121D01*
X91610000Y-87099570D01*
X91531796Y-86706413D01*
X91378393Y-86336066D01*
X91155687Y-86002763D01*
X90872237Y-85719313D01*
X90538934Y-85496607D01*
X90168587Y-85343204D01*
X89775430Y-85265000D01*
X89374570Y-85265000D01*
X88981413Y-85343204D01*
X88611066Y-85496607D01*
X88277763Y-85719313D01*
X87994313Y-86002763D01*
X87771607Y-86336066D01*
X87618204Y-86706413D01*
X87540000Y-87099570D01*
X79696956Y-87099570D01*
X80050826Y-86214896D01*
X80224234Y-85955372D01*
X82149186Y-84030420D01*
X96910025Y-84030420D01*
X100000000Y-87120395D01*
X103089975Y-84030420D01*
X102633803Y-83458815D01*
X101833817Y-83018793D01*
X100963359Y-82743296D01*
X100055879Y-82642909D01*
X99146252Y-82721492D01*
X98269434Y-82976025D01*
X97459121Y-83396725D01*
X97366197Y-83458815D01*
X96910025Y-84030420D01*
X82149186Y-84030420D01*
X85080914Y-81098692D01*
X89630238Y-78065809D01*
X89779454Y-77993301D01*
X89782633Y-77992337D01*
X89794581Y-77985951D01*
X89821963Y-77972645D01*
X89872840Y-77945403D01*
X89884866Y-77937692D01*
X89910320Y-77924087D01*
X89932947Y-77905517D01*
X89967414Y-77879388D01*
X89998559Y-77851671D01*
X90022238Y-77832238D01*
X90041546Y-77808711D01*
X90050495Y-77799390D01*
X90075337Y-77769077D01*
X91055042Y-77115940D01*
X95810501Y-75652722D01*
X95933710Y-75837118D01*
X96662882Y-76566290D01*
X97520298Y-77139197D01*
X98473007Y-77533822D01*
X99484397Y-77735000D01*
X100515603Y-77735000D01*
X101526993Y-77533822D01*
X102479702Y-77139197D01*
X103337118Y-76566290D01*
X104066290Y-75837118D01*
X104189499Y-75652722D01*
X108944958Y-77115940D01*
G37*
G04 #@! TD.AperFunction*
M02*
