G04 #@! TF.GenerationSoftware,KiCad,Pcbnew,5.0.2+dfsg1-1~bpo9+1*
G04 #@! TF.CreationDate,2019-05-25T23:07:56+02:00*
G04 #@! TF.ProjectId,Macher_Daach_Badge,4d616368-6572-45f4-9461-6163685f4261,v1.0*
G04 #@! TF.SameCoordinates,Original*
G04 #@! TF.FileFunction,Soldermask,Top*
G04 #@! TF.FilePolarity,Negative*
%FSLAX46Y46*%
G04 Gerber Fmt 4.6, Leading zero omitted, Abs format (unit mm)*
G04 Created by KiCad (PCBNEW 5.0.2+dfsg1-1~bpo9+1) date Sa 25 Mai 2019 23:07:56 CEST*
%MOMM*%
%LPD*%
G01*
G04 APERTURE LIST*
%ADD10C,0.100000*%
G04 APERTURE END LIST*
D10*
G36*
X97668503Y-160491789D02*
X97868991Y-160552607D01*
X98053764Y-160651369D01*
X98215718Y-160784282D01*
X98348631Y-160946236D01*
X98447393Y-161131009D01*
X98508211Y-161331497D01*
X98528746Y-161540000D01*
X98508211Y-161748503D01*
X98447393Y-161948991D01*
X98348631Y-162133764D01*
X98215718Y-162295718D01*
X98053764Y-162428631D01*
X97868991Y-162527393D01*
X97668503Y-162588211D01*
X97512251Y-162603600D01*
X97407749Y-162603600D01*
X97251497Y-162588211D01*
X97051009Y-162527393D01*
X96866236Y-162428631D01*
X96704282Y-162295718D01*
X96571369Y-162133764D01*
X96472607Y-161948991D01*
X96411789Y-161748503D01*
X96391254Y-161540000D01*
X96411789Y-161331497D01*
X96472607Y-161131009D01*
X96571369Y-160946236D01*
X96704282Y-160784282D01*
X96866236Y-160651369D01*
X97051009Y-160552607D01*
X97251497Y-160491789D01*
X97407749Y-160476400D01*
X97512251Y-160476400D01*
X97668503Y-160491789D01*
X97668503Y-160491789D01*
G37*
G36*
X100208503Y-160491789D02*
X100408991Y-160552607D01*
X100593764Y-160651369D01*
X100755718Y-160784282D01*
X100888631Y-160946236D01*
X100987393Y-161131009D01*
X101048211Y-161331497D01*
X101068746Y-161540000D01*
X101048211Y-161748503D01*
X100987393Y-161948991D01*
X100888631Y-162133764D01*
X100755718Y-162295718D01*
X100593764Y-162428631D01*
X100408991Y-162527393D01*
X100208503Y-162588211D01*
X100052251Y-162603600D01*
X99947749Y-162603600D01*
X99791497Y-162588211D01*
X99591009Y-162527393D01*
X99406236Y-162428631D01*
X99244282Y-162295718D01*
X99111369Y-162133764D01*
X99012607Y-161948991D01*
X98951789Y-161748503D01*
X98931254Y-161540000D01*
X98951789Y-161331497D01*
X99012607Y-161131009D01*
X99111369Y-160946236D01*
X99244282Y-160784282D01*
X99406236Y-160651369D01*
X99591009Y-160552607D01*
X99791497Y-160491789D01*
X99947749Y-160476400D01*
X100052251Y-160476400D01*
X100208503Y-160491789D01*
X100208503Y-160491789D01*
G37*
G36*
X102748503Y-160491789D02*
X102948991Y-160552607D01*
X103133764Y-160651369D01*
X103295718Y-160784282D01*
X103428631Y-160946236D01*
X103527393Y-161131009D01*
X103588211Y-161331497D01*
X103608746Y-161540000D01*
X103588211Y-161748503D01*
X103527393Y-161948991D01*
X103428631Y-162133764D01*
X103295718Y-162295718D01*
X103133764Y-162428631D01*
X102948991Y-162527393D01*
X102748503Y-162588211D01*
X102592251Y-162603600D01*
X102487749Y-162603600D01*
X102331497Y-162588211D01*
X102131009Y-162527393D01*
X101946236Y-162428631D01*
X101784282Y-162295718D01*
X101651369Y-162133764D01*
X101552607Y-161948991D01*
X101491789Y-161748503D01*
X101471254Y-161540000D01*
X101491789Y-161331497D01*
X101552607Y-161131009D01*
X101651369Y-160946236D01*
X101784282Y-160784282D01*
X101946236Y-160651369D01*
X102131009Y-160552607D01*
X102331497Y-160491789D01*
X102487749Y-160476400D01*
X102592251Y-160476400D01*
X102748503Y-160491789D01*
X102748503Y-160491789D01*
G37*
G36*
X100208503Y-157951789D02*
X100408991Y-158012607D01*
X100593764Y-158111369D01*
X100755718Y-158244282D01*
X100888631Y-158406236D01*
X100987393Y-158591009D01*
X101048211Y-158791497D01*
X101068746Y-159000000D01*
X101048211Y-159208503D01*
X100987393Y-159408991D01*
X100888631Y-159593764D01*
X100755718Y-159755718D01*
X100593764Y-159888631D01*
X100408991Y-159987393D01*
X100208503Y-160048211D01*
X100052251Y-160063600D01*
X99947749Y-160063600D01*
X99791497Y-160048211D01*
X99591009Y-159987393D01*
X99406236Y-159888631D01*
X99244282Y-159755718D01*
X99111369Y-159593764D01*
X99012607Y-159408991D01*
X98951789Y-159208503D01*
X98931254Y-159000000D01*
X98951789Y-158791497D01*
X99012607Y-158591009D01*
X99111369Y-158406236D01*
X99244282Y-158244282D01*
X99406236Y-158111369D01*
X99591009Y-158012607D01*
X99791497Y-157951789D01*
X99947749Y-157936400D01*
X100052251Y-157936400D01*
X100208503Y-157951789D01*
X100208503Y-157951789D01*
G37*
G36*
X103603600Y-160063600D02*
X101476400Y-160063600D01*
X101476400Y-157936400D01*
X103603600Y-157936400D01*
X103603600Y-160063600D01*
X103603600Y-160063600D01*
G37*
G36*
X97668503Y-157951789D02*
X97868991Y-158012607D01*
X98053764Y-158111369D01*
X98215718Y-158244282D01*
X98348631Y-158406236D01*
X98447393Y-158591009D01*
X98508211Y-158791497D01*
X98528746Y-159000000D01*
X98508211Y-159208503D01*
X98447393Y-159408991D01*
X98348631Y-159593764D01*
X98215718Y-159755718D01*
X98053764Y-159888631D01*
X97868991Y-159987393D01*
X97668503Y-160048211D01*
X97512251Y-160063600D01*
X97407749Y-160063600D01*
X97251497Y-160048211D01*
X97051009Y-159987393D01*
X96866236Y-159888631D01*
X96704282Y-159755718D01*
X96571369Y-159593764D01*
X96472607Y-159408991D01*
X96411789Y-159208503D01*
X96391254Y-159000000D01*
X96411789Y-158791497D01*
X96472607Y-158591009D01*
X96571369Y-158406236D01*
X96704282Y-158244282D01*
X96866236Y-158111369D01*
X97051009Y-158012607D01*
X97251497Y-157951789D01*
X97407749Y-157936400D01*
X97512251Y-157936400D01*
X97668503Y-157951789D01*
X97668503Y-157951789D01*
G37*
G36*
X96736030Y-152354469D02*
X96736033Y-152354470D01*
X96736034Y-152354470D01*
X96924535Y-152411651D01*
X96924537Y-152411652D01*
X97098260Y-152504509D01*
X97250528Y-152629472D01*
X97375491Y-152781740D01*
X97468348Y-152955463D01*
X97525531Y-153143970D01*
X97544838Y-153340000D01*
X97525531Y-153536030D01*
X97468348Y-153724537D01*
X97375491Y-153898260D01*
X97250528Y-154050528D01*
X97098260Y-154175491D01*
X97098258Y-154175492D01*
X96924535Y-154268349D01*
X96736034Y-154325530D01*
X96736033Y-154325530D01*
X96736030Y-154325531D01*
X96589124Y-154340000D01*
X95790876Y-154340000D01*
X95643970Y-154325531D01*
X95643967Y-154325530D01*
X95643966Y-154325530D01*
X95455465Y-154268349D01*
X95281742Y-154175492D01*
X95281740Y-154175491D01*
X95129472Y-154050528D01*
X95004509Y-153898260D01*
X94911652Y-153724537D01*
X94854469Y-153536030D01*
X94835162Y-153340000D01*
X94854469Y-153143970D01*
X94911652Y-152955463D01*
X95004509Y-152781740D01*
X95129472Y-152629472D01*
X95281740Y-152504509D01*
X95455463Y-152411652D01*
X95455465Y-152411651D01*
X95643966Y-152354470D01*
X95643967Y-152354470D01*
X95643970Y-152354469D01*
X95790876Y-152340000D01*
X96589124Y-152340000D01*
X96736030Y-152354469D01*
X96736030Y-152354469D01*
G37*
G36*
X104356030Y-152354469D02*
X104356033Y-152354470D01*
X104356034Y-152354470D01*
X104544535Y-152411651D01*
X104544537Y-152411652D01*
X104718260Y-152504509D01*
X104870528Y-152629472D01*
X104995491Y-152781740D01*
X105088348Y-152955463D01*
X105145531Y-153143970D01*
X105164838Y-153340000D01*
X105145531Y-153536030D01*
X105088348Y-153724537D01*
X104995491Y-153898260D01*
X104870528Y-154050528D01*
X104718260Y-154175491D01*
X104718258Y-154175492D01*
X104544535Y-154268349D01*
X104356034Y-154325530D01*
X104356033Y-154325530D01*
X104356030Y-154325531D01*
X104209124Y-154340000D01*
X103410876Y-154340000D01*
X103263970Y-154325531D01*
X103263967Y-154325530D01*
X103263966Y-154325530D01*
X103075465Y-154268349D01*
X102901742Y-154175492D01*
X102901740Y-154175491D01*
X102749472Y-154050528D01*
X102624509Y-153898260D01*
X102531652Y-153724537D01*
X102474469Y-153536030D01*
X102455162Y-153340000D01*
X102474469Y-153143970D01*
X102531652Y-152955463D01*
X102624509Y-152781740D01*
X102749472Y-152629472D01*
X102901740Y-152504509D01*
X103075463Y-152411652D01*
X103075465Y-152411651D01*
X103263966Y-152354470D01*
X103263967Y-152354470D01*
X103263970Y-152354469D01*
X103410876Y-152340000D01*
X104209124Y-152340000D01*
X104356030Y-152354469D01*
X104356030Y-152354469D01*
G37*
G36*
X96736030Y-149814469D02*
X96736033Y-149814470D01*
X96736034Y-149814470D01*
X96924535Y-149871651D01*
X96924537Y-149871652D01*
X97098260Y-149964509D01*
X97250528Y-150089472D01*
X97375491Y-150241740D01*
X97468348Y-150415463D01*
X97525531Y-150603970D01*
X97544838Y-150800000D01*
X97525531Y-150996030D01*
X97468348Y-151184537D01*
X97375491Y-151358260D01*
X97250528Y-151510528D01*
X97098260Y-151635491D01*
X97098258Y-151635492D01*
X96924535Y-151728349D01*
X96736034Y-151785530D01*
X96736033Y-151785530D01*
X96736030Y-151785531D01*
X96589124Y-151800000D01*
X95790876Y-151800000D01*
X95643970Y-151785531D01*
X95643967Y-151785530D01*
X95643966Y-151785530D01*
X95455465Y-151728349D01*
X95281742Y-151635492D01*
X95281740Y-151635491D01*
X95129472Y-151510528D01*
X95004509Y-151358260D01*
X94911652Y-151184537D01*
X94854469Y-150996030D01*
X94835162Y-150800000D01*
X94854469Y-150603970D01*
X94911652Y-150415463D01*
X95004509Y-150241740D01*
X95129472Y-150089472D01*
X95281740Y-149964509D01*
X95455463Y-149871652D01*
X95455465Y-149871651D01*
X95643966Y-149814470D01*
X95643967Y-149814470D01*
X95643970Y-149814469D01*
X95790876Y-149800000D01*
X96589124Y-149800000D01*
X96736030Y-149814469D01*
X96736030Y-149814469D01*
G37*
G36*
X104356030Y-149814469D02*
X104356033Y-149814470D01*
X104356034Y-149814470D01*
X104544535Y-149871651D01*
X104544537Y-149871652D01*
X104718260Y-149964509D01*
X104870528Y-150089472D01*
X104995491Y-150241740D01*
X105088348Y-150415463D01*
X105145531Y-150603970D01*
X105164838Y-150800000D01*
X105145531Y-150996030D01*
X105088348Y-151184537D01*
X104995491Y-151358260D01*
X104870528Y-151510528D01*
X104718260Y-151635491D01*
X104718258Y-151635492D01*
X104544535Y-151728349D01*
X104356034Y-151785530D01*
X104356033Y-151785530D01*
X104356030Y-151785531D01*
X104209124Y-151800000D01*
X103410876Y-151800000D01*
X103263970Y-151785531D01*
X103263967Y-151785530D01*
X103263966Y-151785530D01*
X103075465Y-151728349D01*
X102901742Y-151635492D01*
X102901740Y-151635491D01*
X102749472Y-151510528D01*
X102624509Y-151358260D01*
X102531652Y-151184537D01*
X102474469Y-150996030D01*
X102455162Y-150800000D01*
X102474469Y-150603970D01*
X102531652Y-150415463D01*
X102624509Y-150241740D01*
X102749472Y-150089472D01*
X102901740Y-149964509D01*
X103075463Y-149871652D01*
X103075465Y-149871651D01*
X103263966Y-149814470D01*
X103263967Y-149814470D01*
X103263970Y-149814469D01*
X103410876Y-149800000D01*
X104209124Y-149800000D01*
X104356030Y-149814469D01*
X104356030Y-149814469D01*
G37*
G36*
X104356030Y-147274469D02*
X104356033Y-147274470D01*
X104356034Y-147274470D01*
X104544535Y-147331651D01*
X104544537Y-147331652D01*
X104718260Y-147424509D01*
X104870528Y-147549472D01*
X104995491Y-147701740D01*
X105088348Y-147875463D01*
X105145531Y-148063970D01*
X105164838Y-148260000D01*
X105145531Y-148456030D01*
X105088348Y-148644537D01*
X104995491Y-148818260D01*
X104870528Y-148970528D01*
X104718260Y-149095491D01*
X104718258Y-149095492D01*
X104544535Y-149188349D01*
X104356034Y-149245530D01*
X104356033Y-149245530D01*
X104356030Y-149245531D01*
X104209124Y-149260000D01*
X103410876Y-149260000D01*
X103263970Y-149245531D01*
X103263967Y-149245530D01*
X103263966Y-149245530D01*
X103075465Y-149188349D01*
X102901742Y-149095492D01*
X102901740Y-149095491D01*
X102749472Y-148970528D01*
X102624509Y-148818260D01*
X102531652Y-148644537D01*
X102474469Y-148456030D01*
X102455162Y-148260000D01*
X102474469Y-148063970D01*
X102531652Y-147875463D01*
X102624509Y-147701740D01*
X102749472Y-147549472D01*
X102901740Y-147424509D01*
X103075463Y-147331652D01*
X103075465Y-147331651D01*
X103263966Y-147274470D01*
X103263967Y-147274470D01*
X103263970Y-147274469D01*
X103410876Y-147260000D01*
X104209124Y-147260000D01*
X104356030Y-147274469D01*
X104356030Y-147274469D01*
G37*
G36*
X96736030Y-147274469D02*
X96736033Y-147274470D01*
X96736034Y-147274470D01*
X96924535Y-147331651D01*
X96924537Y-147331652D01*
X97098260Y-147424509D01*
X97250528Y-147549472D01*
X97375491Y-147701740D01*
X97468348Y-147875463D01*
X97525531Y-148063970D01*
X97544838Y-148260000D01*
X97525531Y-148456030D01*
X97468348Y-148644537D01*
X97375491Y-148818260D01*
X97250528Y-148970528D01*
X97098260Y-149095491D01*
X97098258Y-149095492D01*
X96924535Y-149188349D01*
X96736034Y-149245530D01*
X96736033Y-149245530D01*
X96736030Y-149245531D01*
X96589124Y-149260000D01*
X95790876Y-149260000D01*
X95643970Y-149245531D01*
X95643967Y-149245530D01*
X95643966Y-149245530D01*
X95455465Y-149188349D01*
X95281742Y-149095492D01*
X95281740Y-149095491D01*
X95129472Y-148970528D01*
X95004509Y-148818260D01*
X94911652Y-148644537D01*
X94854469Y-148456030D01*
X94835162Y-148260000D01*
X94854469Y-148063970D01*
X94911652Y-147875463D01*
X95004509Y-147701740D01*
X95129472Y-147549472D01*
X95281740Y-147424509D01*
X95455463Y-147331652D01*
X95455465Y-147331651D01*
X95643966Y-147274470D01*
X95643967Y-147274470D01*
X95643970Y-147274469D01*
X95790876Y-147260000D01*
X96589124Y-147260000D01*
X96736030Y-147274469D01*
X96736030Y-147274469D01*
G37*
G36*
X109137934Y-146172664D02*
X109292627Y-146236740D01*
X109431847Y-146329764D01*
X109550236Y-146448153D01*
X109643260Y-146587373D01*
X109707336Y-146742066D01*
X109740000Y-146906281D01*
X109740000Y-147073719D01*
X109707336Y-147237934D01*
X109643260Y-147392627D01*
X109550236Y-147531847D01*
X109431847Y-147650236D01*
X109292627Y-147743260D01*
X109137934Y-147807336D01*
X108973719Y-147840000D01*
X108806281Y-147840000D01*
X108642066Y-147807336D01*
X108487373Y-147743260D01*
X108348153Y-147650236D01*
X108229764Y-147531847D01*
X108136740Y-147392627D01*
X108072664Y-147237934D01*
X108040000Y-147073719D01*
X108040000Y-146906281D01*
X108072664Y-146742066D01*
X108136740Y-146587373D01*
X108229764Y-146448153D01*
X108348153Y-146329764D01*
X108487373Y-146236740D01*
X108642066Y-146172664D01*
X108806281Y-146140000D01*
X108973719Y-146140000D01*
X109137934Y-146172664D01*
X109137934Y-146172664D01*
G37*
G36*
X91470903Y-144671789D02*
X91671391Y-144732607D01*
X91856164Y-144831369D01*
X92018118Y-144964282D01*
X92151031Y-145126236D01*
X92249793Y-145311009D01*
X92310611Y-145511497D01*
X92331146Y-145720000D01*
X92310611Y-145928503D01*
X92249793Y-146128991D01*
X92151031Y-146313764D01*
X92018118Y-146475718D01*
X91856164Y-146608631D01*
X91671391Y-146707393D01*
X91470903Y-146768211D01*
X91314651Y-146783600D01*
X90905349Y-146783600D01*
X90749097Y-146768211D01*
X90548609Y-146707393D01*
X90363836Y-146608631D01*
X90201882Y-146475718D01*
X90068969Y-146313764D01*
X89970207Y-146128991D01*
X89909389Y-145928503D01*
X89888854Y-145720000D01*
X89909389Y-145511497D01*
X89970207Y-145311009D01*
X90068969Y-145126236D01*
X90201882Y-144964282D01*
X90363836Y-144831369D01*
X90548609Y-144732607D01*
X90749097Y-144671789D01*
X90905349Y-144656400D01*
X91314651Y-144656400D01*
X91470903Y-144671789D01*
X91470903Y-144671789D01*
G37*
G36*
X104356030Y-144734469D02*
X104356033Y-144734470D01*
X104356034Y-144734470D01*
X104544535Y-144791651D01*
X104544537Y-144791652D01*
X104718260Y-144884509D01*
X104870528Y-145009472D01*
X104995491Y-145161740D01*
X104995492Y-145161742D01*
X105088349Y-145335465D01*
X105141748Y-145511498D01*
X105145531Y-145523970D01*
X105164838Y-145720000D01*
X105145531Y-145916030D01*
X105145530Y-145916033D01*
X105145530Y-145916034D01*
X105141748Y-145928503D01*
X105088348Y-146104537D01*
X104995491Y-146278260D01*
X104870528Y-146430528D01*
X104718260Y-146555491D01*
X104718258Y-146555492D01*
X104544535Y-146648349D01*
X104356034Y-146705530D01*
X104356033Y-146705530D01*
X104356030Y-146705531D01*
X104209124Y-146720000D01*
X103410876Y-146720000D01*
X103263970Y-146705531D01*
X103263967Y-146705530D01*
X103263966Y-146705530D01*
X103075465Y-146648349D01*
X102901742Y-146555492D01*
X102901740Y-146555491D01*
X102749472Y-146430528D01*
X102624509Y-146278260D01*
X102531652Y-146104537D01*
X102478253Y-145928503D01*
X102474470Y-145916034D01*
X102474470Y-145916033D01*
X102474469Y-145916030D01*
X102455162Y-145720000D01*
X102474469Y-145523970D01*
X102478252Y-145511498D01*
X102531651Y-145335465D01*
X102624508Y-145161742D01*
X102624509Y-145161740D01*
X102749472Y-145009472D01*
X102901740Y-144884509D01*
X103075463Y-144791652D01*
X103075465Y-144791651D01*
X103263966Y-144734470D01*
X103263967Y-144734470D01*
X103263970Y-144734469D01*
X103410876Y-144720000D01*
X104209124Y-144720000D01*
X104356030Y-144734469D01*
X104356030Y-144734469D01*
G37*
G36*
X96736030Y-144734469D02*
X96736033Y-144734470D01*
X96736034Y-144734470D01*
X96924535Y-144791651D01*
X96924537Y-144791652D01*
X97098260Y-144884509D01*
X97250528Y-145009472D01*
X97375491Y-145161740D01*
X97375492Y-145161742D01*
X97468349Y-145335465D01*
X97521748Y-145511498D01*
X97525531Y-145523970D01*
X97544838Y-145720000D01*
X97525531Y-145916030D01*
X97525530Y-145916033D01*
X97525530Y-145916034D01*
X97521748Y-145928503D01*
X97468348Y-146104537D01*
X97375491Y-146278260D01*
X97250528Y-146430528D01*
X97098260Y-146555491D01*
X97098258Y-146555492D01*
X96924535Y-146648349D01*
X96736034Y-146705530D01*
X96736033Y-146705530D01*
X96736030Y-146705531D01*
X96589124Y-146720000D01*
X95790876Y-146720000D01*
X95643970Y-146705531D01*
X95643967Y-146705530D01*
X95643966Y-146705530D01*
X95455465Y-146648349D01*
X95281742Y-146555492D01*
X95281740Y-146555491D01*
X95129472Y-146430528D01*
X95004509Y-146278260D01*
X94911652Y-146104537D01*
X94858253Y-145928503D01*
X94854470Y-145916034D01*
X94854470Y-145916033D01*
X94854469Y-145916030D01*
X94835162Y-145720000D01*
X94854469Y-145523970D01*
X94858252Y-145511498D01*
X94911651Y-145335465D01*
X95004508Y-145161742D01*
X95004509Y-145161740D01*
X95129472Y-145009472D01*
X95281740Y-144884509D01*
X95455463Y-144791652D01*
X95455465Y-144791651D01*
X95643966Y-144734470D01*
X95643967Y-144734470D01*
X95643970Y-144734469D01*
X95790876Y-144720000D01*
X96589124Y-144720000D01*
X96736030Y-144734469D01*
X96736030Y-144734469D01*
G37*
G36*
X109740000Y-145340000D02*
X108040000Y-145340000D01*
X108040000Y-143640000D01*
X109740000Y-143640000D01*
X109740000Y-145340000D01*
X109740000Y-145340000D01*
G37*
G36*
X91470903Y-142131789D02*
X91671391Y-142192607D01*
X91856164Y-142291369D01*
X92018118Y-142424282D01*
X92151031Y-142586236D01*
X92249793Y-142771009D01*
X92310611Y-142971497D01*
X92331146Y-143180000D01*
X92310611Y-143388503D01*
X92249793Y-143588991D01*
X92151031Y-143773764D01*
X92018118Y-143935718D01*
X91856164Y-144068631D01*
X91671391Y-144167393D01*
X91470903Y-144228211D01*
X91314651Y-144243600D01*
X90905349Y-144243600D01*
X90749097Y-144228211D01*
X90548609Y-144167393D01*
X90363836Y-144068631D01*
X90201882Y-143935718D01*
X90068969Y-143773764D01*
X89970207Y-143588991D01*
X89909389Y-143388503D01*
X89888854Y-143180000D01*
X89909389Y-142971497D01*
X89970207Y-142771009D01*
X90068969Y-142586236D01*
X90201882Y-142424282D01*
X90363836Y-142291369D01*
X90548609Y-142192607D01*
X90749097Y-142131789D01*
X90905349Y-142116400D01*
X91314651Y-142116400D01*
X91470903Y-142131789D01*
X91470903Y-142131789D01*
G37*
G36*
X96736030Y-142194469D02*
X96736033Y-142194470D01*
X96736034Y-142194470D01*
X96924535Y-142251651D01*
X96924537Y-142251652D01*
X97098260Y-142344509D01*
X97250528Y-142469472D01*
X97375491Y-142621740D01*
X97375492Y-142621742D01*
X97468349Y-142795465D01*
X97521748Y-142971498D01*
X97525531Y-142983970D01*
X97544838Y-143180000D01*
X97525531Y-143376030D01*
X97525530Y-143376033D01*
X97525530Y-143376034D01*
X97521748Y-143388503D01*
X97468348Y-143564537D01*
X97375491Y-143738260D01*
X97250528Y-143890528D01*
X97098260Y-144015491D01*
X97098258Y-144015492D01*
X96924535Y-144108349D01*
X96736034Y-144165530D01*
X96736033Y-144165530D01*
X96736030Y-144165531D01*
X96589124Y-144180000D01*
X95790876Y-144180000D01*
X95643970Y-144165531D01*
X95643967Y-144165530D01*
X95643966Y-144165530D01*
X95455465Y-144108349D01*
X95281742Y-144015492D01*
X95281740Y-144015491D01*
X95129472Y-143890528D01*
X95004509Y-143738260D01*
X94911652Y-143564537D01*
X94858253Y-143388503D01*
X94854470Y-143376034D01*
X94854470Y-143376033D01*
X94854469Y-143376030D01*
X94835162Y-143180000D01*
X94854469Y-142983970D01*
X94858252Y-142971498D01*
X94911651Y-142795465D01*
X95004508Y-142621742D01*
X95004509Y-142621740D01*
X95129472Y-142469472D01*
X95281740Y-142344509D01*
X95455463Y-142251652D01*
X95455465Y-142251651D01*
X95643966Y-142194470D01*
X95643967Y-142194470D01*
X95643970Y-142194469D01*
X95790876Y-142180000D01*
X96589124Y-142180000D01*
X96736030Y-142194469D01*
X96736030Y-142194469D01*
G37*
G36*
X104356030Y-142194469D02*
X104356033Y-142194470D01*
X104356034Y-142194470D01*
X104544535Y-142251651D01*
X104544537Y-142251652D01*
X104718260Y-142344509D01*
X104870528Y-142469472D01*
X104995491Y-142621740D01*
X104995492Y-142621742D01*
X105088349Y-142795465D01*
X105141748Y-142971498D01*
X105145531Y-142983970D01*
X105164838Y-143180000D01*
X105145531Y-143376030D01*
X105145530Y-143376033D01*
X105145530Y-143376034D01*
X105141748Y-143388503D01*
X105088348Y-143564537D01*
X104995491Y-143738260D01*
X104870528Y-143890528D01*
X104718260Y-144015491D01*
X104718258Y-144015492D01*
X104544535Y-144108349D01*
X104356034Y-144165530D01*
X104356033Y-144165530D01*
X104356030Y-144165531D01*
X104209124Y-144180000D01*
X103410876Y-144180000D01*
X103263970Y-144165531D01*
X103263967Y-144165530D01*
X103263966Y-144165530D01*
X103075465Y-144108349D01*
X102901742Y-144015492D01*
X102901740Y-144015491D01*
X102749472Y-143890528D01*
X102624509Y-143738260D01*
X102531652Y-143564537D01*
X102478253Y-143388503D01*
X102474470Y-143376034D01*
X102474470Y-143376033D01*
X102474469Y-143376030D01*
X102455162Y-143180000D01*
X102474469Y-142983970D01*
X102478252Y-142971498D01*
X102531651Y-142795465D01*
X102624508Y-142621742D01*
X102624509Y-142621740D01*
X102749472Y-142469472D01*
X102901740Y-142344509D01*
X103075463Y-142251652D01*
X103075465Y-142251651D01*
X103263966Y-142194470D01*
X103263967Y-142194470D01*
X103263970Y-142194469D01*
X103410876Y-142180000D01*
X104209124Y-142180000D01*
X104356030Y-142194469D01*
X104356030Y-142194469D01*
G37*
G36*
X91470903Y-139591789D02*
X91671391Y-139652607D01*
X91856164Y-139751369D01*
X92018118Y-139884282D01*
X92151031Y-140046236D01*
X92249793Y-140231009D01*
X92310611Y-140431497D01*
X92331146Y-140640000D01*
X92310611Y-140848503D01*
X92249793Y-141048991D01*
X92151031Y-141233764D01*
X92018118Y-141395718D01*
X91856164Y-141528631D01*
X91671391Y-141627393D01*
X91470903Y-141688211D01*
X91314651Y-141703600D01*
X90905349Y-141703600D01*
X90749097Y-141688211D01*
X90548609Y-141627393D01*
X90363836Y-141528631D01*
X90201882Y-141395718D01*
X90068969Y-141233764D01*
X89970207Y-141048991D01*
X89909389Y-140848503D01*
X89888854Y-140640000D01*
X89909389Y-140431497D01*
X89970207Y-140231009D01*
X90068969Y-140046236D01*
X90201882Y-139884282D01*
X90363836Y-139751369D01*
X90548609Y-139652607D01*
X90749097Y-139591789D01*
X90905349Y-139576400D01*
X91314651Y-139576400D01*
X91470903Y-139591789D01*
X91470903Y-139591789D01*
G37*
G36*
X96736030Y-139654469D02*
X96736033Y-139654470D01*
X96736034Y-139654470D01*
X96924535Y-139711651D01*
X96924537Y-139711652D01*
X97098260Y-139804509D01*
X97250528Y-139929472D01*
X97375491Y-140081740D01*
X97455277Y-140231009D01*
X97468349Y-140255465D01*
X97521748Y-140431498D01*
X97525531Y-140443970D01*
X97544838Y-140640000D01*
X97525531Y-140836030D01*
X97525530Y-140836033D01*
X97525530Y-140836034D01*
X97509786Y-140887936D01*
X97468348Y-141024537D01*
X97375491Y-141198260D01*
X97250528Y-141350528D01*
X97098260Y-141475491D01*
X96998844Y-141528630D01*
X96924535Y-141568349D01*
X96736034Y-141625530D01*
X96736033Y-141625530D01*
X96736030Y-141625531D01*
X96589124Y-141640000D01*
X95790876Y-141640000D01*
X95643970Y-141625531D01*
X95643967Y-141625530D01*
X95643966Y-141625530D01*
X95455465Y-141568349D01*
X95381156Y-141528630D01*
X95281740Y-141475491D01*
X95129472Y-141350528D01*
X95004509Y-141198260D01*
X94911652Y-141024537D01*
X94870215Y-140887936D01*
X94854470Y-140836034D01*
X94854470Y-140836033D01*
X94854469Y-140836030D01*
X94835162Y-140640000D01*
X94854469Y-140443970D01*
X94858252Y-140431498D01*
X94911651Y-140255465D01*
X94924723Y-140231009D01*
X95004509Y-140081740D01*
X95129472Y-139929472D01*
X95281740Y-139804509D01*
X95455463Y-139711652D01*
X95455465Y-139711651D01*
X95643966Y-139654470D01*
X95643967Y-139654470D01*
X95643970Y-139654469D01*
X95790876Y-139640000D01*
X96589124Y-139640000D01*
X96736030Y-139654469D01*
X96736030Y-139654469D01*
G37*
G36*
X104356030Y-139654469D02*
X104356033Y-139654470D01*
X104356034Y-139654470D01*
X104544535Y-139711651D01*
X104544537Y-139711652D01*
X104718260Y-139804509D01*
X104870528Y-139929472D01*
X104995491Y-140081740D01*
X105075277Y-140231009D01*
X105088349Y-140255465D01*
X105141748Y-140431498D01*
X105145531Y-140443970D01*
X105164838Y-140640000D01*
X105145531Y-140836030D01*
X105145530Y-140836033D01*
X105145530Y-140836034D01*
X105129786Y-140887936D01*
X105088348Y-141024537D01*
X104995491Y-141198260D01*
X104870528Y-141350528D01*
X104718260Y-141475491D01*
X104618844Y-141528630D01*
X104544535Y-141568349D01*
X104356034Y-141625530D01*
X104356033Y-141625530D01*
X104356030Y-141625531D01*
X104209124Y-141640000D01*
X103410876Y-141640000D01*
X103263970Y-141625531D01*
X103263967Y-141625530D01*
X103263966Y-141625530D01*
X103075465Y-141568349D01*
X103001156Y-141528630D01*
X102901740Y-141475491D01*
X102749472Y-141350528D01*
X102624509Y-141198260D01*
X102531652Y-141024537D01*
X102490215Y-140887936D01*
X102474470Y-140836034D01*
X102474470Y-140836033D01*
X102474469Y-140836030D01*
X102455162Y-140640000D01*
X102474469Y-140443970D01*
X102478252Y-140431498D01*
X102531651Y-140255465D01*
X102544723Y-140231009D01*
X102624509Y-140081740D01*
X102749472Y-139929472D01*
X102901740Y-139804509D01*
X103075463Y-139711652D01*
X103075465Y-139711651D01*
X103263966Y-139654470D01*
X103263967Y-139654470D01*
X103263970Y-139654469D01*
X103410876Y-139640000D01*
X104209124Y-139640000D01*
X104356030Y-139654469D01*
X104356030Y-139654469D01*
G37*
G36*
X109137934Y-139822664D02*
X109292627Y-139886740D01*
X109431847Y-139979764D01*
X109550236Y-140098153D01*
X109643260Y-140237373D01*
X109707336Y-140392066D01*
X109740000Y-140556281D01*
X109740000Y-140723719D01*
X109707336Y-140887934D01*
X109643260Y-141042627D01*
X109550236Y-141181847D01*
X109431847Y-141300236D01*
X109292627Y-141393260D01*
X109137934Y-141457336D01*
X108973719Y-141490000D01*
X108806281Y-141490000D01*
X108642066Y-141457336D01*
X108487373Y-141393260D01*
X108348153Y-141300236D01*
X108229764Y-141181847D01*
X108136740Y-141042627D01*
X108072664Y-140887934D01*
X108040000Y-140723719D01*
X108040000Y-140556281D01*
X108072664Y-140392066D01*
X108136740Y-140237373D01*
X108229764Y-140098153D01*
X108348153Y-139979764D01*
X108487373Y-139886740D01*
X108642066Y-139822664D01*
X108806281Y-139790000D01*
X108973719Y-139790000D01*
X109137934Y-139822664D01*
X109137934Y-139822664D01*
G37*
G36*
X92326000Y-139163600D02*
X89894000Y-139163600D01*
X89894000Y-137036400D01*
X92326000Y-137036400D01*
X92326000Y-139163600D01*
X92326000Y-139163600D01*
G37*
G36*
X104356030Y-137114469D02*
X104356033Y-137114470D01*
X104356034Y-137114470D01*
X104544535Y-137171651D01*
X104544537Y-137171652D01*
X104718260Y-137264509D01*
X104870528Y-137389472D01*
X104995491Y-137541740D01*
X105088348Y-137715463D01*
X105145531Y-137903970D01*
X105164838Y-138100000D01*
X105145531Y-138296030D01*
X105088348Y-138484537D01*
X104995491Y-138658260D01*
X104870528Y-138810528D01*
X104718260Y-138935491D01*
X104718258Y-138935492D01*
X104544535Y-139028349D01*
X104356034Y-139085530D01*
X104356033Y-139085530D01*
X104356030Y-139085531D01*
X104209124Y-139100000D01*
X103410876Y-139100000D01*
X103263970Y-139085531D01*
X103263967Y-139085530D01*
X103263966Y-139085530D01*
X103075465Y-139028349D01*
X102901742Y-138935492D01*
X102901740Y-138935491D01*
X102749472Y-138810528D01*
X102624509Y-138658260D01*
X102531652Y-138484537D01*
X102474469Y-138296030D01*
X102455162Y-138100000D01*
X102474469Y-137903970D01*
X102531652Y-137715463D01*
X102624509Y-137541740D01*
X102749472Y-137389472D01*
X102901740Y-137264509D01*
X103075463Y-137171652D01*
X103075465Y-137171651D01*
X103263966Y-137114470D01*
X103263967Y-137114470D01*
X103263970Y-137114469D01*
X103410876Y-137100000D01*
X104209124Y-137100000D01*
X104356030Y-137114469D01*
X104356030Y-137114469D01*
G37*
G36*
X96736030Y-137114469D02*
X96736033Y-137114470D01*
X96736034Y-137114470D01*
X96924535Y-137171651D01*
X96924537Y-137171652D01*
X97098260Y-137264509D01*
X97250528Y-137389472D01*
X97375491Y-137541740D01*
X97468348Y-137715463D01*
X97525531Y-137903970D01*
X97544838Y-138100000D01*
X97525531Y-138296030D01*
X97468348Y-138484537D01*
X97375491Y-138658260D01*
X97250528Y-138810528D01*
X97098260Y-138935491D01*
X97098258Y-138935492D01*
X96924535Y-139028349D01*
X96736034Y-139085530D01*
X96736033Y-139085530D01*
X96736030Y-139085531D01*
X96589124Y-139100000D01*
X95790876Y-139100000D01*
X95643970Y-139085531D01*
X95643967Y-139085530D01*
X95643966Y-139085530D01*
X95455465Y-139028349D01*
X95281742Y-138935492D01*
X95281740Y-138935491D01*
X95129472Y-138810528D01*
X95004509Y-138658260D01*
X94911652Y-138484537D01*
X94854469Y-138296030D01*
X94835162Y-138100000D01*
X94854469Y-137903970D01*
X94911652Y-137715463D01*
X95004509Y-137541740D01*
X95129472Y-137389472D01*
X95281740Y-137264509D01*
X95455463Y-137171652D01*
X95455465Y-137171651D01*
X95643966Y-137114470D01*
X95643967Y-137114470D01*
X95643970Y-137114469D01*
X95790876Y-137100000D01*
X96589124Y-137100000D01*
X96736030Y-137114469D01*
X96736030Y-137114469D01*
G37*
G36*
X109740000Y-138990000D02*
X108040000Y-138990000D01*
X108040000Y-137290000D01*
X109740000Y-137290000D01*
X109740000Y-138990000D01*
X109740000Y-138990000D01*
G37*
G36*
X104356030Y-134574469D02*
X104356033Y-134574470D01*
X104356034Y-134574470D01*
X104544535Y-134631651D01*
X104544537Y-134631652D01*
X104718260Y-134724509D01*
X104870528Y-134849472D01*
X104995491Y-135001740D01*
X105088348Y-135175463D01*
X105145531Y-135363970D01*
X105164838Y-135560000D01*
X105145531Y-135756030D01*
X105088348Y-135944537D01*
X104995491Y-136118260D01*
X104870528Y-136270528D01*
X104718260Y-136395491D01*
X104718258Y-136395492D01*
X104544535Y-136488349D01*
X104356034Y-136545530D01*
X104356033Y-136545530D01*
X104356030Y-136545531D01*
X104209124Y-136560000D01*
X103410876Y-136560000D01*
X103263970Y-136545531D01*
X103263967Y-136545530D01*
X103263966Y-136545530D01*
X103075465Y-136488349D01*
X102901742Y-136395492D01*
X102901740Y-136395491D01*
X102749472Y-136270528D01*
X102624509Y-136118260D01*
X102531652Y-135944537D01*
X102474469Y-135756030D01*
X102455162Y-135560000D01*
X102474469Y-135363970D01*
X102531652Y-135175463D01*
X102624509Y-135001740D01*
X102749472Y-134849472D01*
X102901740Y-134724509D01*
X103075463Y-134631652D01*
X103075465Y-134631651D01*
X103263966Y-134574470D01*
X103263967Y-134574470D01*
X103263970Y-134574469D01*
X103410876Y-134560000D01*
X104209124Y-134560000D01*
X104356030Y-134574469D01*
X104356030Y-134574469D01*
G37*
G36*
X96736030Y-134574469D02*
X96736033Y-134574470D01*
X96736034Y-134574470D01*
X96924535Y-134631651D01*
X96924537Y-134631652D01*
X97098260Y-134724509D01*
X97250528Y-134849472D01*
X97375491Y-135001740D01*
X97468348Y-135175463D01*
X97525531Y-135363970D01*
X97544838Y-135560000D01*
X97525531Y-135756030D01*
X97468348Y-135944537D01*
X97375491Y-136118260D01*
X97250528Y-136270528D01*
X97098260Y-136395491D01*
X97098258Y-136395492D01*
X96924535Y-136488349D01*
X96736034Y-136545530D01*
X96736033Y-136545530D01*
X96736030Y-136545531D01*
X96589124Y-136560000D01*
X95790876Y-136560000D01*
X95643970Y-136545531D01*
X95643967Y-136545530D01*
X95643966Y-136545530D01*
X95455465Y-136488349D01*
X95281742Y-136395492D01*
X95281740Y-136395491D01*
X95129472Y-136270528D01*
X95004509Y-136118260D01*
X94911652Y-135944537D01*
X94854469Y-135756030D01*
X94835162Y-135560000D01*
X94854469Y-135363970D01*
X94911652Y-135175463D01*
X95004509Y-135001740D01*
X95129472Y-134849472D01*
X95281740Y-134724509D01*
X95455463Y-134631652D01*
X95455465Y-134631651D01*
X95643966Y-134574470D01*
X95643967Y-134574470D01*
X95643970Y-134574469D01*
X95790876Y-134560000D01*
X96589124Y-134560000D01*
X96736030Y-134574469D01*
X96736030Y-134574469D01*
G37*
G36*
X110106000Y-131696000D02*
X109491565Y-131696000D01*
X109467179Y-131698402D01*
X109443730Y-131705515D01*
X109422119Y-131717066D01*
X109403177Y-131732612D01*
X109387631Y-131751554D01*
X109376080Y-131773165D01*
X109368967Y-131796614D01*
X109366565Y-131821000D01*
X109368967Y-131845386D01*
X109376080Y-131868835D01*
X109387631Y-131890446D01*
X109403177Y-131909388D01*
X109432639Y-131931239D01*
X109568842Y-132004041D01*
X109754002Y-132155998D01*
X109905959Y-132341158D01*
X109970411Y-132461740D01*
X110018873Y-132552405D01*
X110018873Y-132552406D01*
X110088405Y-132781622D01*
X110111883Y-133020000D01*
X110088405Y-133258378D01*
X110044069Y-133404535D01*
X110018873Y-133487595D01*
X109988696Y-133544052D01*
X109905959Y-133698842D01*
X109754002Y-133884002D01*
X109568842Y-134035959D01*
X109414052Y-134118696D01*
X109357595Y-134148873D01*
X109281189Y-134172050D01*
X109128378Y-134218405D01*
X109009281Y-134230135D01*
X108949733Y-134236000D01*
X108830267Y-134236000D01*
X108770719Y-134230135D01*
X108651622Y-134218405D01*
X108498811Y-134172050D01*
X108422405Y-134148873D01*
X108365948Y-134118696D01*
X108211158Y-134035959D01*
X108025998Y-133884002D01*
X107874041Y-133698842D01*
X107791304Y-133544052D01*
X107761127Y-133487595D01*
X107735931Y-133404535D01*
X107691595Y-133258378D01*
X107668117Y-133020000D01*
X107691595Y-132781622D01*
X107761127Y-132552406D01*
X107761127Y-132552405D01*
X107809589Y-132461740D01*
X107874041Y-132341158D01*
X108025998Y-132155998D01*
X108211158Y-132004041D01*
X108347362Y-131931239D01*
X108367734Y-131917626D01*
X108385061Y-131900299D01*
X108398675Y-131879924D01*
X108408053Y-131857285D01*
X108412833Y-131833252D01*
X108412833Y-131808748D01*
X108408052Y-131784714D01*
X108398675Y-131762075D01*
X108385061Y-131741701D01*
X108367734Y-131724374D01*
X108347359Y-131710760D01*
X108324720Y-131701382D01*
X108288435Y-131696000D01*
X107674000Y-131696000D01*
X107674000Y-129264000D01*
X110106000Y-129264000D01*
X110106000Y-131696000D01*
X110106000Y-131696000D01*
G37*
G36*
X96736030Y-132034469D02*
X96736033Y-132034470D01*
X96736034Y-132034470D01*
X96924535Y-132091651D01*
X96924537Y-132091652D01*
X97098260Y-132184509D01*
X97250528Y-132309472D01*
X97375491Y-132461740D01*
X97423953Y-132552406D01*
X97468349Y-132635465D01*
X97525530Y-132823966D01*
X97525531Y-132823970D01*
X97544838Y-133020000D01*
X97525531Y-133216030D01*
X97525530Y-133216033D01*
X97525530Y-133216034D01*
X97512686Y-133258376D01*
X97468348Y-133404537D01*
X97375491Y-133578260D01*
X97250528Y-133730528D01*
X97098260Y-133855491D01*
X97098258Y-133855492D01*
X96924535Y-133948349D01*
X96736034Y-134005530D01*
X96736033Y-134005530D01*
X96736030Y-134005531D01*
X96589124Y-134020000D01*
X95790876Y-134020000D01*
X95643970Y-134005531D01*
X95643967Y-134005530D01*
X95643966Y-134005530D01*
X95455465Y-133948349D01*
X95281742Y-133855492D01*
X95281740Y-133855491D01*
X95129472Y-133730528D01*
X95004509Y-133578260D01*
X94911652Y-133404537D01*
X94867315Y-133258376D01*
X94854470Y-133216034D01*
X94854470Y-133216033D01*
X94854469Y-133216030D01*
X94835162Y-133020000D01*
X94854469Y-132823970D01*
X94854470Y-132823966D01*
X94911651Y-132635465D01*
X94956047Y-132552406D01*
X95004509Y-132461740D01*
X95129472Y-132309472D01*
X95281740Y-132184509D01*
X95455463Y-132091652D01*
X95455465Y-132091651D01*
X95643966Y-132034470D01*
X95643967Y-132034470D01*
X95643970Y-132034469D01*
X95790876Y-132020000D01*
X96589124Y-132020000D01*
X96736030Y-132034469D01*
X96736030Y-132034469D01*
G37*
G36*
X104356030Y-132034469D02*
X104356033Y-132034470D01*
X104356034Y-132034470D01*
X104544535Y-132091651D01*
X104544537Y-132091652D01*
X104718260Y-132184509D01*
X104870528Y-132309472D01*
X104995491Y-132461740D01*
X105043953Y-132552406D01*
X105088349Y-132635465D01*
X105145530Y-132823966D01*
X105145531Y-132823970D01*
X105164838Y-133020000D01*
X105145531Y-133216030D01*
X105145530Y-133216033D01*
X105145530Y-133216034D01*
X105132686Y-133258376D01*
X105088348Y-133404537D01*
X104995491Y-133578260D01*
X104870528Y-133730528D01*
X104718260Y-133855491D01*
X104718258Y-133855492D01*
X104544535Y-133948349D01*
X104356034Y-134005530D01*
X104356033Y-134005530D01*
X104356030Y-134005531D01*
X104209124Y-134020000D01*
X103410876Y-134020000D01*
X103263970Y-134005531D01*
X103263967Y-134005530D01*
X103263966Y-134005530D01*
X103075465Y-133948349D01*
X102901742Y-133855492D01*
X102901740Y-133855491D01*
X102749472Y-133730528D01*
X102624509Y-133578260D01*
X102531652Y-133404537D01*
X102487315Y-133258376D01*
X102474470Y-133216034D01*
X102474470Y-133216033D01*
X102474469Y-133216030D01*
X102455162Y-133020000D01*
X102474469Y-132823970D01*
X102474470Y-132823966D01*
X102531651Y-132635465D01*
X102576047Y-132552406D01*
X102624509Y-132461740D01*
X102749472Y-132309472D01*
X102901740Y-132184509D01*
X103075463Y-132091652D01*
X103075465Y-132091651D01*
X103263966Y-132034470D01*
X103263967Y-132034470D01*
X103263970Y-132034469D01*
X103410876Y-132020000D01*
X104209124Y-132020000D01*
X104356030Y-132034469D01*
X104356030Y-132034469D01*
G37*
G36*
X91960000Y-132560000D02*
X90260000Y-132560000D01*
X90260000Y-130860000D01*
X91960000Y-130860000D01*
X91960000Y-132560000D01*
X91960000Y-132560000D01*
G37*
G36*
X96736030Y-129494469D02*
X96736033Y-129494470D01*
X96736034Y-129494470D01*
X96924535Y-129551651D01*
X96924537Y-129551652D01*
X97098260Y-129644509D01*
X97250528Y-129769472D01*
X97375491Y-129921740D01*
X97468348Y-130095463D01*
X97525531Y-130283970D01*
X97544838Y-130480000D01*
X97525531Y-130676030D01*
X97525530Y-130676033D01*
X97525530Y-130676034D01*
X97469725Y-130860000D01*
X97468348Y-130864537D01*
X97375491Y-131038260D01*
X97250528Y-131190528D01*
X97098260Y-131315491D01*
X97098258Y-131315492D01*
X96924535Y-131408349D01*
X96736034Y-131465530D01*
X96736033Y-131465530D01*
X96736030Y-131465531D01*
X96589124Y-131480000D01*
X95790876Y-131480000D01*
X95643970Y-131465531D01*
X95643967Y-131465530D01*
X95643966Y-131465530D01*
X95455465Y-131408349D01*
X95281742Y-131315492D01*
X95281740Y-131315491D01*
X95129472Y-131190528D01*
X95004509Y-131038260D01*
X94911652Y-130864537D01*
X94910276Y-130860000D01*
X94854470Y-130676034D01*
X94854470Y-130676033D01*
X94854469Y-130676030D01*
X94835162Y-130480000D01*
X94854469Y-130283970D01*
X94911652Y-130095463D01*
X95004509Y-129921740D01*
X95129472Y-129769472D01*
X95281740Y-129644509D01*
X95455463Y-129551652D01*
X95455465Y-129551651D01*
X95643966Y-129494470D01*
X95643967Y-129494470D01*
X95643970Y-129494469D01*
X95790876Y-129480000D01*
X96589124Y-129480000D01*
X96736030Y-129494469D01*
X96736030Y-129494469D01*
G37*
G36*
X104356030Y-129494469D02*
X104356033Y-129494470D01*
X104356034Y-129494470D01*
X104544535Y-129551651D01*
X104544537Y-129551652D01*
X104718260Y-129644509D01*
X104870528Y-129769472D01*
X104995491Y-129921740D01*
X105088348Y-130095463D01*
X105145531Y-130283970D01*
X105164838Y-130480000D01*
X105145531Y-130676030D01*
X105145530Y-130676033D01*
X105145530Y-130676034D01*
X105089725Y-130860000D01*
X105088348Y-130864537D01*
X104995491Y-131038260D01*
X104870528Y-131190528D01*
X104718260Y-131315491D01*
X104718258Y-131315492D01*
X104544535Y-131408349D01*
X104356034Y-131465530D01*
X104356033Y-131465530D01*
X104356030Y-131465531D01*
X104209124Y-131480000D01*
X103410876Y-131480000D01*
X103263970Y-131465531D01*
X103263967Y-131465530D01*
X103263966Y-131465530D01*
X103075465Y-131408349D01*
X102901742Y-131315492D01*
X102901740Y-131315491D01*
X102749472Y-131190528D01*
X102624509Y-131038260D01*
X102531652Y-130864537D01*
X102530276Y-130860000D01*
X102474470Y-130676034D01*
X102474470Y-130676033D01*
X102474469Y-130676030D01*
X102455162Y-130480000D01*
X102474469Y-130283970D01*
X102531652Y-130095463D01*
X102624509Y-129921740D01*
X102749472Y-129769472D01*
X102901740Y-129644509D01*
X103075463Y-129551652D01*
X103075465Y-129551651D01*
X103263966Y-129494470D01*
X103263967Y-129494470D01*
X103263970Y-129494469D01*
X103410876Y-129480000D01*
X104209124Y-129480000D01*
X104356030Y-129494469D01*
X104356030Y-129494469D01*
G37*
G36*
X91357934Y-128392664D02*
X91512627Y-128456740D01*
X91651847Y-128549764D01*
X91770236Y-128668153D01*
X91863260Y-128807373D01*
X91927336Y-128962066D01*
X91960000Y-129126281D01*
X91960000Y-129293719D01*
X91927336Y-129457934D01*
X91863260Y-129612627D01*
X91770236Y-129751847D01*
X91651847Y-129870236D01*
X91512627Y-129963260D01*
X91357934Y-130027336D01*
X91193719Y-130060000D01*
X91026281Y-130060000D01*
X90862066Y-130027336D01*
X90707373Y-129963260D01*
X90568153Y-129870236D01*
X90449764Y-129751847D01*
X90356740Y-129612627D01*
X90292664Y-129457934D01*
X90260000Y-129293719D01*
X90260000Y-129126281D01*
X90292664Y-128962066D01*
X90356740Y-128807373D01*
X90449764Y-128668153D01*
X90568153Y-128549764D01*
X90707373Y-128456740D01*
X90862066Y-128392664D01*
X91026281Y-128360000D01*
X91193719Y-128360000D01*
X91357934Y-128392664D01*
X91357934Y-128392664D01*
G37*
G36*
X96736030Y-126954469D02*
X96736033Y-126954470D01*
X96736034Y-126954470D01*
X96924535Y-127011651D01*
X96924537Y-127011652D01*
X97098260Y-127104509D01*
X97250528Y-127229472D01*
X97375491Y-127381740D01*
X97375492Y-127381742D01*
X97468349Y-127555465D01*
X97525530Y-127743966D01*
X97525531Y-127743970D01*
X97544838Y-127940000D01*
X97525531Y-128136030D01*
X97468348Y-128324537D01*
X97375491Y-128498260D01*
X97250528Y-128650528D01*
X97098260Y-128775491D01*
X97098258Y-128775492D01*
X96924535Y-128868349D01*
X96736034Y-128925530D01*
X96736033Y-128925530D01*
X96736030Y-128925531D01*
X96589124Y-128940000D01*
X95790876Y-128940000D01*
X95643970Y-128925531D01*
X95643967Y-128925530D01*
X95643966Y-128925530D01*
X95455465Y-128868349D01*
X95281742Y-128775492D01*
X95281740Y-128775491D01*
X95129472Y-128650528D01*
X95004509Y-128498260D01*
X94911652Y-128324537D01*
X94854469Y-128136030D01*
X94835162Y-127940000D01*
X94854469Y-127743970D01*
X94854470Y-127743966D01*
X94911651Y-127555465D01*
X95004508Y-127381742D01*
X95004509Y-127381740D01*
X95129472Y-127229472D01*
X95281740Y-127104509D01*
X95455463Y-127011652D01*
X95455465Y-127011651D01*
X95643966Y-126954470D01*
X95643967Y-126954470D01*
X95643970Y-126954469D01*
X95790876Y-126940000D01*
X96589124Y-126940000D01*
X96736030Y-126954469D01*
X96736030Y-126954469D01*
G37*
G36*
X104356030Y-126954469D02*
X104356033Y-126954470D01*
X104356034Y-126954470D01*
X104544535Y-127011651D01*
X104544537Y-127011652D01*
X104718260Y-127104509D01*
X104870528Y-127229472D01*
X104995491Y-127381740D01*
X104995492Y-127381742D01*
X105088349Y-127555465D01*
X105145530Y-127743966D01*
X105145531Y-127743970D01*
X105164838Y-127940000D01*
X105145531Y-128136030D01*
X105088348Y-128324537D01*
X104995491Y-128498260D01*
X104870528Y-128650528D01*
X104718260Y-128775491D01*
X104718258Y-128775492D01*
X104544535Y-128868349D01*
X104356034Y-128925530D01*
X104356033Y-128925530D01*
X104356030Y-128925531D01*
X104209124Y-128940000D01*
X103410876Y-128940000D01*
X103263970Y-128925531D01*
X103263967Y-128925530D01*
X103263966Y-128925530D01*
X103075465Y-128868349D01*
X102901742Y-128775492D01*
X102901740Y-128775491D01*
X102749472Y-128650528D01*
X102624509Y-128498260D01*
X102531652Y-128324537D01*
X102474469Y-128136030D01*
X102455162Y-127940000D01*
X102474469Y-127743970D01*
X102474470Y-127743966D01*
X102531651Y-127555465D01*
X102624508Y-127381742D01*
X102624509Y-127381740D01*
X102749472Y-127229472D01*
X102901740Y-127104509D01*
X103075463Y-127011652D01*
X103075465Y-127011651D01*
X103263966Y-126954470D01*
X103263967Y-126954470D01*
X103263970Y-126954469D01*
X103410876Y-126940000D01*
X104209124Y-126940000D01*
X104356030Y-126954469D01*
X104356030Y-126954469D01*
G37*
G36*
X91459876Y-125516605D02*
X91678172Y-125607026D01*
X91874633Y-125738297D01*
X92041703Y-125905367D01*
X92172974Y-126101828D01*
X92263395Y-126320124D01*
X92309490Y-126551859D01*
X92309490Y-126788141D01*
X92263395Y-127019876D01*
X92172974Y-127238172D01*
X92041703Y-127434633D01*
X91874633Y-127601703D01*
X91678172Y-127732974D01*
X91459876Y-127823395D01*
X91228141Y-127869490D01*
X90991859Y-127869490D01*
X90760124Y-127823395D01*
X90541828Y-127732974D01*
X90345367Y-127601703D01*
X90178297Y-127434633D01*
X90047026Y-127238172D01*
X89956605Y-127019876D01*
X89910510Y-126788141D01*
X89910510Y-126551859D01*
X89956605Y-126320124D01*
X90047026Y-126101828D01*
X90178297Y-125905367D01*
X90345367Y-125738297D01*
X90541828Y-125607026D01*
X90760124Y-125516605D01*
X90991859Y-125470510D01*
X91228141Y-125470510D01*
X91459876Y-125516605D01*
X91459876Y-125516605D01*
G37*
G36*
X109240026Y-119166115D02*
X109458412Y-119256573D01*
X109654958Y-119387901D01*
X109822099Y-119555042D01*
X109953427Y-119751588D01*
X110043885Y-119969974D01*
X110090000Y-120201809D01*
X110090000Y-120438191D01*
X110043885Y-120670026D01*
X109953427Y-120888412D01*
X109822099Y-121084958D01*
X109654958Y-121252099D01*
X109458412Y-121383427D01*
X109238505Y-121474515D01*
X109216894Y-121486066D01*
X109197952Y-121501611D01*
X109182406Y-121520554D01*
X109170855Y-121542164D01*
X109163742Y-121565613D01*
X109161340Y-121590000D01*
X109163742Y-121614386D01*
X109170855Y-121637835D01*
X109182406Y-121659446D01*
X109197951Y-121678388D01*
X109216894Y-121693934D01*
X109238505Y-121705485D01*
X109458412Y-121796573D01*
X109654958Y-121927901D01*
X109822099Y-122095042D01*
X109953427Y-122291588D01*
X110043885Y-122509974D01*
X110090000Y-122741809D01*
X110090000Y-122978191D01*
X110043885Y-123210026D01*
X109953427Y-123428412D01*
X109822099Y-123624958D01*
X109654958Y-123792099D01*
X109458412Y-123923427D01*
X109238505Y-124014515D01*
X109216894Y-124026066D01*
X109197952Y-124041611D01*
X109182406Y-124060554D01*
X109170855Y-124082164D01*
X109163742Y-124105613D01*
X109161340Y-124130000D01*
X109163742Y-124154386D01*
X109170855Y-124177835D01*
X109182406Y-124199446D01*
X109197951Y-124218388D01*
X109216894Y-124233934D01*
X109238505Y-124245485D01*
X109458412Y-124336573D01*
X109654958Y-124467901D01*
X109822099Y-124635042D01*
X109953427Y-124831588D01*
X110043885Y-125049974D01*
X110090000Y-125281809D01*
X110090000Y-125518191D01*
X110043885Y-125750026D01*
X109953427Y-125968412D01*
X109822099Y-126164958D01*
X109654958Y-126332099D01*
X109458412Y-126463427D01*
X109240026Y-126553885D01*
X109008191Y-126600000D01*
X108771809Y-126600000D01*
X108539974Y-126553885D01*
X108321588Y-126463427D01*
X108125042Y-126332099D01*
X107957901Y-126164958D01*
X107826573Y-125968412D01*
X107736115Y-125750026D01*
X107690000Y-125518191D01*
X107690000Y-125281809D01*
X107736115Y-125049974D01*
X107826573Y-124831588D01*
X107957901Y-124635042D01*
X108125042Y-124467901D01*
X108321588Y-124336573D01*
X108541495Y-124245485D01*
X108563106Y-124233934D01*
X108582048Y-124218389D01*
X108597594Y-124199446D01*
X108609145Y-124177836D01*
X108616258Y-124154387D01*
X108618660Y-124130000D01*
X108616258Y-124105614D01*
X108609145Y-124082165D01*
X108597594Y-124060554D01*
X108582049Y-124041612D01*
X108563106Y-124026066D01*
X108541495Y-124014515D01*
X108321588Y-123923427D01*
X108125042Y-123792099D01*
X107957901Y-123624958D01*
X107826573Y-123428412D01*
X107736115Y-123210026D01*
X107690000Y-122978191D01*
X107690000Y-122741809D01*
X107736115Y-122509974D01*
X107826573Y-122291588D01*
X107957901Y-122095042D01*
X108125042Y-121927901D01*
X108321588Y-121796573D01*
X108541495Y-121705485D01*
X108563106Y-121693934D01*
X108582048Y-121678389D01*
X108597594Y-121659446D01*
X108609145Y-121637836D01*
X108616258Y-121614387D01*
X108618660Y-121590000D01*
X108616258Y-121565614D01*
X108609145Y-121542165D01*
X108597594Y-121520554D01*
X108582049Y-121501612D01*
X108563106Y-121486066D01*
X108541495Y-121474515D01*
X108321588Y-121383427D01*
X108125042Y-121252099D01*
X107957901Y-121084958D01*
X107826573Y-120888412D01*
X107736115Y-120670026D01*
X107690000Y-120438191D01*
X107690000Y-120201809D01*
X107736115Y-119969974D01*
X107826573Y-119751588D01*
X107957901Y-119555042D01*
X108125042Y-119387901D01*
X108321588Y-119256573D01*
X108539974Y-119166115D01*
X108771809Y-119120000D01*
X109008191Y-119120000D01*
X109240026Y-119166115D01*
X109240026Y-119166115D01*
G37*
G36*
X104356030Y-124414469D02*
X104356033Y-124414470D01*
X104356034Y-124414470D01*
X104544535Y-124471651D01*
X104544537Y-124471652D01*
X104718260Y-124564509D01*
X104870528Y-124689472D01*
X104995491Y-124841740D01*
X104995492Y-124841742D01*
X105088349Y-125015465D01*
X105098817Y-125049974D01*
X105145531Y-125203970D01*
X105164838Y-125400000D01*
X105145531Y-125596030D01*
X105145530Y-125596033D01*
X105145530Y-125596034D01*
X105098817Y-125750027D01*
X105088348Y-125784537D01*
X104995491Y-125958260D01*
X104870528Y-126110528D01*
X104718260Y-126235491D01*
X104718258Y-126235492D01*
X104544535Y-126328349D01*
X104356034Y-126385530D01*
X104356033Y-126385530D01*
X104356030Y-126385531D01*
X104209124Y-126400000D01*
X103410876Y-126400000D01*
X103263970Y-126385531D01*
X103263967Y-126385530D01*
X103263966Y-126385530D01*
X103075465Y-126328349D01*
X102901742Y-126235492D01*
X102901740Y-126235491D01*
X102749472Y-126110528D01*
X102624509Y-125958260D01*
X102531652Y-125784537D01*
X102521184Y-125750027D01*
X102474470Y-125596034D01*
X102474470Y-125596033D01*
X102474469Y-125596030D01*
X102455162Y-125400000D01*
X102474469Y-125203970D01*
X102521183Y-125049974D01*
X102531651Y-125015465D01*
X102624508Y-124841742D01*
X102624509Y-124841740D01*
X102749472Y-124689472D01*
X102901740Y-124564509D01*
X103075463Y-124471652D01*
X103075465Y-124471651D01*
X103263966Y-124414470D01*
X103263967Y-124414470D01*
X103263970Y-124414469D01*
X103410876Y-124400000D01*
X104209124Y-124400000D01*
X104356030Y-124414469D01*
X104356030Y-124414469D01*
G37*
G36*
X96736030Y-124414469D02*
X96736033Y-124414470D01*
X96736034Y-124414470D01*
X96924535Y-124471651D01*
X96924537Y-124471652D01*
X97098260Y-124564509D01*
X97250528Y-124689472D01*
X97375491Y-124841740D01*
X97375492Y-124841742D01*
X97468349Y-125015465D01*
X97478817Y-125049974D01*
X97525531Y-125203970D01*
X97544838Y-125400000D01*
X97525531Y-125596030D01*
X97525530Y-125596033D01*
X97525530Y-125596034D01*
X97478817Y-125750027D01*
X97468348Y-125784537D01*
X97375491Y-125958260D01*
X97250528Y-126110528D01*
X97098260Y-126235491D01*
X97098258Y-126235492D01*
X96924535Y-126328349D01*
X96736034Y-126385530D01*
X96736033Y-126385530D01*
X96736030Y-126385531D01*
X96589124Y-126400000D01*
X95790876Y-126400000D01*
X95643970Y-126385531D01*
X95643967Y-126385530D01*
X95643966Y-126385530D01*
X95455465Y-126328349D01*
X95281742Y-126235492D01*
X95281740Y-126235491D01*
X95129472Y-126110528D01*
X95004509Y-125958260D01*
X94911652Y-125784537D01*
X94901184Y-125750027D01*
X94854470Y-125596034D01*
X94854470Y-125596033D01*
X94854469Y-125596030D01*
X94835162Y-125400000D01*
X94854469Y-125203970D01*
X94901183Y-125049974D01*
X94911651Y-125015465D01*
X95004508Y-124841742D01*
X95004509Y-124841740D01*
X95129472Y-124689472D01*
X95281740Y-124564509D01*
X95455463Y-124471652D01*
X95455465Y-124471651D01*
X95643966Y-124414470D01*
X95643967Y-124414470D01*
X95643970Y-124414469D01*
X95790876Y-124400000D01*
X96589124Y-124400000D01*
X96736030Y-124414469D01*
X96736030Y-124414469D01*
G37*
G36*
X104356030Y-121874469D02*
X104356033Y-121874470D01*
X104356034Y-121874470D01*
X104544535Y-121931651D01*
X104544537Y-121931652D01*
X104718260Y-122024509D01*
X104870528Y-122149472D01*
X104995491Y-122301740D01*
X104995492Y-122301742D01*
X105088349Y-122475465D01*
X105098817Y-122509974D01*
X105145531Y-122663970D01*
X105164838Y-122860000D01*
X105145531Y-123056030D01*
X105145530Y-123056033D01*
X105145530Y-123056034D01*
X105098817Y-123210027D01*
X105088348Y-123244537D01*
X104995491Y-123418260D01*
X104870528Y-123570528D01*
X104718260Y-123695491D01*
X104718258Y-123695492D01*
X104544535Y-123788349D01*
X104356034Y-123845530D01*
X104356033Y-123845530D01*
X104356030Y-123845531D01*
X104209124Y-123860000D01*
X103410876Y-123860000D01*
X103263970Y-123845531D01*
X103263967Y-123845530D01*
X103263966Y-123845530D01*
X103075465Y-123788349D01*
X102901742Y-123695492D01*
X102901740Y-123695491D01*
X102749472Y-123570528D01*
X102624509Y-123418260D01*
X102531652Y-123244537D01*
X102521184Y-123210027D01*
X102474470Y-123056034D01*
X102474470Y-123056033D01*
X102474469Y-123056030D01*
X102455162Y-122860000D01*
X102474469Y-122663970D01*
X102521183Y-122509974D01*
X102531651Y-122475465D01*
X102624508Y-122301742D01*
X102624509Y-122301740D01*
X102749472Y-122149472D01*
X102901740Y-122024509D01*
X103075463Y-121931652D01*
X103075465Y-121931651D01*
X103263966Y-121874470D01*
X103263967Y-121874470D01*
X103263970Y-121874469D01*
X103410876Y-121860000D01*
X104209124Y-121860000D01*
X104356030Y-121874469D01*
X104356030Y-121874469D01*
G37*
G36*
X96736030Y-121874469D02*
X96736033Y-121874470D01*
X96736034Y-121874470D01*
X96924535Y-121931651D01*
X96924537Y-121931652D01*
X97098260Y-122024509D01*
X97250528Y-122149472D01*
X97375491Y-122301740D01*
X97375492Y-122301742D01*
X97468349Y-122475465D01*
X97478817Y-122509974D01*
X97525531Y-122663970D01*
X97544838Y-122860000D01*
X97525531Y-123056030D01*
X97525530Y-123056033D01*
X97525530Y-123056034D01*
X97478817Y-123210027D01*
X97468348Y-123244537D01*
X97375491Y-123418260D01*
X97250528Y-123570528D01*
X97098260Y-123695491D01*
X97098258Y-123695492D01*
X96924535Y-123788349D01*
X96736034Y-123845530D01*
X96736033Y-123845530D01*
X96736030Y-123845531D01*
X96589124Y-123860000D01*
X95790876Y-123860000D01*
X95643970Y-123845531D01*
X95643967Y-123845530D01*
X95643966Y-123845530D01*
X95455465Y-123788349D01*
X95281742Y-123695492D01*
X95281740Y-123695491D01*
X95129472Y-123570528D01*
X95004509Y-123418260D01*
X94911652Y-123244537D01*
X94901184Y-123210027D01*
X94854470Y-123056034D01*
X94854470Y-123056033D01*
X94854469Y-123056030D01*
X94835162Y-122860000D01*
X94854469Y-122663970D01*
X94901183Y-122509974D01*
X94911651Y-122475465D01*
X95004508Y-122301742D01*
X95004509Y-122301740D01*
X95129472Y-122149472D01*
X95281740Y-122024509D01*
X95455463Y-121931652D01*
X95455465Y-121931651D01*
X95643966Y-121874470D01*
X95643967Y-121874470D01*
X95643970Y-121874469D01*
X95790876Y-121860000D01*
X96589124Y-121860000D01*
X96736030Y-121874469D01*
X96736030Y-121874469D01*
G37*
G36*
X96736030Y-119334469D02*
X96736033Y-119334470D01*
X96736034Y-119334470D01*
X96924535Y-119391651D01*
X96924537Y-119391652D01*
X97098260Y-119484509D01*
X97250528Y-119609472D01*
X97375491Y-119761740D01*
X97375492Y-119761742D01*
X97468349Y-119935465D01*
X97525530Y-120123966D01*
X97525531Y-120123970D01*
X97544838Y-120320000D01*
X97525531Y-120516030D01*
X97525530Y-120516033D01*
X97525530Y-120516034D01*
X97478817Y-120670027D01*
X97468348Y-120704537D01*
X97375491Y-120878260D01*
X97250528Y-121030528D01*
X97098260Y-121155491D01*
X97098258Y-121155492D01*
X96924535Y-121248349D01*
X96736034Y-121305530D01*
X96736033Y-121305530D01*
X96736030Y-121305531D01*
X96589124Y-121320000D01*
X95790876Y-121320000D01*
X95643970Y-121305531D01*
X95643967Y-121305530D01*
X95643966Y-121305530D01*
X95455465Y-121248349D01*
X95281742Y-121155492D01*
X95281740Y-121155491D01*
X95129472Y-121030528D01*
X95004509Y-120878260D01*
X94911652Y-120704537D01*
X94901184Y-120670027D01*
X94854470Y-120516034D01*
X94854470Y-120516033D01*
X94854469Y-120516030D01*
X94835162Y-120320000D01*
X94854469Y-120123970D01*
X94854470Y-120123966D01*
X94911651Y-119935465D01*
X95004508Y-119761742D01*
X95004509Y-119761740D01*
X95129472Y-119609472D01*
X95281740Y-119484509D01*
X95455463Y-119391652D01*
X95455465Y-119391651D01*
X95643966Y-119334470D01*
X95643967Y-119334470D01*
X95643970Y-119334469D01*
X95790876Y-119320000D01*
X96589124Y-119320000D01*
X96736030Y-119334469D01*
X96736030Y-119334469D01*
G37*
G36*
X104356030Y-119334469D02*
X104356033Y-119334470D01*
X104356034Y-119334470D01*
X104544535Y-119391651D01*
X104544537Y-119391652D01*
X104718260Y-119484509D01*
X104870528Y-119609472D01*
X104995491Y-119761740D01*
X104995492Y-119761742D01*
X105088349Y-119935465D01*
X105145530Y-120123966D01*
X105145531Y-120123970D01*
X105164838Y-120320000D01*
X105145531Y-120516030D01*
X105145530Y-120516033D01*
X105145530Y-120516034D01*
X105098817Y-120670027D01*
X105088348Y-120704537D01*
X104995491Y-120878260D01*
X104870528Y-121030528D01*
X104718260Y-121155491D01*
X104718258Y-121155492D01*
X104544535Y-121248349D01*
X104356034Y-121305530D01*
X104356033Y-121305530D01*
X104356030Y-121305531D01*
X104209124Y-121320000D01*
X103410876Y-121320000D01*
X103263970Y-121305531D01*
X103263967Y-121305530D01*
X103263966Y-121305530D01*
X103075465Y-121248349D01*
X102901742Y-121155492D01*
X102901740Y-121155491D01*
X102749472Y-121030528D01*
X102624509Y-120878260D01*
X102531652Y-120704537D01*
X102521184Y-120670027D01*
X102474470Y-120516034D01*
X102474470Y-120516033D01*
X102474469Y-120516030D01*
X102455162Y-120320000D01*
X102474469Y-120123970D01*
X102474470Y-120123966D01*
X102531651Y-119935465D01*
X102624508Y-119761742D01*
X102624509Y-119761740D01*
X102749472Y-119609472D01*
X102901740Y-119484509D01*
X103075463Y-119391652D01*
X103075465Y-119391651D01*
X103263966Y-119334470D01*
X103263967Y-119334470D01*
X103263970Y-119334469D01*
X103410876Y-119320000D01*
X104209124Y-119320000D01*
X104356030Y-119334469D01*
X104356030Y-119334469D01*
G37*
G36*
X91459876Y-117896605D02*
X91678172Y-117987026D01*
X91874633Y-118118297D01*
X92041703Y-118285367D01*
X92172974Y-118481828D01*
X92263395Y-118700124D01*
X92309490Y-118931859D01*
X92309490Y-119168141D01*
X92263395Y-119399876D01*
X92172974Y-119618172D01*
X92041703Y-119814633D01*
X91874633Y-119981703D01*
X91678172Y-120112974D01*
X91459876Y-120203395D01*
X91228141Y-120249490D01*
X90991859Y-120249490D01*
X90760124Y-120203395D01*
X90541828Y-120112974D01*
X90345367Y-119981703D01*
X90178297Y-119814633D01*
X90047026Y-119618172D01*
X89956605Y-119399876D01*
X89910510Y-119168141D01*
X89910510Y-118931859D01*
X89956605Y-118700124D01*
X90047026Y-118481828D01*
X90178297Y-118285367D01*
X90345367Y-118118297D01*
X90541828Y-117987026D01*
X90760124Y-117896605D01*
X90991859Y-117850510D01*
X91228141Y-117850510D01*
X91459876Y-117896605D01*
X91459876Y-117896605D01*
G37*
G36*
X112546030Y-107904469D02*
X112546033Y-107904470D01*
X112546034Y-107904470D01*
X112734535Y-107961651D01*
X112734537Y-107961652D01*
X112908260Y-108054509D01*
X113060528Y-108179472D01*
X113185491Y-108331740D01*
X113278348Y-108505463D01*
X113335531Y-108693970D01*
X113354838Y-108890000D01*
X113335531Y-109086030D01*
X113278348Y-109274537D01*
X113185491Y-109448260D01*
X113060528Y-109600528D01*
X112908260Y-109725491D01*
X112908258Y-109725492D01*
X112734535Y-109818349D01*
X112546034Y-109875530D01*
X112546033Y-109875530D01*
X112546030Y-109875531D01*
X112399124Y-109890000D01*
X111600876Y-109890000D01*
X111453970Y-109875531D01*
X111453967Y-109875530D01*
X111453966Y-109875530D01*
X111265465Y-109818349D01*
X111091742Y-109725492D01*
X111091740Y-109725491D01*
X110939472Y-109600528D01*
X110814509Y-109448260D01*
X110721652Y-109274537D01*
X110664469Y-109086030D01*
X110645162Y-108890000D01*
X110664469Y-108693970D01*
X110721652Y-108505463D01*
X110814509Y-108331740D01*
X110939472Y-108179472D01*
X111091740Y-108054509D01*
X111265463Y-107961652D01*
X111265465Y-107961651D01*
X111453966Y-107904470D01*
X111453967Y-107904470D01*
X111453970Y-107904469D01*
X111600876Y-107890000D01*
X112399124Y-107890000D01*
X112546030Y-107904469D01*
X112546030Y-107904469D01*
G37*
G36*
X88546030Y-107904469D02*
X88546033Y-107904470D01*
X88546034Y-107904470D01*
X88734535Y-107961651D01*
X88734537Y-107961652D01*
X88908260Y-108054509D01*
X89060528Y-108179472D01*
X89185491Y-108331740D01*
X89278348Y-108505463D01*
X89335531Y-108693970D01*
X89354838Y-108890000D01*
X89335531Y-109086030D01*
X89278348Y-109274537D01*
X89185491Y-109448260D01*
X89060528Y-109600528D01*
X88908260Y-109725491D01*
X88908258Y-109725492D01*
X88734535Y-109818349D01*
X88546034Y-109875530D01*
X88546033Y-109875530D01*
X88546030Y-109875531D01*
X88399124Y-109890000D01*
X87600876Y-109890000D01*
X87453970Y-109875531D01*
X87453967Y-109875530D01*
X87453966Y-109875530D01*
X87265465Y-109818349D01*
X87091742Y-109725492D01*
X87091740Y-109725491D01*
X86939472Y-109600528D01*
X86814509Y-109448260D01*
X86721652Y-109274537D01*
X86664469Y-109086030D01*
X86645162Y-108890000D01*
X86664469Y-108693970D01*
X86721652Y-108505463D01*
X86814509Y-108331740D01*
X86939472Y-108179472D01*
X87091740Y-108054509D01*
X87265463Y-107961652D01*
X87265465Y-107961651D01*
X87453966Y-107904470D01*
X87453967Y-107904470D01*
X87453970Y-107904469D01*
X87600876Y-107890000D01*
X88399124Y-107890000D01*
X88546030Y-107904469D01*
X88546030Y-107904469D01*
G37*
G36*
X112546030Y-105364469D02*
X112546033Y-105364470D01*
X112546034Y-105364470D01*
X112734535Y-105421651D01*
X112734537Y-105421652D01*
X112908260Y-105514509D01*
X113060528Y-105639472D01*
X113185491Y-105791740D01*
X113278348Y-105965463D01*
X113335531Y-106153970D01*
X113354838Y-106350000D01*
X113335531Y-106546030D01*
X113278348Y-106734537D01*
X113185491Y-106908260D01*
X113060528Y-107060528D01*
X112908260Y-107185491D01*
X112908258Y-107185492D01*
X112734535Y-107278349D01*
X112546034Y-107335530D01*
X112546033Y-107335530D01*
X112546030Y-107335531D01*
X112399124Y-107350000D01*
X111600876Y-107350000D01*
X111453970Y-107335531D01*
X111453967Y-107335530D01*
X111453966Y-107335530D01*
X111265465Y-107278349D01*
X111091742Y-107185492D01*
X111091740Y-107185491D01*
X110939472Y-107060528D01*
X110814509Y-106908260D01*
X110721652Y-106734537D01*
X110664469Y-106546030D01*
X110645162Y-106350000D01*
X110664469Y-106153970D01*
X110721652Y-105965463D01*
X110814509Y-105791740D01*
X110939472Y-105639472D01*
X111091740Y-105514509D01*
X111265463Y-105421652D01*
X111265465Y-105421651D01*
X111453966Y-105364470D01*
X111453967Y-105364470D01*
X111453970Y-105364469D01*
X111600876Y-105350000D01*
X112399124Y-105350000D01*
X112546030Y-105364469D01*
X112546030Y-105364469D01*
G37*
G36*
X88546030Y-105364469D02*
X88546033Y-105364470D01*
X88546034Y-105364470D01*
X88734535Y-105421651D01*
X88734537Y-105421652D01*
X88908260Y-105514509D01*
X89060528Y-105639472D01*
X89185491Y-105791740D01*
X89278348Y-105965463D01*
X89335531Y-106153970D01*
X89354838Y-106350000D01*
X89335531Y-106546030D01*
X89278348Y-106734537D01*
X89185491Y-106908260D01*
X89060528Y-107060528D01*
X88908260Y-107185491D01*
X88908258Y-107185492D01*
X88734535Y-107278349D01*
X88546034Y-107335530D01*
X88546033Y-107335530D01*
X88546030Y-107335531D01*
X88399124Y-107350000D01*
X87600876Y-107350000D01*
X87453970Y-107335531D01*
X87453967Y-107335530D01*
X87453966Y-107335530D01*
X87265465Y-107278349D01*
X87091742Y-107185492D01*
X87091740Y-107185491D01*
X86939472Y-107060528D01*
X86814509Y-106908260D01*
X86721652Y-106734537D01*
X86664469Y-106546030D01*
X86645162Y-106350000D01*
X86664469Y-106153970D01*
X86721652Y-105965463D01*
X86814509Y-105791740D01*
X86939472Y-105639472D01*
X87091740Y-105514509D01*
X87265463Y-105421652D01*
X87265465Y-105421651D01*
X87453966Y-105364470D01*
X87453967Y-105364470D01*
X87453970Y-105364469D01*
X87600876Y-105350000D01*
X88399124Y-105350000D01*
X88546030Y-105364469D01*
X88546030Y-105364469D01*
G37*
G36*
X112546030Y-102824469D02*
X112546033Y-102824470D01*
X112546034Y-102824470D01*
X112734535Y-102881651D01*
X112734537Y-102881652D01*
X112908260Y-102974509D01*
X113060528Y-103099472D01*
X113185491Y-103251740D01*
X113278348Y-103425463D01*
X113335531Y-103613970D01*
X113354838Y-103810000D01*
X113335531Y-104006030D01*
X113278348Y-104194537D01*
X113185491Y-104368260D01*
X113060528Y-104520528D01*
X112908260Y-104645491D01*
X112908258Y-104645492D01*
X112734535Y-104738349D01*
X112546034Y-104795530D01*
X112546033Y-104795530D01*
X112546030Y-104795531D01*
X112399124Y-104810000D01*
X111600876Y-104810000D01*
X111453970Y-104795531D01*
X111453967Y-104795530D01*
X111453966Y-104795530D01*
X111265465Y-104738349D01*
X111091742Y-104645492D01*
X111091740Y-104645491D01*
X110939472Y-104520528D01*
X110814509Y-104368260D01*
X110721652Y-104194537D01*
X110664469Y-104006030D01*
X110645162Y-103810000D01*
X110664469Y-103613970D01*
X110721652Y-103425463D01*
X110814509Y-103251740D01*
X110939472Y-103099472D01*
X111091740Y-102974509D01*
X111265463Y-102881652D01*
X111265465Y-102881651D01*
X111453966Y-102824470D01*
X111453967Y-102824470D01*
X111453970Y-102824469D01*
X111600876Y-102810000D01*
X112399124Y-102810000D01*
X112546030Y-102824469D01*
X112546030Y-102824469D01*
G37*
G36*
X88546030Y-102824469D02*
X88546033Y-102824470D01*
X88546034Y-102824470D01*
X88734535Y-102881651D01*
X88734537Y-102881652D01*
X88908260Y-102974509D01*
X89060528Y-103099472D01*
X89185491Y-103251740D01*
X89278348Y-103425463D01*
X89335531Y-103613970D01*
X89354838Y-103810000D01*
X89335531Y-104006030D01*
X89278348Y-104194537D01*
X89185491Y-104368260D01*
X89060528Y-104520528D01*
X88908260Y-104645491D01*
X88908258Y-104645492D01*
X88734535Y-104738349D01*
X88546034Y-104795530D01*
X88546033Y-104795530D01*
X88546030Y-104795531D01*
X88399124Y-104810000D01*
X87600876Y-104810000D01*
X87453970Y-104795531D01*
X87453967Y-104795530D01*
X87453966Y-104795530D01*
X87265465Y-104738349D01*
X87091742Y-104645492D01*
X87091740Y-104645491D01*
X86939472Y-104520528D01*
X86814509Y-104368260D01*
X86721652Y-104194537D01*
X86664469Y-104006030D01*
X86645162Y-103810000D01*
X86664469Y-103613970D01*
X86721652Y-103425463D01*
X86814509Y-103251740D01*
X86939472Y-103099472D01*
X87091740Y-102974509D01*
X87265463Y-102881652D01*
X87265465Y-102881651D01*
X87453966Y-102824470D01*
X87453967Y-102824470D01*
X87453970Y-102824469D01*
X87600876Y-102810000D01*
X88399124Y-102810000D01*
X88546030Y-102824469D01*
X88546030Y-102824469D01*
G37*
G36*
X122766030Y-101914469D02*
X122766033Y-101914470D01*
X122766034Y-101914470D01*
X122954535Y-101971651D01*
X122954537Y-101971652D01*
X123128260Y-102064509D01*
X123280528Y-102189472D01*
X123405491Y-102341740D01*
X123498349Y-102515464D01*
X123555531Y-102703969D01*
X123570000Y-102850877D01*
X123570000Y-103649124D01*
X123555531Y-103796030D01*
X123555530Y-103796033D01*
X123555530Y-103796034D01*
X123498350Y-103984533D01*
X123498348Y-103984537D01*
X123405491Y-104158260D01*
X123280528Y-104310528D01*
X123128258Y-104435493D01*
X122954539Y-104528347D01*
X122954536Y-104528348D01*
X122954534Y-104528349D01*
X122766033Y-104585530D01*
X122766032Y-104585530D01*
X122766029Y-104585531D01*
X122570000Y-104604838D01*
X122373970Y-104585531D01*
X122373967Y-104585530D01*
X122373966Y-104585530D01*
X122185465Y-104528349D01*
X122011742Y-104435492D01*
X122011740Y-104435491D01*
X121859472Y-104310528D01*
X121734507Y-104158258D01*
X121641653Y-103984539D01*
X121584471Y-103796034D01*
X121584470Y-103796033D01*
X121584470Y-103796031D01*
X121584469Y-103796029D01*
X121570000Y-103649123D01*
X121570000Y-102850876D01*
X121584469Y-102703965D01*
X121641651Y-102515467D01*
X121734510Y-102341740D01*
X121859473Y-102189472D01*
X122011741Y-102064509D01*
X122185464Y-101971652D01*
X122185466Y-101971651D01*
X122373967Y-101914470D01*
X122373968Y-101914470D01*
X122373971Y-101914469D01*
X122570000Y-101895162D01*
X122766030Y-101914469D01*
X122766030Y-101914469D01*
G37*
G36*
X118266030Y-101914469D02*
X118266033Y-101914470D01*
X118266034Y-101914470D01*
X118454535Y-101971651D01*
X118454537Y-101971652D01*
X118628260Y-102064509D01*
X118780528Y-102189472D01*
X118905491Y-102341740D01*
X118998349Y-102515464D01*
X119055531Y-102703969D01*
X119070000Y-102850877D01*
X119070000Y-103649124D01*
X119055531Y-103796030D01*
X119055530Y-103796033D01*
X119055530Y-103796034D01*
X118998350Y-103984533D01*
X118998348Y-103984537D01*
X118905491Y-104158260D01*
X118780528Y-104310528D01*
X118628258Y-104435493D01*
X118454539Y-104528347D01*
X118454536Y-104528348D01*
X118454534Y-104528349D01*
X118266033Y-104585530D01*
X118266032Y-104585530D01*
X118266029Y-104585531D01*
X118070000Y-104604838D01*
X117873970Y-104585531D01*
X117873967Y-104585530D01*
X117873966Y-104585530D01*
X117685465Y-104528349D01*
X117511742Y-104435492D01*
X117511740Y-104435491D01*
X117359472Y-104310528D01*
X117234507Y-104158258D01*
X117141653Y-103984539D01*
X117084471Y-103796034D01*
X117084470Y-103796033D01*
X117084470Y-103796031D01*
X117084469Y-103796029D01*
X117070000Y-103649123D01*
X117070000Y-102850876D01*
X117084469Y-102703965D01*
X117141651Y-102515467D01*
X117234510Y-102341740D01*
X117359473Y-102189472D01*
X117511741Y-102064509D01*
X117685464Y-101971652D01*
X117685466Y-101971651D01*
X117873967Y-101914470D01*
X117873968Y-101914470D01*
X117873971Y-101914469D01*
X118070000Y-101895162D01*
X118266030Y-101914469D01*
X118266030Y-101914469D01*
G37*
G36*
X77626029Y-101914469D02*
X77626032Y-101914470D01*
X77626033Y-101914470D01*
X77814534Y-101971651D01*
X77814536Y-101971652D01*
X77814539Y-101971653D01*
X77988258Y-102064507D01*
X78140528Y-102189472D01*
X78265491Y-102341740D01*
X78265492Y-102341742D01*
X78358349Y-102515465D01*
X78415530Y-102703966D01*
X78415531Y-102703970D01*
X78430000Y-102850876D01*
X78430000Y-103649123D01*
X78415531Y-103796031D01*
X78358349Y-103984536D01*
X78265491Y-104158260D01*
X78140528Y-104310528D01*
X77988260Y-104435491D01*
X77988258Y-104435492D01*
X77814535Y-104528349D01*
X77626034Y-104585530D01*
X77626033Y-104585530D01*
X77626030Y-104585531D01*
X77430000Y-104604838D01*
X77233971Y-104585531D01*
X77233968Y-104585530D01*
X77233967Y-104585530D01*
X77045466Y-104528349D01*
X76871743Y-104435492D01*
X76871741Y-104435491D01*
X76719473Y-104310528D01*
X76594510Y-104158260D01*
X76548081Y-104071397D01*
X76501652Y-103984535D01*
X76501651Y-103984533D01*
X76444469Y-103796035D01*
X76430000Y-103649124D01*
X76430000Y-102850877D01*
X76444469Y-102703971D01*
X76444470Y-102703967D01*
X76501651Y-102515466D01*
X76501652Y-102515464D01*
X76501653Y-102515461D01*
X76594507Y-102341742D01*
X76719472Y-102189472D01*
X76871740Y-102064509D01*
X77045463Y-101971652D01*
X77045465Y-101971651D01*
X77233966Y-101914470D01*
X77233967Y-101914470D01*
X77233970Y-101914469D01*
X77430000Y-101895162D01*
X77626029Y-101914469D01*
X77626029Y-101914469D01*
G37*
G36*
X82126029Y-101914469D02*
X82126032Y-101914470D01*
X82126033Y-101914470D01*
X82314534Y-101971651D01*
X82314536Y-101971652D01*
X82314539Y-101971653D01*
X82488258Y-102064507D01*
X82640528Y-102189472D01*
X82765491Y-102341740D01*
X82765492Y-102341742D01*
X82858349Y-102515465D01*
X82915530Y-102703966D01*
X82915531Y-102703970D01*
X82930000Y-102850876D01*
X82930000Y-103649123D01*
X82915531Y-103796031D01*
X82858349Y-103984536D01*
X82765491Y-104158260D01*
X82640528Y-104310528D01*
X82488260Y-104435491D01*
X82488258Y-104435492D01*
X82314535Y-104528349D01*
X82126034Y-104585530D01*
X82126033Y-104585530D01*
X82126030Y-104585531D01*
X81930000Y-104604838D01*
X81733971Y-104585531D01*
X81733968Y-104585530D01*
X81733967Y-104585530D01*
X81545466Y-104528349D01*
X81371743Y-104435492D01*
X81371741Y-104435491D01*
X81219473Y-104310528D01*
X81094510Y-104158260D01*
X81048081Y-104071397D01*
X81001652Y-103984535D01*
X81001651Y-103984533D01*
X80944469Y-103796035D01*
X80930000Y-103649124D01*
X80930000Y-102850877D01*
X80944469Y-102703971D01*
X80944470Y-102703967D01*
X81001651Y-102515466D01*
X81001652Y-102515464D01*
X81001653Y-102515461D01*
X81094507Y-102341742D01*
X81219472Y-102189472D01*
X81371740Y-102064509D01*
X81545463Y-101971652D01*
X81545465Y-101971651D01*
X81733966Y-101914470D01*
X81733967Y-101914470D01*
X81733970Y-101914469D01*
X81930000Y-101895162D01*
X82126029Y-101914469D01*
X82126029Y-101914469D01*
G37*
G36*
X112546030Y-100284469D02*
X112546033Y-100284470D01*
X112546034Y-100284470D01*
X112734535Y-100341651D01*
X112734537Y-100341652D01*
X112908260Y-100434509D01*
X113060528Y-100559472D01*
X113185491Y-100711740D01*
X113278348Y-100885463D01*
X113335531Y-101073970D01*
X113354838Y-101270000D01*
X113335531Y-101466030D01*
X113278348Y-101654537D01*
X113185491Y-101828260D01*
X113060528Y-101980528D01*
X112908260Y-102105491D01*
X112908258Y-102105492D01*
X112734535Y-102198349D01*
X112546034Y-102255530D01*
X112546033Y-102255530D01*
X112546030Y-102255531D01*
X112399124Y-102270000D01*
X111600876Y-102270000D01*
X111453970Y-102255531D01*
X111453967Y-102255530D01*
X111453966Y-102255530D01*
X111265465Y-102198349D01*
X111091742Y-102105492D01*
X111091740Y-102105491D01*
X110939472Y-101980528D01*
X110814509Y-101828260D01*
X110721652Y-101654537D01*
X110664469Y-101466030D01*
X110645162Y-101270000D01*
X110664469Y-101073970D01*
X110721652Y-100885463D01*
X110814509Y-100711740D01*
X110939472Y-100559472D01*
X111091740Y-100434509D01*
X111265463Y-100341652D01*
X111265465Y-100341651D01*
X111453966Y-100284470D01*
X111453967Y-100284470D01*
X111453970Y-100284469D01*
X111600876Y-100270000D01*
X112399124Y-100270000D01*
X112546030Y-100284469D01*
X112546030Y-100284469D01*
G37*
G36*
X88546030Y-100284469D02*
X88546033Y-100284470D01*
X88546034Y-100284470D01*
X88734535Y-100341651D01*
X88734537Y-100341652D01*
X88908260Y-100434509D01*
X89060528Y-100559472D01*
X89185491Y-100711740D01*
X89278348Y-100885463D01*
X89335531Y-101073970D01*
X89354838Y-101270000D01*
X89335531Y-101466030D01*
X89278348Y-101654537D01*
X89185491Y-101828260D01*
X89060528Y-101980528D01*
X88908260Y-102105491D01*
X88908258Y-102105492D01*
X88734535Y-102198349D01*
X88546034Y-102255530D01*
X88546033Y-102255530D01*
X88546030Y-102255531D01*
X88399124Y-102270000D01*
X87600876Y-102270000D01*
X87453970Y-102255531D01*
X87453967Y-102255530D01*
X87453966Y-102255530D01*
X87265465Y-102198349D01*
X87091742Y-102105492D01*
X87091740Y-102105491D01*
X86939472Y-101980528D01*
X86814509Y-101828260D01*
X86721652Y-101654537D01*
X86664469Y-101466030D01*
X86645162Y-101270000D01*
X86664469Y-101073970D01*
X86721652Y-100885463D01*
X86814509Y-100711740D01*
X86939472Y-100559472D01*
X87091740Y-100434509D01*
X87265463Y-100341652D01*
X87265465Y-100341651D01*
X87453966Y-100284470D01*
X87453967Y-100284470D01*
X87453970Y-100284469D01*
X87600876Y-100270000D01*
X88399124Y-100270000D01*
X88546030Y-100284469D01*
X88546030Y-100284469D01*
G37*
G36*
X88546030Y-97744469D02*
X88546033Y-97744470D01*
X88546034Y-97744470D01*
X88734535Y-97801651D01*
X88734537Y-97801652D01*
X88908260Y-97894509D01*
X89060528Y-98019472D01*
X89185491Y-98171740D01*
X89278348Y-98345463D01*
X89335531Y-98533970D01*
X89354838Y-98730000D01*
X89335531Y-98926030D01*
X89278348Y-99114537D01*
X89185491Y-99288260D01*
X89060528Y-99440528D01*
X88908260Y-99565491D01*
X88908258Y-99565492D01*
X88734535Y-99658349D01*
X88546034Y-99715530D01*
X88546033Y-99715530D01*
X88546030Y-99715531D01*
X88399124Y-99730000D01*
X87600876Y-99730000D01*
X87453970Y-99715531D01*
X87453967Y-99715530D01*
X87453966Y-99715530D01*
X87265465Y-99658349D01*
X87091742Y-99565492D01*
X87091740Y-99565491D01*
X86939472Y-99440528D01*
X86814509Y-99288260D01*
X86721652Y-99114537D01*
X86664469Y-98926030D01*
X86645162Y-98730000D01*
X86664469Y-98533970D01*
X86721652Y-98345463D01*
X86814509Y-98171740D01*
X86939472Y-98019472D01*
X87091740Y-97894509D01*
X87265463Y-97801652D01*
X87265465Y-97801651D01*
X87453966Y-97744470D01*
X87453967Y-97744470D01*
X87453970Y-97744469D01*
X87600876Y-97730000D01*
X88399124Y-97730000D01*
X88546030Y-97744469D01*
X88546030Y-97744469D01*
G37*
G36*
X112546030Y-97744469D02*
X112546033Y-97744470D01*
X112546034Y-97744470D01*
X112734535Y-97801651D01*
X112734537Y-97801652D01*
X112908260Y-97894509D01*
X113060528Y-98019472D01*
X113185491Y-98171740D01*
X113278348Y-98345463D01*
X113335531Y-98533970D01*
X113354838Y-98730000D01*
X113335531Y-98926030D01*
X113278348Y-99114537D01*
X113185491Y-99288260D01*
X113060528Y-99440528D01*
X112908260Y-99565491D01*
X112908258Y-99565492D01*
X112734535Y-99658349D01*
X112546034Y-99715530D01*
X112546033Y-99715530D01*
X112546030Y-99715531D01*
X112399124Y-99730000D01*
X111600876Y-99730000D01*
X111453970Y-99715531D01*
X111453967Y-99715530D01*
X111453966Y-99715530D01*
X111265465Y-99658349D01*
X111091742Y-99565492D01*
X111091740Y-99565491D01*
X110939472Y-99440528D01*
X110814509Y-99288260D01*
X110721652Y-99114537D01*
X110664469Y-98926030D01*
X110645162Y-98730000D01*
X110664469Y-98533970D01*
X110721652Y-98345463D01*
X110814509Y-98171740D01*
X110939472Y-98019472D01*
X111091740Y-97894509D01*
X111265463Y-97801652D01*
X111265465Y-97801651D01*
X111453966Y-97744470D01*
X111453967Y-97744470D01*
X111453970Y-97744469D01*
X111600876Y-97730000D01*
X112399124Y-97730000D01*
X112546030Y-97744469D01*
X112546030Y-97744469D01*
G37*
G36*
X82126029Y-95414469D02*
X82126032Y-95414470D01*
X82126033Y-95414470D01*
X82314534Y-95471651D01*
X82314536Y-95471652D01*
X82314539Y-95471653D01*
X82488258Y-95564507D01*
X82640528Y-95689472D01*
X82765491Y-95841740D01*
X82765492Y-95841742D01*
X82858349Y-96015465D01*
X82915530Y-96203966D01*
X82915531Y-96203970D01*
X82930000Y-96350876D01*
X82930000Y-97149123D01*
X82915531Y-97296031D01*
X82858349Y-97484536D01*
X82765491Y-97658260D01*
X82640528Y-97810528D01*
X82488260Y-97935491D01*
X82488258Y-97935492D01*
X82314535Y-98028349D01*
X82126034Y-98085530D01*
X82126033Y-98085530D01*
X82126030Y-98085531D01*
X81930000Y-98104838D01*
X81733971Y-98085531D01*
X81733968Y-98085530D01*
X81733967Y-98085530D01*
X81545466Y-98028349D01*
X81371743Y-97935492D01*
X81371741Y-97935491D01*
X81219473Y-97810528D01*
X81094510Y-97658260D01*
X81001651Y-97484533D01*
X80944469Y-97296035D01*
X80930000Y-97149124D01*
X80930000Y-96350877D01*
X80944469Y-96203971D01*
X80944470Y-96203967D01*
X81001651Y-96015466D01*
X81001652Y-96015464D01*
X81001653Y-96015461D01*
X81094507Y-95841742D01*
X81219472Y-95689472D01*
X81371740Y-95564509D01*
X81545463Y-95471652D01*
X81545465Y-95471651D01*
X81733966Y-95414470D01*
X81733967Y-95414470D01*
X81733970Y-95414469D01*
X81930000Y-95395162D01*
X82126029Y-95414469D01*
X82126029Y-95414469D01*
G37*
G36*
X118266030Y-95414469D02*
X118266033Y-95414470D01*
X118266034Y-95414470D01*
X118454535Y-95471651D01*
X118454537Y-95471652D01*
X118628260Y-95564509D01*
X118780528Y-95689472D01*
X118905491Y-95841740D01*
X118998349Y-96015464D01*
X119055531Y-96203969D01*
X119070000Y-96350877D01*
X119070000Y-97149124D01*
X119055531Y-97296030D01*
X119055530Y-97296033D01*
X119055530Y-97296034D01*
X118998350Y-97484533D01*
X118998348Y-97484537D01*
X118905491Y-97658260D01*
X118780528Y-97810528D01*
X118628258Y-97935493D01*
X118454539Y-98028347D01*
X118454536Y-98028348D01*
X118454534Y-98028349D01*
X118266033Y-98085530D01*
X118266032Y-98085530D01*
X118266029Y-98085531D01*
X118070000Y-98104838D01*
X117873970Y-98085531D01*
X117873967Y-98085530D01*
X117873966Y-98085530D01*
X117685465Y-98028349D01*
X117511742Y-97935492D01*
X117511740Y-97935491D01*
X117359472Y-97810528D01*
X117234507Y-97658258D01*
X117141653Y-97484539D01*
X117084471Y-97296034D01*
X117084470Y-97296033D01*
X117084470Y-97296031D01*
X117084469Y-97296029D01*
X117070000Y-97149123D01*
X117070000Y-96350876D01*
X117084469Y-96203965D01*
X117141651Y-96015467D01*
X117153144Y-95993966D01*
X117234509Y-95841742D01*
X117234510Y-95841740D01*
X117359473Y-95689472D01*
X117511741Y-95564509D01*
X117685464Y-95471652D01*
X117685466Y-95471651D01*
X117873967Y-95414470D01*
X117873968Y-95414470D01*
X117873971Y-95414469D01*
X118070000Y-95395162D01*
X118266030Y-95414469D01*
X118266030Y-95414469D01*
G37*
G36*
X122766030Y-95414469D02*
X122766033Y-95414470D01*
X122766034Y-95414470D01*
X122954535Y-95471651D01*
X122954537Y-95471652D01*
X123128260Y-95564509D01*
X123280528Y-95689472D01*
X123405491Y-95841740D01*
X123498349Y-96015464D01*
X123555531Y-96203969D01*
X123570000Y-96350877D01*
X123570000Y-97149124D01*
X123555531Y-97296030D01*
X123555530Y-97296033D01*
X123555530Y-97296034D01*
X123498350Y-97484533D01*
X123498348Y-97484537D01*
X123405491Y-97658260D01*
X123280528Y-97810528D01*
X123128258Y-97935493D01*
X122954539Y-98028347D01*
X122954536Y-98028348D01*
X122954534Y-98028349D01*
X122766033Y-98085530D01*
X122766032Y-98085530D01*
X122766029Y-98085531D01*
X122570000Y-98104838D01*
X122373970Y-98085531D01*
X122373967Y-98085530D01*
X122373966Y-98085530D01*
X122185465Y-98028349D01*
X122011742Y-97935492D01*
X122011740Y-97935491D01*
X121859472Y-97810528D01*
X121734507Y-97658258D01*
X121641653Y-97484539D01*
X121584471Y-97296034D01*
X121584470Y-97296033D01*
X121584470Y-97296031D01*
X121584469Y-97296029D01*
X121570000Y-97149123D01*
X121570000Y-96350876D01*
X121584469Y-96203965D01*
X121641651Y-96015467D01*
X121653144Y-95993966D01*
X121734509Y-95841742D01*
X121734510Y-95841740D01*
X121859473Y-95689472D01*
X122011741Y-95564509D01*
X122185464Y-95471652D01*
X122185466Y-95471651D01*
X122373967Y-95414470D01*
X122373968Y-95414470D01*
X122373971Y-95414469D01*
X122570000Y-95395162D01*
X122766030Y-95414469D01*
X122766030Y-95414469D01*
G37*
G36*
X77626029Y-95414469D02*
X77626032Y-95414470D01*
X77626033Y-95414470D01*
X77814534Y-95471651D01*
X77814536Y-95471652D01*
X77814539Y-95471653D01*
X77988258Y-95564507D01*
X78140528Y-95689472D01*
X78265491Y-95841740D01*
X78265492Y-95841742D01*
X78358349Y-96015465D01*
X78415530Y-96203966D01*
X78415531Y-96203970D01*
X78430000Y-96350876D01*
X78430000Y-97149123D01*
X78415531Y-97296031D01*
X78358349Y-97484536D01*
X78265491Y-97658260D01*
X78140528Y-97810528D01*
X77988260Y-97935491D01*
X77988258Y-97935492D01*
X77814535Y-98028349D01*
X77626034Y-98085530D01*
X77626033Y-98085530D01*
X77626030Y-98085531D01*
X77430000Y-98104838D01*
X77233971Y-98085531D01*
X77233968Y-98085530D01*
X77233967Y-98085530D01*
X77045466Y-98028349D01*
X76871743Y-97935492D01*
X76871741Y-97935491D01*
X76719473Y-97810528D01*
X76594510Y-97658260D01*
X76501651Y-97484533D01*
X76444469Y-97296035D01*
X76430000Y-97149124D01*
X76430000Y-96350877D01*
X76444469Y-96203971D01*
X76444470Y-96203967D01*
X76501651Y-96015466D01*
X76501652Y-96015464D01*
X76501653Y-96015461D01*
X76594507Y-95841742D01*
X76719472Y-95689472D01*
X76871740Y-95564509D01*
X77045463Y-95471652D01*
X77045465Y-95471651D01*
X77233966Y-95414470D01*
X77233967Y-95414470D01*
X77233970Y-95414469D01*
X77430000Y-95395162D01*
X77626029Y-95414469D01*
X77626029Y-95414469D01*
G37*
G36*
X88546030Y-95204469D02*
X88546033Y-95204470D01*
X88546034Y-95204470D01*
X88734535Y-95261651D01*
X88734537Y-95261652D01*
X88908260Y-95354509D01*
X89060528Y-95479472D01*
X89185491Y-95631740D01*
X89278348Y-95805463D01*
X89335531Y-95993970D01*
X89354838Y-96190000D01*
X89335531Y-96386030D01*
X89278348Y-96574537D01*
X89185491Y-96748260D01*
X89060528Y-96900528D01*
X88908260Y-97025491D01*
X88908258Y-97025492D01*
X88734535Y-97118349D01*
X88546034Y-97175530D01*
X88546033Y-97175530D01*
X88546030Y-97175531D01*
X88399124Y-97190000D01*
X87600876Y-97190000D01*
X87453970Y-97175531D01*
X87453967Y-97175530D01*
X87453966Y-97175530D01*
X87265465Y-97118349D01*
X87091742Y-97025492D01*
X87091740Y-97025491D01*
X86939472Y-96900528D01*
X86814509Y-96748260D01*
X86721652Y-96574537D01*
X86664469Y-96386030D01*
X86645162Y-96190000D01*
X86664469Y-95993970D01*
X86721652Y-95805463D01*
X86814509Y-95631740D01*
X86939472Y-95479472D01*
X87091740Y-95354509D01*
X87265463Y-95261652D01*
X87265465Y-95261651D01*
X87453966Y-95204470D01*
X87453967Y-95204470D01*
X87453970Y-95204469D01*
X87600876Y-95190000D01*
X88399124Y-95190000D01*
X88546030Y-95204469D01*
X88546030Y-95204469D01*
G37*
G36*
X112546030Y-95204469D02*
X112546033Y-95204470D01*
X112546034Y-95204470D01*
X112734535Y-95261651D01*
X112734537Y-95261652D01*
X112908260Y-95354509D01*
X113060528Y-95479472D01*
X113185491Y-95631740D01*
X113278348Y-95805463D01*
X113335531Y-95993970D01*
X113354838Y-96190000D01*
X113335531Y-96386030D01*
X113278348Y-96574537D01*
X113185491Y-96748260D01*
X113060528Y-96900528D01*
X112908260Y-97025491D01*
X112908258Y-97025492D01*
X112734535Y-97118349D01*
X112546034Y-97175530D01*
X112546033Y-97175530D01*
X112546030Y-97175531D01*
X112399124Y-97190000D01*
X111600876Y-97190000D01*
X111453970Y-97175531D01*
X111453967Y-97175530D01*
X111453966Y-97175530D01*
X111265465Y-97118349D01*
X111091742Y-97025492D01*
X111091740Y-97025491D01*
X110939472Y-96900528D01*
X110814509Y-96748260D01*
X110721652Y-96574537D01*
X110664469Y-96386030D01*
X110645162Y-96190000D01*
X110664469Y-95993970D01*
X110721652Y-95805463D01*
X110814509Y-95631740D01*
X110939472Y-95479472D01*
X111091740Y-95354509D01*
X111265463Y-95261652D01*
X111265465Y-95261651D01*
X111453966Y-95204470D01*
X111453967Y-95204470D01*
X111453970Y-95204469D01*
X111600876Y-95190000D01*
X112399124Y-95190000D01*
X112546030Y-95204469D01*
X112546030Y-95204469D01*
G37*
G36*
X88546030Y-92664469D02*
X88546033Y-92664470D01*
X88546034Y-92664470D01*
X88734535Y-92721651D01*
X88734537Y-92721652D01*
X88908260Y-92814509D01*
X89060528Y-92939472D01*
X89185491Y-93091740D01*
X89278348Y-93265463D01*
X89335531Y-93453970D01*
X89354838Y-93650000D01*
X89335531Y-93846030D01*
X89278348Y-94034537D01*
X89185491Y-94208260D01*
X89060528Y-94360528D01*
X88908260Y-94485491D01*
X88908258Y-94485492D01*
X88734535Y-94578349D01*
X88546034Y-94635530D01*
X88546033Y-94635530D01*
X88546030Y-94635531D01*
X88399124Y-94650000D01*
X87600876Y-94650000D01*
X87453970Y-94635531D01*
X87453967Y-94635530D01*
X87453966Y-94635530D01*
X87265465Y-94578349D01*
X87091742Y-94485492D01*
X87091740Y-94485491D01*
X86939472Y-94360528D01*
X86814509Y-94208260D01*
X86721652Y-94034537D01*
X86664469Y-93846030D01*
X86645162Y-93650000D01*
X86664469Y-93453970D01*
X86721652Y-93265463D01*
X86814509Y-93091740D01*
X86939472Y-92939472D01*
X87091740Y-92814509D01*
X87265463Y-92721652D01*
X87265465Y-92721651D01*
X87453966Y-92664470D01*
X87453967Y-92664470D01*
X87453970Y-92664469D01*
X87600876Y-92650000D01*
X88399124Y-92650000D01*
X88546030Y-92664469D01*
X88546030Y-92664469D01*
G37*
G36*
X112546030Y-92664469D02*
X112546033Y-92664470D01*
X112546034Y-92664470D01*
X112734535Y-92721651D01*
X112734537Y-92721652D01*
X112908260Y-92814509D01*
X113060528Y-92939472D01*
X113185491Y-93091740D01*
X113278348Y-93265463D01*
X113335531Y-93453970D01*
X113354838Y-93650000D01*
X113335531Y-93846030D01*
X113278348Y-94034537D01*
X113185491Y-94208260D01*
X113060528Y-94360528D01*
X112908260Y-94485491D01*
X112908258Y-94485492D01*
X112734535Y-94578349D01*
X112546034Y-94635530D01*
X112546033Y-94635530D01*
X112546030Y-94635531D01*
X112399124Y-94650000D01*
X111600876Y-94650000D01*
X111453970Y-94635531D01*
X111453967Y-94635530D01*
X111453966Y-94635530D01*
X111265465Y-94578349D01*
X111091742Y-94485492D01*
X111091740Y-94485491D01*
X110939472Y-94360528D01*
X110814509Y-94208260D01*
X110721652Y-94034537D01*
X110664469Y-93846030D01*
X110645162Y-93650000D01*
X110664469Y-93453970D01*
X110721652Y-93265463D01*
X110814509Y-93091740D01*
X110939472Y-92939472D01*
X111091740Y-92814509D01*
X111265463Y-92721652D01*
X111265465Y-92721651D01*
X111453966Y-92664470D01*
X111453967Y-92664470D01*
X111453970Y-92664469D01*
X111600876Y-92650000D01*
X112399124Y-92650000D01*
X112546030Y-92664469D01*
X112546030Y-92664469D01*
G37*
G36*
X88546030Y-90124469D02*
X88546033Y-90124470D01*
X88546034Y-90124470D01*
X88734535Y-90181651D01*
X88734537Y-90181652D01*
X88908260Y-90274509D01*
X89060528Y-90399472D01*
X89185491Y-90551740D01*
X89278348Y-90725463D01*
X89335531Y-90913970D01*
X89354838Y-91110000D01*
X89335531Y-91306030D01*
X89278348Y-91494537D01*
X89185491Y-91668260D01*
X89060528Y-91820528D01*
X88908260Y-91945491D01*
X88908258Y-91945492D01*
X88734535Y-92038349D01*
X88546034Y-92095530D01*
X88546033Y-92095530D01*
X88546030Y-92095531D01*
X88399124Y-92110000D01*
X87600876Y-92110000D01*
X87453970Y-92095531D01*
X87453967Y-92095530D01*
X87453966Y-92095530D01*
X87265465Y-92038349D01*
X87091742Y-91945492D01*
X87091740Y-91945491D01*
X86939472Y-91820528D01*
X86814509Y-91668260D01*
X86721652Y-91494537D01*
X86664469Y-91306030D01*
X86645162Y-91110000D01*
X86664469Y-90913970D01*
X86721652Y-90725463D01*
X86814509Y-90551740D01*
X86939472Y-90399472D01*
X87091740Y-90274509D01*
X87265463Y-90181652D01*
X87265465Y-90181651D01*
X87453966Y-90124470D01*
X87453967Y-90124470D01*
X87453970Y-90124469D01*
X87600876Y-90110000D01*
X88399124Y-90110000D01*
X88546030Y-90124469D01*
X88546030Y-90124469D01*
G37*
G36*
X112546030Y-90124469D02*
X112546033Y-90124470D01*
X112546034Y-90124470D01*
X112734535Y-90181651D01*
X112734537Y-90181652D01*
X112908260Y-90274509D01*
X113060528Y-90399472D01*
X113185491Y-90551740D01*
X113278348Y-90725463D01*
X113335531Y-90913970D01*
X113354838Y-91110000D01*
X113335531Y-91306030D01*
X113278348Y-91494537D01*
X113185491Y-91668260D01*
X113060528Y-91820528D01*
X112908260Y-91945491D01*
X112908258Y-91945492D01*
X112734535Y-92038349D01*
X112546034Y-92095530D01*
X112546033Y-92095530D01*
X112546030Y-92095531D01*
X112399124Y-92110000D01*
X111600876Y-92110000D01*
X111453970Y-92095531D01*
X111453967Y-92095530D01*
X111453966Y-92095530D01*
X111265465Y-92038349D01*
X111091742Y-91945492D01*
X111091740Y-91945491D01*
X110939472Y-91820528D01*
X110814509Y-91668260D01*
X110721652Y-91494537D01*
X110664469Y-91306030D01*
X110645162Y-91110000D01*
X110664469Y-90913970D01*
X110721652Y-90725463D01*
X110814509Y-90551740D01*
X110939472Y-90399472D01*
X111091740Y-90274509D01*
X111265463Y-90181652D01*
X111265465Y-90181651D01*
X111453966Y-90124470D01*
X111453967Y-90124470D01*
X111453970Y-90124469D01*
X111600876Y-90110000D01*
X112399124Y-90110000D01*
X112546030Y-90124469D01*
X112546030Y-90124469D01*
G37*
G36*
X110891703Y-85761486D02*
X111182883Y-85882097D01*
X111444944Y-86057201D01*
X111667799Y-86280056D01*
X111842903Y-86542117D01*
X111963514Y-86833297D01*
X112025000Y-87142412D01*
X112025000Y-87457588D01*
X111963514Y-87766703D01*
X111842903Y-88057883D01*
X111667799Y-88319944D01*
X111444944Y-88542799D01*
X111182883Y-88717903D01*
X110891703Y-88838514D01*
X110582588Y-88900000D01*
X110267412Y-88900000D01*
X109958297Y-88838514D01*
X109667117Y-88717903D01*
X109405056Y-88542799D01*
X109182201Y-88319944D01*
X109007097Y-88057883D01*
X108886486Y-87766703D01*
X108825000Y-87457588D01*
X108825000Y-87142412D01*
X108886486Y-86833297D01*
X109007097Y-86542117D01*
X109182201Y-86280056D01*
X109405056Y-86057201D01*
X109667117Y-85882097D01*
X109958297Y-85761486D01*
X110267412Y-85700000D01*
X110582588Y-85700000D01*
X110891703Y-85761486D01*
X110891703Y-85761486D01*
G37*
G36*
X90041703Y-85761486D02*
X90332883Y-85882097D01*
X90594944Y-86057201D01*
X90817799Y-86280056D01*
X90992903Y-86542117D01*
X91113514Y-86833297D01*
X91175000Y-87142412D01*
X91175000Y-87457588D01*
X91113514Y-87766703D01*
X90992903Y-88057883D01*
X90817799Y-88319944D01*
X90594944Y-88542799D01*
X90332883Y-88717903D01*
X90041703Y-88838514D01*
X89732588Y-88900000D01*
X89417412Y-88900000D01*
X89108297Y-88838514D01*
X88817117Y-88717903D01*
X88555056Y-88542799D01*
X88332201Y-88319944D01*
X88157097Y-88057883D01*
X88036486Y-87766703D01*
X87975000Y-87457588D01*
X87975000Y-87142412D01*
X88036486Y-86833297D01*
X88157097Y-86542117D01*
X88332201Y-86280056D01*
X88555056Y-86057201D01*
X88817117Y-85882097D01*
X89108297Y-85761486D01*
X89417412Y-85700000D01*
X89732588Y-85700000D01*
X90041703Y-85761486D01*
X90041703Y-85761486D01*
G37*
G36*
X100781875Y-67761487D02*
X101400108Y-67884461D01*
X102273653Y-68246295D01*
X103056273Y-68769226D01*
X103059825Y-68771599D01*
X103728401Y-69440175D01*
X103728403Y-69440178D01*
X104253705Y-70226347D01*
X104615539Y-71099892D01*
X104800000Y-72027241D01*
X104800000Y-72972759D01*
X104615539Y-73900108D01*
X104253705Y-74773653D01*
X103730774Y-75556273D01*
X103728401Y-75559825D01*
X103059825Y-76228401D01*
X103059822Y-76228403D01*
X102273653Y-76753705D01*
X101400108Y-77115539D01*
X100781875Y-77238513D01*
X100472760Y-77300000D01*
X99527240Y-77300000D01*
X99218125Y-77238513D01*
X98599892Y-77115539D01*
X97726347Y-76753705D01*
X96940178Y-76228403D01*
X96940175Y-76228401D01*
X96271599Y-75559825D01*
X96269226Y-75556273D01*
X95746295Y-74773653D01*
X95384461Y-73900108D01*
X95200000Y-72972759D01*
X95200000Y-72027241D01*
X95384461Y-71099892D01*
X95746295Y-70226347D01*
X96271597Y-69440178D01*
X96271599Y-69440175D01*
X96940175Y-68771599D01*
X96943727Y-68769226D01*
X97726347Y-68246295D01*
X98599892Y-67884461D01*
X99218125Y-67761487D01*
X99527240Y-67700000D01*
X100472760Y-67700000D01*
X100781875Y-67761487D01*
X100781875Y-67761487D01*
G37*
M02*
