G04 #@! TF.GenerationSoftware,KiCad,Pcbnew,5.0.2+dfsg1-1*
G04 #@! TF.CreationDate,2019-07-23T21:19:01+02:00*
G04 #@! TF.ProjectId,Macher_Daach_Badge,4d616368-6572-45f4-9461-6163685f4261,v1.0*
G04 #@! TF.SameCoordinates,Original*
G04 #@! TF.FileFunction,Legend,Bot*
G04 #@! TF.FilePolarity,Positive*
%FSLAX46Y46*%
G04 Gerber Fmt 4.6, Leading zero omitted, Abs format (unit mm)*
G04 Created by KiCad (PCBNEW 5.0.2+dfsg1-1) date Di 23 Jul 2019 21:19:01 CEST*
%MOMM*%
%LPD*%
G01*
G04 APERTURE LIST*
%ADD10C,0.300000*%
%ADD11C,0.150000*%
G04 APERTURE END LIST*
D10*
X102142857Y-113648571D02*
X101785714Y-114648571D01*
X101428571Y-113648571D01*
X101000000Y-113148571D02*
X100071428Y-113148571D01*
X100571428Y-113720000D01*
X100357142Y-113720000D01*
X100214285Y-113791428D01*
X100142857Y-113862857D01*
X100071428Y-114005714D01*
X100071428Y-114362857D01*
X100142857Y-114505714D01*
X100214285Y-114577142D01*
X100357142Y-114648571D01*
X100785714Y-114648571D01*
X100928571Y-114577142D01*
X101000000Y-114505714D01*
X99428571Y-114505714D02*
X99357142Y-114577142D01*
X99428571Y-114648571D01*
X99500000Y-114577142D01*
X99428571Y-114505714D01*
X99428571Y-114648571D01*
X97928571Y-114648571D02*
X98785714Y-114648571D01*
X98357142Y-114648571D02*
X98357142Y-113148571D01*
X98500000Y-113362857D01*
X98642857Y-113505714D01*
X98785714Y-113577142D01*
D11*
G04 #@! TO.C,BT1*
X100000000Y-93300000D02*
X100000000Y-95300000D01*
X101000000Y-94300000D02*
X99000000Y-94300000D01*
X94477496Y-78322504D02*
G75*
G03X100000000Y-80610000I5522504J5522504D01*
G01*
X105522504Y-78322504D02*
G75*
G02X100000000Y-80610000I-5522504J5522504D01*
G01*
X94873133Y-78681637D02*
G75*
G03X89575000Y-80610000I-2298133J-1928363D01*
G01*
X89575000Y-80610000D02*
X89575000Y-85300000D01*
X110425000Y-85300000D02*
X110425000Y-80610000D01*
X105126867Y-78681637D02*
G75*
G02X110425000Y-80610000I2298133J-1928363D01*
G01*
X110425000Y-92010000D02*
X103500000Y-97300000D01*
X110425000Y-89300000D02*
X110425000Y-92010000D01*
X96500000Y-97300000D02*
X89575000Y-92010000D01*
X89575000Y-89300000D02*
X89575000Y-92010000D01*
X103500000Y-97300000D02*
X96500000Y-97300000D01*
X100785714Y-99228571D02*
X100642857Y-99276190D01*
X100595238Y-99323809D01*
X100547619Y-99419047D01*
X100547619Y-99561904D01*
X100595238Y-99657142D01*
X100642857Y-99704761D01*
X100738095Y-99752380D01*
X101119047Y-99752380D01*
X101119047Y-98752380D01*
X100785714Y-98752380D01*
X100690476Y-98800000D01*
X100642857Y-98847619D01*
X100595238Y-98942857D01*
X100595238Y-99038095D01*
X100642857Y-99133333D01*
X100690476Y-99180952D01*
X100785714Y-99228571D01*
X101119047Y-99228571D01*
X100261904Y-98752380D02*
X99690476Y-98752380D01*
X99976190Y-99752380D02*
X99976190Y-98752380D01*
X98833333Y-99752380D02*
X99404761Y-99752380D01*
X99119047Y-99752380D02*
X99119047Y-98752380D01*
X99214285Y-98895238D01*
X99309523Y-98990476D01*
X99404761Y-99038095D01*
G04 #@! TD*
M02*
