G04 #@! TF.FileFunction,Legend,Top*
%FSLAX46Y46*%
G04 Gerber Fmt 4.6, Leading zero omitted, Abs format (unit mm)*
G04 Created by KiCad (PCBNEW 4.0.5+dfsg1-4) date Thu Aug 23 20:48:59 2018*
%MOMM*%
%LPD*%
G01*
G04 APERTURE LIST*
%ADD10C,0.100000*%
%ADD11C,0.250000*%
%ADD12C,0.300000*%
%ADD13C,0.150000*%
G04 APERTURE END LIST*
D10*
D11*
X110993571Y-121518571D02*
X111326905Y-121518571D01*
X111469762Y-122042381D02*
X110993571Y-122042381D01*
X110993571Y-121042381D01*
X111469762Y-121042381D01*
X111803095Y-121042381D02*
X112469762Y-122042381D01*
X112469762Y-121042381D02*
X111803095Y-122042381D01*
X112707857Y-121042381D02*
X113279286Y-121042381D01*
X112993571Y-122042381D02*
X112993571Y-121042381D01*
X111326905Y-124693571D02*
X111469762Y-124741190D01*
X111517381Y-124788810D01*
X111565000Y-124884048D01*
X111565000Y-125026905D01*
X111517381Y-125122143D01*
X111469762Y-125169762D01*
X111374524Y-125217381D01*
X110993571Y-125217381D01*
X110993571Y-124217381D01*
X111326905Y-124217381D01*
X111422143Y-124265000D01*
X111469762Y-124312619D01*
X111517381Y-124407857D01*
X111517381Y-124503095D01*
X111469762Y-124598333D01*
X111422143Y-124645952D01*
X111326905Y-124693571D01*
X110993571Y-124693571D01*
X111945952Y-124931667D02*
X112422143Y-124931667D01*
X111850714Y-125217381D02*
X112184047Y-124217381D01*
X112517381Y-125217381D01*
X112707857Y-124217381D02*
X113279286Y-124217381D01*
X112993571Y-125217381D02*
X112993571Y-124217381D01*
X111810952Y-130408571D02*
X111049047Y-130408571D01*
X111429999Y-130027619D02*
X111429999Y-130789524D01*
X111810952Y-132948571D02*
X111049047Y-132948571D01*
D12*
X88177143Y-138778571D02*
X88177143Y-137278571D01*
X88534286Y-137278571D01*
X88748571Y-137350000D01*
X88891429Y-137492857D01*
X88962857Y-137635714D01*
X89034286Y-137921429D01*
X89034286Y-138135714D01*
X88962857Y-138421429D01*
X88891429Y-138564286D01*
X88748571Y-138707143D01*
X88534286Y-138778571D01*
X88177143Y-138778571D01*
X87998572Y-142858571D02*
X89141429Y-143287143D01*
X87998572Y-143715714D01*
X89141429Y-140318571D02*
X87998572Y-140747143D01*
X89141429Y-141175714D01*
D11*
X88189048Y-145791429D02*
X88950953Y-145791429D01*
D13*
X89840000Y-139370000D02*
X89840000Y-146990000D01*
X92380000Y-139370000D02*
X92380000Y-146990000D01*
X92660000Y-136550000D02*
X92660000Y-138100000D01*
X89840000Y-146990000D02*
X92380000Y-146990000D01*
X92380000Y-139370000D02*
X89840000Y-139370000D01*
X89560000Y-138100000D02*
X89560000Y-136550000D01*
X89560000Y-136550000D02*
X92660000Y-136550000D01*
X96325000Y-118025000D02*
X96325000Y-119295000D01*
X103675000Y-118025000D02*
X103675000Y-119295000D01*
X103675000Y-155635000D02*
X103675000Y-154365000D01*
X96325000Y-155635000D02*
X96325000Y-154365000D01*
X96325000Y-118025000D02*
X103675000Y-118025000D01*
X96325000Y-155635000D02*
X103675000Y-155635000D01*
X96325000Y-119295000D02*
X95040000Y-119295000D01*
X92380000Y-120320000D02*
X92380000Y-125400000D01*
X92380000Y-125400000D02*
X89840000Y-125400000D01*
X89840000Y-125400000D02*
X89840000Y-120320000D01*
X89840000Y-120320000D02*
X92380000Y-120320000D01*
X101270000Y-157730000D02*
X96190000Y-157730000D01*
X104090000Y-157450000D02*
X104090000Y-159000000D01*
X103810000Y-160270000D02*
X101270000Y-160270000D01*
X101270000Y-160270000D02*
X101270000Y-157730000D01*
X96190000Y-157730000D02*
X96190000Y-162810000D01*
X96190000Y-162810000D02*
X101270000Y-162810000D01*
X104090000Y-157450000D02*
X102540000Y-157450000D01*
X103810000Y-162810000D02*
X103810000Y-160270000D01*
X101270000Y-162810000D02*
X103810000Y-162810000D01*
X110160000Y-131750000D02*
X110160000Y-134290000D01*
X110440000Y-128930000D02*
X110440000Y-130480000D01*
X110160000Y-131750000D02*
X107620000Y-131750000D01*
X107340000Y-130480000D02*
X107340000Y-128930000D01*
X107340000Y-128930000D02*
X110440000Y-128930000D01*
X107620000Y-131750000D02*
X107620000Y-134290000D01*
X107620000Y-134290000D02*
X110160000Y-134290000D01*
X111389000Y-145815000D02*
X106391000Y-145815000D01*
X111381000Y-145955000D02*
X106399000Y-145955000D01*
X111365000Y-146095000D02*
X108985000Y-146095000D01*
X108795000Y-146095000D02*
X106415000Y-146095000D01*
X111341000Y-146235000D02*
X109380000Y-146235000D01*
X108400000Y-146235000D02*
X106439000Y-146235000D01*
X111308000Y-146375000D02*
X109547000Y-146375000D01*
X108233000Y-146375000D02*
X106472000Y-146375000D01*
X111267000Y-146515000D02*
X109654000Y-146515000D01*
X108126000Y-146515000D02*
X106513000Y-146515000D01*
X111217000Y-146655000D02*
X109725000Y-146655000D01*
X108055000Y-146655000D02*
X106563000Y-146655000D01*
X111156000Y-146795000D02*
X109769000Y-146795000D01*
X108011000Y-146795000D02*
X106624000Y-146795000D01*
X111086000Y-146935000D02*
X109788000Y-146935000D01*
X107992000Y-146935000D02*
X106694000Y-146935000D01*
X111004000Y-147075000D02*
X109786000Y-147075000D01*
X107994000Y-147075000D02*
X106776000Y-147075000D01*
X110909000Y-147215000D02*
X109761000Y-147215000D01*
X108019000Y-147215000D02*
X106871000Y-147215000D01*
X110798000Y-147355000D02*
X109713000Y-147355000D01*
X108067000Y-147355000D02*
X106982000Y-147355000D01*
X110670000Y-147495000D02*
X109635000Y-147495000D01*
X108145000Y-147495000D02*
X107110000Y-147495000D01*
X110521000Y-147635000D02*
X109518000Y-147635000D01*
X108262000Y-147635000D02*
X107259000Y-147635000D01*
X110342000Y-147775000D02*
X109330000Y-147775000D01*
X108450000Y-147775000D02*
X107438000Y-147775000D01*
X110123000Y-147915000D02*
X107657000Y-147915000D01*
X109834000Y-148055000D02*
X107946000Y-148055000D01*
X109362000Y-148195000D02*
X108418000Y-148195000D01*
X109790000Y-146990000D02*
G75*
G03X109790000Y-146990000I-900000J0D01*
G01*
X111427500Y-145740000D02*
G75*
G03X111427500Y-145740000I-2537500J0D01*
G01*
X89860000Y-131960000D02*
X89860000Y-128960000D01*
X92360000Y-128960000D02*
X92360000Y-131960000D01*
X110140000Y-137890000D02*
X110140000Y-140890000D01*
X107640000Y-140890000D02*
X107640000Y-137890000D01*
X116000000Y-101000000D02*
X117000000Y-101000000D01*
X117000000Y-101000000D02*
X117000000Y-99000000D01*
X117000000Y-99000000D02*
X116000000Y-99000000D01*
X84000000Y-116000000D02*
X116000000Y-116000000D01*
X116000000Y-116000000D02*
X116000000Y-84000000D01*
X116000000Y-84000000D02*
X84000000Y-84000000D01*
X84000000Y-84000000D02*
X84000000Y-116000000D01*
X76680000Y-102000000D02*
X76680000Y-98000000D01*
X82680000Y-102000000D02*
X82680000Y-98000000D01*
X78680000Y-97000000D02*
X80680000Y-97000000D01*
X78680000Y-103000000D02*
X80680000Y-103000000D01*
X123320000Y-98000000D02*
X123320000Y-102000000D01*
X117320000Y-98000000D02*
X117320000Y-102000000D01*
X121320000Y-103000000D02*
X119320000Y-103000000D01*
X121320000Y-97000000D02*
X119320000Y-97000000D01*
X107620000Y-121590000D02*
X107620000Y-126670000D01*
X107620000Y-126670000D02*
X110160000Y-126670000D01*
X110160000Y-126670000D02*
X110160000Y-121590000D01*
X110440000Y-118770000D02*
X110440000Y-120320000D01*
X110160000Y-121590000D02*
X107620000Y-121590000D01*
X107340000Y-120320000D02*
X107340000Y-118770000D01*
X107340000Y-118770000D02*
X110440000Y-118770000D01*
D11*
X89108618Y-148044013D02*
X89108618Y-148853537D01*
X89156237Y-148948775D01*
X89203856Y-148996394D01*
X89299094Y-149044013D01*
X89489571Y-149044013D01*
X89584809Y-148996394D01*
X89632428Y-148948775D01*
X89680047Y-148853537D01*
X89680047Y-148044013D01*
X90108618Y-148758299D02*
X90584809Y-148758299D01*
X90013380Y-149044013D02*
X90346713Y-148044013D01*
X90680047Y-149044013D01*
X91584809Y-149044013D02*
X91251475Y-148567822D01*
X91013380Y-149044013D02*
X91013380Y-148044013D01*
X91394333Y-148044013D01*
X91489571Y-148091632D01*
X91537190Y-148139251D01*
X91584809Y-148234489D01*
X91584809Y-148377346D01*
X91537190Y-148472584D01*
X91489571Y-148520203D01*
X91394333Y-148567822D01*
X91013380Y-148567822D01*
X91870523Y-148044013D02*
X92441952Y-148044013D01*
X92156237Y-149044013D02*
X92156237Y-148044013D01*
D13*
X99023810Y-117279881D02*
X99023810Y-116279881D01*
X100071429Y-117184643D02*
X100023810Y-117232262D01*
X99880953Y-117279881D01*
X99785715Y-117279881D01*
X99642857Y-117232262D01*
X99547619Y-117137024D01*
X99500000Y-117041786D01*
X99452381Y-116851310D01*
X99452381Y-116708452D01*
X99500000Y-116517976D01*
X99547619Y-116422738D01*
X99642857Y-116327500D01*
X99785715Y-116279881D01*
X99880953Y-116279881D01*
X100023810Y-116327500D01*
X100071429Y-116375119D01*
X101023810Y-117279881D02*
X100452381Y-117279881D01*
X100738095Y-117279881D02*
X100738095Y-116279881D01*
X100642857Y-116422738D01*
X100547619Y-116517976D01*
X100452381Y-116565595D01*
X88403334Y-123312381D02*
X88070000Y-122836190D01*
X87831905Y-123312381D02*
X87831905Y-122312381D01*
X88212858Y-122312381D01*
X88308096Y-122360000D01*
X88355715Y-122407619D01*
X88403334Y-122502857D01*
X88403334Y-122645714D01*
X88355715Y-122740952D01*
X88308096Y-122788571D01*
X88212858Y-122836190D01*
X87831905Y-122836190D01*
X89355715Y-123312381D02*
X88784286Y-123312381D01*
X89070000Y-123312381D02*
X89070000Y-122312381D01*
X88974762Y-122455238D01*
X88879524Y-122550476D01*
X88784286Y-122598095D01*
D11*
X93308810Y-160777381D02*
X93308810Y-159777381D01*
X93737381Y-160729762D02*
X93880238Y-160777381D01*
X94118334Y-160777381D01*
X94213572Y-160729762D01*
X94261191Y-160682143D01*
X94308810Y-160586905D01*
X94308810Y-160491667D01*
X94261191Y-160396429D01*
X94213572Y-160348810D01*
X94118334Y-160301190D01*
X93927857Y-160253571D01*
X93832619Y-160205952D01*
X93785000Y-160158333D01*
X93737381Y-160063095D01*
X93737381Y-159967857D01*
X93785000Y-159872619D01*
X93832619Y-159825000D01*
X93927857Y-159777381D01*
X94165953Y-159777381D01*
X94308810Y-159825000D01*
X94737381Y-160777381D02*
X94737381Y-159777381D01*
X95118334Y-159777381D01*
X95213572Y-159825000D01*
X95261191Y-159872619D01*
X95308810Y-159967857D01*
X95308810Y-160110714D01*
X95261191Y-160205952D01*
X95213572Y-160253571D01*
X95118334Y-160301190D01*
X94737381Y-160301190D01*
D13*
X108723334Y-150522143D02*
X108675715Y-150569762D01*
X108532858Y-150617381D01*
X108437620Y-150617381D01*
X108294762Y-150569762D01*
X108199524Y-150474524D01*
X108151905Y-150379286D01*
X108104286Y-150188810D01*
X108104286Y-150045952D01*
X108151905Y-149855476D01*
X108199524Y-149760238D01*
X108294762Y-149665000D01*
X108437620Y-149617381D01*
X108532858Y-149617381D01*
X108675715Y-149665000D01*
X108723334Y-149712619D01*
X109675715Y-150617381D02*
X109104286Y-150617381D01*
X109390000Y-150617381D02*
X109390000Y-149617381D01*
X109294762Y-149760238D01*
X109199524Y-149855476D01*
X109104286Y-149903095D01*
X90943334Y-134012143D02*
X90895715Y-134059762D01*
X90752858Y-134107381D01*
X90657620Y-134107381D01*
X90514762Y-134059762D01*
X90419524Y-133964524D01*
X90371905Y-133869286D01*
X90324286Y-133678810D01*
X90324286Y-133535952D01*
X90371905Y-133345476D01*
X90419524Y-133250238D01*
X90514762Y-133155000D01*
X90657620Y-133107381D01*
X90752858Y-133107381D01*
X90895715Y-133155000D01*
X90943334Y-133202619D01*
X91276667Y-133107381D02*
X91895715Y-133107381D01*
X91562381Y-133488333D01*
X91705239Y-133488333D01*
X91800477Y-133535952D01*
X91848096Y-133583571D01*
X91895715Y-133678810D01*
X91895715Y-133916905D01*
X91848096Y-134012143D01*
X91800477Y-134059762D01*
X91705239Y-134107381D01*
X91419524Y-134107381D01*
X91324286Y-134059762D01*
X91276667Y-134012143D01*
X108723334Y-136552143D02*
X108675715Y-136599762D01*
X108532858Y-136647381D01*
X108437620Y-136647381D01*
X108294762Y-136599762D01*
X108199524Y-136504524D01*
X108151905Y-136409286D01*
X108104286Y-136218810D01*
X108104286Y-136075952D01*
X108151905Y-135885476D01*
X108199524Y-135790238D01*
X108294762Y-135695000D01*
X108437620Y-135647381D01*
X108532858Y-135647381D01*
X108675715Y-135695000D01*
X108723334Y-135742619D01*
X109104286Y-135742619D02*
X109151905Y-135695000D01*
X109247143Y-135647381D01*
X109485239Y-135647381D01*
X109580477Y-135695000D01*
X109628096Y-135742619D01*
X109675715Y-135837857D01*
X109675715Y-135933095D01*
X109628096Y-136075952D01*
X109056667Y-136647381D01*
X109675715Y-136647381D01*
X84021905Y-117597381D02*
X84021905Y-116597381D01*
X84260000Y-116597381D01*
X84402858Y-116645000D01*
X84498096Y-116740238D01*
X84545715Y-116835476D01*
X84593334Y-117025952D01*
X84593334Y-117168810D01*
X84545715Y-117359286D01*
X84498096Y-117454524D01*
X84402858Y-117549762D01*
X84260000Y-117597381D01*
X84021905Y-117597381D01*
X85545715Y-117597381D02*
X84974286Y-117597381D01*
X85260000Y-117597381D02*
X85260000Y-116597381D01*
X85164762Y-116740238D01*
X85069524Y-116835476D01*
X84974286Y-116883095D01*
X78346667Y-106119762D02*
X78489524Y-106167381D01*
X78727620Y-106167381D01*
X78822858Y-106119762D01*
X78870477Y-106072143D01*
X78918096Y-105976905D01*
X78918096Y-105881667D01*
X78870477Y-105786429D01*
X78822858Y-105738810D01*
X78727620Y-105691190D01*
X78537143Y-105643571D01*
X78441905Y-105595952D01*
X78394286Y-105548333D01*
X78346667Y-105453095D01*
X78346667Y-105357857D01*
X78394286Y-105262619D01*
X78441905Y-105215000D01*
X78537143Y-105167381D01*
X78775239Y-105167381D01*
X78918096Y-105215000D01*
X79251429Y-105167381D02*
X79489524Y-106167381D01*
X79680001Y-105453095D01*
X79870477Y-106167381D01*
X80108572Y-105167381D01*
X81013334Y-106167381D02*
X80441905Y-106167381D01*
X80727619Y-106167381D02*
X80727619Y-105167381D01*
X80632381Y-105310238D01*
X80537143Y-105405476D01*
X80441905Y-105453095D01*
X118986667Y-106119762D02*
X119129524Y-106167381D01*
X119367620Y-106167381D01*
X119462858Y-106119762D01*
X119510477Y-106072143D01*
X119558096Y-105976905D01*
X119558096Y-105881667D01*
X119510477Y-105786429D01*
X119462858Y-105738810D01*
X119367620Y-105691190D01*
X119177143Y-105643571D01*
X119081905Y-105595952D01*
X119034286Y-105548333D01*
X118986667Y-105453095D01*
X118986667Y-105357857D01*
X119034286Y-105262619D01*
X119081905Y-105215000D01*
X119177143Y-105167381D01*
X119415239Y-105167381D01*
X119558096Y-105215000D01*
X119891429Y-105167381D02*
X120129524Y-106167381D01*
X120320001Y-105453095D01*
X120510477Y-106167381D01*
X120748572Y-105167381D01*
X121081905Y-105262619D02*
X121129524Y-105215000D01*
X121224762Y-105167381D01*
X121462858Y-105167381D01*
X121558096Y-105215000D01*
X121605715Y-105262619D01*
X121653334Y-105357857D01*
X121653334Y-105453095D01*
X121605715Y-105595952D01*
X121034286Y-106167381D01*
X121653334Y-106167381D01*
M02*
