G04 #@! TF.FileFunction,Soldermask,Top*
%FSLAX46Y46*%
G04 Gerber Fmt 4.6, Leading zero omitted, Abs format (unit mm)*
G04 Created by KiCad (PCBNEW 4.0.5+dfsg1-4) date Thu Aug 23 20:48:59 2018*
%MOMM*%
%LPD*%
G01*
G04 APERTURE LIST*
%ADD10C,0.100000*%
%ADD11R,2.432000X2.127200*%
%ADD12O,2.432000X2.127200*%
%ADD13O,2.700000X2.000000*%
%ADD14C,2.398980*%
%ADD15R,2.127200X2.127200*%
%ADD16O,2.127200X2.127200*%
%ADD17R,2.432000X2.432000*%
%ADD18O,2.432000X2.432000*%
%ADD19R,1.700000X1.700000*%
%ADD20C,1.700000*%
%ADD21C,3.200000*%
%ADD22C,9.600000*%
%ADD23O,2.000000X2.700000*%
G04 APERTURE END LIST*
D10*
D11*
X91110000Y-138100000D03*
D12*
X91110000Y-140640000D03*
X91110000Y-143180000D03*
X91110000Y-145720000D03*
D13*
X96190000Y-120320000D03*
X96190000Y-122860000D03*
X96190000Y-125400000D03*
X96190000Y-127940000D03*
X96190000Y-130480000D03*
X96190000Y-133020000D03*
X96190000Y-135560000D03*
X96190000Y-138100000D03*
X96190000Y-140640000D03*
X96190000Y-143180000D03*
X96190000Y-145720000D03*
X96190000Y-148260000D03*
X96190000Y-150800000D03*
X96190000Y-153340000D03*
X103810000Y-153340000D03*
X103810000Y-150800000D03*
X103810000Y-148260000D03*
X103810000Y-145720000D03*
X103810000Y-143180000D03*
X103810000Y-140640000D03*
X103810000Y-138100000D03*
X103810000Y-135560000D03*
X103810000Y-133020000D03*
X103810000Y-130480000D03*
X103810000Y-127940000D03*
X103810000Y-125400000D03*
X103810000Y-122860000D03*
X103810000Y-120320000D03*
D14*
X91110000Y-119050000D03*
X91110000Y-126670000D03*
D15*
X102540000Y-159000000D03*
D16*
X102540000Y-161540000D03*
X100000000Y-159000000D03*
X100000000Y-161540000D03*
X97460000Y-159000000D03*
X97460000Y-161540000D03*
D17*
X108890000Y-130480000D03*
D18*
X108890000Y-133020000D03*
D19*
X108890000Y-144490000D03*
D20*
X108890000Y-146990000D03*
D19*
X91110000Y-131710000D03*
D20*
X91110000Y-129210000D03*
D19*
X108890000Y-138140000D03*
D20*
X108890000Y-140640000D03*
D21*
X110425000Y-87300000D03*
X89575000Y-87300000D03*
D22*
X100000000Y-72500000D03*
D13*
X112000000Y-108890000D03*
X112000000Y-106350000D03*
X112000000Y-103810000D03*
X112000000Y-101270000D03*
X112000000Y-98730000D03*
X112000000Y-96190000D03*
X112000000Y-93650000D03*
X112000000Y-91110000D03*
X88000000Y-91110000D03*
X88000000Y-93650000D03*
X88000000Y-96190000D03*
X88000000Y-98730000D03*
X88000000Y-101270000D03*
X88000000Y-103810000D03*
X88000000Y-106350000D03*
X88000000Y-108890000D03*
D23*
X81930000Y-103250000D03*
X77430000Y-103250000D03*
X81930000Y-96750000D03*
X77430000Y-96750000D03*
X118070000Y-96750000D03*
X122570000Y-96750000D03*
X118070000Y-103250000D03*
X122570000Y-103250000D03*
D11*
X108890000Y-120320000D03*
D12*
X108890000Y-122860000D03*
X108890000Y-125400000D03*
M02*
