G04 #@! TF.FileFunction,Copper,L1,Top,Signal*
%FSLAX46Y46*%
G04 Gerber Fmt 4.6, Leading zero omitted, Abs format (unit mm)*
G04 Created by KiCad (PCBNEW 4.0.5+dfsg1-4) date Thu Aug 23 20:48:59 2018*
%MOMM*%
%LPD*%
G01*
G04 APERTURE LIST*
%ADD10C,0.100000*%
%ADD11C,0.375000*%
%ADD12R,2.032000X1.727200*%
%ADD13O,2.032000X1.727200*%
%ADD14O,2.300000X1.600000*%
%ADD15C,1.998980*%
%ADD16R,1.727200X1.727200*%
%ADD17O,1.727200X1.727200*%
%ADD18R,2.032000X2.032000*%
%ADD19O,2.032000X2.032000*%
%ADD20R,1.300000X1.300000*%
%ADD21C,1.300000*%
%ADD22C,2.800000*%
%ADD23C,9.200000*%
%ADD24O,1.600000X2.300000*%
%ADD25C,0.600000*%
%ADD26C,0.304800*%
%ADD27C,0.350000*%
%ADD28C,0.910000*%
%ADD29C,0.254000*%
G04 APERTURE END LIST*
D10*
D11*
X89107144Y-82362762D02*
X89107144Y-81029429D01*
X89107144Y-81219905D02*
X89178572Y-81124667D01*
X89321430Y-81029429D01*
X89535715Y-81029429D01*
X89678572Y-81124667D01*
X89750001Y-81315143D01*
X89750001Y-82362762D01*
X89750001Y-81315143D02*
X89821430Y-81124667D01*
X89964287Y-81029429D01*
X90178572Y-81029429D01*
X90321430Y-81124667D01*
X90392858Y-81315143D01*
X90392858Y-82362762D01*
X91750001Y-82362762D02*
X91750001Y-81315143D01*
X91678572Y-81124667D01*
X91535715Y-81029429D01*
X91250001Y-81029429D01*
X91107144Y-81124667D01*
X91750001Y-82267524D02*
X91607144Y-82362762D01*
X91250001Y-82362762D01*
X91107144Y-82267524D01*
X91035715Y-82077048D01*
X91035715Y-81886571D01*
X91107144Y-81696095D01*
X91250001Y-81600857D01*
X91607144Y-81600857D01*
X91750001Y-81505619D01*
X93107144Y-82267524D02*
X92964287Y-82362762D01*
X92678573Y-82362762D01*
X92535715Y-82267524D01*
X92464287Y-82172286D01*
X92392858Y-81981810D01*
X92392858Y-81410381D01*
X92464287Y-81219905D01*
X92535715Y-81124667D01*
X92678573Y-81029429D01*
X92964287Y-81029429D01*
X93107144Y-81124667D01*
X93750001Y-82362762D02*
X93750001Y-80362762D01*
X94392858Y-82362762D02*
X94392858Y-81315143D01*
X94321429Y-81124667D01*
X94178572Y-81029429D01*
X93964287Y-81029429D01*
X93821429Y-81124667D01*
X93750001Y-81219905D01*
X95678572Y-82267524D02*
X95535715Y-82362762D01*
X95250001Y-82362762D01*
X95107144Y-82267524D01*
X95035715Y-82077048D01*
X95035715Y-81315143D01*
X95107144Y-81124667D01*
X95250001Y-81029429D01*
X95535715Y-81029429D01*
X95678572Y-81124667D01*
X95750001Y-81315143D01*
X95750001Y-81505619D01*
X95035715Y-81696095D01*
X96392858Y-82362762D02*
X96392858Y-81029429D01*
X96392858Y-81410381D02*
X96464286Y-81219905D01*
X96535715Y-81124667D01*
X96678572Y-81029429D01*
X96821429Y-81029429D01*
X97964286Y-82362762D02*
X97964286Y-80362762D01*
X97964286Y-82267524D02*
X97821429Y-82362762D01*
X97535715Y-82362762D01*
X97392857Y-82267524D01*
X97321429Y-82172286D01*
X97250000Y-81981810D01*
X97250000Y-81410381D01*
X97321429Y-81219905D01*
X97392857Y-81124667D01*
X97535715Y-81029429D01*
X97821429Y-81029429D01*
X97964286Y-81124667D01*
X99321429Y-82362762D02*
X99321429Y-81315143D01*
X99250000Y-81124667D01*
X99107143Y-81029429D01*
X98821429Y-81029429D01*
X98678572Y-81124667D01*
X99321429Y-82267524D02*
X99178572Y-82362762D01*
X98821429Y-82362762D01*
X98678572Y-82267524D01*
X98607143Y-82077048D01*
X98607143Y-81886571D01*
X98678572Y-81696095D01*
X98821429Y-81600857D01*
X99178572Y-81600857D01*
X99321429Y-81505619D01*
X100678572Y-82362762D02*
X100678572Y-81315143D01*
X100607143Y-81124667D01*
X100464286Y-81029429D01*
X100178572Y-81029429D01*
X100035715Y-81124667D01*
X100678572Y-82267524D02*
X100535715Y-82362762D01*
X100178572Y-82362762D01*
X100035715Y-82267524D01*
X99964286Y-82077048D01*
X99964286Y-81886571D01*
X100035715Y-81696095D01*
X100178572Y-81600857D01*
X100535715Y-81600857D01*
X100678572Y-81505619D01*
X101392858Y-82172286D02*
X101464286Y-82267524D01*
X101392858Y-82362762D01*
X101321429Y-82267524D01*
X101392858Y-82172286D01*
X101392858Y-82362762D01*
X102750001Y-82267524D02*
X102607144Y-82362762D01*
X102321430Y-82362762D01*
X102178572Y-82267524D01*
X102107144Y-82172286D01*
X102035715Y-81981810D01*
X102035715Y-81410381D01*
X102107144Y-81219905D01*
X102178572Y-81124667D01*
X102321430Y-81029429D01*
X102607144Y-81029429D01*
X102750001Y-81124667D01*
X103392858Y-82362762D02*
X103392858Y-80362762D01*
X104035715Y-82362762D02*
X104035715Y-81315143D01*
X103964286Y-81124667D01*
X103821429Y-81029429D01*
X103607144Y-81029429D01*
X103464286Y-81124667D01*
X103392858Y-81219905D01*
X105821429Y-80553238D02*
X105892858Y-80458000D01*
X106035715Y-80362762D01*
X106392858Y-80362762D01*
X106535715Y-80458000D01*
X106607144Y-80553238D01*
X106678572Y-80743714D01*
X106678572Y-80934190D01*
X106607144Y-81219905D01*
X105750001Y-82362762D01*
X106678572Y-82362762D01*
X107607143Y-80362762D02*
X107750000Y-80362762D01*
X107892857Y-80458000D01*
X107964286Y-80553238D01*
X108035715Y-80743714D01*
X108107143Y-81124667D01*
X108107143Y-81600857D01*
X108035715Y-81981810D01*
X107964286Y-82172286D01*
X107892857Y-82267524D01*
X107750000Y-82362762D01*
X107607143Y-82362762D01*
X107464286Y-82267524D01*
X107392857Y-82172286D01*
X107321429Y-81981810D01*
X107250000Y-81600857D01*
X107250000Y-81124667D01*
X107321429Y-80743714D01*
X107392857Y-80553238D01*
X107464286Y-80458000D01*
X107607143Y-80362762D01*
X109535714Y-82362762D02*
X108678571Y-82362762D01*
X109107143Y-82362762D02*
X109107143Y-80362762D01*
X108964286Y-80648476D01*
X108821428Y-80838952D01*
X108678571Y-80934190D01*
X110392857Y-81219905D02*
X110249999Y-81124667D01*
X110178571Y-81029429D01*
X110107142Y-80838952D01*
X110107142Y-80743714D01*
X110178571Y-80553238D01*
X110249999Y-80458000D01*
X110392857Y-80362762D01*
X110678571Y-80362762D01*
X110821428Y-80458000D01*
X110892857Y-80553238D01*
X110964285Y-80743714D01*
X110964285Y-80838952D01*
X110892857Y-81029429D01*
X110821428Y-81124667D01*
X110678571Y-81219905D01*
X110392857Y-81219905D01*
X110249999Y-81315143D01*
X110178571Y-81410381D01*
X110107142Y-81600857D01*
X110107142Y-81981810D01*
X110178571Y-82172286D01*
X110249999Y-82267524D01*
X110392857Y-82362762D01*
X110678571Y-82362762D01*
X110821428Y-82267524D01*
X110892857Y-82172286D01*
X110964285Y-81981810D01*
X110964285Y-81600857D01*
X110892857Y-81410381D01*
X110821428Y-81315143D01*
X110678571Y-81219905D01*
D12*
X91110000Y-138100000D03*
D13*
X91110000Y-140640000D03*
X91110000Y-143180000D03*
X91110000Y-145720000D03*
D14*
X96190000Y-120320000D03*
X96190000Y-122860000D03*
X96190000Y-125400000D03*
X96190000Y-127940000D03*
X96190000Y-130480000D03*
X96190000Y-133020000D03*
X96190000Y-135560000D03*
X96190000Y-138100000D03*
X96190000Y-140640000D03*
X96190000Y-143180000D03*
X96190000Y-145720000D03*
X96190000Y-148260000D03*
X96190000Y-150800000D03*
X96190000Y-153340000D03*
X103810000Y-153340000D03*
X103810000Y-150800000D03*
X103810000Y-148260000D03*
X103810000Y-145720000D03*
X103810000Y-143180000D03*
X103810000Y-140640000D03*
X103810000Y-138100000D03*
X103810000Y-135560000D03*
X103810000Y-133020000D03*
X103810000Y-130480000D03*
X103810000Y-127940000D03*
X103810000Y-125400000D03*
X103810000Y-122860000D03*
X103810000Y-120320000D03*
D15*
X91110000Y-119050000D03*
X91110000Y-126670000D03*
D16*
X102540000Y-159000000D03*
D17*
X102540000Y-161540000D03*
X100000000Y-159000000D03*
X100000000Y-161540000D03*
X97460000Y-159000000D03*
X97460000Y-161540000D03*
D18*
X108890000Y-130480000D03*
D19*
X108890000Y-133020000D03*
D20*
X108890000Y-144490000D03*
D21*
X108890000Y-146990000D03*
D20*
X91110000Y-131710000D03*
D21*
X91110000Y-129210000D03*
D20*
X108890000Y-138140000D03*
D21*
X108890000Y-140640000D03*
D22*
X110425000Y-87300000D03*
X89575000Y-87300000D03*
D23*
X100000000Y-72500000D03*
D14*
X112000000Y-108890000D03*
X112000000Y-106350000D03*
X112000000Y-103810000D03*
X112000000Y-101270000D03*
X112000000Y-98730000D03*
X112000000Y-96190000D03*
X112000000Y-93650000D03*
X112000000Y-91110000D03*
X88000000Y-91110000D03*
X88000000Y-93650000D03*
X88000000Y-96190000D03*
X88000000Y-98730000D03*
X88000000Y-101270000D03*
X88000000Y-103810000D03*
X88000000Y-106350000D03*
X88000000Y-108890000D03*
D24*
X81930000Y-103250000D03*
X77430000Y-103250000D03*
X81930000Y-96750000D03*
X77430000Y-96750000D03*
X118070000Y-96750000D03*
X122570000Y-96750000D03*
X118070000Y-103250000D03*
X122570000Y-103250000D03*
D12*
X108890000Y-120320000D03*
D13*
X108890000Y-122860000D03*
X108890000Y-125400000D03*
D25*
X94920000Y-111430000D03*
X97460000Y-108128000D03*
X106350000Y-105080000D03*
X100000000Y-100000000D03*
X108890000Y-98730000D03*
X97460000Y-94920000D03*
X92380000Y-92380000D03*
X92380000Y-91110000D03*
X108890000Y-93650000D03*
X106350000Y-96190000D03*
X103810000Y-101270000D03*
X92380000Y-105080000D03*
X102540000Y-106858000D03*
X103810000Y-109398000D03*
X100000000Y-103810000D03*
X102540000Y-102540000D03*
D26*
X91110000Y-129210000D02*
X92634000Y-130734000D01*
X92634000Y-154174000D02*
X97460000Y-159000000D01*
X92634000Y-130734000D02*
X92634000Y-154174000D01*
X91110000Y-129210000D02*
X91110000Y-126670000D01*
X96190000Y-148260000D02*
X96540000Y-148260000D01*
X96540000Y-148260000D02*
X97714000Y-147086000D01*
X94920000Y-112700000D02*
X94920000Y-111430000D01*
X97714000Y-147086000D02*
X97714000Y-115494000D01*
X97714000Y-115494000D02*
X94920000Y-112700000D01*
X97460000Y-108128000D02*
X97460000Y-112700000D01*
X97460000Y-112700000D02*
X98730000Y-113970000D01*
X98730000Y-113970000D02*
X98730000Y-152254800D01*
X98730000Y-152254800D02*
X97644800Y-153340000D01*
X97644800Y-153340000D02*
X96190000Y-153340000D01*
D27*
X96190000Y-153340000D02*
X96540000Y-153340000D01*
D26*
X103810000Y-130480000D02*
X103460000Y-130480000D01*
X103460000Y-130480000D02*
X102286000Y-129306000D01*
X106350000Y-105080000D02*
X106350000Y-112700000D01*
X106350000Y-112700000D02*
X102286000Y-116764000D01*
X102286000Y-116764000D02*
X102286000Y-129306000D01*
X103810000Y-127940000D02*
X105264800Y-127940000D01*
X105264800Y-127940000D02*
X106350000Y-126854800D01*
X106350000Y-126854800D02*
X106350000Y-117272000D01*
X106350000Y-117272000D02*
X113970000Y-110160000D01*
X113970000Y-110160000D02*
X113970000Y-102732000D01*
X113970000Y-102732000D02*
X112000000Y-101270000D01*
X103810000Y-153340000D02*
X102286000Y-153340000D01*
X102286000Y-153340000D02*
X99238000Y-150292000D01*
X99238000Y-150292000D02*
X99238000Y-113208000D01*
X99238000Y-113208000D02*
X98730000Y-112700000D01*
X98730000Y-112700000D02*
X98730000Y-101270000D01*
X98730000Y-101270000D02*
X100000000Y-100000000D01*
X103810000Y-153340000D02*
X103460000Y-153340000D01*
X108890000Y-98730000D02*
X108890000Y-112700000D01*
X108890000Y-112700000D02*
X105334000Y-116256000D01*
X105334000Y-116256000D02*
X105334000Y-121686000D01*
X105334000Y-121686000D02*
X104160000Y-122860000D01*
X104160000Y-122860000D02*
X103810000Y-122860000D01*
X96190000Y-150800000D02*
X97644800Y-150800000D01*
X97644800Y-150800000D02*
X98222000Y-150222800D01*
X98222000Y-150222800D02*
X98222000Y-114732000D01*
X96190000Y-112700000D02*
X96190000Y-96190000D01*
X98222000Y-114732000D02*
X96190000Y-112700000D01*
X96190000Y-96190000D02*
X97460000Y-94920000D01*
X92380000Y-92380000D02*
X91110000Y-93650000D01*
X91110000Y-93650000D02*
X91110000Y-112700000D01*
X93650000Y-131934800D02*
X94735200Y-133020000D01*
X91110000Y-112700000D02*
X93650000Y-115240000D01*
X93650000Y-115240000D02*
X93650000Y-131934800D01*
X94735200Y-133020000D02*
X96190000Y-133020000D01*
X96190000Y-133020000D02*
X96190000Y-132417327D01*
X96190000Y-133020000D02*
X95840000Y-133020000D01*
D27*
X96190000Y-133020000D02*
X96190000Y-132449288D01*
D26*
X96190000Y-127940000D02*
X95840000Y-127940000D01*
X95840000Y-127940000D02*
X94666000Y-126766000D01*
X94666000Y-126766000D02*
X94666000Y-113716000D01*
X94666000Y-113716000D02*
X93650000Y-112700000D01*
X93650000Y-92380000D02*
X92380000Y-91110000D01*
X93650000Y-112700000D02*
X93650000Y-92380000D01*
X108890000Y-93650000D02*
X110160000Y-94920000D01*
X110160000Y-94920000D02*
X110160000Y-112700000D01*
X110160000Y-112700000D02*
X105842000Y-117018000D01*
X105842000Y-117018000D02*
X105842000Y-124892000D01*
X105842000Y-124892000D02*
X105334000Y-125400000D01*
X105334000Y-125400000D02*
X103810000Y-125400000D01*
X107620000Y-97460000D02*
X106350000Y-96190000D01*
X103810000Y-120320000D02*
X103810000Y-116510000D01*
X103810000Y-116510000D02*
X107620000Y-112700000D01*
X107620000Y-112700000D02*
X107620000Y-97460000D01*
X96190000Y-145720000D02*
X94735200Y-145720000D01*
X94735200Y-145720000D02*
X93142000Y-144126800D01*
X93142000Y-144126800D02*
X93142000Y-116002000D01*
X89840000Y-112700000D02*
X89840000Y-100570000D01*
X93142000Y-116002000D02*
X89840000Y-112700000D01*
X89840000Y-100570000D02*
X88000000Y-98730000D01*
X96190000Y-145720000D02*
X95840000Y-145720000D01*
X103810000Y-101270000D02*
X105080000Y-102540000D01*
X105080000Y-102540000D02*
X105080000Y-112700000D01*
X105080000Y-112700000D02*
X101778000Y-116002000D01*
X101778000Y-116002000D02*
X101778000Y-132512000D01*
X101778000Y-132512000D02*
X102286000Y-133020000D01*
X102286000Y-133020000D02*
X103810000Y-133020000D01*
X103810000Y-133020000D02*
X103810000Y-132417327D01*
X92380000Y-105080000D02*
X92380000Y-112700000D01*
X94735200Y-130480000D02*
X96190000Y-130480000D01*
X92380000Y-112700000D02*
X94158000Y-114478000D01*
X94158000Y-114478000D02*
X94158000Y-129902800D01*
X94158000Y-129902800D02*
X94735200Y-130480000D01*
X103810000Y-145720000D02*
X102286000Y-145720000D01*
X102286000Y-145720000D02*
X100762000Y-144196000D01*
X100762000Y-144196000D02*
X100762000Y-114478000D01*
X100762000Y-114478000D02*
X102540000Y-112700000D01*
X102540000Y-112700000D02*
X102540000Y-106858000D01*
X104160000Y-145720000D02*
X103810000Y-145720000D01*
X103460000Y-145720000D02*
X103810000Y-145720000D01*
X103810000Y-109398000D02*
X103810000Y-112700000D01*
X103810000Y-112700000D02*
X101270000Y-115240000D01*
X101270000Y-115240000D02*
X101270000Y-142164000D01*
X101270000Y-142164000D02*
X102286000Y-143180000D01*
X102286000Y-143180000D02*
X103810000Y-143180000D01*
D27*
X103460000Y-143180000D02*
X103810000Y-143180000D01*
D26*
X100000000Y-105080000D02*
X100000000Y-103810000D01*
X100000000Y-112700000D02*
X100000000Y-105080000D01*
X103810000Y-150800000D02*
X102355200Y-150800000D01*
X99746000Y-112954000D02*
X99779191Y-112920809D01*
X102355200Y-150800000D02*
X99746000Y-148190800D01*
X99746000Y-148190800D02*
X99746000Y-112954000D01*
X99779191Y-112920809D02*
X100000000Y-112700000D01*
X106604000Y-160960000D02*
X106604000Y-150704000D01*
X106604000Y-150704000D02*
X104160000Y-148260000D01*
X104160000Y-148260000D02*
X103810000Y-148260000D01*
X104318000Y-163246000D02*
X106604000Y-160960000D01*
X100484686Y-163246000D02*
X104318000Y-163246000D01*
X100000000Y-161540000D02*
X100000000Y-162761314D01*
X100000000Y-162761314D02*
X100484686Y-163246000D01*
X101270000Y-103810000D02*
X102540000Y-102540000D01*
X101270000Y-105080000D02*
X101270000Y-103810000D01*
X101270000Y-112700000D02*
X101270000Y-105080000D01*
X103810000Y-148260000D02*
X102355200Y-148260000D01*
X102355200Y-148260000D02*
X100254000Y-146158800D01*
X100254000Y-146158800D02*
X100254000Y-113716000D01*
X100254000Y-113716000D02*
X101270000Y-112700000D01*
D28*
X108890000Y-125400000D02*
X110816000Y-125400000D01*
X110816000Y-125400000D02*
X112700000Y-123516000D01*
X112700000Y-123516000D02*
X112700000Y-115240000D01*
X112700000Y-115240000D02*
X115240000Y-112700000D01*
X115240000Y-112700000D02*
X115240000Y-90135102D01*
X115240000Y-90135102D02*
X112404898Y-87300000D01*
X112404898Y-87300000D02*
X110425000Y-87300000D01*
X89575000Y-87300000D02*
X110425000Y-87300000D01*
D29*
G36*
X108944958Y-77115940D02*
X109935642Y-77776396D01*
X109944341Y-77786065D01*
X109978466Y-77827906D01*
X109992226Y-77839290D01*
X110004169Y-77852564D01*
X110047380Y-77884917D01*
X110088993Y-77919343D01*
X110104706Y-77927839D01*
X110118997Y-77938539D01*
X110127809Y-77943797D01*
X110622473Y-78234283D01*
X114919086Y-81098692D01*
X119284891Y-85464497D01*
X120055397Y-86480454D01*
X123641046Y-95444574D01*
X123494895Y-95295500D01*
X123261646Y-95136285D01*
X123001818Y-95025633D01*
X122919039Y-95008096D01*
X122697000Y-95130085D01*
X122697000Y-96623000D01*
X122717000Y-96623000D01*
X122717000Y-96877000D01*
X122697000Y-96877000D01*
X122697000Y-98369915D01*
X122919039Y-98491904D01*
X123001818Y-98474367D01*
X123261646Y-98363715D01*
X123494895Y-98204500D01*
X123692601Y-98002839D01*
X123847166Y-97766483D01*
X123873000Y-97702324D01*
X123873000Y-102297676D01*
X123847166Y-102233517D01*
X123692601Y-101997161D01*
X123494895Y-101795500D01*
X123261646Y-101636285D01*
X123001818Y-101525633D01*
X122919039Y-101508096D01*
X122697000Y-101630085D01*
X122697000Y-103123000D01*
X122717000Y-103123000D01*
X122717000Y-103377000D01*
X122697000Y-103377000D01*
X122697000Y-104869915D01*
X122919039Y-104991904D01*
X123001818Y-104974367D01*
X123261646Y-104863715D01*
X123494895Y-104704500D01*
X123591875Y-104605580D01*
X119888334Y-112938547D01*
X115894330Y-118929553D01*
X115878616Y-118962651D01*
X111878616Y-131962651D01*
X111873000Y-132000000D01*
X111873000Y-137112585D01*
X111768508Y-138178277D01*
X111768508Y-138209106D01*
X111765072Y-138239738D01*
X111765000Y-138250000D01*
X111765000Y-152464054D01*
X111537480Y-154784481D01*
X111500714Y-154906256D01*
X110052137Y-158527697D01*
X109800524Y-159000914D01*
X107386672Y-161012457D01*
X107391323Y-160970994D01*
X107391380Y-160962900D01*
X107391395Y-160962749D01*
X107391382Y-160962609D01*
X107391400Y-160960000D01*
X107391400Y-150704000D01*
X107384302Y-150631608D01*
X107377963Y-150559157D01*
X107376808Y-150555182D01*
X107376404Y-150551060D01*
X107355376Y-150481411D01*
X107335090Y-150411585D01*
X107333185Y-150407910D01*
X107331988Y-150403945D01*
X107297820Y-150339685D01*
X107264369Y-150275152D01*
X107261788Y-150271919D01*
X107259842Y-150268259D01*
X107213822Y-150211833D01*
X107168495Y-150155053D01*
X107162813Y-150149290D01*
X107162716Y-150149171D01*
X107162606Y-150149080D01*
X107160776Y-150147224D01*
X105571437Y-148557885D01*
X105574327Y-148548547D01*
X105603602Y-148270018D01*
X105578219Y-147991108D01*
X105544202Y-147875527D01*
X108184078Y-147875527D01*
X108237466Y-148104201D01*
X108467374Y-148210095D01*
X108713524Y-148269102D01*
X108966455Y-148278952D01*
X109216449Y-148239270D01*
X109453896Y-148151578D01*
X109542534Y-148104201D01*
X109595922Y-147875527D01*
X108890000Y-147169605D01*
X108184078Y-147875527D01*
X105544202Y-147875527D01*
X105499146Y-147722440D01*
X105369394Y-147474247D01*
X105193905Y-147255983D01*
X104979365Y-147075962D01*
X104962072Y-147066455D01*
X107601048Y-147066455D01*
X107640730Y-147316449D01*
X107728422Y-147553896D01*
X107775799Y-147642534D01*
X108004473Y-147695922D01*
X108710395Y-146990000D01*
X109069605Y-146990000D01*
X109775527Y-147695922D01*
X110004201Y-147642534D01*
X110110095Y-147412626D01*
X110169102Y-147166476D01*
X110178952Y-146913545D01*
X110139270Y-146663551D01*
X110051578Y-146426104D01*
X110004201Y-146337466D01*
X109775527Y-146284078D01*
X109069605Y-146990000D01*
X108710395Y-146990000D01*
X108004473Y-146284078D01*
X107775799Y-146337466D01*
X107669905Y-146567374D01*
X107610898Y-146813524D01*
X107601048Y-147066455D01*
X104962072Y-147066455D01*
X104822585Y-146989772D01*
X104962754Y-146915242D01*
X105179787Y-146738234D01*
X105358306Y-146522442D01*
X105491511Y-146276085D01*
X105574327Y-146008547D01*
X105603602Y-145730018D01*
X105578219Y-145451108D01*
X105499146Y-145182440D01*
X105369394Y-144934247D01*
X105193905Y-144715983D01*
X104979365Y-144535962D01*
X104822585Y-144449772D01*
X104962754Y-144375242D01*
X105179787Y-144198234D01*
X105358306Y-143982442D01*
X105435324Y-143840000D01*
X107601928Y-143840000D01*
X107601928Y-145140000D01*
X107609992Y-145241121D01*
X107663106Y-145412634D01*
X107761900Y-145562559D01*
X107898550Y-145679025D01*
X108062237Y-145752810D01*
X108240000Y-145778072D01*
X108462439Y-145778072D01*
X108326104Y-145828422D01*
X108237466Y-145875799D01*
X108184078Y-146104473D01*
X108890000Y-146810395D01*
X109595922Y-146104473D01*
X109542534Y-145875799D01*
X109330357Y-145778072D01*
X109540000Y-145778072D01*
X109641121Y-145770008D01*
X109812634Y-145716894D01*
X109962559Y-145618100D01*
X110079025Y-145481450D01*
X110152810Y-145317763D01*
X110178072Y-145140000D01*
X110178072Y-143840000D01*
X110170008Y-143738879D01*
X110116894Y-143567366D01*
X110018100Y-143417441D01*
X109881450Y-143300975D01*
X109717763Y-143227190D01*
X109540000Y-143201928D01*
X108240000Y-143201928D01*
X108138879Y-143209992D01*
X107967366Y-143263106D01*
X107817441Y-143361900D01*
X107700975Y-143498550D01*
X107627190Y-143662237D01*
X107601928Y-143840000D01*
X105435324Y-143840000D01*
X105491511Y-143736085D01*
X105574327Y-143468547D01*
X105603602Y-143190018D01*
X105578219Y-142911108D01*
X105499146Y-142642440D01*
X105369394Y-142394247D01*
X105193905Y-142175983D01*
X104979365Y-141995962D01*
X104822585Y-141909772D01*
X104962754Y-141835242D01*
X105179787Y-141658234D01*
X105289571Y-141525527D01*
X108184078Y-141525527D01*
X108237466Y-141754201D01*
X108467374Y-141860095D01*
X108713524Y-141919102D01*
X108966455Y-141928952D01*
X109216449Y-141889270D01*
X109453896Y-141801578D01*
X109542534Y-141754201D01*
X109595922Y-141525527D01*
X108890000Y-140819605D01*
X108184078Y-141525527D01*
X105289571Y-141525527D01*
X105358306Y-141442442D01*
X105491511Y-141196085D01*
X105574327Y-140928547D01*
X105596619Y-140716455D01*
X107601048Y-140716455D01*
X107640730Y-140966449D01*
X107728422Y-141203896D01*
X107775799Y-141292534D01*
X108004473Y-141345922D01*
X108710395Y-140640000D01*
X109069605Y-140640000D01*
X109775527Y-141345922D01*
X110004201Y-141292534D01*
X110110095Y-141062626D01*
X110169102Y-140816476D01*
X110178952Y-140563545D01*
X110139270Y-140313551D01*
X110051578Y-140076104D01*
X110004201Y-139987466D01*
X109775527Y-139934078D01*
X109069605Y-140640000D01*
X108710395Y-140640000D01*
X108004473Y-139934078D01*
X107775799Y-139987466D01*
X107669905Y-140217374D01*
X107610898Y-140463524D01*
X107601048Y-140716455D01*
X105596619Y-140716455D01*
X105603602Y-140650018D01*
X105578219Y-140371108D01*
X105499146Y-140102440D01*
X105369394Y-139854247D01*
X105193905Y-139635983D01*
X104979365Y-139455962D01*
X104822585Y-139369772D01*
X104962754Y-139295242D01*
X105179787Y-139118234D01*
X105358306Y-138902442D01*
X105491511Y-138656085D01*
X105574327Y-138388547D01*
X105603602Y-138110018D01*
X105578219Y-137831108D01*
X105499146Y-137562440D01*
X105461276Y-137490000D01*
X107601928Y-137490000D01*
X107601928Y-138790000D01*
X107609992Y-138891121D01*
X107663106Y-139062634D01*
X107761900Y-139212559D01*
X107898550Y-139329025D01*
X108062237Y-139402810D01*
X108240000Y-139428072D01*
X108462439Y-139428072D01*
X108326104Y-139478422D01*
X108237466Y-139525799D01*
X108184078Y-139754473D01*
X108890000Y-140460395D01*
X109595922Y-139754473D01*
X109542534Y-139525799D01*
X109330357Y-139428072D01*
X109540000Y-139428072D01*
X109641121Y-139420008D01*
X109812634Y-139366894D01*
X109962559Y-139268100D01*
X110079025Y-139131450D01*
X110152810Y-138967763D01*
X110178072Y-138790000D01*
X110178072Y-137490000D01*
X110170008Y-137388879D01*
X110116894Y-137217366D01*
X110018100Y-137067441D01*
X109881450Y-136950975D01*
X109717763Y-136877190D01*
X109540000Y-136851928D01*
X108240000Y-136851928D01*
X108138879Y-136859992D01*
X107967366Y-136913106D01*
X107817441Y-137011900D01*
X107700975Y-137148550D01*
X107627190Y-137312237D01*
X107601928Y-137490000D01*
X105461276Y-137490000D01*
X105369394Y-137314247D01*
X105193905Y-137095983D01*
X104979365Y-136915962D01*
X104830846Y-136834313D01*
X105062839Y-136682601D01*
X105264500Y-136484895D01*
X105423715Y-136251646D01*
X105534367Y-135991818D01*
X105551904Y-135909039D01*
X105429915Y-135687000D01*
X103937000Y-135687000D01*
X103937000Y-135707000D01*
X103683000Y-135707000D01*
X103683000Y-135687000D01*
X103663000Y-135687000D01*
X103663000Y-135433000D01*
X103683000Y-135433000D01*
X103683000Y-135413000D01*
X103937000Y-135413000D01*
X103937000Y-135433000D01*
X105429915Y-135433000D01*
X105551904Y-135210961D01*
X105534367Y-135128182D01*
X105423715Y-134868354D01*
X105264500Y-134635105D01*
X105062839Y-134437399D01*
X104830586Y-134285517D01*
X104962754Y-134215242D01*
X105179787Y-134038234D01*
X105358306Y-133822442D01*
X105491511Y-133576085D01*
X105545106Y-133402944D01*
X107284025Y-133402944D01*
X107341924Y-133593826D01*
X107483618Y-133884815D01*
X107679358Y-134142569D01*
X107921623Y-134357184D01*
X108201102Y-134520411D01*
X108507055Y-134625978D01*
X108763000Y-134507362D01*
X108763000Y-133147000D01*
X109017000Y-133147000D01*
X109017000Y-134507362D01*
X109272945Y-134625978D01*
X109578898Y-134520411D01*
X109858377Y-134357184D01*
X110100642Y-134142569D01*
X110296382Y-133884815D01*
X110438076Y-133593826D01*
X110495975Y-133402944D01*
X110376836Y-133147000D01*
X109017000Y-133147000D01*
X108763000Y-133147000D01*
X107403164Y-133147000D01*
X107284025Y-133402944D01*
X105545106Y-133402944D01*
X105574327Y-133308547D01*
X105603602Y-133030018D01*
X105578219Y-132751108D01*
X105499146Y-132482440D01*
X105369394Y-132234247D01*
X105193905Y-132015983D01*
X104979365Y-131835962D01*
X104822585Y-131749772D01*
X104962754Y-131675242D01*
X105179787Y-131498234D01*
X105358306Y-131282442D01*
X105491511Y-131036085D01*
X105574327Y-130768547D01*
X105603602Y-130490018D01*
X105578219Y-130211108D01*
X105499146Y-129942440D01*
X105369394Y-129694247D01*
X105193905Y-129475983D01*
X105179625Y-129464000D01*
X107235928Y-129464000D01*
X107235928Y-131496000D01*
X107243992Y-131597121D01*
X107297106Y-131768634D01*
X107395900Y-131918559D01*
X107532550Y-132035025D01*
X107564076Y-132049236D01*
X107483618Y-132155185D01*
X107341924Y-132446174D01*
X107284025Y-132637056D01*
X107403164Y-132893000D01*
X108763000Y-132893000D01*
X108763000Y-132873000D01*
X109017000Y-132873000D01*
X109017000Y-132893000D01*
X110376836Y-132893000D01*
X110495975Y-132637056D01*
X110438076Y-132446174D01*
X110296382Y-132155185D01*
X110215461Y-132048627D01*
X110328559Y-131974100D01*
X110445025Y-131837450D01*
X110518810Y-131673763D01*
X110544072Y-131496000D01*
X110544072Y-129464000D01*
X110536008Y-129362879D01*
X110482894Y-129191366D01*
X110384100Y-129041441D01*
X110247450Y-128924975D01*
X110083763Y-128851190D01*
X109906000Y-128825928D01*
X107874000Y-128825928D01*
X107772879Y-128833992D01*
X107601366Y-128887106D01*
X107451441Y-128985900D01*
X107334975Y-129122550D01*
X107261190Y-129286237D01*
X107235928Y-129464000D01*
X105179625Y-129464000D01*
X104979365Y-129295962D01*
X104822585Y-129209772D01*
X104962754Y-129135242D01*
X105179787Y-128958234D01*
X105358306Y-128742442D01*
X105371920Y-128717263D01*
X105409643Y-128713963D01*
X105413618Y-128712808D01*
X105417740Y-128712404D01*
X105487389Y-128691376D01*
X105557215Y-128671090D01*
X105560890Y-128669185D01*
X105564855Y-128667988D01*
X105629115Y-128633820D01*
X105693648Y-128600369D01*
X105696881Y-128597788D01*
X105700541Y-128595842D01*
X105756943Y-128549842D01*
X105813748Y-128504495D01*
X105819511Y-128498812D01*
X105819629Y-128498716D01*
X105819719Y-128498607D01*
X105821576Y-128496776D01*
X106906776Y-127411576D01*
X106952944Y-127355370D01*
X106999694Y-127299655D01*
X107001689Y-127296027D01*
X107004317Y-127292827D01*
X107038695Y-127228713D01*
X107073727Y-127164990D01*
X107074979Y-127161045D01*
X107076936Y-127157394D01*
X107098215Y-127087794D01*
X107120193Y-127018510D01*
X107120654Y-127014399D01*
X107121866Y-127010435D01*
X107129225Y-126937991D01*
X107137323Y-126865794D01*
X107137380Y-126857709D01*
X107137396Y-126857548D01*
X107137382Y-126857398D01*
X107137400Y-126854800D01*
X107137400Y-117614166D01*
X114150000Y-111069074D01*
X114150000Y-112248507D01*
X111929254Y-114469254D01*
X111865370Y-114547027D01*
X111800626Y-114624186D01*
X111797864Y-114629211D01*
X111794227Y-114633638D01*
X111746672Y-114722327D01*
X111698142Y-114810603D01*
X111696408Y-114816070D01*
X111693701Y-114821118D01*
X111664271Y-114917377D01*
X111633819Y-115013376D01*
X111633180Y-115019072D01*
X111631504Y-115024554D01*
X111621331Y-115124706D01*
X111610106Y-115224781D01*
X111610028Y-115235989D01*
X111610007Y-115236195D01*
X111610025Y-115236387D01*
X111610000Y-115240000D01*
X111610000Y-123064507D01*
X110364508Y-124310000D01*
X110071657Y-124310000D01*
X109897048Y-124163485D01*
X109837413Y-124130701D01*
X109879701Y-124108216D01*
X110106353Y-123923363D01*
X110292784Y-123698006D01*
X110431892Y-123440731D01*
X110518379Y-123161335D01*
X110548951Y-122870462D01*
X110522444Y-122579190D01*
X110439866Y-122298615D01*
X110304363Y-122039422D01*
X110121097Y-121811485D01*
X110092220Y-121787255D01*
X110178634Y-121760494D01*
X110328559Y-121661700D01*
X110445025Y-121525050D01*
X110518810Y-121361363D01*
X110544072Y-121183600D01*
X110544072Y-119456400D01*
X110536008Y-119355279D01*
X110482894Y-119183766D01*
X110384100Y-119033841D01*
X110247450Y-118917375D01*
X110083763Y-118843590D01*
X109906000Y-118818328D01*
X107874000Y-118818328D01*
X107772879Y-118826392D01*
X107601366Y-118879506D01*
X107451441Y-118978300D01*
X107334975Y-119114950D01*
X107261190Y-119278637D01*
X107235928Y-119456400D01*
X107235928Y-121183600D01*
X107243992Y-121284721D01*
X107297106Y-121456234D01*
X107395900Y-121606159D01*
X107532550Y-121722625D01*
X107681867Y-121789933D01*
X107673647Y-121796637D01*
X107487216Y-122021994D01*
X107348108Y-122279269D01*
X107261621Y-122558665D01*
X107231049Y-122849538D01*
X107257556Y-123140810D01*
X107340134Y-123421385D01*
X107475637Y-123680578D01*
X107658903Y-123908515D01*
X107882952Y-124096515D01*
X107942587Y-124129299D01*
X107900299Y-124151784D01*
X107673647Y-124336637D01*
X107487216Y-124561994D01*
X107348108Y-124819269D01*
X107261621Y-125098665D01*
X107231049Y-125389538D01*
X107257556Y-125680810D01*
X107340134Y-125961385D01*
X107475637Y-126220578D01*
X107658903Y-126448515D01*
X107882952Y-126636515D01*
X108139251Y-126777416D01*
X108418036Y-126865852D01*
X108708688Y-126898454D01*
X108729612Y-126898600D01*
X109050388Y-126898600D01*
X109341468Y-126870059D01*
X109621460Y-126785525D01*
X109879701Y-126648216D01*
X110073693Y-126490000D01*
X110816000Y-126490000D01*
X110916184Y-126480177D01*
X111016507Y-126471400D01*
X111022014Y-126469800D01*
X111027715Y-126469241D01*
X111124047Y-126440157D01*
X111220791Y-126412050D01*
X111225882Y-126409411D01*
X111231367Y-126407755D01*
X111320255Y-126360492D01*
X111409656Y-126314151D01*
X111414135Y-126310576D01*
X111419197Y-126307884D01*
X111497209Y-126244259D01*
X111575910Y-126181433D01*
X111583887Y-126173566D01*
X111584051Y-126173432D01*
X111584177Y-126173280D01*
X111586746Y-126170746D01*
X113470746Y-124286747D01*
X113534646Y-124208953D01*
X113599374Y-124131814D01*
X113602137Y-124126789D01*
X113605772Y-124122363D01*
X113653318Y-124033691D01*
X113701858Y-123945397D01*
X113703592Y-123939930D01*
X113706299Y-123934882D01*
X113735715Y-123838664D01*
X113766181Y-123742624D01*
X113766820Y-123736923D01*
X113768495Y-123731446D01*
X113778663Y-123631343D01*
X113789894Y-123531219D01*
X113789972Y-123520011D01*
X113789993Y-123519805D01*
X113789975Y-123519613D01*
X113790000Y-123516000D01*
X113790000Y-115691492D01*
X116010746Y-113470747D01*
X116074646Y-113392953D01*
X116139374Y-113315814D01*
X116142137Y-113310789D01*
X116145772Y-113306363D01*
X116193318Y-113217691D01*
X116241858Y-113129397D01*
X116243592Y-113123930D01*
X116246299Y-113118882D01*
X116275719Y-113022652D01*
X116306181Y-112926624D01*
X116306820Y-112920925D01*
X116308495Y-112915447D01*
X116318664Y-112815338D01*
X116329894Y-112715219D01*
X116329972Y-112704011D01*
X116329993Y-112703805D01*
X116329975Y-112703613D01*
X116330000Y-112700000D01*
X116330000Y-102891363D01*
X116635000Y-102891363D01*
X116635000Y-103608637D01*
X116662329Y-103887363D01*
X116743276Y-104155473D01*
X116874758Y-104402754D01*
X117051766Y-104619787D01*
X117267558Y-104798306D01*
X117513915Y-104931511D01*
X117781453Y-105014327D01*
X118059982Y-105043602D01*
X118338892Y-105018219D01*
X118607560Y-104939146D01*
X118855753Y-104809394D01*
X119074017Y-104633905D01*
X119254038Y-104419365D01*
X119388959Y-104173944D01*
X119473642Y-103906990D01*
X119504860Y-103628673D01*
X119505000Y-103608637D01*
X119505000Y-103377000D01*
X121135000Y-103377000D01*
X121135000Y-103727000D01*
X121187350Y-104004514D01*
X121292834Y-104266483D01*
X121447399Y-104502839D01*
X121645105Y-104704500D01*
X121878354Y-104863715D01*
X122138182Y-104974367D01*
X122220961Y-104991904D01*
X122443000Y-104869915D01*
X122443000Y-103377000D01*
X121135000Y-103377000D01*
X119505000Y-103377000D01*
X119505000Y-102891363D01*
X119493395Y-102773000D01*
X121135000Y-102773000D01*
X121135000Y-103123000D01*
X122443000Y-103123000D01*
X122443000Y-101630085D01*
X122220961Y-101508096D01*
X122138182Y-101525633D01*
X121878354Y-101636285D01*
X121645105Y-101795500D01*
X121447399Y-101997161D01*
X121292834Y-102233517D01*
X121187350Y-102495486D01*
X121135000Y-102773000D01*
X119493395Y-102773000D01*
X119477671Y-102612637D01*
X119396724Y-102344527D01*
X119265242Y-102097246D01*
X119088234Y-101880213D01*
X118872442Y-101701694D01*
X118626085Y-101568489D01*
X118358547Y-101485673D01*
X118080018Y-101456398D01*
X117801108Y-101481781D01*
X117532440Y-101560854D01*
X117284247Y-101690606D01*
X117065983Y-101866095D01*
X116885962Y-102080635D01*
X116751041Y-102326056D01*
X116666358Y-102593010D01*
X116635140Y-102871327D01*
X116635000Y-102891363D01*
X116330000Y-102891363D01*
X116330000Y-96391363D01*
X116635000Y-96391363D01*
X116635000Y-97108637D01*
X116662329Y-97387363D01*
X116743276Y-97655473D01*
X116874758Y-97902754D01*
X117051766Y-98119787D01*
X117267558Y-98298306D01*
X117513915Y-98431511D01*
X117781453Y-98514327D01*
X118059982Y-98543602D01*
X118338892Y-98518219D01*
X118607560Y-98439146D01*
X118855753Y-98309394D01*
X119074017Y-98133905D01*
X119254038Y-97919365D01*
X119388959Y-97673944D01*
X119473642Y-97406990D01*
X119504860Y-97128673D01*
X119505000Y-97108637D01*
X119505000Y-96877000D01*
X121135000Y-96877000D01*
X121135000Y-97227000D01*
X121187350Y-97504514D01*
X121292834Y-97766483D01*
X121447399Y-98002839D01*
X121645105Y-98204500D01*
X121878354Y-98363715D01*
X122138182Y-98474367D01*
X122220961Y-98491904D01*
X122443000Y-98369915D01*
X122443000Y-96877000D01*
X121135000Y-96877000D01*
X119505000Y-96877000D01*
X119505000Y-96391363D01*
X119493395Y-96273000D01*
X121135000Y-96273000D01*
X121135000Y-96623000D01*
X122443000Y-96623000D01*
X122443000Y-95130085D01*
X122220961Y-95008096D01*
X122138182Y-95025633D01*
X121878354Y-95136285D01*
X121645105Y-95295500D01*
X121447399Y-95497161D01*
X121292834Y-95733517D01*
X121187350Y-95995486D01*
X121135000Y-96273000D01*
X119493395Y-96273000D01*
X119477671Y-96112637D01*
X119396724Y-95844527D01*
X119265242Y-95597246D01*
X119088234Y-95380213D01*
X118872442Y-95201694D01*
X118626085Y-95068489D01*
X118358547Y-94985673D01*
X118080018Y-94956398D01*
X117801108Y-94981781D01*
X117532440Y-95060854D01*
X117284247Y-95190606D01*
X117065983Y-95366095D01*
X116885962Y-95580635D01*
X116751041Y-95826056D01*
X116666358Y-96093010D01*
X116635140Y-96371327D01*
X116635000Y-96391363D01*
X116330000Y-96391363D01*
X116330000Y-90135102D01*
X116320177Y-90034918D01*
X116311400Y-89934595D01*
X116309800Y-89929088D01*
X116309241Y-89923387D01*
X116280157Y-89827055D01*
X116252050Y-89730311D01*
X116249411Y-89725220D01*
X116247755Y-89719735D01*
X116200492Y-89630847D01*
X116154151Y-89541446D01*
X116150576Y-89536967D01*
X116147884Y-89531905D01*
X116084259Y-89453893D01*
X116021433Y-89375192D01*
X116013563Y-89367211D01*
X116013432Y-89367051D01*
X116013284Y-89366928D01*
X116010747Y-89364356D01*
X113175644Y-86529254D01*
X113097871Y-86465370D01*
X113020712Y-86400626D01*
X113015687Y-86397864D01*
X113011260Y-86394227D01*
X112922571Y-86346672D01*
X112834295Y-86298142D01*
X112828828Y-86296408D01*
X112823780Y-86293701D01*
X112727521Y-86264271D01*
X112631522Y-86233819D01*
X112625826Y-86233180D01*
X112620344Y-86231504D01*
X112520192Y-86221331D01*
X112420117Y-86210106D01*
X112408909Y-86210028D01*
X112408703Y-86210007D01*
X112408511Y-86210025D01*
X112404898Y-86210000D01*
X112144118Y-86210000D01*
X112009642Y-86007597D01*
X111728434Y-85724419D01*
X111397578Y-85501254D01*
X111029677Y-85346603D01*
X110638745Y-85266356D01*
X110239670Y-85263570D01*
X109847655Y-85338351D01*
X109477631Y-85487850D01*
X109143692Y-85706374D01*
X108858557Y-85985598D01*
X108704906Y-86210000D01*
X91294118Y-86210000D01*
X91159642Y-86007597D01*
X90878434Y-85724419D01*
X90547578Y-85501254D01*
X90179677Y-85346603D01*
X89788745Y-85266356D01*
X89389670Y-85263570D01*
X88997655Y-85338351D01*
X88627631Y-85487850D01*
X88293692Y-85706374D01*
X88008557Y-85985598D01*
X87783088Y-86314888D01*
X87625872Y-86681700D01*
X87542898Y-87072063D01*
X87537326Y-87471108D01*
X87609368Y-87863636D01*
X87756280Y-88234695D01*
X87972468Y-88570152D01*
X88249695Y-88857229D01*
X88577402Y-89084991D01*
X88943108Y-89244764D01*
X89332882Y-89330462D01*
X89731879Y-89338819D01*
X90124900Y-89269519D01*
X90496975Y-89125201D01*
X90833933Y-88911361D01*
X91122938Y-88636145D01*
X91296574Y-88390000D01*
X108706368Y-88390000D01*
X108822468Y-88570152D01*
X109099695Y-88857229D01*
X109427402Y-89084991D01*
X109793108Y-89244764D01*
X110182882Y-89330462D01*
X110581879Y-89338819D01*
X110974900Y-89269519D01*
X111346975Y-89125201D01*
X111683933Y-88911361D01*
X111972938Y-88636145D01*
X112066673Y-88503267D01*
X114150000Y-90586595D01*
X114150000Y-101885038D01*
X113754190Y-101591295D01*
X113764327Y-101558547D01*
X113793602Y-101280018D01*
X113768219Y-101001108D01*
X113689146Y-100732440D01*
X113559394Y-100484247D01*
X113383905Y-100265983D01*
X113169365Y-100085962D01*
X113012585Y-99999772D01*
X113152754Y-99925242D01*
X113369787Y-99748234D01*
X113548306Y-99532442D01*
X113681511Y-99286085D01*
X113764327Y-99018547D01*
X113793602Y-98740018D01*
X113768219Y-98461108D01*
X113689146Y-98192440D01*
X113559394Y-97944247D01*
X113383905Y-97725983D01*
X113169365Y-97545962D01*
X113012585Y-97459772D01*
X113152754Y-97385242D01*
X113369787Y-97208234D01*
X113548306Y-96992442D01*
X113681511Y-96746085D01*
X113764327Y-96478547D01*
X113793602Y-96200018D01*
X113768219Y-95921108D01*
X113689146Y-95652440D01*
X113559394Y-95404247D01*
X113383905Y-95185983D01*
X113169365Y-95005962D01*
X113012585Y-94919772D01*
X113152754Y-94845242D01*
X113369787Y-94668234D01*
X113548306Y-94452442D01*
X113681511Y-94206085D01*
X113764327Y-93938547D01*
X113793602Y-93660018D01*
X113768219Y-93381108D01*
X113689146Y-93112440D01*
X113559394Y-92864247D01*
X113383905Y-92645983D01*
X113169365Y-92465962D01*
X113012585Y-92379772D01*
X113152754Y-92305242D01*
X113369787Y-92128234D01*
X113548306Y-91912442D01*
X113681511Y-91666085D01*
X113764327Y-91398547D01*
X113793602Y-91120018D01*
X113768219Y-90841108D01*
X113689146Y-90572440D01*
X113559394Y-90324247D01*
X113383905Y-90105983D01*
X113169365Y-89925962D01*
X112923944Y-89791041D01*
X112656990Y-89706358D01*
X112378673Y-89675140D01*
X112358637Y-89675000D01*
X111641363Y-89675000D01*
X111362637Y-89702329D01*
X111094527Y-89783276D01*
X110847246Y-89914758D01*
X110630213Y-90091766D01*
X110451694Y-90307558D01*
X110318489Y-90553915D01*
X110235673Y-90821453D01*
X110206398Y-91099982D01*
X110231781Y-91378892D01*
X110310854Y-91647560D01*
X110440606Y-91895753D01*
X110616095Y-92114017D01*
X110830635Y-92294038D01*
X110987415Y-92380228D01*
X110847246Y-92454758D01*
X110630213Y-92631766D01*
X110451694Y-92847558D01*
X110318489Y-93093915D01*
X110235673Y-93361453D01*
X110206398Y-93639982D01*
X110227710Y-93874158D01*
X109803603Y-93450051D01*
X109789425Y-93378448D01*
X109719550Y-93208920D01*
X109618079Y-93056193D01*
X109488875Y-92926084D01*
X109336860Y-92823549D01*
X109167825Y-92752493D01*
X108988207Y-92715623D01*
X108804849Y-92714343D01*
X108624733Y-92748701D01*
X108454722Y-92817390D01*
X108301291Y-92917793D01*
X108170283Y-93046086D01*
X108066689Y-93197381D01*
X107994454Y-93365916D01*
X107956331Y-93545272D01*
X107953771Y-93728617D01*
X107986872Y-93908968D01*
X108054372Y-94079454D01*
X108153701Y-94233583D01*
X108281076Y-94365484D01*
X108431644Y-94470131D01*
X108599671Y-94543540D01*
X108689806Y-94563358D01*
X109372600Y-95246152D01*
X109372600Y-97927656D01*
X109336860Y-97903549D01*
X109167825Y-97832493D01*
X108988207Y-97795623D01*
X108804849Y-97794343D01*
X108624733Y-97828701D01*
X108454722Y-97897390D01*
X108407400Y-97928357D01*
X108407400Y-97460000D01*
X108400302Y-97387612D01*
X108393963Y-97315157D01*
X108392808Y-97311182D01*
X108392404Y-97307060D01*
X108371376Y-97237411D01*
X108351090Y-97167585D01*
X108349185Y-97163910D01*
X108347988Y-97159945D01*
X108313820Y-97095685D01*
X108280369Y-97031152D01*
X108277788Y-97027919D01*
X108275842Y-97024259D01*
X108229842Y-96967857D01*
X108184495Y-96911052D01*
X108178812Y-96905289D01*
X108178716Y-96905171D01*
X108178607Y-96905081D01*
X108176776Y-96903224D01*
X107263603Y-95990051D01*
X107249425Y-95918448D01*
X107179550Y-95748920D01*
X107078079Y-95596193D01*
X106948875Y-95466084D01*
X106796860Y-95363549D01*
X106627825Y-95292493D01*
X106448207Y-95255623D01*
X106264849Y-95254343D01*
X106084733Y-95288701D01*
X105914722Y-95357390D01*
X105761291Y-95457793D01*
X105630283Y-95586086D01*
X105526689Y-95737381D01*
X105454454Y-95905916D01*
X105416331Y-96085272D01*
X105413771Y-96268617D01*
X105446872Y-96448968D01*
X105514372Y-96619454D01*
X105613701Y-96773583D01*
X105741076Y-96905484D01*
X105891644Y-97010131D01*
X106059671Y-97083540D01*
X106149806Y-97103358D01*
X106832600Y-97786152D01*
X106832600Y-104277656D01*
X106796860Y-104253549D01*
X106627825Y-104182493D01*
X106448207Y-104145623D01*
X106264849Y-104144343D01*
X106084733Y-104178701D01*
X105914722Y-104247390D01*
X105867400Y-104278357D01*
X105867400Y-102540000D01*
X105860302Y-102467612D01*
X105853963Y-102395157D01*
X105852808Y-102391182D01*
X105852404Y-102387060D01*
X105831376Y-102317411D01*
X105811090Y-102247585D01*
X105809185Y-102243910D01*
X105807988Y-102239945D01*
X105773820Y-102175685D01*
X105740369Y-102111152D01*
X105737788Y-102107919D01*
X105735842Y-102104259D01*
X105689842Y-102047857D01*
X105644495Y-101991052D01*
X105638812Y-101985289D01*
X105638716Y-101985171D01*
X105638607Y-101985081D01*
X105636776Y-101983224D01*
X104723603Y-101070051D01*
X104709425Y-100998448D01*
X104639550Y-100828920D01*
X104538079Y-100676193D01*
X104408875Y-100546084D01*
X104256860Y-100443549D01*
X104087825Y-100372493D01*
X103908207Y-100335623D01*
X103724849Y-100334343D01*
X103544733Y-100368701D01*
X103374722Y-100437390D01*
X103221291Y-100537793D01*
X103090283Y-100666086D01*
X102986689Y-100817381D01*
X102914454Y-100985916D01*
X102876331Y-101165272D01*
X102873771Y-101348617D01*
X102906872Y-101528968D01*
X102974372Y-101699454D01*
X102982191Y-101711586D01*
X102817825Y-101642493D01*
X102638207Y-101605623D01*
X102454849Y-101604343D01*
X102274733Y-101638701D01*
X102104722Y-101707390D01*
X101951291Y-101807793D01*
X101820283Y-101936086D01*
X101716689Y-102087381D01*
X101644454Y-102255916D01*
X101626618Y-102339830D01*
X100736931Y-103229517D01*
X100728079Y-103216193D01*
X100598875Y-103086084D01*
X100446860Y-102983549D01*
X100277825Y-102912493D01*
X100098207Y-102875623D01*
X99914849Y-102874343D01*
X99734733Y-102908701D01*
X99564722Y-102977390D01*
X99517400Y-103008357D01*
X99517400Y-101596152D01*
X100199215Y-100914337D01*
X100252657Y-100904914D01*
X100423610Y-100838606D01*
X100578429Y-100740355D01*
X100711215Y-100613904D01*
X100816911Y-100464070D01*
X100891492Y-100296560D01*
X100932116Y-100117754D01*
X100935040Y-99908319D01*
X100899425Y-99728448D01*
X100829550Y-99558920D01*
X100728079Y-99406193D01*
X100598875Y-99276084D01*
X100446860Y-99173549D01*
X100277825Y-99102493D01*
X100098207Y-99065623D01*
X99914849Y-99064343D01*
X99734733Y-99098701D01*
X99564722Y-99167390D01*
X99411291Y-99267793D01*
X99280283Y-99396086D01*
X99176689Y-99547381D01*
X99104454Y-99715916D01*
X99086618Y-99799830D01*
X98173224Y-100713224D01*
X98127056Y-100769430D01*
X98080306Y-100825145D01*
X98078311Y-100828773D01*
X98075683Y-100831973D01*
X98041305Y-100896087D01*
X98006273Y-100959810D01*
X98005021Y-100963755D01*
X98003064Y-100967406D01*
X97981785Y-101037006D01*
X97959807Y-101106290D01*
X97959346Y-101110401D01*
X97958134Y-101114365D01*
X97950780Y-101186769D01*
X97942677Y-101259006D01*
X97942620Y-101267100D01*
X97942605Y-101267251D01*
X97942618Y-101267391D01*
X97942600Y-101270000D01*
X97942600Y-107325656D01*
X97906860Y-107301549D01*
X97737825Y-107230493D01*
X97558207Y-107193623D01*
X97374849Y-107192343D01*
X97194733Y-107226701D01*
X97024722Y-107295390D01*
X96977400Y-107326357D01*
X96977400Y-96516152D01*
X97659215Y-95834337D01*
X97712657Y-95824914D01*
X97883610Y-95758606D01*
X98038429Y-95660355D01*
X98171215Y-95533904D01*
X98276911Y-95384070D01*
X98351492Y-95216560D01*
X98392116Y-95037754D01*
X98395040Y-94828319D01*
X98359425Y-94648448D01*
X98289550Y-94478920D01*
X98188079Y-94326193D01*
X98058875Y-94196084D01*
X97906860Y-94093549D01*
X97737825Y-94022493D01*
X97558207Y-93985623D01*
X97374849Y-93984343D01*
X97194733Y-94018701D01*
X97024722Y-94087390D01*
X96871291Y-94187793D01*
X96740283Y-94316086D01*
X96636689Y-94467381D01*
X96564454Y-94635916D01*
X96546618Y-94719830D01*
X95633224Y-95633224D01*
X95587056Y-95689430D01*
X95540306Y-95745145D01*
X95538311Y-95748773D01*
X95535683Y-95751973D01*
X95501305Y-95816087D01*
X95466273Y-95879810D01*
X95465021Y-95883755D01*
X95463064Y-95887406D01*
X95441785Y-95957006D01*
X95419807Y-96026290D01*
X95419346Y-96030401D01*
X95418134Y-96034365D01*
X95410780Y-96106769D01*
X95402677Y-96179006D01*
X95402620Y-96187100D01*
X95402605Y-96187251D01*
X95402618Y-96187391D01*
X95402600Y-96190000D01*
X95402600Y-110627656D01*
X95366860Y-110603549D01*
X95197825Y-110532493D01*
X95018207Y-110495623D01*
X94834849Y-110494343D01*
X94654733Y-110528701D01*
X94484722Y-110597390D01*
X94437400Y-110628357D01*
X94437400Y-92380000D01*
X94430302Y-92307612D01*
X94423963Y-92235157D01*
X94422808Y-92231182D01*
X94422404Y-92227060D01*
X94401376Y-92157411D01*
X94381090Y-92087585D01*
X94379185Y-92083910D01*
X94377988Y-92079945D01*
X94343820Y-92015685D01*
X94310369Y-91951152D01*
X94307788Y-91947919D01*
X94305842Y-91944259D01*
X94259842Y-91887857D01*
X94214495Y-91831052D01*
X94208812Y-91825289D01*
X94208716Y-91825171D01*
X94208607Y-91825081D01*
X94206776Y-91823224D01*
X93293603Y-90910051D01*
X93279425Y-90838448D01*
X93209550Y-90668920D01*
X93108079Y-90516193D01*
X92978875Y-90386084D01*
X92826860Y-90283549D01*
X92657825Y-90212493D01*
X92478207Y-90175623D01*
X92294849Y-90174343D01*
X92114733Y-90208701D01*
X91944722Y-90277390D01*
X91791291Y-90377793D01*
X91660283Y-90506086D01*
X91556689Y-90657381D01*
X91484454Y-90825916D01*
X91446331Y-91005272D01*
X91443771Y-91188617D01*
X91476872Y-91368968D01*
X91544372Y-91539454D01*
X91643701Y-91693583D01*
X91692709Y-91744332D01*
X91660283Y-91776086D01*
X91556689Y-91927381D01*
X91484454Y-92095916D01*
X91466618Y-92179830D01*
X90553224Y-93093224D01*
X90507056Y-93149430D01*
X90460306Y-93205145D01*
X90458311Y-93208773D01*
X90455683Y-93211973D01*
X90421305Y-93276087D01*
X90386273Y-93339810D01*
X90385021Y-93343755D01*
X90383064Y-93347406D01*
X90361785Y-93417006D01*
X90339807Y-93486290D01*
X90339346Y-93490401D01*
X90338134Y-93494365D01*
X90330780Y-93566769D01*
X90322677Y-93639006D01*
X90322620Y-93647100D01*
X90322605Y-93647251D01*
X90322618Y-93647391D01*
X90322600Y-93650000D01*
X90322600Y-99939048D01*
X89677344Y-99293792D01*
X89681511Y-99286085D01*
X89764327Y-99018547D01*
X89793602Y-98740018D01*
X89768219Y-98461108D01*
X89689146Y-98192440D01*
X89559394Y-97944247D01*
X89383905Y-97725983D01*
X89169365Y-97545962D01*
X89012585Y-97459772D01*
X89152754Y-97385242D01*
X89369787Y-97208234D01*
X89548306Y-96992442D01*
X89681511Y-96746085D01*
X89764327Y-96478547D01*
X89793602Y-96200018D01*
X89768219Y-95921108D01*
X89689146Y-95652440D01*
X89559394Y-95404247D01*
X89383905Y-95185983D01*
X89169365Y-95005962D01*
X89012585Y-94919772D01*
X89152754Y-94845242D01*
X89369787Y-94668234D01*
X89548306Y-94452442D01*
X89681511Y-94206085D01*
X89764327Y-93938547D01*
X89793602Y-93660018D01*
X89768219Y-93381108D01*
X89689146Y-93112440D01*
X89559394Y-92864247D01*
X89383905Y-92645983D01*
X89169365Y-92465962D01*
X89012585Y-92379772D01*
X89152754Y-92305242D01*
X89369787Y-92128234D01*
X89548306Y-91912442D01*
X89681511Y-91666085D01*
X89764327Y-91398547D01*
X89793602Y-91120018D01*
X89768219Y-90841108D01*
X89689146Y-90572440D01*
X89559394Y-90324247D01*
X89383905Y-90105983D01*
X89169365Y-89925962D01*
X88923944Y-89791041D01*
X88656990Y-89706358D01*
X88378673Y-89675140D01*
X88358637Y-89675000D01*
X87641363Y-89675000D01*
X87362637Y-89702329D01*
X87094527Y-89783276D01*
X86847246Y-89914758D01*
X86630213Y-90091766D01*
X86451694Y-90307558D01*
X86318489Y-90553915D01*
X86235673Y-90821453D01*
X86206398Y-91099982D01*
X86231781Y-91378892D01*
X86310854Y-91647560D01*
X86440606Y-91895753D01*
X86616095Y-92114017D01*
X86830635Y-92294038D01*
X86987415Y-92380228D01*
X86847246Y-92454758D01*
X86630213Y-92631766D01*
X86451694Y-92847558D01*
X86318489Y-93093915D01*
X86235673Y-93361453D01*
X86206398Y-93639982D01*
X86231781Y-93918892D01*
X86310854Y-94187560D01*
X86440606Y-94435753D01*
X86616095Y-94654017D01*
X86830635Y-94834038D01*
X86987415Y-94920228D01*
X86847246Y-94994758D01*
X86630213Y-95171766D01*
X86451694Y-95387558D01*
X86318489Y-95633915D01*
X86235673Y-95901453D01*
X86206398Y-96179982D01*
X86231781Y-96458892D01*
X86310854Y-96727560D01*
X86440606Y-96975753D01*
X86616095Y-97194017D01*
X86830635Y-97374038D01*
X86987415Y-97460228D01*
X86847246Y-97534758D01*
X86630213Y-97711766D01*
X86451694Y-97927558D01*
X86318489Y-98173915D01*
X86235673Y-98441453D01*
X86206398Y-98719982D01*
X86231781Y-98998892D01*
X86310854Y-99267560D01*
X86440606Y-99515753D01*
X86616095Y-99734017D01*
X86830635Y-99914038D01*
X86987415Y-100000228D01*
X86847246Y-100074758D01*
X86630213Y-100251766D01*
X86451694Y-100467558D01*
X86318489Y-100713915D01*
X86235673Y-100981453D01*
X86206398Y-101259982D01*
X86231781Y-101538892D01*
X86310854Y-101807560D01*
X86440606Y-102055753D01*
X86616095Y-102274017D01*
X86830635Y-102454038D01*
X86987415Y-102540228D01*
X86847246Y-102614758D01*
X86630213Y-102791766D01*
X86451694Y-103007558D01*
X86318489Y-103253915D01*
X86235673Y-103521453D01*
X86206398Y-103799982D01*
X86231781Y-104078892D01*
X86310854Y-104347560D01*
X86440606Y-104595753D01*
X86616095Y-104814017D01*
X86830635Y-104994038D01*
X86987415Y-105080228D01*
X86847246Y-105154758D01*
X86630213Y-105331766D01*
X86451694Y-105547558D01*
X86318489Y-105793915D01*
X86235673Y-106061453D01*
X86206398Y-106339982D01*
X86231781Y-106618892D01*
X86310854Y-106887560D01*
X86440606Y-107135753D01*
X86616095Y-107354017D01*
X86830635Y-107534038D01*
X86987415Y-107620228D01*
X86847246Y-107694758D01*
X86630213Y-107871766D01*
X86451694Y-108087558D01*
X86318489Y-108333915D01*
X86235673Y-108601453D01*
X86206398Y-108879982D01*
X86231781Y-109158892D01*
X86310854Y-109427560D01*
X86440606Y-109675753D01*
X86616095Y-109894017D01*
X86830635Y-110074038D01*
X87076056Y-110208959D01*
X87343010Y-110293642D01*
X87621327Y-110324860D01*
X87641363Y-110325000D01*
X88358637Y-110325000D01*
X88637363Y-110297671D01*
X88905473Y-110216724D01*
X89052600Y-110138495D01*
X89052600Y-112700000D01*
X89059698Y-112772392D01*
X89066037Y-112844843D01*
X89067192Y-112848818D01*
X89067596Y-112852940D01*
X89088624Y-112922589D01*
X89108910Y-112992415D01*
X89110815Y-112996090D01*
X89112012Y-113000055D01*
X89146180Y-113064315D01*
X89179631Y-113128848D01*
X89182212Y-113132081D01*
X89184158Y-113135741D01*
X89230158Y-113192143D01*
X89275505Y-113248948D01*
X89281188Y-113254711D01*
X89281284Y-113254829D01*
X89281393Y-113254919D01*
X89283224Y-113256776D01*
X92354600Y-116328152D01*
X92354600Y-117983591D01*
X92156905Y-117784510D01*
X91891165Y-117605266D01*
X91595671Y-117481052D01*
X91281677Y-117416598D01*
X90961145Y-117414360D01*
X90646283Y-117474424D01*
X90349083Y-117594500D01*
X90080867Y-117770016D01*
X89851849Y-117994286D01*
X89670755Y-118258768D01*
X89544481Y-118553388D01*
X89477837Y-118866924D01*
X89473361Y-119187432D01*
X89531225Y-119502707D01*
X89649223Y-119800737D01*
X89822863Y-120070172D01*
X90045529Y-120300750D01*
X90308740Y-120483686D01*
X90602471Y-120612014D01*
X90915533Y-120680846D01*
X91236003Y-120687558D01*
X91551674Y-120631897D01*
X91850521Y-120515982D01*
X92121162Y-120344228D01*
X92353288Y-120123177D01*
X92354600Y-120121317D01*
X92354600Y-125603591D01*
X92156905Y-125404510D01*
X91891165Y-125225266D01*
X91595671Y-125101052D01*
X91281677Y-125036598D01*
X90961145Y-125034360D01*
X90646283Y-125094424D01*
X90349083Y-125214500D01*
X90080867Y-125390016D01*
X89851849Y-125614286D01*
X89670755Y-125878768D01*
X89544481Y-126173388D01*
X89477837Y-126486924D01*
X89473361Y-126807432D01*
X89531225Y-127122707D01*
X89649223Y-127420737D01*
X89822863Y-127690172D01*
X90045529Y-127920750D01*
X90308740Y-128103686D01*
X90322600Y-128109741D01*
X90322600Y-128189517D01*
X90300918Y-128203705D01*
X90120870Y-128380021D01*
X89978497Y-128587951D01*
X89879223Y-128819575D01*
X89826829Y-129066069D01*
X89823310Y-129318046D01*
X89868802Y-129565908D01*
X89961570Y-129800213D01*
X90098081Y-130012037D01*
X90273136Y-130193312D01*
X90480067Y-130337133D01*
X90674156Y-130421928D01*
X90460000Y-130421928D01*
X90358879Y-130429992D01*
X90187366Y-130483106D01*
X90037441Y-130581900D01*
X89920975Y-130718550D01*
X89847190Y-130882237D01*
X89821928Y-131060000D01*
X89821928Y-132360000D01*
X89829992Y-132461121D01*
X89883106Y-132632634D01*
X89981900Y-132782559D01*
X90118550Y-132899025D01*
X90282237Y-132972810D01*
X90460000Y-132998072D01*
X91760000Y-132998072D01*
X91846600Y-132991166D01*
X91846600Y-136598328D01*
X90094000Y-136598328D01*
X89992879Y-136606392D01*
X89821366Y-136659506D01*
X89671441Y-136758300D01*
X89554975Y-136894950D01*
X89481190Y-137058637D01*
X89455928Y-137236400D01*
X89455928Y-138963600D01*
X89463992Y-139064721D01*
X89517106Y-139236234D01*
X89615900Y-139386159D01*
X89752550Y-139502625D01*
X89901867Y-139569933D01*
X89893647Y-139576637D01*
X89707216Y-139801994D01*
X89568108Y-140059269D01*
X89481621Y-140338665D01*
X89451049Y-140629538D01*
X89477556Y-140920810D01*
X89560134Y-141201385D01*
X89695637Y-141460578D01*
X89878903Y-141688515D01*
X90102952Y-141876515D01*
X90162587Y-141909299D01*
X90120299Y-141931784D01*
X89893647Y-142116637D01*
X89707216Y-142341994D01*
X89568108Y-142599269D01*
X89481621Y-142878665D01*
X89451049Y-143169538D01*
X89477556Y-143460810D01*
X89560134Y-143741385D01*
X89695637Y-144000578D01*
X89878903Y-144228515D01*
X90102952Y-144416515D01*
X90164872Y-144450556D01*
X89958271Y-144601514D01*
X89759267Y-144817965D01*
X89606314Y-145069081D01*
X89505291Y-145345211D01*
X89502642Y-145360974D01*
X89623783Y-145593000D01*
X90983000Y-145593000D01*
X90983000Y-145573000D01*
X91237000Y-145573000D01*
X91237000Y-145593000D01*
X91257000Y-145593000D01*
X91257000Y-145847000D01*
X91237000Y-145847000D01*
X91237000Y-147060925D01*
X91471914Y-147205185D01*
X91757633Y-147135773D01*
X91846600Y-147094467D01*
X91846600Y-154174000D01*
X91853698Y-154246392D01*
X91860037Y-154318843D01*
X91861192Y-154322818D01*
X91861596Y-154326940D01*
X91882624Y-154396589D01*
X91902910Y-154466415D01*
X91904815Y-154470090D01*
X91906012Y-154474055D01*
X91940180Y-154538315D01*
X91973631Y-154602848D01*
X91976212Y-154606081D01*
X91978158Y-154609741D01*
X92024158Y-154666143D01*
X92069505Y-154722948D01*
X92075188Y-154728711D01*
X92075284Y-154728829D01*
X92075393Y-154728919D01*
X92077224Y-154730776D01*
X96002209Y-158655761D01*
X95994148Y-158681173D01*
X95961546Y-158971825D01*
X95961400Y-158992749D01*
X95961400Y-159007251D01*
X95989941Y-159298331D01*
X96074475Y-159578323D01*
X96211784Y-159836564D01*
X96396637Y-160063216D01*
X96621994Y-160249647D01*
X96664534Y-160272648D01*
X96449707Y-160433146D01*
X96253183Y-160651512D01*
X96103036Y-160904022D01*
X96005037Y-161180973D01*
X96125536Y-161413000D01*
X97333000Y-161413000D01*
X97333000Y-161393000D01*
X97587000Y-161393000D01*
X97587000Y-161413000D01*
X97607000Y-161413000D01*
X97607000Y-161667000D01*
X97587000Y-161667000D01*
X97587000Y-162873817D01*
X97819026Y-162994958D01*
X97969814Y-162949222D01*
X98234944Y-162822684D01*
X98470293Y-162646854D01*
X98666817Y-162428488D01*
X98726249Y-162328539D01*
X98751784Y-162376564D01*
X98936637Y-162603216D01*
X99161994Y-162789647D01*
X99218367Y-162820128D01*
X99219698Y-162833706D01*
X99226037Y-162906157D01*
X99227192Y-162910132D01*
X99227596Y-162914254D01*
X99248624Y-162983903D01*
X99268910Y-163053729D01*
X99270815Y-163057404D01*
X99272012Y-163061369D01*
X99306180Y-163125629D01*
X99339631Y-163190162D01*
X99342212Y-163193395D01*
X99344158Y-163197055D01*
X99390158Y-163253457D01*
X99435505Y-163310262D01*
X99441188Y-163316025D01*
X99441284Y-163316143D01*
X99441393Y-163316233D01*
X99443224Y-163318090D01*
X99927910Y-163802776D01*
X99984116Y-163848944D01*
X100012785Y-163873000D01*
X97170735Y-163873000D01*
X95518050Y-163374025D01*
X95322332Y-163269960D01*
X93677213Y-161899027D01*
X96005037Y-161899027D01*
X96103036Y-162175978D01*
X96253183Y-162428488D01*
X96449707Y-162646854D01*
X96685056Y-162822684D01*
X96950186Y-162949222D01*
X97100974Y-162994958D01*
X97333000Y-162873817D01*
X97333000Y-161667000D01*
X96125536Y-161667000D01*
X96005037Y-161899027D01*
X93677213Y-161899027D01*
X90215337Y-159014131D01*
X89935180Y-158495991D01*
X88477316Y-154851332D01*
X88235171Y-152547467D01*
X88235000Y-152498575D01*
X88235000Y-146079026D01*
X89502642Y-146079026D01*
X89505291Y-146094789D01*
X89606314Y-146370919D01*
X89759267Y-146622035D01*
X89958271Y-146838486D01*
X90195679Y-147011954D01*
X90462367Y-147135773D01*
X90748086Y-147205185D01*
X90983000Y-147060925D01*
X90983000Y-145847000D01*
X89623783Y-145847000D01*
X89502642Y-146079026D01*
X88235000Y-146079026D01*
X88235000Y-138250000D01*
X88234982Y-138249816D01*
X88234982Y-138244886D01*
X88231110Y-137688394D01*
X88227621Y-137655195D01*
X88227623Y-137621821D01*
X88226551Y-137611615D01*
X88127000Y-136723697D01*
X88127000Y-132000000D01*
X88121384Y-131962651D01*
X84121384Y-118962651D01*
X84105670Y-118929553D01*
X80111666Y-112938547D01*
X76408125Y-104605580D01*
X76505105Y-104704500D01*
X76738354Y-104863715D01*
X76998182Y-104974367D01*
X77080961Y-104991904D01*
X77303000Y-104869915D01*
X77303000Y-103377000D01*
X77557000Y-103377000D01*
X77557000Y-104869915D01*
X77779039Y-104991904D01*
X77861818Y-104974367D01*
X78121646Y-104863715D01*
X78354895Y-104704500D01*
X78552601Y-104502839D01*
X78707166Y-104266483D01*
X78812650Y-104004514D01*
X78865000Y-103727000D01*
X78865000Y-103377000D01*
X77557000Y-103377000D01*
X77303000Y-103377000D01*
X77283000Y-103377000D01*
X77283000Y-103123000D01*
X77303000Y-103123000D01*
X77303000Y-101630085D01*
X77557000Y-101630085D01*
X77557000Y-103123000D01*
X78865000Y-103123000D01*
X78865000Y-102891363D01*
X80495000Y-102891363D01*
X80495000Y-103608637D01*
X80522329Y-103887363D01*
X80603276Y-104155473D01*
X80734758Y-104402754D01*
X80911766Y-104619787D01*
X81127558Y-104798306D01*
X81373915Y-104931511D01*
X81641453Y-105014327D01*
X81919982Y-105043602D01*
X82198892Y-105018219D01*
X82467560Y-104939146D01*
X82715753Y-104809394D01*
X82934017Y-104633905D01*
X83114038Y-104419365D01*
X83248959Y-104173944D01*
X83333642Y-103906990D01*
X83364860Y-103628673D01*
X83365000Y-103608637D01*
X83365000Y-102891363D01*
X83337671Y-102612637D01*
X83256724Y-102344527D01*
X83125242Y-102097246D01*
X82948234Y-101880213D01*
X82732442Y-101701694D01*
X82486085Y-101568489D01*
X82218547Y-101485673D01*
X81940018Y-101456398D01*
X81661108Y-101481781D01*
X81392440Y-101560854D01*
X81144247Y-101690606D01*
X80925983Y-101866095D01*
X80745962Y-102080635D01*
X80611041Y-102326056D01*
X80526358Y-102593010D01*
X80495140Y-102871327D01*
X80495000Y-102891363D01*
X78865000Y-102891363D01*
X78865000Y-102773000D01*
X78812650Y-102495486D01*
X78707166Y-102233517D01*
X78552601Y-101997161D01*
X78354895Y-101795500D01*
X78121646Y-101636285D01*
X77861818Y-101525633D01*
X77779039Y-101508096D01*
X77557000Y-101630085D01*
X77303000Y-101630085D01*
X77080961Y-101508096D01*
X76998182Y-101525633D01*
X76738354Y-101636285D01*
X76505105Y-101795500D01*
X76307399Y-101997161D01*
X76152834Y-102233517D01*
X76127000Y-102297676D01*
X76127000Y-97702324D01*
X76152834Y-97766483D01*
X76307399Y-98002839D01*
X76505105Y-98204500D01*
X76738354Y-98363715D01*
X76998182Y-98474367D01*
X77080961Y-98491904D01*
X77303000Y-98369915D01*
X77303000Y-96877000D01*
X77557000Y-96877000D01*
X77557000Y-98369915D01*
X77779039Y-98491904D01*
X77861818Y-98474367D01*
X78121646Y-98363715D01*
X78354895Y-98204500D01*
X78552601Y-98002839D01*
X78707166Y-97766483D01*
X78812650Y-97504514D01*
X78865000Y-97227000D01*
X78865000Y-96877000D01*
X77557000Y-96877000D01*
X77303000Y-96877000D01*
X77283000Y-96877000D01*
X77283000Y-96623000D01*
X77303000Y-96623000D01*
X77303000Y-95130085D01*
X77557000Y-95130085D01*
X77557000Y-96623000D01*
X78865000Y-96623000D01*
X78865000Y-96391363D01*
X80495000Y-96391363D01*
X80495000Y-97108637D01*
X80522329Y-97387363D01*
X80603276Y-97655473D01*
X80734758Y-97902754D01*
X80911766Y-98119787D01*
X81127558Y-98298306D01*
X81373915Y-98431511D01*
X81641453Y-98514327D01*
X81919982Y-98543602D01*
X82198892Y-98518219D01*
X82467560Y-98439146D01*
X82715753Y-98309394D01*
X82934017Y-98133905D01*
X83114038Y-97919365D01*
X83248959Y-97673944D01*
X83333642Y-97406990D01*
X83364860Y-97128673D01*
X83365000Y-97108637D01*
X83365000Y-96391363D01*
X83337671Y-96112637D01*
X83256724Y-95844527D01*
X83125242Y-95597246D01*
X82948234Y-95380213D01*
X82732442Y-95201694D01*
X82486085Y-95068489D01*
X82218547Y-94985673D01*
X81940018Y-94956398D01*
X81661108Y-94981781D01*
X81392440Y-95060854D01*
X81144247Y-95190606D01*
X80925983Y-95366095D01*
X80745962Y-95580635D01*
X80611041Y-95826056D01*
X80526358Y-96093010D01*
X80495140Y-96371327D01*
X80495000Y-96391363D01*
X78865000Y-96391363D01*
X78865000Y-96273000D01*
X78812650Y-95995486D01*
X78707166Y-95733517D01*
X78552601Y-95497161D01*
X78354895Y-95295500D01*
X78121646Y-95136285D01*
X77861818Y-95025633D01*
X77779039Y-95008096D01*
X77557000Y-95130085D01*
X77303000Y-95130085D01*
X77080961Y-95008096D01*
X76998182Y-95025633D01*
X76738354Y-95136285D01*
X76505105Y-95295500D01*
X76358954Y-95444574D01*
X80018027Y-86296893D01*
X80616439Y-85563167D01*
X85080914Y-81098692D01*
X87875701Y-79235500D01*
X88115001Y-79235500D01*
X88115001Y-83880500D01*
X111884999Y-83880500D01*
X111884999Y-79235500D01*
X88115001Y-79235500D01*
X87875701Y-79235500D01*
X89469636Y-78172877D01*
X89861721Y-77951801D01*
X89892544Y-77930205D01*
X89902459Y-77925022D01*
X89919514Y-77911309D01*
X89979202Y-77869490D01*
X90004984Y-77842589D01*
X90014253Y-77835137D01*
X90029206Y-77817317D01*
X90075623Y-77768886D01*
X91055042Y-77115940D01*
X95804727Y-75654499D01*
X95877514Y-75767442D01*
X96590675Y-76505943D01*
X97433697Y-77091858D01*
X98374469Y-77502871D01*
X99377156Y-77723326D01*
X100403567Y-77744827D01*
X101414607Y-77566553D01*
X102371765Y-77195296D01*
X103238583Y-76645197D01*
X103982044Y-75937208D01*
X104183934Y-75651010D01*
X108944958Y-77115940D01*
X108944958Y-77115940D01*
G37*
X108944958Y-77115940D02*
X109935642Y-77776396D01*
X109944341Y-77786065D01*
X109978466Y-77827906D01*
X109992226Y-77839290D01*
X110004169Y-77852564D01*
X110047380Y-77884917D01*
X110088993Y-77919343D01*
X110104706Y-77927839D01*
X110118997Y-77938539D01*
X110127809Y-77943797D01*
X110622473Y-78234283D01*
X114919086Y-81098692D01*
X119284891Y-85464497D01*
X120055397Y-86480454D01*
X123641046Y-95444574D01*
X123494895Y-95295500D01*
X123261646Y-95136285D01*
X123001818Y-95025633D01*
X122919039Y-95008096D01*
X122697000Y-95130085D01*
X122697000Y-96623000D01*
X122717000Y-96623000D01*
X122717000Y-96877000D01*
X122697000Y-96877000D01*
X122697000Y-98369915D01*
X122919039Y-98491904D01*
X123001818Y-98474367D01*
X123261646Y-98363715D01*
X123494895Y-98204500D01*
X123692601Y-98002839D01*
X123847166Y-97766483D01*
X123873000Y-97702324D01*
X123873000Y-102297676D01*
X123847166Y-102233517D01*
X123692601Y-101997161D01*
X123494895Y-101795500D01*
X123261646Y-101636285D01*
X123001818Y-101525633D01*
X122919039Y-101508096D01*
X122697000Y-101630085D01*
X122697000Y-103123000D01*
X122717000Y-103123000D01*
X122717000Y-103377000D01*
X122697000Y-103377000D01*
X122697000Y-104869915D01*
X122919039Y-104991904D01*
X123001818Y-104974367D01*
X123261646Y-104863715D01*
X123494895Y-104704500D01*
X123591875Y-104605580D01*
X119888334Y-112938547D01*
X115894330Y-118929553D01*
X115878616Y-118962651D01*
X111878616Y-131962651D01*
X111873000Y-132000000D01*
X111873000Y-137112585D01*
X111768508Y-138178277D01*
X111768508Y-138209106D01*
X111765072Y-138239738D01*
X111765000Y-138250000D01*
X111765000Y-152464054D01*
X111537480Y-154784481D01*
X111500714Y-154906256D01*
X110052137Y-158527697D01*
X109800524Y-159000914D01*
X107386672Y-161012457D01*
X107391323Y-160970994D01*
X107391380Y-160962900D01*
X107391395Y-160962749D01*
X107391382Y-160962609D01*
X107391400Y-160960000D01*
X107391400Y-150704000D01*
X107384302Y-150631608D01*
X107377963Y-150559157D01*
X107376808Y-150555182D01*
X107376404Y-150551060D01*
X107355376Y-150481411D01*
X107335090Y-150411585D01*
X107333185Y-150407910D01*
X107331988Y-150403945D01*
X107297820Y-150339685D01*
X107264369Y-150275152D01*
X107261788Y-150271919D01*
X107259842Y-150268259D01*
X107213822Y-150211833D01*
X107168495Y-150155053D01*
X107162813Y-150149290D01*
X107162716Y-150149171D01*
X107162606Y-150149080D01*
X107160776Y-150147224D01*
X105571437Y-148557885D01*
X105574327Y-148548547D01*
X105603602Y-148270018D01*
X105578219Y-147991108D01*
X105544202Y-147875527D01*
X108184078Y-147875527D01*
X108237466Y-148104201D01*
X108467374Y-148210095D01*
X108713524Y-148269102D01*
X108966455Y-148278952D01*
X109216449Y-148239270D01*
X109453896Y-148151578D01*
X109542534Y-148104201D01*
X109595922Y-147875527D01*
X108890000Y-147169605D01*
X108184078Y-147875527D01*
X105544202Y-147875527D01*
X105499146Y-147722440D01*
X105369394Y-147474247D01*
X105193905Y-147255983D01*
X104979365Y-147075962D01*
X104962072Y-147066455D01*
X107601048Y-147066455D01*
X107640730Y-147316449D01*
X107728422Y-147553896D01*
X107775799Y-147642534D01*
X108004473Y-147695922D01*
X108710395Y-146990000D01*
X109069605Y-146990000D01*
X109775527Y-147695922D01*
X110004201Y-147642534D01*
X110110095Y-147412626D01*
X110169102Y-147166476D01*
X110178952Y-146913545D01*
X110139270Y-146663551D01*
X110051578Y-146426104D01*
X110004201Y-146337466D01*
X109775527Y-146284078D01*
X109069605Y-146990000D01*
X108710395Y-146990000D01*
X108004473Y-146284078D01*
X107775799Y-146337466D01*
X107669905Y-146567374D01*
X107610898Y-146813524D01*
X107601048Y-147066455D01*
X104962072Y-147066455D01*
X104822585Y-146989772D01*
X104962754Y-146915242D01*
X105179787Y-146738234D01*
X105358306Y-146522442D01*
X105491511Y-146276085D01*
X105574327Y-146008547D01*
X105603602Y-145730018D01*
X105578219Y-145451108D01*
X105499146Y-145182440D01*
X105369394Y-144934247D01*
X105193905Y-144715983D01*
X104979365Y-144535962D01*
X104822585Y-144449772D01*
X104962754Y-144375242D01*
X105179787Y-144198234D01*
X105358306Y-143982442D01*
X105435324Y-143840000D01*
X107601928Y-143840000D01*
X107601928Y-145140000D01*
X107609992Y-145241121D01*
X107663106Y-145412634D01*
X107761900Y-145562559D01*
X107898550Y-145679025D01*
X108062237Y-145752810D01*
X108240000Y-145778072D01*
X108462439Y-145778072D01*
X108326104Y-145828422D01*
X108237466Y-145875799D01*
X108184078Y-146104473D01*
X108890000Y-146810395D01*
X109595922Y-146104473D01*
X109542534Y-145875799D01*
X109330357Y-145778072D01*
X109540000Y-145778072D01*
X109641121Y-145770008D01*
X109812634Y-145716894D01*
X109962559Y-145618100D01*
X110079025Y-145481450D01*
X110152810Y-145317763D01*
X110178072Y-145140000D01*
X110178072Y-143840000D01*
X110170008Y-143738879D01*
X110116894Y-143567366D01*
X110018100Y-143417441D01*
X109881450Y-143300975D01*
X109717763Y-143227190D01*
X109540000Y-143201928D01*
X108240000Y-143201928D01*
X108138879Y-143209992D01*
X107967366Y-143263106D01*
X107817441Y-143361900D01*
X107700975Y-143498550D01*
X107627190Y-143662237D01*
X107601928Y-143840000D01*
X105435324Y-143840000D01*
X105491511Y-143736085D01*
X105574327Y-143468547D01*
X105603602Y-143190018D01*
X105578219Y-142911108D01*
X105499146Y-142642440D01*
X105369394Y-142394247D01*
X105193905Y-142175983D01*
X104979365Y-141995962D01*
X104822585Y-141909772D01*
X104962754Y-141835242D01*
X105179787Y-141658234D01*
X105289571Y-141525527D01*
X108184078Y-141525527D01*
X108237466Y-141754201D01*
X108467374Y-141860095D01*
X108713524Y-141919102D01*
X108966455Y-141928952D01*
X109216449Y-141889270D01*
X109453896Y-141801578D01*
X109542534Y-141754201D01*
X109595922Y-141525527D01*
X108890000Y-140819605D01*
X108184078Y-141525527D01*
X105289571Y-141525527D01*
X105358306Y-141442442D01*
X105491511Y-141196085D01*
X105574327Y-140928547D01*
X105596619Y-140716455D01*
X107601048Y-140716455D01*
X107640730Y-140966449D01*
X107728422Y-141203896D01*
X107775799Y-141292534D01*
X108004473Y-141345922D01*
X108710395Y-140640000D01*
X109069605Y-140640000D01*
X109775527Y-141345922D01*
X110004201Y-141292534D01*
X110110095Y-141062626D01*
X110169102Y-140816476D01*
X110178952Y-140563545D01*
X110139270Y-140313551D01*
X110051578Y-140076104D01*
X110004201Y-139987466D01*
X109775527Y-139934078D01*
X109069605Y-140640000D01*
X108710395Y-140640000D01*
X108004473Y-139934078D01*
X107775799Y-139987466D01*
X107669905Y-140217374D01*
X107610898Y-140463524D01*
X107601048Y-140716455D01*
X105596619Y-140716455D01*
X105603602Y-140650018D01*
X105578219Y-140371108D01*
X105499146Y-140102440D01*
X105369394Y-139854247D01*
X105193905Y-139635983D01*
X104979365Y-139455962D01*
X104822585Y-139369772D01*
X104962754Y-139295242D01*
X105179787Y-139118234D01*
X105358306Y-138902442D01*
X105491511Y-138656085D01*
X105574327Y-138388547D01*
X105603602Y-138110018D01*
X105578219Y-137831108D01*
X105499146Y-137562440D01*
X105461276Y-137490000D01*
X107601928Y-137490000D01*
X107601928Y-138790000D01*
X107609992Y-138891121D01*
X107663106Y-139062634D01*
X107761900Y-139212559D01*
X107898550Y-139329025D01*
X108062237Y-139402810D01*
X108240000Y-139428072D01*
X108462439Y-139428072D01*
X108326104Y-139478422D01*
X108237466Y-139525799D01*
X108184078Y-139754473D01*
X108890000Y-140460395D01*
X109595922Y-139754473D01*
X109542534Y-139525799D01*
X109330357Y-139428072D01*
X109540000Y-139428072D01*
X109641121Y-139420008D01*
X109812634Y-139366894D01*
X109962559Y-139268100D01*
X110079025Y-139131450D01*
X110152810Y-138967763D01*
X110178072Y-138790000D01*
X110178072Y-137490000D01*
X110170008Y-137388879D01*
X110116894Y-137217366D01*
X110018100Y-137067441D01*
X109881450Y-136950975D01*
X109717763Y-136877190D01*
X109540000Y-136851928D01*
X108240000Y-136851928D01*
X108138879Y-136859992D01*
X107967366Y-136913106D01*
X107817441Y-137011900D01*
X107700975Y-137148550D01*
X107627190Y-137312237D01*
X107601928Y-137490000D01*
X105461276Y-137490000D01*
X105369394Y-137314247D01*
X105193905Y-137095983D01*
X104979365Y-136915962D01*
X104830846Y-136834313D01*
X105062839Y-136682601D01*
X105264500Y-136484895D01*
X105423715Y-136251646D01*
X105534367Y-135991818D01*
X105551904Y-135909039D01*
X105429915Y-135687000D01*
X103937000Y-135687000D01*
X103937000Y-135707000D01*
X103683000Y-135707000D01*
X103683000Y-135687000D01*
X103663000Y-135687000D01*
X103663000Y-135433000D01*
X103683000Y-135433000D01*
X103683000Y-135413000D01*
X103937000Y-135413000D01*
X103937000Y-135433000D01*
X105429915Y-135433000D01*
X105551904Y-135210961D01*
X105534367Y-135128182D01*
X105423715Y-134868354D01*
X105264500Y-134635105D01*
X105062839Y-134437399D01*
X104830586Y-134285517D01*
X104962754Y-134215242D01*
X105179787Y-134038234D01*
X105358306Y-133822442D01*
X105491511Y-133576085D01*
X105545106Y-133402944D01*
X107284025Y-133402944D01*
X107341924Y-133593826D01*
X107483618Y-133884815D01*
X107679358Y-134142569D01*
X107921623Y-134357184D01*
X108201102Y-134520411D01*
X108507055Y-134625978D01*
X108763000Y-134507362D01*
X108763000Y-133147000D01*
X109017000Y-133147000D01*
X109017000Y-134507362D01*
X109272945Y-134625978D01*
X109578898Y-134520411D01*
X109858377Y-134357184D01*
X110100642Y-134142569D01*
X110296382Y-133884815D01*
X110438076Y-133593826D01*
X110495975Y-133402944D01*
X110376836Y-133147000D01*
X109017000Y-133147000D01*
X108763000Y-133147000D01*
X107403164Y-133147000D01*
X107284025Y-133402944D01*
X105545106Y-133402944D01*
X105574327Y-133308547D01*
X105603602Y-133030018D01*
X105578219Y-132751108D01*
X105499146Y-132482440D01*
X105369394Y-132234247D01*
X105193905Y-132015983D01*
X104979365Y-131835962D01*
X104822585Y-131749772D01*
X104962754Y-131675242D01*
X105179787Y-131498234D01*
X105358306Y-131282442D01*
X105491511Y-131036085D01*
X105574327Y-130768547D01*
X105603602Y-130490018D01*
X105578219Y-130211108D01*
X105499146Y-129942440D01*
X105369394Y-129694247D01*
X105193905Y-129475983D01*
X105179625Y-129464000D01*
X107235928Y-129464000D01*
X107235928Y-131496000D01*
X107243992Y-131597121D01*
X107297106Y-131768634D01*
X107395900Y-131918559D01*
X107532550Y-132035025D01*
X107564076Y-132049236D01*
X107483618Y-132155185D01*
X107341924Y-132446174D01*
X107284025Y-132637056D01*
X107403164Y-132893000D01*
X108763000Y-132893000D01*
X108763000Y-132873000D01*
X109017000Y-132873000D01*
X109017000Y-132893000D01*
X110376836Y-132893000D01*
X110495975Y-132637056D01*
X110438076Y-132446174D01*
X110296382Y-132155185D01*
X110215461Y-132048627D01*
X110328559Y-131974100D01*
X110445025Y-131837450D01*
X110518810Y-131673763D01*
X110544072Y-131496000D01*
X110544072Y-129464000D01*
X110536008Y-129362879D01*
X110482894Y-129191366D01*
X110384100Y-129041441D01*
X110247450Y-128924975D01*
X110083763Y-128851190D01*
X109906000Y-128825928D01*
X107874000Y-128825928D01*
X107772879Y-128833992D01*
X107601366Y-128887106D01*
X107451441Y-128985900D01*
X107334975Y-129122550D01*
X107261190Y-129286237D01*
X107235928Y-129464000D01*
X105179625Y-129464000D01*
X104979365Y-129295962D01*
X104822585Y-129209772D01*
X104962754Y-129135242D01*
X105179787Y-128958234D01*
X105358306Y-128742442D01*
X105371920Y-128717263D01*
X105409643Y-128713963D01*
X105413618Y-128712808D01*
X105417740Y-128712404D01*
X105487389Y-128691376D01*
X105557215Y-128671090D01*
X105560890Y-128669185D01*
X105564855Y-128667988D01*
X105629115Y-128633820D01*
X105693648Y-128600369D01*
X105696881Y-128597788D01*
X105700541Y-128595842D01*
X105756943Y-128549842D01*
X105813748Y-128504495D01*
X105819511Y-128498812D01*
X105819629Y-128498716D01*
X105819719Y-128498607D01*
X105821576Y-128496776D01*
X106906776Y-127411576D01*
X106952944Y-127355370D01*
X106999694Y-127299655D01*
X107001689Y-127296027D01*
X107004317Y-127292827D01*
X107038695Y-127228713D01*
X107073727Y-127164990D01*
X107074979Y-127161045D01*
X107076936Y-127157394D01*
X107098215Y-127087794D01*
X107120193Y-127018510D01*
X107120654Y-127014399D01*
X107121866Y-127010435D01*
X107129225Y-126937991D01*
X107137323Y-126865794D01*
X107137380Y-126857709D01*
X107137396Y-126857548D01*
X107137382Y-126857398D01*
X107137400Y-126854800D01*
X107137400Y-117614166D01*
X114150000Y-111069074D01*
X114150000Y-112248507D01*
X111929254Y-114469254D01*
X111865370Y-114547027D01*
X111800626Y-114624186D01*
X111797864Y-114629211D01*
X111794227Y-114633638D01*
X111746672Y-114722327D01*
X111698142Y-114810603D01*
X111696408Y-114816070D01*
X111693701Y-114821118D01*
X111664271Y-114917377D01*
X111633819Y-115013376D01*
X111633180Y-115019072D01*
X111631504Y-115024554D01*
X111621331Y-115124706D01*
X111610106Y-115224781D01*
X111610028Y-115235989D01*
X111610007Y-115236195D01*
X111610025Y-115236387D01*
X111610000Y-115240000D01*
X111610000Y-123064507D01*
X110364508Y-124310000D01*
X110071657Y-124310000D01*
X109897048Y-124163485D01*
X109837413Y-124130701D01*
X109879701Y-124108216D01*
X110106353Y-123923363D01*
X110292784Y-123698006D01*
X110431892Y-123440731D01*
X110518379Y-123161335D01*
X110548951Y-122870462D01*
X110522444Y-122579190D01*
X110439866Y-122298615D01*
X110304363Y-122039422D01*
X110121097Y-121811485D01*
X110092220Y-121787255D01*
X110178634Y-121760494D01*
X110328559Y-121661700D01*
X110445025Y-121525050D01*
X110518810Y-121361363D01*
X110544072Y-121183600D01*
X110544072Y-119456400D01*
X110536008Y-119355279D01*
X110482894Y-119183766D01*
X110384100Y-119033841D01*
X110247450Y-118917375D01*
X110083763Y-118843590D01*
X109906000Y-118818328D01*
X107874000Y-118818328D01*
X107772879Y-118826392D01*
X107601366Y-118879506D01*
X107451441Y-118978300D01*
X107334975Y-119114950D01*
X107261190Y-119278637D01*
X107235928Y-119456400D01*
X107235928Y-121183600D01*
X107243992Y-121284721D01*
X107297106Y-121456234D01*
X107395900Y-121606159D01*
X107532550Y-121722625D01*
X107681867Y-121789933D01*
X107673647Y-121796637D01*
X107487216Y-122021994D01*
X107348108Y-122279269D01*
X107261621Y-122558665D01*
X107231049Y-122849538D01*
X107257556Y-123140810D01*
X107340134Y-123421385D01*
X107475637Y-123680578D01*
X107658903Y-123908515D01*
X107882952Y-124096515D01*
X107942587Y-124129299D01*
X107900299Y-124151784D01*
X107673647Y-124336637D01*
X107487216Y-124561994D01*
X107348108Y-124819269D01*
X107261621Y-125098665D01*
X107231049Y-125389538D01*
X107257556Y-125680810D01*
X107340134Y-125961385D01*
X107475637Y-126220578D01*
X107658903Y-126448515D01*
X107882952Y-126636515D01*
X108139251Y-126777416D01*
X108418036Y-126865852D01*
X108708688Y-126898454D01*
X108729612Y-126898600D01*
X109050388Y-126898600D01*
X109341468Y-126870059D01*
X109621460Y-126785525D01*
X109879701Y-126648216D01*
X110073693Y-126490000D01*
X110816000Y-126490000D01*
X110916184Y-126480177D01*
X111016507Y-126471400D01*
X111022014Y-126469800D01*
X111027715Y-126469241D01*
X111124047Y-126440157D01*
X111220791Y-126412050D01*
X111225882Y-126409411D01*
X111231367Y-126407755D01*
X111320255Y-126360492D01*
X111409656Y-126314151D01*
X111414135Y-126310576D01*
X111419197Y-126307884D01*
X111497209Y-126244259D01*
X111575910Y-126181433D01*
X111583887Y-126173566D01*
X111584051Y-126173432D01*
X111584177Y-126173280D01*
X111586746Y-126170746D01*
X113470746Y-124286747D01*
X113534646Y-124208953D01*
X113599374Y-124131814D01*
X113602137Y-124126789D01*
X113605772Y-124122363D01*
X113653318Y-124033691D01*
X113701858Y-123945397D01*
X113703592Y-123939930D01*
X113706299Y-123934882D01*
X113735715Y-123838664D01*
X113766181Y-123742624D01*
X113766820Y-123736923D01*
X113768495Y-123731446D01*
X113778663Y-123631343D01*
X113789894Y-123531219D01*
X113789972Y-123520011D01*
X113789993Y-123519805D01*
X113789975Y-123519613D01*
X113790000Y-123516000D01*
X113790000Y-115691492D01*
X116010746Y-113470747D01*
X116074646Y-113392953D01*
X116139374Y-113315814D01*
X116142137Y-113310789D01*
X116145772Y-113306363D01*
X116193318Y-113217691D01*
X116241858Y-113129397D01*
X116243592Y-113123930D01*
X116246299Y-113118882D01*
X116275719Y-113022652D01*
X116306181Y-112926624D01*
X116306820Y-112920925D01*
X116308495Y-112915447D01*
X116318664Y-112815338D01*
X116329894Y-112715219D01*
X116329972Y-112704011D01*
X116329993Y-112703805D01*
X116329975Y-112703613D01*
X116330000Y-112700000D01*
X116330000Y-102891363D01*
X116635000Y-102891363D01*
X116635000Y-103608637D01*
X116662329Y-103887363D01*
X116743276Y-104155473D01*
X116874758Y-104402754D01*
X117051766Y-104619787D01*
X117267558Y-104798306D01*
X117513915Y-104931511D01*
X117781453Y-105014327D01*
X118059982Y-105043602D01*
X118338892Y-105018219D01*
X118607560Y-104939146D01*
X118855753Y-104809394D01*
X119074017Y-104633905D01*
X119254038Y-104419365D01*
X119388959Y-104173944D01*
X119473642Y-103906990D01*
X119504860Y-103628673D01*
X119505000Y-103608637D01*
X119505000Y-103377000D01*
X121135000Y-103377000D01*
X121135000Y-103727000D01*
X121187350Y-104004514D01*
X121292834Y-104266483D01*
X121447399Y-104502839D01*
X121645105Y-104704500D01*
X121878354Y-104863715D01*
X122138182Y-104974367D01*
X122220961Y-104991904D01*
X122443000Y-104869915D01*
X122443000Y-103377000D01*
X121135000Y-103377000D01*
X119505000Y-103377000D01*
X119505000Y-102891363D01*
X119493395Y-102773000D01*
X121135000Y-102773000D01*
X121135000Y-103123000D01*
X122443000Y-103123000D01*
X122443000Y-101630085D01*
X122220961Y-101508096D01*
X122138182Y-101525633D01*
X121878354Y-101636285D01*
X121645105Y-101795500D01*
X121447399Y-101997161D01*
X121292834Y-102233517D01*
X121187350Y-102495486D01*
X121135000Y-102773000D01*
X119493395Y-102773000D01*
X119477671Y-102612637D01*
X119396724Y-102344527D01*
X119265242Y-102097246D01*
X119088234Y-101880213D01*
X118872442Y-101701694D01*
X118626085Y-101568489D01*
X118358547Y-101485673D01*
X118080018Y-101456398D01*
X117801108Y-101481781D01*
X117532440Y-101560854D01*
X117284247Y-101690606D01*
X117065983Y-101866095D01*
X116885962Y-102080635D01*
X116751041Y-102326056D01*
X116666358Y-102593010D01*
X116635140Y-102871327D01*
X116635000Y-102891363D01*
X116330000Y-102891363D01*
X116330000Y-96391363D01*
X116635000Y-96391363D01*
X116635000Y-97108637D01*
X116662329Y-97387363D01*
X116743276Y-97655473D01*
X116874758Y-97902754D01*
X117051766Y-98119787D01*
X117267558Y-98298306D01*
X117513915Y-98431511D01*
X117781453Y-98514327D01*
X118059982Y-98543602D01*
X118338892Y-98518219D01*
X118607560Y-98439146D01*
X118855753Y-98309394D01*
X119074017Y-98133905D01*
X119254038Y-97919365D01*
X119388959Y-97673944D01*
X119473642Y-97406990D01*
X119504860Y-97128673D01*
X119505000Y-97108637D01*
X119505000Y-96877000D01*
X121135000Y-96877000D01*
X121135000Y-97227000D01*
X121187350Y-97504514D01*
X121292834Y-97766483D01*
X121447399Y-98002839D01*
X121645105Y-98204500D01*
X121878354Y-98363715D01*
X122138182Y-98474367D01*
X122220961Y-98491904D01*
X122443000Y-98369915D01*
X122443000Y-96877000D01*
X121135000Y-96877000D01*
X119505000Y-96877000D01*
X119505000Y-96391363D01*
X119493395Y-96273000D01*
X121135000Y-96273000D01*
X121135000Y-96623000D01*
X122443000Y-96623000D01*
X122443000Y-95130085D01*
X122220961Y-95008096D01*
X122138182Y-95025633D01*
X121878354Y-95136285D01*
X121645105Y-95295500D01*
X121447399Y-95497161D01*
X121292834Y-95733517D01*
X121187350Y-95995486D01*
X121135000Y-96273000D01*
X119493395Y-96273000D01*
X119477671Y-96112637D01*
X119396724Y-95844527D01*
X119265242Y-95597246D01*
X119088234Y-95380213D01*
X118872442Y-95201694D01*
X118626085Y-95068489D01*
X118358547Y-94985673D01*
X118080018Y-94956398D01*
X117801108Y-94981781D01*
X117532440Y-95060854D01*
X117284247Y-95190606D01*
X117065983Y-95366095D01*
X116885962Y-95580635D01*
X116751041Y-95826056D01*
X116666358Y-96093010D01*
X116635140Y-96371327D01*
X116635000Y-96391363D01*
X116330000Y-96391363D01*
X116330000Y-90135102D01*
X116320177Y-90034918D01*
X116311400Y-89934595D01*
X116309800Y-89929088D01*
X116309241Y-89923387D01*
X116280157Y-89827055D01*
X116252050Y-89730311D01*
X116249411Y-89725220D01*
X116247755Y-89719735D01*
X116200492Y-89630847D01*
X116154151Y-89541446D01*
X116150576Y-89536967D01*
X116147884Y-89531905D01*
X116084259Y-89453893D01*
X116021433Y-89375192D01*
X116013563Y-89367211D01*
X116013432Y-89367051D01*
X116013284Y-89366928D01*
X116010747Y-89364356D01*
X113175644Y-86529254D01*
X113097871Y-86465370D01*
X113020712Y-86400626D01*
X113015687Y-86397864D01*
X113011260Y-86394227D01*
X112922571Y-86346672D01*
X112834295Y-86298142D01*
X112828828Y-86296408D01*
X112823780Y-86293701D01*
X112727521Y-86264271D01*
X112631522Y-86233819D01*
X112625826Y-86233180D01*
X112620344Y-86231504D01*
X112520192Y-86221331D01*
X112420117Y-86210106D01*
X112408909Y-86210028D01*
X112408703Y-86210007D01*
X112408511Y-86210025D01*
X112404898Y-86210000D01*
X112144118Y-86210000D01*
X112009642Y-86007597D01*
X111728434Y-85724419D01*
X111397578Y-85501254D01*
X111029677Y-85346603D01*
X110638745Y-85266356D01*
X110239670Y-85263570D01*
X109847655Y-85338351D01*
X109477631Y-85487850D01*
X109143692Y-85706374D01*
X108858557Y-85985598D01*
X108704906Y-86210000D01*
X91294118Y-86210000D01*
X91159642Y-86007597D01*
X90878434Y-85724419D01*
X90547578Y-85501254D01*
X90179677Y-85346603D01*
X89788745Y-85266356D01*
X89389670Y-85263570D01*
X88997655Y-85338351D01*
X88627631Y-85487850D01*
X88293692Y-85706374D01*
X88008557Y-85985598D01*
X87783088Y-86314888D01*
X87625872Y-86681700D01*
X87542898Y-87072063D01*
X87537326Y-87471108D01*
X87609368Y-87863636D01*
X87756280Y-88234695D01*
X87972468Y-88570152D01*
X88249695Y-88857229D01*
X88577402Y-89084991D01*
X88943108Y-89244764D01*
X89332882Y-89330462D01*
X89731879Y-89338819D01*
X90124900Y-89269519D01*
X90496975Y-89125201D01*
X90833933Y-88911361D01*
X91122938Y-88636145D01*
X91296574Y-88390000D01*
X108706368Y-88390000D01*
X108822468Y-88570152D01*
X109099695Y-88857229D01*
X109427402Y-89084991D01*
X109793108Y-89244764D01*
X110182882Y-89330462D01*
X110581879Y-89338819D01*
X110974900Y-89269519D01*
X111346975Y-89125201D01*
X111683933Y-88911361D01*
X111972938Y-88636145D01*
X112066673Y-88503267D01*
X114150000Y-90586595D01*
X114150000Y-101885038D01*
X113754190Y-101591295D01*
X113764327Y-101558547D01*
X113793602Y-101280018D01*
X113768219Y-101001108D01*
X113689146Y-100732440D01*
X113559394Y-100484247D01*
X113383905Y-100265983D01*
X113169365Y-100085962D01*
X113012585Y-99999772D01*
X113152754Y-99925242D01*
X113369787Y-99748234D01*
X113548306Y-99532442D01*
X113681511Y-99286085D01*
X113764327Y-99018547D01*
X113793602Y-98740018D01*
X113768219Y-98461108D01*
X113689146Y-98192440D01*
X113559394Y-97944247D01*
X113383905Y-97725983D01*
X113169365Y-97545962D01*
X113012585Y-97459772D01*
X113152754Y-97385242D01*
X113369787Y-97208234D01*
X113548306Y-96992442D01*
X113681511Y-96746085D01*
X113764327Y-96478547D01*
X113793602Y-96200018D01*
X113768219Y-95921108D01*
X113689146Y-95652440D01*
X113559394Y-95404247D01*
X113383905Y-95185983D01*
X113169365Y-95005962D01*
X113012585Y-94919772D01*
X113152754Y-94845242D01*
X113369787Y-94668234D01*
X113548306Y-94452442D01*
X113681511Y-94206085D01*
X113764327Y-93938547D01*
X113793602Y-93660018D01*
X113768219Y-93381108D01*
X113689146Y-93112440D01*
X113559394Y-92864247D01*
X113383905Y-92645983D01*
X113169365Y-92465962D01*
X113012585Y-92379772D01*
X113152754Y-92305242D01*
X113369787Y-92128234D01*
X113548306Y-91912442D01*
X113681511Y-91666085D01*
X113764327Y-91398547D01*
X113793602Y-91120018D01*
X113768219Y-90841108D01*
X113689146Y-90572440D01*
X113559394Y-90324247D01*
X113383905Y-90105983D01*
X113169365Y-89925962D01*
X112923944Y-89791041D01*
X112656990Y-89706358D01*
X112378673Y-89675140D01*
X112358637Y-89675000D01*
X111641363Y-89675000D01*
X111362637Y-89702329D01*
X111094527Y-89783276D01*
X110847246Y-89914758D01*
X110630213Y-90091766D01*
X110451694Y-90307558D01*
X110318489Y-90553915D01*
X110235673Y-90821453D01*
X110206398Y-91099982D01*
X110231781Y-91378892D01*
X110310854Y-91647560D01*
X110440606Y-91895753D01*
X110616095Y-92114017D01*
X110830635Y-92294038D01*
X110987415Y-92380228D01*
X110847246Y-92454758D01*
X110630213Y-92631766D01*
X110451694Y-92847558D01*
X110318489Y-93093915D01*
X110235673Y-93361453D01*
X110206398Y-93639982D01*
X110227710Y-93874158D01*
X109803603Y-93450051D01*
X109789425Y-93378448D01*
X109719550Y-93208920D01*
X109618079Y-93056193D01*
X109488875Y-92926084D01*
X109336860Y-92823549D01*
X109167825Y-92752493D01*
X108988207Y-92715623D01*
X108804849Y-92714343D01*
X108624733Y-92748701D01*
X108454722Y-92817390D01*
X108301291Y-92917793D01*
X108170283Y-93046086D01*
X108066689Y-93197381D01*
X107994454Y-93365916D01*
X107956331Y-93545272D01*
X107953771Y-93728617D01*
X107986872Y-93908968D01*
X108054372Y-94079454D01*
X108153701Y-94233583D01*
X108281076Y-94365484D01*
X108431644Y-94470131D01*
X108599671Y-94543540D01*
X108689806Y-94563358D01*
X109372600Y-95246152D01*
X109372600Y-97927656D01*
X109336860Y-97903549D01*
X109167825Y-97832493D01*
X108988207Y-97795623D01*
X108804849Y-97794343D01*
X108624733Y-97828701D01*
X108454722Y-97897390D01*
X108407400Y-97928357D01*
X108407400Y-97460000D01*
X108400302Y-97387612D01*
X108393963Y-97315157D01*
X108392808Y-97311182D01*
X108392404Y-97307060D01*
X108371376Y-97237411D01*
X108351090Y-97167585D01*
X108349185Y-97163910D01*
X108347988Y-97159945D01*
X108313820Y-97095685D01*
X108280369Y-97031152D01*
X108277788Y-97027919D01*
X108275842Y-97024259D01*
X108229842Y-96967857D01*
X108184495Y-96911052D01*
X108178812Y-96905289D01*
X108178716Y-96905171D01*
X108178607Y-96905081D01*
X108176776Y-96903224D01*
X107263603Y-95990051D01*
X107249425Y-95918448D01*
X107179550Y-95748920D01*
X107078079Y-95596193D01*
X106948875Y-95466084D01*
X106796860Y-95363549D01*
X106627825Y-95292493D01*
X106448207Y-95255623D01*
X106264849Y-95254343D01*
X106084733Y-95288701D01*
X105914722Y-95357390D01*
X105761291Y-95457793D01*
X105630283Y-95586086D01*
X105526689Y-95737381D01*
X105454454Y-95905916D01*
X105416331Y-96085272D01*
X105413771Y-96268617D01*
X105446872Y-96448968D01*
X105514372Y-96619454D01*
X105613701Y-96773583D01*
X105741076Y-96905484D01*
X105891644Y-97010131D01*
X106059671Y-97083540D01*
X106149806Y-97103358D01*
X106832600Y-97786152D01*
X106832600Y-104277656D01*
X106796860Y-104253549D01*
X106627825Y-104182493D01*
X106448207Y-104145623D01*
X106264849Y-104144343D01*
X106084733Y-104178701D01*
X105914722Y-104247390D01*
X105867400Y-104278357D01*
X105867400Y-102540000D01*
X105860302Y-102467612D01*
X105853963Y-102395157D01*
X105852808Y-102391182D01*
X105852404Y-102387060D01*
X105831376Y-102317411D01*
X105811090Y-102247585D01*
X105809185Y-102243910D01*
X105807988Y-102239945D01*
X105773820Y-102175685D01*
X105740369Y-102111152D01*
X105737788Y-102107919D01*
X105735842Y-102104259D01*
X105689842Y-102047857D01*
X105644495Y-101991052D01*
X105638812Y-101985289D01*
X105638716Y-101985171D01*
X105638607Y-101985081D01*
X105636776Y-101983224D01*
X104723603Y-101070051D01*
X104709425Y-100998448D01*
X104639550Y-100828920D01*
X104538079Y-100676193D01*
X104408875Y-100546084D01*
X104256860Y-100443549D01*
X104087825Y-100372493D01*
X103908207Y-100335623D01*
X103724849Y-100334343D01*
X103544733Y-100368701D01*
X103374722Y-100437390D01*
X103221291Y-100537793D01*
X103090283Y-100666086D01*
X102986689Y-100817381D01*
X102914454Y-100985916D01*
X102876331Y-101165272D01*
X102873771Y-101348617D01*
X102906872Y-101528968D01*
X102974372Y-101699454D01*
X102982191Y-101711586D01*
X102817825Y-101642493D01*
X102638207Y-101605623D01*
X102454849Y-101604343D01*
X102274733Y-101638701D01*
X102104722Y-101707390D01*
X101951291Y-101807793D01*
X101820283Y-101936086D01*
X101716689Y-102087381D01*
X101644454Y-102255916D01*
X101626618Y-102339830D01*
X100736931Y-103229517D01*
X100728079Y-103216193D01*
X100598875Y-103086084D01*
X100446860Y-102983549D01*
X100277825Y-102912493D01*
X100098207Y-102875623D01*
X99914849Y-102874343D01*
X99734733Y-102908701D01*
X99564722Y-102977390D01*
X99517400Y-103008357D01*
X99517400Y-101596152D01*
X100199215Y-100914337D01*
X100252657Y-100904914D01*
X100423610Y-100838606D01*
X100578429Y-100740355D01*
X100711215Y-100613904D01*
X100816911Y-100464070D01*
X100891492Y-100296560D01*
X100932116Y-100117754D01*
X100935040Y-99908319D01*
X100899425Y-99728448D01*
X100829550Y-99558920D01*
X100728079Y-99406193D01*
X100598875Y-99276084D01*
X100446860Y-99173549D01*
X100277825Y-99102493D01*
X100098207Y-99065623D01*
X99914849Y-99064343D01*
X99734733Y-99098701D01*
X99564722Y-99167390D01*
X99411291Y-99267793D01*
X99280283Y-99396086D01*
X99176689Y-99547381D01*
X99104454Y-99715916D01*
X99086618Y-99799830D01*
X98173224Y-100713224D01*
X98127056Y-100769430D01*
X98080306Y-100825145D01*
X98078311Y-100828773D01*
X98075683Y-100831973D01*
X98041305Y-100896087D01*
X98006273Y-100959810D01*
X98005021Y-100963755D01*
X98003064Y-100967406D01*
X97981785Y-101037006D01*
X97959807Y-101106290D01*
X97959346Y-101110401D01*
X97958134Y-101114365D01*
X97950780Y-101186769D01*
X97942677Y-101259006D01*
X97942620Y-101267100D01*
X97942605Y-101267251D01*
X97942618Y-101267391D01*
X97942600Y-101270000D01*
X97942600Y-107325656D01*
X97906860Y-107301549D01*
X97737825Y-107230493D01*
X97558207Y-107193623D01*
X97374849Y-107192343D01*
X97194733Y-107226701D01*
X97024722Y-107295390D01*
X96977400Y-107326357D01*
X96977400Y-96516152D01*
X97659215Y-95834337D01*
X97712657Y-95824914D01*
X97883610Y-95758606D01*
X98038429Y-95660355D01*
X98171215Y-95533904D01*
X98276911Y-95384070D01*
X98351492Y-95216560D01*
X98392116Y-95037754D01*
X98395040Y-94828319D01*
X98359425Y-94648448D01*
X98289550Y-94478920D01*
X98188079Y-94326193D01*
X98058875Y-94196084D01*
X97906860Y-94093549D01*
X97737825Y-94022493D01*
X97558207Y-93985623D01*
X97374849Y-93984343D01*
X97194733Y-94018701D01*
X97024722Y-94087390D01*
X96871291Y-94187793D01*
X96740283Y-94316086D01*
X96636689Y-94467381D01*
X96564454Y-94635916D01*
X96546618Y-94719830D01*
X95633224Y-95633224D01*
X95587056Y-95689430D01*
X95540306Y-95745145D01*
X95538311Y-95748773D01*
X95535683Y-95751973D01*
X95501305Y-95816087D01*
X95466273Y-95879810D01*
X95465021Y-95883755D01*
X95463064Y-95887406D01*
X95441785Y-95957006D01*
X95419807Y-96026290D01*
X95419346Y-96030401D01*
X95418134Y-96034365D01*
X95410780Y-96106769D01*
X95402677Y-96179006D01*
X95402620Y-96187100D01*
X95402605Y-96187251D01*
X95402618Y-96187391D01*
X95402600Y-96190000D01*
X95402600Y-110627656D01*
X95366860Y-110603549D01*
X95197825Y-110532493D01*
X95018207Y-110495623D01*
X94834849Y-110494343D01*
X94654733Y-110528701D01*
X94484722Y-110597390D01*
X94437400Y-110628357D01*
X94437400Y-92380000D01*
X94430302Y-92307612D01*
X94423963Y-92235157D01*
X94422808Y-92231182D01*
X94422404Y-92227060D01*
X94401376Y-92157411D01*
X94381090Y-92087585D01*
X94379185Y-92083910D01*
X94377988Y-92079945D01*
X94343820Y-92015685D01*
X94310369Y-91951152D01*
X94307788Y-91947919D01*
X94305842Y-91944259D01*
X94259842Y-91887857D01*
X94214495Y-91831052D01*
X94208812Y-91825289D01*
X94208716Y-91825171D01*
X94208607Y-91825081D01*
X94206776Y-91823224D01*
X93293603Y-90910051D01*
X93279425Y-90838448D01*
X93209550Y-90668920D01*
X93108079Y-90516193D01*
X92978875Y-90386084D01*
X92826860Y-90283549D01*
X92657825Y-90212493D01*
X92478207Y-90175623D01*
X92294849Y-90174343D01*
X92114733Y-90208701D01*
X91944722Y-90277390D01*
X91791291Y-90377793D01*
X91660283Y-90506086D01*
X91556689Y-90657381D01*
X91484454Y-90825916D01*
X91446331Y-91005272D01*
X91443771Y-91188617D01*
X91476872Y-91368968D01*
X91544372Y-91539454D01*
X91643701Y-91693583D01*
X91692709Y-91744332D01*
X91660283Y-91776086D01*
X91556689Y-91927381D01*
X91484454Y-92095916D01*
X91466618Y-92179830D01*
X90553224Y-93093224D01*
X90507056Y-93149430D01*
X90460306Y-93205145D01*
X90458311Y-93208773D01*
X90455683Y-93211973D01*
X90421305Y-93276087D01*
X90386273Y-93339810D01*
X90385021Y-93343755D01*
X90383064Y-93347406D01*
X90361785Y-93417006D01*
X90339807Y-93486290D01*
X90339346Y-93490401D01*
X90338134Y-93494365D01*
X90330780Y-93566769D01*
X90322677Y-93639006D01*
X90322620Y-93647100D01*
X90322605Y-93647251D01*
X90322618Y-93647391D01*
X90322600Y-93650000D01*
X90322600Y-99939048D01*
X89677344Y-99293792D01*
X89681511Y-99286085D01*
X89764327Y-99018547D01*
X89793602Y-98740018D01*
X89768219Y-98461108D01*
X89689146Y-98192440D01*
X89559394Y-97944247D01*
X89383905Y-97725983D01*
X89169365Y-97545962D01*
X89012585Y-97459772D01*
X89152754Y-97385242D01*
X89369787Y-97208234D01*
X89548306Y-96992442D01*
X89681511Y-96746085D01*
X89764327Y-96478547D01*
X89793602Y-96200018D01*
X89768219Y-95921108D01*
X89689146Y-95652440D01*
X89559394Y-95404247D01*
X89383905Y-95185983D01*
X89169365Y-95005962D01*
X89012585Y-94919772D01*
X89152754Y-94845242D01*
X89369787Y-94668234D01*
X89548306Y-94452442D01*
X89681511Y-94206085D01*
X89764327Y-93938547D01*
X89793602Y-93660018D01*
X89768219Y-93381108D01*
X89689146Y-93112440D01*
X89559394Y-92864247D01*
X89383905Y-92645983D01*
X89169365Y-92465962D01*
X89012585Y-92379772D01*
X89152754Y-92305242D01*
X89369787Y-92128234D01*
X89548306Y-91912442D01*
X89681511Y-91666085D01*
X89764327Y-91398547D01*
X89793602Y-91120018D01*
X89768219Y-90841108D01*
X89689146Y-90572440D01*
X89559394Y-90324247D01*
X89383905Y-90105983D01*
X89169365Y-89925962D01*
X88923944Y-89791041D01*
X88656990Y-89706358D01*
X88378673Y-89675140D01*
X88358637Y-89675000D01*
X87641363Y-89675000D01*
X87362637Y-89702329D01*
X87094527Y-89783276D01*
X86847246Y-89914758D01*
X86630213Y-90091766D01*
X86451694Y-90307558D01*
X86318489Y-90553915D01*
X86235673Y-90821453D01*
X86206398Y-91099982D01*
X86231781Y-91378892D01*
X86310854Y-91647560D01*
X86440606Y-91895753D01*
X86616095Y-92114017D01*
X86830635Y-92294038D01*
X86987415Y-92380228D01*
X86847246Y-92454758D01*
X86630213Y-92631766D01*
X86451694Y-92847558D01*
X86318489Y-93093915D01*
X86235673Y-93361453D01*
X86206398Y-93639982D01*
X86231781Y-93918892D01*
X86310854Y-94187560D01*
X86440606Y-94435753D01*
X86616095Y-94654017D01*
X86830635Y-94834038D01*
X86987415Y-94920228D01*
X86847246Y-94994758D01*
X86630213Y-95171766D01*
X86451694Y-95387558D01*
X86318489Y-95633915D01*
X86235673Y-95901453D01*
X86206398Y-96179982D01*
X86231781Y-96458892D01*
X86310854Y-96727560D01*
X86440606Y-96975753D01*
X86616095Y-97194017D01*
X86830635Y-97374038D01*
X86987415Y-97460228D01*
X86847246Y-97534758D01*
X86630213Y-97711766D01*
X86451694Y-97927558D01*
X86318489Y-98173915D01*
X86235673Y-98441453D01*
X86206398Y-98719982D01*
X86231781Y-98998892D01*
X86310854Y-99267560D01*
X86440606Y-99515753D01*
X86616095Y-99734017D01*
X86830635Y-99914038D01*
X86987415Y-100000228D01*
X86847246Y-100074758D01*
X86630213Y-100251766D01*
X86451694Y-100467558D01*
X86318489Y-100713915D01*
X86235673Y-100981453D01*
X86206398Y-101259982D01*
X86231781Y-101538892D01*
X86310854Y-101807560D01*
X86440606Y-102055753D01*
X86616095Y-102274017D01*
X86830635Y-102454038D01*
X86987415Y-102540228D01*
X86847246Y-102614758D01*
X86630213Y-102791766D01*
X86451694Y-103007558D01*
X86318489Y-103253915D01*
X86235673Y-103521453D01*
X86206398Y-103799982D01*
X86231781Y-104078892D01*
X86310854Y-104347560D01*
X86440606Y-104595753D01*
X86616095Y-104814017D01*
X86830635Y-104994038D01*
X86987415Y-105080228D01*
X86847246Y-105154758D01*
X86630213Y-105331766D01*
X86451694Y-105547558D01*
X86318489Y-105793915D01*
X86235673Y-106061453D01*
X86206398Y-106339982D01*
X86231781Y-106618892D01*
X86310854Y-106887560D01*
X86440606Y-107135753D01*
X86616095Y-107354017D01*
X86830635Y-107534038D01*
X86987415Y-107620228D01*
X86847246Y-107694758D01*
X86630213Y-107871766D01*
X86451694Y-108087558D01*
X86318489Y-108333915D01*
X86235673Y-108601453D01*
X86206398Y-108879982D01*
X86231781Y-109158892D01*
X86310854Y-109427560D01*
X86440606Y-109675753D01*
X86616095Y-109894017D01*
X86830635Y-110074038D01*
X87076056Y-110208959D01*
X87343010Y-110293642D01*
X87621327Y-110324860D01*
X87641363Y-110325000D01*
X88358637Y-110325000D01*
X88637363Y-110297671D01*
X88905473Y-110216724D01*
X89052600Y-110138495D01*
X89052600Y-112700000D01*
X89059698Y-112772392D01*
X89066037Y-112844843D01*
X89067192Y-112848818D01*
X89067596Y-112852940D01*
X89088624Y-112922589D01*
X89108910Y-112992415D01*
X89110815Y-112996090D01*
X89112012Y-113000055D01*
X89146180Y-113064315D01*
X89179631Y-113128848D01*
X89182212Y-113132081D01*
X89184158Y-113135741D01*
X89230158Y-113192143D01*
X89275505Y-113248948D01*
X89281188Y-113254711D01*
X89281284Y-113254829D01*
X89281393Y-113254919D01*
X89283224Y-113256776D01*
X92354600Y-116328152D01*
X92354600Y-117983591D01*
X92156905Y-117784510D01*
X91891165Y-117605266D01*
X91595671Y-117481052D01*
X91281677Y-117416598D01*
X90961145Y-117414360D01*
X90646283Y-117474424D01*
X90349083Y-117594500D01*
X90080867Y-117770016D01*
X89851849Y-117994286D01*
X89670755Y-118258768D01*
X89544481Y-118553388D01*
X89477837Y-118866924D01*
X89473361Y-119187432D01*
X89531225Y-119502707D01*
X89649223Y-119800737D01*
X89822863Y-120070172D01*
X90045529Y-120300750D01*
X90308740Y-120483686D01*
X90602471Y-120612014D01*
X90915533Y-120680846D01*
X91236003Y-120687558D01*
X91551674Y-120631897D01*
X91850521Y-120515982D01*
X92121162Y-120344228D01*
X92353288Y-120123177D01*
X92354600Y-120121317D01*
X92354600Y-125603591D01*
X92156905Y-125404510D01*
X91891165Y-125225266D01*
X91595671Y-125101052D01*
X91281677Y-125036598D01*
X90961145Y-125034360D01*
X90646283Y-125094424D01*
X90349083Y-125214500D01*
X90080867Y-125390016D01*
X89851849Y-125614286D01*
X89670755Y-125878768D01*
X89544481Y-126173388D01*
X89477837Y-126486924D01*
X89473361Y-126807432D01*
X89531225Y-127122707D01*
X89649223Y-127420737D01*
X89822863Y-127690172D01*
X90045529Y-127920750D01*
X90308740Y-128103686D01*
X90322600Y-128109741D01*
X90322600Y-128189517D01*
X90300918Y-128203705D01*
X90120870Y-128380021D01*
X89978497Y-128587951D01*
X89879223Y-128819575D01*
X89826829Y-129066069D01*
X89823310Y-129318046D01*
X89868802Y-129565908D01*
X89961570Y-129800213D01*
X90098081Y-130012037D01*
X90273136Y-130193312D01*
X90480067Y-130337133D01*
X90674156Y-130421928D01*
X90460000Y-130421928D01*
X90358879Y-130429992D01*
X90187366Y-130483106D01*
X90037441Y-130581900D01*
X89920975Y-130718550D01*
X89847190Y-130882237D01*
X89821928Y-131060000D01*
X89821928Y-132360000D01*
X89829992Y-132461121D01*
X89883106Y-132632634D01*
X89981900Y-132782559D01*
X90118550Y-132899025D01*
X90282237Y-132972810D01*
X90460000Y-132998072D01*
X91760000Y-132998072D01*
X91846600Y-132991166D01*
X91846600Y-136598328D01*
X90094000Y-136598328D01*
X89992879Y-136606392D01*
X89821366Y-136659506D01*
X89671441Y-136758300D01*
X89554975Y-136894950D01*
X89481190Y-137058637D01*
X89455928Y-137236400D01*
X89455928Y-138963600D01*
X89463992Y-139064721D01*
X89517106Y-139236234D01*
X89615900Y-139386159D01*
X89752550Y-139502625D01*
X89901867Y-139569933D01*
X89893647Y-139576637D01*
X89707216Y-139801994D01*
X89568108Y-140059269D01*
X89481621Y-140338665D01*
X89451049Y-140629538D01*
X89477556Y-140920810D01*
X89560134Y-141201385D01*
X89695637Y-141460578D01*
X89878903Y-141688515D01*
X90102952Y-141876515D01*
X90162587Y-141909299D01*
X90120299Y-141931784D01*
X89893647Y-142116637D01*
X89707216Y-142341994D01*
X89568108Y-142599269D01*
X89481621Y-142878665D01*
X89451049Y-143169538D01*
X89477556Y-143460810D01*
X89560134Y-143741385D01*
X89695637Y-144000578D01*
X89878903Y-144228515D01*
X90102952Y-144416515D01*
X90164872Y-144450556D01*
X89958271Y-144601514D01*
X89759267Y-144817965D01*
X89606314Y-145069081D01*
X89505291Y-145345211D01*
X89502642Y-145360974D01*
X89623783Y-145593000D01*
X90983000Y-145593000D01*
X90983000Y-145573000D01*
X91237000Y-145573000D01*
X91237000Y-145593000D01*
X91257000Y-145593000D01*
X91257000Y-145847000D01*
X91237000Y-145847000D01*
X91237000Y-147060925D01*
X91471914Y-147205185D01*
X91757633Y-147135773D01*
X91846600Y-147094467D01*
X91846600Y-154174000D01*
X91853698Y-154246392D01*
X91860037Y-154318843D01*
X91861192Y-154322818D01*
X91861596Y-154326940D01*
X91882624Y-154396589D01*
X91902910Y-154466415D01*
X91904815Y-154470090D01*
X91906012Y-154474055D01*
X91940180Y-154538315D01*
X91973631Y-154602848D01*
X91976212Y-154606081D01*
X91978158Y-154609741D01*
X92024158Y-154666143D01*
X92069505Y-154722948D01*
X92075188Y-154728711D01*
X92075284Y-154728829D01*
X92075393Y-154728919D01*
X92077224Y-154730776D01*
X96002209Y-158655761D01*
X95994148Y-158681173D01*
X95961546Y-158971825D01*
X95961400Y-158992749D01*
X95961400Y-159007251D01*
X95989941Y-159298331D01*
X96074475Y-159578323D01*
X96211784Y-159836564D01*
X96396637Y-160063216D01*
X96621994Y-160249647D01*
X96664534Y-160272648D01*
X96449707Y-160433146D01*
X96253183Y-160651512D01*
X96103036Y-160904022D01*
X96005037Y-161180973D01*
X96125536Y-161413000D01*
X97333000Y-161413000D01*
X97333000Y-161393000D01*
X97587000Y-161393000D01*
X97587000Y-161413000D01*
X97607000Y-161413000D01*
X97607000Y-161667000D01*
X97587000Y-161667000D01*
X97587000Y-162873817D01*
X97819026Y-162994958D01*
X97969814Y-162949222D01*
X98234944Y-162822684D01*
X98470293Y-162646854D01*
X98666817Y-162428488D01*
X98726249Y-162328539D01*
X98751784Y-162376564D01*
X98936637Y-162603216D01*
X99161994Y-162789647D01*
X99218367Y-162820128D01*
X99219698Y-162833706D01*
X99226037Y-162906157D01*
X99227192Y-162910132D01*
X99227596Y-162914254D01*
X99248624Y-162983903D01*
X99268910Y-163053729D01*
X99270815Y-163057404D01*
X99272012Y-163061369D01*
X99306180Y-163125629D01*
X99339631Y-163190162D01*
X99342212Y-163193395D01*
X99344158Y-163197055D01*
X99390158Y-163253457D01*
X99435505Y-163310262D01*
X99441188Y-163316025D01*
X99441284Y-163316143D01*
X99441393Y-163316233D01*
X99443224Y-163318090D01*
X99927910Y-163802776D01*
X99984116Y-163848944D01*
X100012785Y-163873000D01*
X97170735Y-163873000D01*
X95518050Y-163374025D01*
X95322332Y-163269960D01*
X93677213Y-161899027D01*
X96005037Y-161899027D01*
X96103036Y-162175978D01*
X96253183Y-162428488D01*
X96449707Y-162646854D01*
X96685056Y-162822684D01*
X96950186Y-162949222D01*
X97100974Y-162994958D01*
X97333000Y-162873817D01*
X97333000Y-161667000D01*
X96125536Y-161667000D01*
X96005037Y-161899027D01*
X93677213Y-161899027D01*
X90215337Y-159014131D01*
X89935180Y-158495991D01*
X88477316Y-154851332D01*
X88235171Y-152547467D01*
X88235000Y-152498575D01*
X88235000Y-146079026D01*
X89502642Y-146079026D01*
X89505291Y-146094789D01*
X89606314Y-146370919D01*
X89759267Y-146622035D01*
X89958271Y-146838486D01*
X90195679Y-147011954D01*
X90462367Y-147135773D01*
X90748086Y-147205185D01*
X90983000Y-147060925D01*
X90983000Y-145847000D01*
X89623783Y-145847000D01*
X89502642Y-146079026D01*
X88235000Y-146079026D01*
X88235000Y-138250000D01*
X88234982Y-138249816D01*
X88234982Y-138244886D01*
X88231110Y-137688394D01*
X88227621Y-137655195D01*
X88227623Y-137621821D01*
X88226551Y-137611615D01*
X88127000Y-136723697D01*
X88127000Y-132000000D01*
X88121384Y-131962651D01*
X84121384Y-118962651D01*
X84105670Y-118929553D01*
X80111666Y-112938547D01*
X76408125Y-104605580D01*
X76505105Y-104704500D01*
X76738354Y-104863715D01*
X76998182Y-104974367D01*
X77080961Y-104991904D01*
X77303000Y-104869915D01*
X77303000Y-103377000D01*
X77557000Y-103377000D01*
X77557000Y-104869915D01*
X77779039Y-104991904D01*
X77861818Y-104974367D01*
X78121646Y-104863715D01*
X78354895Y-104704500D01*
X78552601Y-104502839D01*
X78707166Y-104266483D01*
X78812650Y-104004514D01*
X78865000Y-103727000D01*
X78865000Y-103377000D01*
X77557000Y-103377000D01*
X77303000Y-103377000D01*
X77283000Y-103377000D01*
X77283000Y-103123000D01*
X77303000Y-103123000D01*
X77303000Y-101630085D01*
X77557000Y-101630085D01*
X77557000Y-103123000D01*
X78865000Y-103123000D01*
X78865000Y-102891363D01*
X80495000Y-102891363D01*
X80495000Y-103608637D01*
X80522329Y-103887363D01*
X80603276Y-104155473D01*
X80734758Y-104402754D01*
X80911766Y-104619787D01*
X81127558Y-104798306D01*
X81373915Y-104931511D01*
X81641453Y-105014327D01*
X81919982Y-105043602D01*
X82198892Y-105018219D01*
X82467560Y-104939146D01*
X82715753Y-104809394D01*
X82934017Y-104633905D01*
X83114038Y-104419365D01*
X83248959Y-104173944D01*
X83333642Y-103906990D01*
X83364860Y-103628673D01*
X83365000Y-103608637D01*
X83365000Y-102891363D01*
X83337671Y-102612637D01*
X83256724Y-102344527D01*
X83125242Y-102097246D01*
X82948234Y-101880213D01*
X82732442Y-101701694D01*
X82486085Y-101568489D01*
X82218547Y-101485673D01*
X81940018Y-101456398D01*
X81661108Y-101481781D01*
X81392440Y-101560854D01*
X81144247Y-101690606D01*
X80925983Y-101866095D01*
X80745962Y-102080635D01*
X80611041Y-102326056D01*
X80526358Y-102593010D01*
X80495140Y-102871327D01*
X80495000Y-102891363D01*
X78865000Y-102891363D01*
X78865000Y-102773000D01*
X78812650Y-102495486D01*
X78707166Y-102233517D01*
X78552601Y-101997161D01*
X78354895Y-101795500D01*
X78121646Y-101636285D01*
X77861818Y-101525633D01*
X77779039Y-101508096D01*
X77557000Y-101630085D01*
X77303000Y-101630085D01*
X77080961Y-101508096D01*
X76998182Y-101525633D01*
X76738354Y-101636285D01*
X76505105Y-101795500D01*
X76307399Y-101997161D01*
X76152834Y-102233517D01*
X76127000Y-102297676D01*
X76127000Y-97702324D01*
X76152834Y-97766483D01*
X76307399Y-98002839D01*
X76505105Y-98204500D01*
X76738354Y-98363715D01*
X76998182Y-98474367D01*
X77080961Y-98491904D01*
X77303000Y-98369915D01*
X77303000Y-96877000D01*
X77557000Y-96877000D01*
X77557000Y-98369915D01*
X77779039Y-98491904D01*
X77861818Y-98474367D01*
X78121646Y-98363715D01*
X78354895Y-98204500D01*
X78552601Y-98002839D01*
X78707166Y-97766483D01*
X78812650Y-97504514D01*
X78865000Y-97227000D01*
X78865000Y-96877000D01*
X77557000Y-96877000D01*
X77303000Y-96877000D01*
X77283000Y-96877000D01*
X77283000Y-96623000D01*
X77303000Y-96623000D01*
X77303000Y-95130085D01*
X77557000Y-95130085D01*
X77557000Y-96623000D01*
X78865000Y-96623000D01*
X78865000Y-96391363D01*
X80495000Y-96391363D01*
X80495000Y-97108637D01*
X80522329Y-97387363D01*
X80603276Y-97655473D01*
X80734758Y-97902754D01*
X80911766Y-98119787D01*
X81127558Y-98298306D01*
X81373915Y-98431511D01*
X81641453Y-98514327D01*
X81919982Y-98543602D01*
X82198892Y-98518219D01*
X82467560Y-98439146D01*
X82715753Y-98309394D01*
X82934017Y-98133905D01*
X83114038Y-97919365D01*
X83248959Y-97673944D01*
X83333642Y-97406990D01*
X83364860Y-97128673D01*
X83365000Y-97108637D01*
X83365000Y-96391363D01*
X83337671Y-96112637D01*
X83256724Y-95844527D01*
X83125242Y-95597246D01*
X82948234Y-95380213D01*
X82732442Y-95201694D01*
X82486085Y-95068489D01*
X82218547Y-94985673D01*
X81940018Y-94956398D01*
X81661108Y-94981781D01*
X81392440Y-95060854D01*
X81144247Y-95190606D01*
X80925983Y-95366095D01*
X80745962Y-95580635D01*
X80611041Y-95826056D01*
X80526358Y-96093010D01*
X80495140Y-96371327D01*
X80495000Y-96391363D01*
X78865000Y-96391363D01*
X78865000Y-96273000D01*
X78812650Y-95995486D01*
X78707166Y-95733517D01*
X78552601Y-95497161D01*
X78354895Y-95295500D01*
X78121646Y-95136285D01*
X77861818Y-95025633D01*
X77779039Y-95008096D01*
X77557000Y-95130085D01*
X77303000Y-95130085D01*
X77080961Y-95008096D01*
X76998182Y-95025633D01*
X76738354Y-95136285D01*
X76505105Y-95295500D01*
X76358954Y-95444574D01*
X80018027Y-86296893D01*
X80616439Y-85563167D01*
X85080914Y-81098692D01*
X87875701Y-79235500D01*
X88115001Y-79235500D01*
X88115001Y-83880500D01*
X111884999Y-83880500D01*
X111884999Y-79235500D01*
X88115001Y-79235500D01*
X87875701Y-79235500D01*
X89469636Y-78172877D01*
X89861721Y-77951801D01*
X89892544Y-77930205D01*
X89902459Y-77925022D01*
X89919514Y-77911309D01*
X89979202Y-77869490D01*
X90004984Y-77842589D01*
X90014253Y-77835137D01*
X90029206Y-77817317D01*
X90075623Y-77768886D01*
X91055042Y-77115940D01*
X95804727Y-75654499D01*
X95877514Y-75767442D01*
X96590675Y-76505943D01*
X97433697Y-77091858D01*
X98374469Y-77502871D01*
X99377156Y-77723326D01*
X100403567Y-77744827D01*
X101414607Y-77566553D01*
X102371765Y-77195296D01*
X103238583Y-76645197D01*
X103982044Y-75937208D01*
X104183934Y-75651010D01*
X108944958Y-77115940D01*
G36*
X94178424Y-133576776D02*
X94234630Y-133622944D01*
X94290345Y-133669694D01*
X94293973Y-133671689D01*
X94297173Y-133674317D01*
X94361287Y-133708695D01*
X94425010Y-133743727D01*
X94428955Y-133744979D01*
X94432606Y-133746936D01*
X94502206Y-133768215D01*
X94571490Y-133790193D01*
X94575601Y-133790654D01*
X94579565Y-133791866D01*
X94625801Y-133796563D01*
X94630606Y-133805753D01*
X94806095Y-134024017D01*
X95020635Y-134204038D01*
X95177415Y-134290228D01*
X95037246Y-134364758D01*
X94820213Y-134541766D01*
X94641694Y-134757558D01*
X94508489Y-135003915D01*
X94425673Y-135271453D01*
X94396398Y-135549982D01*
X94421781Y-135828892D01*
X94500854Y-136097560D01*
X94630606Y-136345753D01*
X94806095Y-136564017D01*
X95020635Y-136744038D01*
X95169154Y-136825687D01*
X94937161Y-136977399D01*
X94735500Y-137175105D01*
X94576285Y-137408354D01*
X94465633Y-137668182D01*
X94448096Y-137750961D01*
X94570085Y-137973000D01*
X96063000Y-137973000D01*
X96063000Y-137953000D01*
X96317000Y-137953000D01*
X96317000Y-137973000D01*
X96337000Y-137973000D01*
X96337000Y-138227000D01*
X96317000Y-138227000D01*
X96317000Y-138247000D01*
X96063000Y-138247000D01*
X96063000Y-138227000D01*
X94570085Y-138227000D01*
X94448096Y-138449039D01*
X94465633Y-138531818D01*
X94576285Y-138791646D01*
X94735500Y-139024895D01*
X94937161Y-139222601D01*
X95169414Y-139374483D01*
X95037246Y-139444758D01*
X94820213Y-139621766D01*
X94641694Y-139837558D01*
X94508489Y-140083915D01*
X94425673Y-140351453D01*
X94396398Y-140629982D01*
X94421781Y-140908892D01*
X94500854Y-141177560D01*
X94630606Y-141425753D01*
X94806095Y-141644017D01*
X95020635Y-141824038D01*
X95177415Y-141910228D01*
X95037246Y-141984758D01*
X94820213Y-142161766D01*
X94641694Y-142377558D01*
X94508489Y-142623915D01*
X94425673Y-142891453D01*
X94396398Y-143169982D01*
X94421781Y-143448892D01*
X94500854Y-143717560D01*
X94630606Y-143965753D01*
X94806095Y-144184017D01*
X95020635Y-144364038D01*
X95177415Y-144450228D01*
X95037246Y-144524758D01*
X94825889Y-144697137D01*
X93929400Y-143800648D01*
X93929400Y-133327752D01*
X94178424Y-133576776D01*
X94178424Y-133576776D01*
G37*
X94178424Y-133576776D02*
X94234630Y-133622944D01*
X94290345Y-133669694D01*
X94293973Y-133671689D01*
X94297173Y-133674317D01*
X94361287Y-133708695D01*
X94425010Y-133743727D01*
X94428955Y-133744979D01*
X94432606Y-133746936D01*
X94502206Y-133768215D01*
X94571490Y-133790193D01*
X94575601Y-133790654D01*
X94579565Y-133791866D01*
X94625801Y-133796563D01*
X94630606Y-133805753D01*
X94806095Y-134024017D01*
X95020635Y-134204038D01*
X95177415Y-134290228D01*
X95037246Y-134364758D01*
X94820213Y-134541766D01*
X94641694Y-134757558D01*
X94508489Y-135003915D01*
X94425673Y-135271453D01*
X94396398Y-135549982D01*
X94421781Y-135828892D01*
X94500854Y-136097560D01*
X94630606Y-136345753D01*
X94806095Y-136564017D01*
X95020635Y-136744038D01*
X95169154Y-136825687D01*
X94937161Y-136977399D01*
X94735500Y-137175105D01*
X94576285Y-137408354D01*
X94465633Y-137668182D01*
X94448096Y-137750961D01*
X94570085Y-137973000D01*
X96063000Y-137973000D01*
X96063000Y-137953000D01*
X96317000Y-137953000D01*
X96317000Y-137973000D01*
X96337000Y-137973000D01*
X96337000Y-138227000D01*
X96317000Y-138227000D01*
X96317000Y-138247000D01*
X96063000Y-138247000D01*
X96063000Y-138227000D01*
X94570085Y-138227000D01*
X94448096Y-138449039D01*
X94465633Y-138531818D01*
X94576285Y-138791646D01*
X94735500Y-139024895D01*
X94937161Y-139222601D01*
X95169414Y-139374483D01*
X95037246Y-139444758D01*
X94820213Y-139621766D01*
X94641694Y-139837558D01*
X94508489Y-140083915D01*
X94425673Y-140351453D01*
X94396398Y-140629982D01*
X94421781Y-140908892D01*
X94500854Y-141177560D01*
X94630606Y-141425753D01*
X94806095Y-141644017D01*
X95020635Y-141824038D01*
X95177415Y-141910228D01*
X95037246Y-141984758D01*
X94820213Y-142161766D01*
X94641694Y-142377558D01*
X94508489Y-142623915D01*
X94425673Y-142891453D01*
X94396398Y-143169982D01*
X94421781Y-143448892D01*
X94500854Y-143717560D01*
X94630606Y-143965753D01*
X94806095Y-144184017D01*
X95020635Y-144364038D01*
X95177415Y-144450228D01*
X95037246Y-144524758D01*
X94825889Y-144697137D01*
X93929400Y-143800648D01*
X93929400Y-133327752D01*
X94178424Y-133576776D01*
M02*
